<?xml version="1.0" encoding="utf-8"?>
<!-- Generator: Adobe Illustrator 24.1.2, SVG Export Plug-In . SVG Version: 6.00 Build 0)  -->
<svg version="1.1" id="Layer_1" xmlns="http://www.w3.org/2000/svg" xmlns:xlink="http://www.w3.org/1999/xlink" x="0px" y="0px"
	 viewBox="0 0 1099.7 688.6" style="enable-background:new 0 0 1099.7 688.6;" xml:space="preserve">
<style type="text/css">
	.st0{fill:#019639;}
	.st1{fill:#009900;}
	.st2{fill:none;}
	.st3{fill:#FFFFFF;}
</style>
<path class="st0" d="M542.5,9.5h1.1c5.6,2.7,11,5.6,16.3,8.8c60.7,34.9,121.3,69.8,182,104.7c4.8,2.6,7.6,7.8,6.9,13.2
	c-0.1,73.6,0,147.1-0.1,220.6c-0.8,3.5-2.9,6.6-6,8.5c-64.5,37.1-129,74.3-193.5,111.3c-3.2,2.4-7.6,2.7-11,0.6
	c-64.6-37-129.1-74.1-193.5-111.3c-4.3-2-6.9-6.4-6.7-11.2c0-73.5,0-147.1,0-220.6c-0.3-4.7,2.2-9.2,6.5-11.2
	c60.6-34.8,121.2-69.7,181.7-104.6C531.6,15.3,536.9,12.1,542.5,9.5"/>
<path class="st1" d="M256.6,493.5"/>
<line class="st2" x1="228.5" y1="531.2" x2="228.5" y2="490"/>
<path class="st1" d="M114.2,606.4"/>
<g>
	<path class="st0" d="M128.8,616.7"/>
	<path class="st0" d="M124.3,615.1"/>
	<path class="st0" d="M346.4,514.5l-81.7-25.4h-36.2v41.2h0.1l-0.1,22.1V569v17v54.8v3.9c-0.1,9.5,8.4,18.2,17.9,18.3
		c9.6,0.1,18.4-8.7,18.3-18.3v-3.9V586v-17v-16.6l0.1-22.1l44.5,13.9l-0.1,30.6l-32.8,13.9V627l59.8-24.7l10.5-4.3L346.4,514.5z"/>
	<path class="st0" d="M204.4,637.7c2.2,4.3,2.5,8.8,1,13.5c-1.5,4.5-4.4,7.8-8.8,10c-2.5,1.3-5.1,2-7.8,2c-7.3,0-12.6-3.3-15.8-9.8
		l-12.8-25.3h-83l-12.8,25.3c-2.2,4.3-5.5,7.3-10,8.8c-4.7,1.5-9.2,1.2-13.5-1s-7.3-5.5-8.8-10c-1.5-4.7-1.2-9.2,1-13.5l70-140
		c3-5.8,8.3-8.8,15.8-8.8c7.3,0,12.5,2.9,15.5,8.8L204.4,637.7z M142.9,593.2l-24-48.5l-24.3,48.5H142.9z"/>
	<path class="st0" d="M530.2,637.5c2.2,4.3,2.5,8.8,1,13.5c-1.5,4.5-4.4,7.8-8.8,10c-2.5,1.3-5.1,2-7.8,2c-7.3,0-12.6-3.3-15.8-9.8
		L486.2,628H403l-12.8,25.3c-2.2,4.3-5.5,7.3-10,8.8c-4.7,1.5-9.2,1.2-13.5-1s-7.3-5.5-8.8-10c-1.5-4.7-1.2-9.2,1-13.5l70-140
		c3-5.8,8.3-8.8,15.8-8.8c7.3,0,12.5,2.9,15.5,8.8L530.2,637.5z M468.7,593l-24-48.5L420.5,593H468.7z"/>
	<path class="st0" d="M543.5,575.5c0-24.2,8.6-44.8,25.8-61.8c17-17.2,37.6-25.8,61.8-25.8c28.3,0,51.3,11.2,68.8,33.5
		c3,3.8,4.3,8.1,3.8,12.8c-0.7,4.8-2.9,8.8-6.8,11.8c-3.8,3-8.1,4.2-12.8,3.5c-4.8-0.5-8.8-2.7-11.8-6.5c-10.5-13.3-24.3-20-41.3-20
		c-14.5,0-26.8,5.2-37,15.5c-10.3,10.2-15.5,22.5-15.5,37s5.2,26.8,15.5,37c10.2,10.3,22.5,15.5,37,15.5c17,0,30.8-6.7,41.3-20
		c3-3.8,6.9-6,11.8-6.5c4.7-0.7,8.9,0.5,12.8,3.5c3.8,3,6.1,6.9,6.8,11.8c0.5,4.7-0.8,8.9-3.8,12.8C682.2,651.8,659.3,663,631,663
		c-24.2,0-44.8-8.6-61.8-25.8C552,620.3,543.5,599.7,543.5,575.5z"/>
	<path class="st0" d="M744.2,488c4.8,0,9,1.7,12.5,5c3.3,3.5,5,7.7,5,12.5V558h85v-52.5c0-4.8,1.7-9,5-12.5c3.5-3.3,7.7-5,12.5-5
		s9,1.7,12.5,5c3.3,3.5,5,7.7,5,12.5v140c0,4.8-1.7,9-5,12.5c-3.5,3.3-7.7,5-12.5,5s-9-1.7-12.5-5c-3.3-3.5-5-7.7-5-12.5V593h-85
		v52.5c0,4.8-1.7,9-5,12.5c-3.5,3.3-7.7,5-12.5,5s-9-1.7-12.5-5c-3.3-3.5-5-7.7-5-12.5v-140c0-4.8,1.7-9,5-12.5
		C735.2,489.7,739.4,488,744.2,488z"/>
	<path class="st0" d="M934.2,663c-4.8,0-9-1.7-12.5-5c-3.3-3.5-5-7.7-5-12.5v-140c0-4.8,1.7-9,5-12.5c3.5-3.3,7.7-5,12.5-5h120
		c4.8,0,9,1.7,12.5,5c3.3,3.5,5,7.7,5,12.5s-1.7,9-5,12.5c-3.5,3.3-7.7,5-12.5,5H951.7v35h92.5c4.8,0,8.9,1.7,12.3,5
		c3.5,3.5,5.3,7.7,5.3,12.5s-1.8,9-5.3,12.5c-3.3,3.3-7.4,5-12.3,5h-92.5v35h102.5c4.8,0,9,1.7,12.5,5c3.3,3.5,5,7.7,5,12.5
		s-1.7,9-5,12.5c-3.5,3.3-7.7,5-12.5,5H934.2z"/>
</g>
<path class="st3" d="M664.6,330.1c-5.9-14.6-12.2-29-18.1-43.5c-2.6-6.4-5.3-12.7-7.9-19.1c-3-7.3-6-14.6-9.1-21.9
	c-3.1-7.6-6.3-15.2-9.4-22.8c-3-7.2-6-14.5-9-21.7c-2.6-6.2-5.2-12.5-7.7-18.7c-1.9-4.6-3.8-9.2-5.7-13.8
	c-3.3-8.1-6.7-16.1-12.4-22.9c-7.7-9.2-18.5-15.9-30.2-18.2c-0.9-0.2-10.9-1-11.7-1c-0.8,0-10.8,0.8-11.7,1
	c-11.8,2.3-22.6,9-30.2,18.2c-5.7,6.8-9,14.8-12.4,22.9c-1.9,4.6-3.8,9.2-5.7,13.8c-2.6,6.2-5.2,12.5-7.7,18.7c-3,7.2-6,14.5-9,21.7
	c-3.1,7.6-6.3,15.2-9.4,22.8c-3,7.3-6,14.6-9.1,21.9c-2.6,6.4-5.3,12.7-7.9,19.1c0,1.2-1.3,3-1.7,4.1c-0.7,1.6-1.4,3.3-2,4.9
	c-1.2,2.9-2.4,5.8-3.6,8.6c-3.7,8.6-7.3,17.2-10.8,25.9c-2.5,6.2-5.5,12.5-4.1,19.3c0.2,1.2,0.6,2.4,1.1,3.5
	c2.5,5.4,7.6,7.6,13.2,8.3c0.9,0.1,1.7,0.2,2.6,0.2c5,0.3,10.1,0,15-1.1c5.6-1.3,10.7-4,14.9-7.9c5.1-4.6,8.5-10.7,11.4-16.9
	c1.4-3.1,2.7-6.3,4-9.5c0.3-0.8,2.6-7.6,3.2-7.6c0.8,0,1.7,0,2.5,0c2.3,0,4.7,0,7,0c3.5,0,7,0,10.5,0c4.4,0,8.7,0,13.1,0
	c4.9,0,9.8,0,14.8,0c5.2,0,10.3,0,15.5,0c5.1,0,10.2,0,15.3,0c4.7,0,9.4,0,14.1,0c4,0,8,0,12,0c3,0,6,0,9,0c1.7,0,3.4,0,5.1,0
	c0.1,0,0.2,0,0.3,0c0.8,0.2,1,1.5,1.3,2.2c0.9,2.2,1.9,4.5,2.8,6.7c1.9,4.4,4,8.8,6.2,13.1c1.5,3.1,3.4,5.9,5.5,8.6
	c1,1.2,2,2.3,3.2,3.3c4.2,3.8,9.4,6.6,14.9,7.9c4.9,1.1,10,1.4,15,1.1c0.9,0,1.7-0.1,2.6-0.2c5.6-0.7,10.8-2.9,13.2-8.3
	c0.5-1.1,0.9-2.3,1.1-3.5C670.1,342.6,667.1,336.3,664.6,330.1z M501.4,275.3L543.3,174l0.2-0.5l0.2,0.5l41.8,101.2H501.4z"/>
</svg>
