<svg xmlns="http://www.w3.org/2000/svg" viewBox="0 0 182.19 43.48"><defs><style>.cls-1{fill:#ff9825;}.cls-2{fill:#202b3b;}</style></defs><g id="svg8"><g id="layer1"><g id="layer1-1"><path id="path21" class="cls-1" d="M25.81,42,39,39.63l.12,0-6.77-8c-3.72-4.42-6.76-8.06-6.76-8.08s7-19.29,7-19.36S37.35,12.3,44.11,24C50.44,35,55.66,44,55.7,44.11l.09.16h-43ZM0,39.5,7.09,27.2l7.08-12.28L22.43,8l8.28-6.94a1,1,0,0,1-.13.34c-.09.18-4.12,8.84-9,19.23L12.81,39.51H6.4C2.88,39.52,0,39.51,0,39.5Z" transform="translate(0 -1.05)"/></g></g></g><g id="Layer_2" data-name="Layer 2"><path class="cls-2" d="M79.84,26.64H76.65L74,19.75H63.62l-2.45,6.89H58L67.39,2.06h3ZM73.1,17.16,69.24,6.69A10.58,10.58,0,0,1,68.87,5H68.8a9.49,9.49,0,0,1-.4,1.65L64.58,17.16Z" transform="translate(0 -1.05)"/><path class="cls-2" d="M108,26.64h-2.81V16.56a7.63,7.63,0,0,0-.9-4.22,3.41,3.41,0,0,0-3-1.3,3.76,3.76,0,0,0-3.06,1.64A6.33,6.33,0,0,0,97,16.63v10H94.14V16.22c0-3.46-1.34-5.18-4-5.18a3.71,3.71,0,0,0-3,1.55,6.41,6.41,0,0,0-1.2,4v10H83.08V9.09h2.81v2.77H86a6,6,0,0,1,5.45-3.19,5.11,5.11,0,0,1,3.14,1,5,5,0,0,1,1.83,2.63,6.28,6.28,0,0,1,5.83-3.64q5.79,0,5.79,7.15Z" transform="translate(0 -1.05)"/><path class="cls-2" d="M125.88,26.64h-2.81V23.9H123a5.88,5.88,0,0,1-5.4,3.15,5.74,5.74,0,0,1-4.1-1.39A4.79,4.79,0,0,1,112,22q0-4.92,5.8-5.73l5.26-.74q0-4.47-3.62-4.47a8.63,8.63,0,0,0-5.72,2.16V10.32a10.83,10.83,0,0,1,6-1.65q6.19,0,6.19,6.55Zm-2.81-8.88-4.23.58a6.83,6.83,0,0,0-3,1,2.8,2.8,0,0,0-1,2.46,2.68,2.68,0,0,0,.92,2.1,3.56,3.56,0,0,0,2.44.81,4.5,4.5,0,0,0,3.46-1.46,5.24,5.24,0,0,0,1.36-3.71Z" transform="translate(0 -1.05)"/><path class="cls-2" d="M143.42,9.89,133,24.24h10.29v2.4H128.9v-.88l10.39-14.28h-9.41V9.09h13.54Z" transform="translate(0 -1.05)"/><path class="cls-2" d="M154.39,27.05a8.11,8.11,0,0,1-6.21-2.46,9.1,9.1,0,0,1-2.33-6.52,9.51,9.51,0,0,1,2.42-6.91,8.68,8.68,0,0,1,6.53-2.49,7.88,7.88,0,0,1,6.13,2.42,9.58,9.58,0,0,1,2.2,6.7,9.44,9.44,0,0,1-2.37,6.73A8.32,8.32,0,0,1,154.39,27.05Zm.2-16a5.34,5.34,0,0,0-4.28,1.84A7.57,7.57,0,0,0,148.73,18a7.13,7.13,0,0,0,1.6,4.92,5.4,5.4,0,0,0,4.26,1.8,5.15,5.15,0,0,0,4.2-1.76,7.7,7.7,0,0,0,1.46-5,7.84,7.84,0,0,0-1.46-5.08A5.13,5.13,0,0,0,154.59,11Z" transform="translate(0 -1.05)"/><path class="cls-2" d="M182.19,26.64h-2.81v-10q0-5.59-4.08-5.59a4.45,4.45,0,0,0-3.49,1.58,5.9,5.9,0,0,0-1.38,4v10h-2.81V9.09h2.81V12h.07a6.34,6.34,0,0,1,5.76-3.33,5.38,5.38,0,0,1,4.41,1.86,8.35,8.35,0,0,1,1.52,5.38Z" transform="translate(0 -1.05)"/><path class="cls-2" d="M74,33,70.59,44.26H68.72l-2.32-8a5.13,5.13,0,0,1-.17-1h0a5,5,0,0,1-.23,1l-2.51,8.07H61.63L58.23,33h1.89l2.33,8.46a5.59,5.59,0,0,1,.15,1h.09a4.66,4.66,0,0,1,.2-1L65.48,33h1.65l2.33,8.49a6.71,6.71,0,0,1,.16,1h.09a4.3,4.3,0,0,1,.19-1L72.18,33Z" transform="translate(0 -1.05)"/><path class="cls-2" d="M85.09,39.09H77.15a4.19,4.19,0,0,0,1,2.9,3.48,3.48,0,0,0,2.66,1,5.55,5.55,0,0,0,3.49-1.25v1.69a6.52,6.52,0,0,1-3.92,1.08A4.77,4.77,0,0,1,76.64,43a6.29,6.29,0,0,1-1.36-4.32,6.18,6.18,0,0,1,1.49-4.28,4.77,4.77,0,0,1,3.7-1.65,4.22,4.22,0,0,1,3.41,1.43,5.92,5.92,0,0,1,1.21,4Zm-1.84-1.53a3.66,3.66,0,0,0-.76-2.43,2.58,2.58,0,0,0-2.06-.86,2.89,2.89,0,0,0-2.16.91,4.16,4.16,0,0,0-1.1,2.38Z" transform="translate(0 -1.05)"/><path class="cls-2" d="M89.66,42.64h0v1.62h-1.8V27.61h1.8V35h0a4.27,4.27,0,0,1,3.89-2.24,4.12,4.12,0,0,1,3.39,1.51,6.23,6.23,0,0,1,1.22,4.05,7,7,0,0,1-1.37,4.52A4.58,4.58,0,0,1,93,44.53,3.7,3.7,0,0,1,89.66,42.64Zm0-4.54v1.57a3.37,3.37,0,0,0,.9,2.37,3.24,3.24,0,0,0,4.87-.28,5.75,5.75,0,0,0,.93-3.48,4.53,4.53,0,0,0-.87-3,2.87,2.87,0,0,0-2.35-1.06,3.19,3.19,0,0,0-2.53,1.09A4,4,0,0,0,89.62,38.1Z" transform="translate(0 -1.05)"/><path class="cls-2" d="M106.53,43.86V41.92A5.3,5.3,0,0,0,109.77,43c1.58,0,2.37-.53,2.37-1.58a1.39,1.39,0,0,0-.2-.76,2.09,2.09,0,0,0-.55-.56,4.18,4.18,0,0,0-.82-.43l-1-.4a12.75,12.75,0,0,1-1.31-.6,3.92,3.92,0,0,1-1-.68,2.63,2.63,0,0,1-.57-.87,3,3,0,0,1-.19-1.13,2.73,2.73,0,0,1,.36-1.4,3.14,3.14,0,0,1,1-1,4.58,4.58,0,0,1,1.38-.62,6.05,6.05,0,0,1,1.6-.21,6.4,6.4,0,0,1,2.61.51v1.82a5.12,5.12,0,0,0-2.86-.81,3.66,3.66,0,0,0-.91.11,2.39,2.39,0,0,0-.7.33,1.53,1.53,0,0,0-.45.5,1.35,1.35,0,0,0-.16.64,1.58,1.58,0,0,0,.16.73,1.68,1.68,0,0,0,.47.53,3.13,3.13,0,0,0,.75.42l1,.41a14.51,14.51,0,0,1,1.34.58,5.23,5.23,0,0,1,1,.68,2.72,2.72,0,0,1,.64.88,3.05,3.05,0,0,1-.14,2.62,3.24,3.24,0,0,1-1,1,4.48,4.48,0,0,1-1.41.6,7.15,7.15,0,0,1-1.68.2A6.46,6.46,0,0,1,106.53,43.86Z" transform="translate(0 -1.05)"/><path class="cls-2" d="M125.8,39.09h-8a4.23,4.23,0,0,0,1,2.9,3.5,3.5,0,0,0,2.66,1,5.58,5.58,0,0,0,3.5-1.25v1.69a6.53,6.53,0,0,1-3.93,1.08A4.75,4.75,0,0,1,117.35,43,6.29,6.29,0,0,1,116,38.68a6.17,6.17,0,0,1,1.48-4.28,4.8,4.8,0,0,1,3.7-1.65,4.25,4.25,0,0,1,3.42,1.43,6,6,0,0,1,1.21,4ZM124,37.56a3.71,3.71,0,0,0-.75-2.43,2.59,2.59,0,0,0-2.06-.86,2.92,2.92,0,0,0-2.17.91,4.16,4.16,0,0,0-1.1,2.38Z" transform="translate(0 -1.05)"/><path class="cls-2" d="M134.39,34.84a2.22,2.22,0,0,0-1.36-.36,2.3,2.3,0,0,0-1.93,1.08,5,5,0,0,0-.78,3v5.73h-1.8V33h1.8v2.32h.05a3.84,3.84,0,0,1,1.17-1.85,2.7,2.7,0,0,1,1.77-.66,3,3,0,0,1,1.08.15Z" transform="translate(0 -1.05)"/><path class="cls-2" d="M145.19,33l-4.48,11.25h-1.77L134.67,33h2l2.86,8.18a7.29,7.29,0,0,1,.39,1.57h0a7.47,7.47,0,0,1,.35-1.53l3-8.22Z" transform="translate(0 -1.05)"/><path class="cls-2" d="M148,30.16a1.14,1.14,0,0,1-.82-.33,1.11,1.11,0,0,1-.34-.84A1.14,1.14,0,0,1,148,27.82a1.17,1.17,0,0,1,.84.33,1.15,1.15,0,0,1,.35.84,1.13,1.13,0,0,1-.35.83A1.18,1.18,0,0,1,148,30.16Zm.88,14.1h-1.8V33h1.8Z" transform="translate(0 -1.05)"/><path class="cls-2" d="M160.24,43.75a5.87,5.87,0,0,1-3.08.78A5.06,5.06,0,0,1,153.28,43a5.64,5.64,0,0,1-1.48-4.06,6.23,6.23,0,0,1,1.59-4.46,5.57,5.57,0,0,1,4.26-1.69,5.83,5.83,0,0,1,2.61.55v1.85a4.55,4.55,0,0,0-2.68-.88,3.64,3.64,0,0,0-2.83,1.23,4.74,4.74,0,0,0-1.1,3.25,4.42,4.42,0,0,0,1,3.12A3.58,3.58,0,0,0,157.47,43a4.49,4.49,0,0,0,2.77-1Z" transform="translate(0 -1.05)"/><path class="cls-2" d="M172,39.09h-7.95a4.23,4.23,0,0,0,1,2.9,3.5,3.5,0,0,0,2.66,1,5.58,5.58,0,0,0,3.5-1.25v1.69a6.53,6.53,0,0,1-3.93,1.08A4.75,4.75,0,0,1,163.56,43a6.29,6.29,0,0,1-1.37-4.32,6.18,6.18,0,0,1,1.49-4.28,4.8,4.8,0,0,1,3.7-1.65,4.25,4.25,0,0,1,3.42,1.43,6,6,0,0,1,1.21,4Zm-1.85-1.53a3.71,3.71,0,0,0-.75-2.43,2.59,2.59,0,0,0-2.06-.86,2.92,2.92,0,0,0-2.17.91,4.16,4.16,0,0,0-1.1,2.38Z" transform="translate(0 -1.05)"/><path class="cls-2" d="M174.05,43.86V41.92A5.3,5.3,0,0,0,177.29,43c1.58,0,2.37-.53,2.37-1.58a1.31,1.31,0,0,0-.2-.76,2.09,2.09,0,0,0-.55-.56,4.38,4.38,0,0,0-.81-.43l-1-.4a13.81,13.81,0,0,1-1.31-.6,4.13,4.13,0,0,1-.95-.68,2.63,2.63,0,0,1-.57-.87,3.22,3.22,0,0,1-.19-1.13,2.73,2.73,0,0,1,.36-1.4,3.37,3.37,0,0,1,1-1,4.58,4.58,0,0,1,1.38-.62,6.11,6.11,0,0,1,1.6-.21,6.4,6.4,0,0,1,2.61.51v1.82a5.09,5.09,0,0,0-2.85-.81,3.74,3.74,0,0,0-.92.11,2.21,2.21,0,0,0-.69.33,1.34,1.34,0,0,0-.45.5,1.24,1.24,0,0,0-.16.64,1.46,1.46,0,0,0,.16.73,1.53,1.53,0,0,0,.46.53,3.34,3.34,0,0,0,.75.42l1,.41a13.42,13.42,0,0,1,1.34.58,4.94,4.94,0,0,1,1,.68,2.72,2.72,0,0,1,.64.88,2.81,2.81,0,0,1,.23,1.17,2.72,2.72,0,0,1-.37,1.45,3.11,3.11,0,0,1-1,1,4.44,4.44,0,0,1-1.42.6,7,7,0,0,1-1.68.2A6.46,6.46,0,0,1,174.05,43.86Z" transform="translate(0 -1.05)"/></g></svg>
