<svg id="Layer_1" data-name="Layer 1" xmlns="http://www.w3.org/2000/svg" viewBox="0 0 400.47 176.61"><defs><style>.cls-1,.cls-2{fill:#008bd3;}.cls-1{fill-rule:evenodd;}</style></defs><path class="cls-1" d="M363.73,143.7C319.91,168,256.24,180.9,201.5,180.9c-76.72,0-145.85-21.3-198.06-56.7-4.13-2.8-.4-6.6,4.53-4.4,56.47,24.6,126.14,39.5,198.19,39.5,48.62,0,102-7.6,151.18-23.2C364.66,133.6,370.92,139.7,363.73,143.7Z" transform="translate(-1.67 -4.29)"/><path class="cls-1" d="M382,128.1c-5.6-5.4-37-2.6-51.28-1.3-4.26.4-4.93-2.4-1.07-4.5,25-13.2,66.2-9.4,71-5s-1.34,35.4-24.78,50.2c-3.59,2.3-7.06,1.1-5.46-1.9C375.72,155.7,387.57,133.4,382,128.1Z" transform="translate(-1.67 -4.29)"/><path class="cls-2" d="M69.39,93.21a11,11,0,0,1-2.21.67c-1.52,0-4.07-5.93-4.92-10.18-3.39,3.4-9.33,10.18-22.06,10.18-15.61,0-25.45-10.18-25.45-26.13,0-28.67,30.88-28.67,44.29-28.67V33.82c0-7.64-1.36-12.56-12-12.56-9.5,0-18.83,5.09-21,5.09-.85,0-1.53-1-1.7-1.69L20.86,14.31a4.53,4.53,0,0,1-.51-2c0-3.9,16.8-8,29.86-8C71.42,4.29,79.4,14,79.4,31.61V64.36c0,16.46,4.41,18.67,4.41,22.06,0,.68-.68,1.19-1.53,1.53ZM59,53c-4.24,0-23.93-1.36-23.93,13.58,0,6.61,4.75,11.53,11.2,11.53C52.59,78.1,57,73.69,59,71.66Z" transform="translate(-1.67 -4.29)"/><path class="cls-2" d="M155.08,88.79A3.28,3.28,0,0,1,152.7,91H96.2a1.61,1.61,0,0,1-1.7-1.7V76.58l39-51.58H99.25c-.85,0-1.19-1-1.19-2.21V9.55c0-1.69.51-2.37,2.38-2.37h53.79c1.36,0,2.88.68,2.88,1.7V22.11L118.77,73.18h38.68c3.23,0,3.23,1.19,3.23,1.7a3.92,3.92,0,0,1-.68,1.87Z" transform="translate(-1.67 -4.29)"/><path class="cls-2" d="M230.08,93.38a8.65,8.65,0,0,1-2.55.5c-2.2,0-3.56-3.22-5.43-10a37.14,37.14,0,0,1-26,10c-9.33,0-22.06-4.24-22.06-24.77V10.74c0-2.37,1.19-2.54,3.23-3L191.56,4.8c.51,0,2.2-.51,2.71-.51,1,0,1.36.68,1.36,3.57v54c0,6.44.85,14.25,9.5,14.25,7.13,0,12.73-3.73,14.93-5.26V10.74c0-2.37,1.19-2.54,3.23-3L237.54,4.8c.51,0,2.21-.51,2.89-.51.84,0,1.18.68,1.18,3.57V60.8c0,23.92,3.23,22.56,3.23,26.47,0,.85-.68,1.52-1.87,1.86Z" transform="translate(-1.67 -4.29)"/><path class="cls-2" d="M287.26,88.62c0,1.87-.34,2.38-2.38,2.38h-16.8c-2,0-2.37-.51-2.37-2.38V37.38c0-18.66-4.41-21.72-4.41-25.62,0-.68.68-1.19,1.52-1.53L275.72,5a11,11,0,0,1,2.21-.68c2,0,5.43,7.64,6.27,13.41,3.23-3.9,9.51-13.41,21-13.41,4.92,0,9.84,1.7,9.84,3.91a4.23,4.23,0,0,1-.33,1.69l-5.26,14.26c-.17.51-.68,1.52-1.36,1.52-1,0-4.07-1.86-8-1.86-5.26,0-10.69,5.77-12.89,8.14Z" transform="translate(-1.67 -4.29)"/><path class="cls-2" d="M385.33,82a3.42,3.42,0,0,1,.51,1.86c0,4.42-17,10-30.37,10-22.4,0-38-12.72-38-43.94,0-27,14.42-45.65,37.16-45.65,28.85,0,33.94,25.8,33.94,46.33,0,3.22-.68,4.24-3.9,4.24H339c0,9.5,2.72,21.21,18.67,21.21,12.21,0,19.17-5.6,21.55-5.6a2.26,2.26,0,0,1,1.86,1.36ZM365.65,39.08c0-7-.51-19-12.22-19-13.23,0-13.91,14.26-14.42,19Z" transform="translate(-1.67 -4.29)"/></svg>
