<?xml version="1.0" encoding="UTF-8" standalone="no"?>
<!-- Created with Inkscape (http://www.inkscape.org/) -->

<svg
   width="147.45207mm"
   height="36.765106mm"
   viewBox="0 0 147.45207 36.765106"
   version="1.1"
   id="svg27998"
   xmlns="http://www.w3.org/2000/svg"
   xmlns:svg="http://www.w3.org/2000/svg">
  <defs
     id="defs27995">
    <linearGradient
       id="vlpc"
       x1="151"
       x2="112"
       y1="192.39999"
       y2="137.3"
       gradientTransform="matrix(0.14882812,0,0,0.15028333,20.599606,89.961564)"
       gradientUnits="userSpaceOnUse">
      <stop
         style="stop-color:#ffd43b"
         offset="0"
         id="stop28079" />
      <stop
         style="stop-color:#ffe873"
         offset="1"
         id="stop28081" />
    </linearGradient>
    <linearGradient
       id="vlpb"
       x1="26.65"
       x2="135.7"
       y1="20.6"
       y2="114.4"
       gradientTransform="matrix(0.14882812,0,0,0.15028333,20.599606,89.961564)"
       gradientUnits="userSpaceOnUse">
      <stop
         style="stop-color:#5a9fd4"
         offset="0"
         id="stop28084" />
      <stop
         style="stop-color:#306998"
         offset="1"
         id="stop28086" />
    </linearGradient>
    <radialGradient
       id="vlpa"
       cx="61.52"
       cy="132.3"
       r="29.040001"
       gradientTransform="matrix(0,-0.06348301,0.2791094,1.0032201e-7,2.4275332,130.74569)"
       gradientUnits="userSpaceOnUse">
      <stop
         style="stop-color:#b8b8b8;stop-opacity:.498"
         offset="0"
         id="stop28089" />
      <stop
         style="stop-color:#7f7f7f;stop-opacity:0"
         offset="1"
         id="stop28091" />
    </radialGradient>
  </defs>
  <g
     id="layer1"
     transform="translate(-24.566346,-91.925955)">
    <path
       d="m 39.096626,93.057982 c -1.21285,0.0056 -2.370931,0.109062 -3.389312,0.289455 -3.003021,0.530489 -3.548063,1.640416 -3.548063,3.688291 v 2.704042 h 7.09348 v 0.90117 h -7.09348 -2.661708 c -2.061633,0 -3.868208,1.23931 -4.431771,3.59569 -0.651404,2.70139 -0.680243,4.38944 0,7.20989 0.504296,2.10027 1.70868,3.59569 3.770313,3.59569 h 2.439194 v -3.24114 c 0,-2.34157 2.025914,-4.40796 4.43177,-4.40796 h 7.085542 c 1.972469,0 3.548062,-1.62402 3.548062,-3.60363 v -6.75481 c 0,-1.922463 -1.621895,-3.3655 -3.548062,-3.688292 -1.218671,-0.202856 -2.483115,-0.29501 -3.696229,-0.289454 z m -3.836458,2.174611 c 0.732896,0 1.331119,0.608277 1.331119,1.355989 0,0.745067 -0.598488,1.347788 -1.331119,1.347788 -0.735277,0 -1.331119,-0.602456 -1.331119,-1.347788 0,-0.747712 0.595842,-1.355989 1.331119,-1.355989 z"
       style="fill:url(#vlpb);stroke-width:0.264583"
       id="path28108" />
    <path
       d="m 47.224626,100.63882 v 3.15119 c 0,2.44237 -2.070629,4.49792 -4.43177,4.49792 h -7.085542 c -1.940983,0 -3.548063,1.66105 -3.548063,3.60362 v 6.75482 c 0,1.92246 1.671903,3.05329 3.548063,3.60362 2.245519,0.6604 4.400021,0.77973 7.085542,0 1.785937,-0.517 3.548062,-1.55787 3.548062,-3.60362 v -2.70405 h -7.085542 v -0.90117 h 7.085542 3.548062 c 2.061634,0 2.831042,-1.43801 3.548063,-3.59568 0.740569,-2.22224 0.709083,-4.36034 0,-7.2099 -0.509588,-2.05237 -1.482725,-3.59569 -3.548063,-3.59569 h -2.661708 z m -3.984625,17.10796 c 0.735277,0 1.331119,0.60246 1.331119,1.34779 0,0.74771 -0.595842,1.35599 -1.331119,1.35599 -0.732895,0 -1.331118,-0.60828 -1.331118,-1.35599 0,-0.74507 0.598487,-1.34779 1.331118,-1.34779 z"
       style="fill:url(#vlpc);stroke-width:0.264583"
       id="path28110" />
    <path
       d="m 48.848652,126.84761 a 9.507589,1.843449 0 1 1 -19.015178,0 9.507589,1.843449 0 1 1 19.015178,0 z"
       style="opacity:0.4438;fill:url(#vlpa);stroke-width:0.203962"
       id="path28114" />
    <path
       style="fill:#646464;fill-opacity:1;stroke-width:0.127114"
       d="m 67.089028,114.90783 c -1.54315,-0.23885 -3.543966,-1.07834 -4.553621,-1.91058 l -0.47288,-0.38978 0.03255,-9.86151 0.03255,-9.861515 0.847309,-0.285815 c 0.46602,-0.157193 0.966534,-0.323649 1.112254,-0.3699 l 0.264945,-0.08409 v 4.563511 c 0,2.509936 0.03213,4.595649 0.07141,4.634919 0.03928,0.0393 0.31686,-0.0658 0.616858,-0.23345 1.926726,-1.07687 4.187508,-1.203956 6.029314,-0.33893 1.468298,0.6896 2.725402,2.48042 3.147573,4.4839 0.284736,1.35127 0.183476,3.929 -0.202233,5.14815 -0.654642,2.06921 -1.740322,3.52706 -3.134715,4.20927 -0.614767,0.30078 -0.912284,0.3617 -1.881397,0.38527 -0.633133,0.0154 -1.4926,-0.0248 -1.909927,-0.0894 z m 2.490785,-1.78026 c 1.562154,-0.79695 2.505824,-3.86835 2.155049,-7.01413 -0.187705,-1.68335 -0.52971,-2.54006 -1.332533,-3.33795 -0.754573,-0.74994 -1.306776,-0.95418 -2.569273,-0.95031 -0.899905,0.003 -2.169183,0.36078 -2.985798,0.8422 l -0.399628,0.23559 0.02117,4.70325 c 0.0242,5.37602 -0.08939,4.88968 1.26212,5.40373 1.41858,0.53956 2.931213,0.58579 3.848891,0.11762 z m 21.021537,1.7452 c -1.39246,-0.46501 -2.363492,-1.30905 -2.948968,-2.5633 -0.311921,-0.66822 -0.355851,-0.91227 -0.354678,-1.97028 0.0016,-1.41868 0.232516,-2.054 1.081429,-2.97496 1.061227,-1.1513 2.262666,-1.47406 5.48699,-1.47406 h 2.137605 l -0.0028,-0.92158 c -0.0043,-1.42725 -0.566488,-2.38121 -1.713253,-2.90727 -0.818507,-0.37547 -2.417709,-0.3218 -3.686328,0.12371 -0.559305,0.19642 -1.116514,0.40133 -1.238242,0.45536 -0.178674,0.0793 -0.270533,-0.0166 -0.47668,-0.49748 -0.140447,-0.32765 -0.255357,-0.64284 -0.255357,-0.70043 0,-0.19055 1.947234,-0.91928 2.920368,-1.09291 3.026828,-0.540079 5.345549,0.34452 6.305108,2.4054 0.305196,0.65549 0.305651,0.66335 0.306891,5.31247 l 0.0012,4.65601 -0.667353,0.50972 c -1.45858,1.11406 -3.087224,1.68046 -5.052812,1.75726 -0.903501,0.0353 -1.498974,-0.003 -1.843164,-0.11766 z m 3.753351,-1.68543 c 0.316516,-0.0992 0.78843,-0.32507 1.048697,-0.50192 l 0.473216,-0.32156 v -2.47416 -2.47415 h -1.756536 c -2.505988,0 -3.561477,0.36989 -4.182054,1.46557 -0.347221,0.61306 -0.392216,1.85653 -0.09316,2.5744 0.226975,0.54484 0.974168,1.36106 1.497103,1.6354 0.786261,0.41248 1.891442,0.44785 3.01273,0.0964 z m 41.184809,1.65132 c -0.93642,-0.25164 -1.65362,-0.69106 -2.26903,-1.39021 -0.90468,-1.02775 -0.91193,-1.08425 -0.91193,-7.10831 v -5.35202 l 1.2076,-0.39778 1.20759,-0.39777 v 5.31156 c 0,5.74156 0.0188,5.9247 0.70057,6.81852 0.17283,0.22659 0.64362,0.57373 1.0462,0.77142 0.63983,0.31419 0.87597,0.35925 1.876,0.35798 1.06397,-0.001 1.21742,-0.0361 2.19273,-0.49672 l 1.0487,-0.49528 v -6.01791 -6.01791 h 1.20759 1.20759 v 6.16197 6.16196 l -0.98514,0.57746 c -2.47054,1.44817 -5.50239,2.0575 -7.52847,1.51304 z m 15.26807,-0.0506 c -3.03787,-1.09279 -4.80878,-5.35819 -3.83092,-9.22708 0.95076,-3.76162 3.6873,-5.794589 7.12546,-5.29347 0.85833,0.1251 2.9167,0.83038 2.9167,0.99937 0,0.0309 -0.16003,0.33641 -0.35563,0.67889 -0.27411,0.47995 -0.39794,0.59541 -0.54024,0.50371 -0.45619,-0.29399 -1.99818,-0.64938 -2.81761,-0.64938 -1.94902,0 -3.27661,1.28251 -3.91618,3.78318 -0.78734,3.07848 0.18776,6.2976 2.28021,7.52773 0.52057,0.30603 0.70456,0.3416 1.72669,0.33381 1.14291,-0.009 1.46013,-0.0995 3.56407,-1.02053 0.10874,-0.0476 0.69427,0.93747 0.69427,1.16801 0,0.16003 -2.17261,1.05878 -3.01229,1.24608 -1.26756,0.28276 -2.97072,0.26041 -3.83453,-0.0503 z m -73.489725,-5.8979 v -5.89808 l 0.718053,-0.65626 c 1.453384,-1.32831 3.806607,-2.19037 5.99231,-2.19517 0.719391,-10e-4 1.345856,0.035 1.392143,0.0813 0.04629,0.0463 -0.124463,0.50579 -0.379447,1.0211 l -0.46361,0.93694 -0.547191,-0.12684 c -1.15083,-0.26677 -2.800562,0.11935 -3.922118,0.91797 l -0.374959,0.26699 v 5.77507 5.77507 h -1.20759 -1.207591 z m 24.818065,-0.99789 0.0329,-6.89598 1.17581,-0.40748 1.17581,-0.40748 v 7.30346 7.30345 h -1.20868 -1.20869 z m 6.3267,0.76268 0.002,-6.13328 0.9492,-0.61756 c 1.19368,-0.77661 2.21377,-1.19051 3.67989,-1.4931 2.00926,-0.414693 3.55715,-0.26111 4.9369,0.48984 0.77574,0.42221 1.52378,1.25389 1.72157,1.91405 0.105,0.35045 0.14949,2.20647 0.14949,6.23615 v 5.73719 h -1.13428 -1.13426 l -0.0416,-5.30704 c -0.0399,-5.10022 -0.0521,-5.32934 -0.31154,-5.87906 -0.90537,-1.91818 -3.11235,-2.39503 -5.60906,-1.21193 l -0.92159,0.43671 v 5.98066 5.98066 h -1.14403 -1.14403 l 0.002,-6.13329 z m 15.63348,-0.15889 v -6.29219 h -0.76269 -0.76269 v -0.82624 -0.82625 h 0.76269 0.76269 v -1.467177 c 0,-3.483981 0.99982,-5.510739 3.23433,-6.556394 1.07088,-0.501126 2.81167,-0.737682 3.8405,-0.521886 0.39369,0.08258 0.74551,0.179856 0.78183,0.216167 0.0363,0.03632 -0.0368,0.368574 -0.16252,0.738359 l -0.22853,0.672334 -0.80706,-0.120613 c -1.63632,-0.244546 -2.96619,0.378832 -3.63915,1.705852 -0.42811,0.844209 -0.56161,1.60131 -0.65464,3.712644 l -0.0714,1.620714 h 1.64985 1.64985 v 0.82625 0.82624 h -1.6525 -1.65249 v 6.29219 6.29218 h -1.14403 -1.14403 z m 36.48194,-4.62376 V 92.956333 l 1.13769,-0.39728 c 0.62573,-0.218507 1.16866,-0.397281 1.20652,-0.397281 0.0379,0 0.0836,3.140197 0.10168,6.97821 l 0.0329,6.978218 3.27761,-2.9741 c 1.80269,-1.63575 3.30407,-2.9741 3.3364,-2.9741 0.10933,0 1.07643,0.91858 1.07643,1.02243 0,0.0567 -1.03119,1.03434 -2.29153,2.17259 -1.26033,1.13825 -2.26504,2.13855 -2.23267,2.22289 0.0324,0.0843 1.34956,2.15825 2.92709,4.60868 1.57755,2.45042 2.86826,4.48598 2.86826,4.52346 0,0.0375 -0.61492,0.0658 -1.36648,0.063 l -1.36649,-0.005 -2.4656,-3.8111 c -2.77469,-4.28888 -2.37637,-3.93998 -3.41346,-2.98997 l -0.41312,0.37844 v 3.21649 3.21649 h -1.20759 -1.20759 z M 102.4736,96.828595 c -0.84228,-0.566801 -0.89196,-1.768308 -0.10066,-2.434147 0.79812,-0.671574 2.05936,-0.282806 2.39649,0.738701 0.29995,0.90887 -0.49009,1.986099 -1.4566,1.986099 -0.22402,0 -0.60167,-0.130793 -0.83923,-0.290653 z"
       id="path28153" />
  </g>
</svg>
