<?xml version="1.0" encoding="UTF-8" standalone="no"?>
<svg
   xmlns:dc="http://purl.org/dc/elements/1.1/"
   xmlns:cc="http://creativecommons.org/ns#"
   xmlns:rdf="http://www.w3.org/1999/02/22-rdf-syntax-ns#"
   xmlns:svg="http://www.w3.org/2000/svg"
   xmlns="http://www.w3.org/2000/svg"
   xmlns:sodipodi="http://sodipodi.sourceforge.net/DTD/sodipodi-0.dtd"
   xmlns:inkscape="http://www.inkscape.org/namespaces/inkscape"
   inkscape:version="1.0 (4035a4fb49, 2020-05-01)"
   height="270"
   width="375"
   sodipodi:docname="c++ as scala.svg"
   version="1.1"
   viewBox="0 0 375 270"
   data-name="Layer 1"
   id="Layer_1">
  <metadata
     id="metadata924">
    <rdf:RDF>
      <cc:Work
         rdf:about="">
        <dc:format>image/svg+xml</dc:format>
        <dc:type
           rdf:resource="http://purl.org/dc/dcmitype/StillImage" />
        <dc:title>scala-full-color</dc:title>
      </cc:Work>
    </rdf:RDF>
  </metadata>
  <defs
     id="defs922" />
  <sodipodi:namedview
     inkscape:current-layer="Layer_1"
     inkscape:window-maximized="1"
     inkscape:window-y="-8"
     inkscape:window-x="1912"
     inkscape:cy="122.32601"
     inkscape:cx="193.80863"
     inkscape:zoom="5.6568543"
     inkscape:snap-midpoints="true"
     inkscape:guide-bbox="true"
     showguides="true"
     inkscape:pagecheckerboard="true"
     showgrid="false"
     id="namedview920"
     inkscape:window-height="1377"
     inkscape:window-width="2560"
     inkscape:pageshadow="2"
     inkscape:pageopacity="0"
     guidetolerance="10"
     gridtolerance="10"
     objecttolerance="10"
     borderopacity="1"
     bordercolor="#666666"
     pagecolor="#545454" />
  <title
     id="title895">scala-full-color</title>
  <path
     id="path899"
     style="fill:#380d09;stroke-width:1.37342"
     d="m 289.99986,76.76065 -16.8244,17.552304 a 38.64803,38.64803 0 0 0 -29.17143,-12.539322 34.335492,34.335492 0 0 0 -25.31212,10.259445 38.12613,38.12613 0 0 0 0,51.530703 34.335492,34.335492 0 0 0 25.31212,10.25945 38.64803,38.64803 0 0 0 29.17143,-12.53932 l 16.87933,17.5523 c -12.36077,13.22603 -27.592,19.83218 -46.05076,19.83218 -17.56604,0 -32.38523,-5.69969 -44.45759,-17.33256 -12.07236,-11.63286 -18.01927,-26.21858 -18.01927,-43.5374 0,-17.31882 5.93317,-31.698526 18.01927,-43.317657 12.08609,-11.619123 26.89155,-17.552296 44.45759,-17.552296 18.40382,0 33.67625,6.606149 45.99583,19.832173 z" />
  <path
     id="path907"
     style="fill:#380d09;fill-rule:evenodd"
     d="m 30.55,94.83 c 1.85,2.55 17.45,7.36 40.72,12.37 23.27,4.46 47.47,22.07 66.29,16.64 12.73,-3.68 26.54,-36.47 26.54,-41.34 V 82 c 0,-3.4 -2.55,-6.13 -6.88,-8.4 C 139.47,64.53 136.11,61.19 129.53,63 95.37,72.43 35.06,67.61 30.55,94.83 Z" />
  <path
     id="path909"
     style="fill:#380d09;fill-rule:evenodd"
     d="m 30.55,161.41 c 1.85,2.59 17.45,7.36 40.72,12.38 26,4.74 48.61,20.19 67.44,14.75 12.73,-3.68 25.39,-34.58 25.39,-39.46 v -0.48 c 0,-3.39 -2.55,-6.13 -6.88,-8.39 -13.54,-7.2 -31.43,-15.13 -38,-13.32 C 85,136.3 39.26,138.37 30.55,161.41 Z" />
  <path
     id="path911"
     style="fill:#555555;fill-rule:evenodd"
     d="m 30.36,109.14 v 0.48 0 a 3.73,3.73 0 0 1 0,-0.48 z" />
  <path
     id="path913"
     style="fill:#de3423;fill-rule:evenodd"
     d="M 138.66,28.78 C 107.2,37.87 57.29,43 30.4,43 v 0 51.35 a 0.8,0.8 0 0 0 0.19,0.48 c 18.35,0 75,-6 109.18,-15.4 a 129,129 0 0 0 17.49,-5.81 c 4.18,-1.88 6.88,-3.86 6.88,-5.92 V 15.91 c -0.04,4.88 -12.75,9.2 -25.48,12.87 z" />
  <path
     id="path915"
     style="fill:#de3423;fill-rule:evenodd"
     d="m 138.66,95.37 c -18.83,5.43 -44.24,9.47 -67.39,11.83 -15.54,1.59 -30.06,2.42 -40.87,2.42 v 0 51.31 a 0.8,0.8 0 0 0 0.19,0.48 c 18.35,0 75,-6 109.18,-15.39 a 130.38,130.38 0 0 0 17.49,-5.81 c 4.18,-1.89 6.88,-3.86 6.88,-5.92 V 82.5 c -0.04,4.87 -12.75,9.19 -25.48,12.87 z" />
  <path
     id="path917"
     style="fill:#de3423;fill-rule:evenodd"
     d="m 138.66,162 c -18.83,5.43 -44.24,9.46 -67.39,11.83 -15.56,1.59 -30.1,2.42 -40.91,2.42 V 228 c 18.16,0 75.1,-5.95 109.37,-15.39 12.63,-3.48 24.37,-7.44 24.37,-11.74 v -51.79 c 0,4.92 -12.71,9.2 -25.44,12.92 z" />
  <path
     sodipodi:nodetypes="ccccc"
     d="m 313.74625,110.2507 -0.0174,8.42475 -32.16817,-0.09 v -8.40207 z"
     style="fill:#380d09;stroke-width:0.391207"
     id="path1500" />
  <path
     id="path1516"
     style="fill:#380d09;stroke-width:0.391207"
     d="m 301.83219,130.52218 -8.42475,-0.0174 0.09,-32.168176 h 8.40208 z"
     sodipodi:nodetypes="ccccc" />
  <path
     id="path1530"
     style="fill:#380d09;stroke-width:0.391207"
     d="m 351.2261,110.242 -0.0174,8.42475 -32.16817,-0.09 v -8.40207 z"
     sodipodi:nodetypes="ccccc" />
  <path
     sodipodi:nodetypes="ccccc"
     d="m 339.31204,130.51348 -8.42475,-0.0174 0.09,-32.168178 h 8.40208 z"
     style="fill:#380d09;stroke-width:0.391207"
     id="path1532" />
</svg>
