<?xml version="1.0" encoding="UTF-8" standalone="no"?>
<!-- Created with Inkscape (http://www.inkscape.org/) -->

<svg
   width="724"
   height="232"
   viewBox="0 0 724.00001 232.00001"
   version="1.1"
   id="svg1"
   xml:space="preserve"
   inkscape:version="1.3.2 (091e20ef0f, 2023-11-25)"
   sodipodi:docname="coreboot.svg"
   inkscape:export-filename="coreboot.webp"
   inkscape:export-xdpi="300"
   inkscape:export-ydpi="300"
   xmlns:inkscape="http://www.inkscape.org/namespaces/inkscape"
   xmlns:sodipodi="http://sodipodi.sourceforge.net/DTD/sodipodi-0.dtd"
   xmlns="http://www.w3.org/2000/svg"
   xmlns:svg="http://www.w3.org/2000/svg"><sodipodi:namedview
     id="namedview1"
     pagecolor="#ffffff"
     bordercolor="#999999"
     borderopacity="1"
     inkscape:showpageshadow="2"
     inkscape:pageopacity="0"
     inkscape:pagecheckerboard="0"
     inkscape:deskcolor="#d1d1d1"
     inkscape:document-units="mm"
     inkscape:zoom="2.0756874"
     inkscape:cx="402.27637"
     inkscape:cy="226.6719"
     inkscape:window-width="2560"
     inkscape:window-height="1371"
     inkscape:window-x="0"
     inkscape:window-y="0"
     inkscape:window-maximized="1"
     inkscape:current-layer="layer1" /><g
     inkscape:label="Layer 1"
     inkscape:groupmode="layer"
     id="layer1"
     style="display:inline"><rect
       style="display:inline;fill:#fefeff;fill-opacity:1;stroke:none;stroke-width:1.82641;stroke-linecap:round;stroke-linejoin:miter;stroke-dasharray:none;stroke-dashoffset:32.6846;stroke-opacity:1;paint-order:fill markers stroke"
       id="rect61"
       height="232"
       x="0"
       y="0"
       width="724"
       inkscape:label="background" /><g
       id="g61"
       inkscape:label="squares"
       transform="translate(-1.9265354,-0.00181102)"
       style="display:inline"><rect
         style="fill:#d8dbe2;fill-opacity:1;stroke:none;stroke-width:0.395352;stroke-linejoin:round;stroke-dasharray:0.395352, 4.74423;stroke-dashoffset:0;stroke-opacity:1;paint-order:markers stroke fill"
         id="rect1-5"
         width="46"
         height="46"
         x="13.25"
         y="16.25"
         inkscape:label="rect1" /><rect
         style="fill:#7e87a1;fill-opacity:1;stroke:none;stroke-width:0.395352;stroke-linejoin:round;stroke-dasharray:0.395352, 4.74423;stroke-dashoffset:0;stroke-opacity:1;paint-order:markers stroke fill"
         id="rect2-9"
         width="46"
         height="46"
         x="13.25"
         y="68.349998" /><rect
         style="fill:#404d73;fill-opacity:1;stroke:none;stroke-width:0.395352;stroke-linejoin:round;stroke-dasharray:0.395352, 4.74423;stroke-dashoffset:0;stroke-opacity:1;paint-order:markers stroke fill"
         id="rect3-6"
         width="46"
         height="46"
         x="13.25"
         y="120.45" /><rect
         style="fill:#011244;fill-opacity:1;stroke:none;stroke-width:0.395352;stroke-linejoin:round;stroke-dasharray:0.395352, 4.74423;stroke-dashoffset:0;stroke-opacity:1;paint-order:markers stroke fill"
         id="rect4-2"
         width="46"
         height="46"
         x="13.25"
         y="172.55" /><rect
         style="fill:#bec3d0;fill-opacity:1;stroke:none;stroke-width:0.395352;stroke-linejoin:round;stroke-dasharray:0.395352, 4.74423;stroke-dashoffset:0;stroke-opacity:1;paint-order:markers stroke fill"
         id="rect5-1"
         width="46"
         height="46"
         x="65.349998"
         y="68.349998" /><rect
         style="fill:#7e87a1;fill-opacity:1;stroke:none;stroke-width:0.395352;stroke-linejoin:round;stroke-dasharray:0.395352, 4.74423;stroke-dashoffset:0;stroke-opacity:1;paint-order:markers stroke fill"
         id="rect6-7"
         width="46"
         height="46"
         x="65.349998"
         y="120.45" /><rect
         style="fill:#404d73;fill-opacity:1;stroke:none;stroke-width:0.395352;stroke-linejoin:round;stroke-dasharray:0.395352, 4.74423;stroke-dashoffset:0;stroke-opacity:1;paint-order:markers stroke fill"
         id="rect7-8"
         width="46"
         height="46"
         x="65.349998"
         y="172.55" /><rect
         style="fill:#bec3d0;fill-opacity:1;stroke:none;stroke-width:0.395352;stroke-linejoin:round;stroke-dasharray:0.395352, 4.74423;stroke-dashoffset:0;stroke-opacity:1;paint-order:markers stroke fill"
         id="rect8-5"
         width="46"
         height="46"
         x="117.45"
         y="120.45" /><rect
         style="fill:#7e87a1;fill-opacity:1;stroke:none;stroke-width:0.395352;stroke-linejoin:round;stroke-dasharray:0.395352, 4.74423;stroke-dashoffset:0;stroke-opacity:1;paint-order:markers stroke fill"
         id="rect9-7"
         width="46"
         height="46"
         x="117.45"
         y="172.55" /><rect
         style="fill:#bec3d0;fill-opacity:1;stroke:none;stroke-width:0.395352;stroke-linejoin:round;stroke-dasharray:0.395352, 4.74423;stroke-dashoffset:0;stroke-opacity:1;paint-order:markers stroke fill"
         id="rect10-4"
         width="46"
         height="46"
         x="169.55"
         y="172.55" /><rect
         style="fill:#d8dbe2;fill-opacity:1;stroke:none;stroke-width:0.395352;stroke-linejoin:round;stroke-dasharray:0.395352, 4.74423;stroke-dashoffset:0;stroke-opacity:1;paint-order:markers stroke fill"
         id="rect11-1"
         width="46"
         height="46"
         x="221.64999"
         y="172.55" /><rect
         style="fill:#f2f3f5;fill-opacity:1;stroke:none;stroke-width:0.395352;stroke-linejoin:round;stroke-dasharray:0.395352, 4.74423;stroke-dashoffset:0;stroke-opacity:1;paint-order:markers stroke fill"
         id="rect12-8"
         width="46"
         height="46"
         x="273.75"
         y="172.55" /></g><g
       id="text26"
       style="font-weight:bold;font-size:30.2026px;line-height:17.9787px;font-family:'ER Univers KOI-8';-inkscape-font-specification:'ER Univers KOI-8, Bold';letter-spacing:0.781486px;word-spacing:0px;fill:#000d41;stroke-width:4.25497;stroke-linejoin:round"
       inkscape:label="subtitle"
       transform="scale(0.93829572,1.0657621)"
       aria-label="Open Extended Firmware Platform "><path
         d="m 262.91232,182.43002 q 0,1.66646 -0.35394,3.14119 -0.35394,1.45999 -1.06181,2.802 -1.41575,2.63978 -4.07027,4.02603 -2.63978,1.38625 -5.6335,1.38625 -3.28866,0 -5.8547,-1.48948 -2.55129,-1.50423 -3.93755,-4.15876 -1.31251,-2.53654 -1.31251,-5.45652 0,-2.69877 0.78161,-4.82239 0.78161,-2.13837 2.31534,-3.68684 3.08219,-3.12644 8.02256,-3.12644 1.62221,0 3.05271,0.35394 1.43049,0.35393 2.72826,1.10605 2.55129,1.41574 3.96704,4.08502 0.66363,1.26827 1.00282,2.75775 0.35394,1.48949 0.35394,3.0822 z m -4.49795,0 q 0,-1.19453 -0.20646,-2.18261 -0.20647,-0.98807 -0.63414,-1.90241 -0.76686,-1.63695 -2.31534,-2.55129 -1.53372,-0.92908 -3.43613,-0.92908 -2.74301,0 -4.68966,1.76968 -1.94665,1.76968 -1.94665,6.09066 0,3.42139 1.87291,5.33855 1.88766,1.91715 4.71916,1.91715 2.87573,0 4.74865,-1.9319 1.88766,-1.93191 1.88766,-5.61875 z m 22.93203,2.97897 q 0,2.49231 -0.95858,4.46845 -0.94383,1.9614 -2.802,3.06745 -1.84342,1.10606 -3.84906,1.10606 -1.53373,0 -2.75776,-0.63414 -0.13273,-0.059 -0.29495,-0.14747 -0.059,-0.0295 -0.2802,-0.16223 v 6.31188 h -4.203 v -22.04731 h 3.96704 v 0.79636 q 0.35394,-0.26546 0.76687,-0.47192 1.19453,-0.66363 2.97896,-0.66363 2.2711,0 3.98179,1.0913 1.7107,1.09131 2.61029,3.09695 0.39818,0.94383 0.61939,2.00564 0.22121,1.06181 0.22121,2.18261 z m -4.26199,0 q 0,-1.29777 -0.26545,-2.22685 -0.25071,-0.92909 -0.81111,-1.56322 -0.97333,-1.1503 -2.34483,-1.1503 -1.31252,0 -2.38907,1.23878 -1.1208,1.31252 -1.1208,3.90805 0,1.29777 0.23595,2.2416 0.25071,0.92909 0.79636,1.53373 0.98808,1.1208 2.38908,1.1208 1.401,0 2.40382,-1.16504 0.5604,-0.61939 0.82585,-1.59272 0.2802,-0.98807 0.2802,-2.34483 z m 23.30071,2.27109 q -0.54565,1.82868 -1.22403,2.90524 -0.67838,1.06181 -1.7107,1.79917 -0.97332,0.67838 -2.2121,1.03232 -1.22403,0.35394 -2.74301,0.35394 -1.90241,0 -3.39189,-0.54566 -1.48949,-0.54565 -2.61029,-1.6517 -1.1208,-1.10605 -1.6812,-2.59554 -0.54565,-1.50423 -0.54565,-3.46563 0,-3.95229 2.2416,-6.20864 2.25635,-2.27109 5.83996,-2.27109 3.49512,0 5.69248,2.2121 2.2121,2.21211 2.2121,6.12016 l -0.059,1.401 h -11.56193 q 0.23596,1.54847 1.16504,2.44806 1.10605,1.07656 2.71352,1.07656 1.20928,0 2.03513,-0.5899 0.44242,-0.30969 0.79636,-0.85534 0.35394,-0.5604 0.78161,-1.65171 z m -4.60118,-4.40946 q -0.22121,-1.03231 -0.72262,-1.59271 -1.03231,-1.16504 -2.68402,-1.16504 -0.78161,0 -1.401,0.22121 -0.60464,0.22121 -1.13555,0.72262 -0.78161,0.69312 -1.03231,1.81392 z m 21.66375,10.14619 h -4.203 v -9.61528 q 0,-1.31252 -0.26545,-2.00564 -0.10323,-0.25071 -0.30969,-0.44242 -0.19172,-0.20647 -0.48667,-0.38344 -0.60464,-0.35393 -1.43049,-0.35393 -1.41575,0 -2.43331,0.82585 -0.48667,0.39818 -0.72263,1.22403 -0.22121,0.82585 -0.22121,2.04988 v 8.70095 h -4.20299 v -16.05988 h 3.93754 v 0.94383 q 1.72544,-1.26827 4.203,-1.26827 0.89959,0 1.56322,0.11798 0.66363,0.10323 1.34201,0.39818 1.401,0.54565 2.10887,1.50423 0.66364,0.88484 0.94383,2.09412 0.16223,0.73737 0.16223,2.5513 z m 30.14337,0 h -17.68209 v -21.98832 h 17.18068 v 3.8933 h -12.77122 v 4.80764 h 11.96011 v 3.87856 h -11.96011 v 5.51552 h 13.27263 z m 19.62862,0 h -5.14683 l -3.46563,-4.86663 -0.22121,-0.3097 -3.70159,5.17633 h -5.10259 l 6.26763,-8.31751 -5.82521,-7.71288 h 5.20582 l 2.62503,3.73109 0.48666,0.70787 0.53091,-0.70787 2.87573,-3.73109 h 5.08784 l -5.98743,7.58015 z m 10.92767,-0.16222 q -1.17979,0.20646 -1.76968,0.2802 -0.5899,0.0737 -1.1208,0.0737 -1.65171,0 -2.62503,-0.50141 -1.01757,-0.5604 -1.45999,-1.47473 -0.16222,-0.36869 -0.26546,-1.17979 -0.10323,-0.82585 -0.10323,-2.02039 v -7.65388 h -1.94665 v -3.3624 h 1.94665 v -3.30341 l 4.18825,-2.34483 v 5.64824 h 2.66928 v 3.3624 h -2.66928 v 7.80135 q 0,0.33919 0,0.64889 0.0148,0.29495 0.059,0.41292 0.059,0.10324 0.16222,0.16223 0.22121,0.0737 0.53091,0.0737 0.44242,0 0.78161,-0.0442 0.58989,-0.11798 1.01757,-0.17697 z m 18.55206,-5.57451 q -0.54565,1.82868 -1.22403,2.90524 -0.67838,1.06181 -1.7107,1.79917 -0.97332,0.67838 -2.2121,1.03232 -1.22403,0.35394 -2.74301,0.35394 -1.90241,0 -3.39189,-0.54566 -1.48949,-0.54565 -2.61029,-1.6517 -1.1208,-1.10605 -1.6812,-2.59554 -0.54565,-1.50423 -0.54565,-3.46563 0,-3.95229 2.2416,-6.20864 2.25635,-2.27109 5.83996,-2.27109 3.49512,0 5.69248,2.2121 2.2121,2.21211 2.2121,6.12016 l -0.059,1.401 h -11.56193 q 0.23596,1.54847 1.16504,2.44806 1.10605,1.07656 2.71352,1.07656 1.20928,0 2.03513,-0.5899 0.44242,-0.30969 0.79636,-0.85534 0.35394,-0.5604 0.78161,-1.65171 z m -4.60118,-4.40946 q -0.22121,-1.03231 -0.72262,-1.59271 -1.03232,-1.16504 -2.68402,-1.16504 -0.78161,0 -1.401,0.22121 -0.60464,0.22121 -1.13555,0.72262 -0.78161,0.69312 -1.03231,1.81392 z m 21.66375,10.14619 h -4.203 v -9.61528 q 0,-1.31252 -0.26545,-2.00564 -0.10323,-0.25071 -0.3097,-0.44242 -0.19171,-0.20647 -0.48666,-0.38344 -0.60464,-0.35393 -1.43049,-0.35393 -1.41575,0 -2.43332,0.82585 -0.48666,0.39818 -0.72262,1.22403 -0.22121,0.82585 -0.22121,2.04988 v 8.70095 h -4.203 v -16.05988 h 3.93755 v 0.94383 q 1.72544,-1.26827 4.203,-1.26827 0.89958,0 1.56322,0.11798 0.66363,0.10323 1.34201,0.39818 1.401,0.54565 2.10887,1.50423 0.66363,0.88484 0.94383,2.09412 0.16222,0.73737 0.16222,2.5513 z m 18.05064,0.0147 h -4.01128 v -0.73737 q -1.51898,1.07656 -3.6131,1.07656 -2.09413,0 -3.87856,-1.1208 -1.71069,-1.03232 -2.69877,-3.02321 -0.92908,-1.90241 -0.92908,-4.36522 0,-2.41857 0.8406,-4.36522 0.85534,-1.9614 2.58079,-3.05271 1.74019,-1.0913 3.96704,-1.0913 0.8406,0 1.53372,0.16222 0.70788,0.14747 1.34201,0.48666 l 0.67838,0.38343 v -6.35611 h 4.18825 z m -3.96704,-7.94883 q 0,-1.401 -0.26545,-2.38908 -0.25071,-0.98807 -0.81111,-1.63695 -1.00282,-1.1503 -2.44806,-1.1503 -1.41574,0 -2.35958,1.09131 -0.51615,0.58989 -0.76686,1.56322 -0.23596,0.95858 -0.23596,2.30059 0,1.28302 0.25071,2.2416 0.26545,0.94383 0.82585,1.56322 1.03232,1.16504 2.41857,1.16504 1.32726,0 2.35958,-1.13555 1.03231,-1.13555 1.03231,-3.6131 z m 23.00578,2.19735 q -0.54566,1.82868 -1.22404,2.90524 -0.67837,1.06181 -1.71069,1.79917 -0.97333,0.67838 -2.2121,1.03232 -1.22404,0.35394 -2.74301,0.35394 -1.90241,0 -3.3919,-0.54566 -1.48948,-0.54565 -2.61028,-1.6517 -1.1208,-1.10605 -1.6812,-2.59554 -0.54565,-1.50423 -0.54565,-3.46563 0,-3.95229 2.2416,-6.20864 2.25634,-2.27109 5.83995,-2.27109 3.49513,0 5.69248,2.2121 2.21211,2.21211 2.21211,6.12016 l -0.059,1.401 h -11.56193 q 0.23595,1.54847 1.16504,2.44806 1.10605,1.07656 2.71351,1.07656 1.20929,0 2.03514,-0.5899 0.44242,-0.30969 0.79636,-0.85534 0.35393,-0.5604 0.78161,-1.65171 z m -4.60118,-4.40946 q -0.22121,-1.03231 -0.72262,-1.59271 -1.03232,-1.16504 -2.68402,-1.16504 -0.78161,0 -1.401,0.22121 -0.60464,0.22121 -1.13555,0.72262 -0.78161,0.69312 -1.03231,1.81392 z m 22.51909,10.16094 h -4.01128 v -0.73737 q -1.51898,1.07656 -3.6131,1.07656 -2.09413,0 -3.87856,-1.1208 -1.7107,-1.03232 -2.69877,-3.02321 -0.92908,-1.90241 -0.92908,-4.36522 0,-2.41857 0.8406,-4.36522 0.85534,-1.9614 2.58079,-3.05271 1.74018,-1.0913 3.96704,-1.0913 0.8406,0 1.53372,0.16222 0.70788,0.14747 1.34201,0.48666 l 0.67838,0.38343 v -6.35611 h 4.18825 z m -3.96704,-7.94883 q 0,-1.401 -0.26545,-2.38908 -0.25071,-0.98807 -0.81111,-1.63695 -1.00282,-1.1503 -2.44806,-1.1503 -1.41574,0 -2.35958,1.09131 -0.51615,0.58989 -0.76686,1.56322 -0.23596,0.95858 -0.23596,2.30059 0,1.28302 0.25071,2.2416 0.26545,0.94383 0.82585,1.56322 1.03232,1.16504 2.41857,1.16504 1.32726,0 2.35958,-1.13555 1.03231,-1.13555 1.03231,-3.6131 z m 32.56194,-10.16094 h -11.72416 v 4.88138 h 10.14619 v 3.89331 h -10.14619 v 9.32033 h -4.40946 v -21.98832 h 16.13362 z m 7.49153,0.47192 h -4.203 v -4.36522 h 4.203 z m 0,17.6231 h -4.203 v -16.34008 h 4.203 z m 13.15453,-15.18979 -1.45999,3.65735 q -0.89959,-0.48666 -1.43049,-0.66363 -0.53091,-0.19172 -0.92908,-0.19172 -0.61939,0 -1.10606,0.35394 -0.48666,0.33919 -0.70787,0.98807 -0.39818,1.1503 -0.39818,2.66928 v 8.3765 h -4.203 v -16.05988 h 3.93755 v 0.64888 l 0.45717,-0.35393 q 0.94383,-0.61939 2.15311,-0.61939 0.79636,0 1.63696,0.26545 0.85535,0.26545 2.04988,0.92908 z m 24.86394,15.18979 h -4.18825 v -9.92498 q 0,-1.34201 -0.23596,-1.90241 -0.14748,-0.39818 -0.61939,-0.67838 -0.23596,-0.14747 -0.53091,-0.22121 -0.29494,-0.0737 -0.64888,-0.0737 -1.34201,0 -2.18261,0.82585 -0.44242,0.41293 -0.64888,1.10605 -0.20647,0.69313 -0.20647,1.65171 v 9.2171 h -4.203 v -10.21992 q 0,-0.75212 -0.11798,-1.22404 -0.10323,-0.47191 -0.38343,-0.82585 -0.42767,-0.5309 -1.50423,-0.5309 -0.88484,0 -1.66645,0.44242 -0.70787,0.39818 -1.07656,1.29777 -0.35393,0.89959 -0.35393,2.75775 v 8.30277 h -4.203 v -16.05988 h 3.9228 v 0.91434 l 0.79635,-0.50141 q 1.401,-0.73737 3.17069,-0.73737 1.03231,0 1.81392,0.19171 0.79636,0.17697 1.45999,0.57515 0.79636,0.50141 1.28302,1.17979 1.90241,-1.94665 4.70441,-1.94665 2.65453,0 4.14401,1.41575 0.72262,0.70787 1.0913,1.75493 0.38344,1.03232 0.38344,2.44806 z m 13.80338,-8.95165 -2.53655,8.95165 h -3.9228 l -5.27955,-16.03039 h 4.39471 l 2.63978,8.93691 0.14747,0.48666 0.0885,-0.33919 2.63978,-9.08438 h 3.93754 l 2.49231,8.9959 0.0885,0.29494 0.10323,-0.35393 2.84624,-8.93691 h 4.203 l -5.38279,16.03039 h -3.90805 z m 30.40896,8.98114 h -4.54219 q -0.22121,-0.41292 -0.36868,-0.73736 -0.13273,-0.33919 -0.19172,-0.51616 -0.98807,0.64888 -2.07938,1.04706 -1.54847,0.51616 -3.18543,0.51616 -2.86099,0 -4.49794,-1.37151 -1.62221,-1.3715 -1.62221,-3.53936 0,-1.26828 0.60464,-2.28584 0.60464,-1.03232 1.60746,-1.6812 0.89959,-0.5899 2.15312,-0.92909 0.8406,-0.19171 2.46281,-0.38343 2.61028,-0.26545 4.07027,-0.66363 l 0.0148,-0.22121 q 0,-1.06181 -0.50141,-1.51898 -0.41293,-0.33919 -1.03232,-0.48666 -0.61939,-0.14748 -1.47474,-0.14748 -0.8111,0 -1.38625,0.11798 -0.5604,0.10323 -0.92908,0.35394 -0.36869,0.23596 -0.63414,0.78161 -0.2507,0.5309 -0.5309,1.59271 l -4.09977,-0.51615 q 0.29495,-1.401 0.61939,-2.16787 0.32444,-0.78161 0.82585,-1.401 0.94383,-1.10605 2.69877,-1.71069 1.66645,-0.54565 3.81957,-0.54565 2.19735,0 3.52462,0.48666 0.69312,0.23596 1.22403,0.57515 0.54565,0.32444 0.94383,0.73737 0.67838,0.79635 0.98807,1.99089 0.16222,0.69313 0.16222,2.44806 v 3.30341 q 0,3.48038 0.13273,4.26199 0.10323,0.44242 0.30969,0.89959 0.26546,0.57515 0.91434,1.71069 z m -5.58925,-7.04924 q -0.54565,0.19172 -3.46563,0.61939 -1.47474,0.19172 -2.10887,0.44242 -0.42768,0.17697 -0.72263,0.54566 -0.23595,0.30969 -0.23595,0.79635 0,0.64889 0.54565,1.1208 0.5604,0.45717 1.84342,0.45717 1.31252,0 2.35958,-0.5309 0.50141,-0.26546 0.8406,-0.60464 0.35393,-0.35394 0.58989,-0.81111 0.35394,-0.70787 0.35394,-2.16786 z m 17.57874,-8.17004 -1.45999,3.65735 q -0.89959,-0.48666 -1.43049,-0.66363 -0.53091,-0.19172 -0.92909,-0.19172 -0.61939,0 -1.10605,0.35394 -0.48666,0.33919 -0.70787,0.98807 -0.39818,1.1503 -0.39818,2.66928 v 8.3765 h -4.203 v -16.05988 h 3.93754 v 0.64888 l 0.45717,-0.35393 q 0.94383,-0.61939 2.15312,-0.61939 0.79636,0 1.63695,0.26545 0.85535,0.26545 2.04989,0.92908 z m 18.21284,9.45306 q -0.54565,1.82868 -1.22403,2.90524 -0.67838,1.06181 -1.7107,1.79917 -0.97332,0.67838 -2.2121,1.03232 -1.22403,0.35394 -2.74301,0.35394 -1.90241,0 -3.39189,-0.54566 -1.48949,-0.54565 -2.61029,-1.6517 -1.1208,-1.10605 -1.6812,-2.59554 -0.54565,-1.50423 -0.54565,-3.46563 0,-3.95229 2.2416,-6.20864 2.25635,-2.27109 5.83996,-2.27109 3.49512,0 5.69248,2.2121 2.2121,2.21211 2.2121,6.12016 l -0.059,1.401 h -11.56193 q 0.23596,1.54847 1.16504,2.44806 1.10606,1.07656 2.71352,1.07656 1.20928,0 2.03513,-0.5899 0.44243,-0.30969 0.79636,-0.85534 0.35394,-0.5604 0.78161,-1.65171 z m -4.60118,-4.40946 q -0.22121,-1.03231 -0.72262,-1.59271 -1.03231,-1.16504 -2.68402,-1.16504 -0.78161,0 -1.401,0.22121 -0.60464,0.22121 -1.13554,0.72262 -0.78162,0.69312 -1.03232,1.81392 z m 34.9805,-5.17632 q 0,1.43049 -0.50141,2.66927 -0.50141,1.22403 -1.47473,2.2416 -0.97333,1.01757 -2.68402,1.54847 -1.7107,0.51616 -4.21775,0.51616 h -4.7634 v 8.34701 h -4.40946 v -21.98832 h 8.92216 q 1.16504,0 1.97614,0.0442 0.82586,0.0442 1.44524,0.16222 1.75494,0.2802 2.97897,1.07656 1.22403,0.79636 1.97615,2.2416 0.36868,0.73737 0.5604,1.50423 0.19171,0.76686 0.19171,1.63696 z m -4.49794,0.0737 q 0,-1.03232 -0.54565,-1.75494 -0.54566,-0.73737 -1.31252,-0.91434 -0.75211,-0.19171 -2.53655,-0.19171 l -4.74865,0.0147 v 5.86945 h 4.80764 q 2.41857,0 3.37715,-0.78161 0.95858,-0.79635 0.95858,-2.24159 z m 11.98949,15.24877 h -4.20299 v -21.98832 h 4.20299 z m 19.40739,0.0295 h -4.54219 q -0.22121,-0.41292 -0.36868,-0.73736 -0.13273,-0.33919 -0.19172,-0.51616 -0.98807,0.64888 -2.07938,1.04706 -1.54847,0.51616 -3.18543,0.51616 -2.86098,0 -4.49794,-1.37151 -1.62221,-1.3715 -1.62221,-3.53936 0,-1.26828 0.60464,-2.28584 0.60464,-1.03232 1.60746,-1.6812 0.89959,-0.5899 2.15312,-0.92909 0.8406,-0.19171 2.46281,-0.38343 2.61028,-0.26545 4.07027,-0.66363 l 0.0148,-0.22121 q 0,-1.06181 -0.50141,-1.51898 -0.41293,-0.33919 -1.03232,-0.48666 -0.61939,-0.14748 -1.47473,-0.14748 -0.81111,0 -1.38626,0.11798 -0.5604,0.10323 -0.92908,0.35394 -0.36869,0.23596 -0.63414,0.78161 -0.2507,0.5309 -0.5309,1.59271 l -4.09977,-0.51615 q 0.29495,-1.401 0.61939,-2.16787 0.32444,-0.78161 0.82585,-1.401 0.94383,-1.10605 2.69877,-1.71069 1.66645,-0.54565 3.81957,-0.54565 2.19735,0 3.52462,0.48666 0.69312,0.23596 1.22403,0.57515 0.54565,0.32444 0.94383,0.73737 0.67838,0.79635 0.98807,1.99089 0.16222,0.69313 0.16222,2.44806 v 3.30341 q 0,3.48038 0.13273,4.26199 0.10323,0.44242 0.30969,0.89959 0.26546,0.57515 0.91434,1.71069 z m -5.58925,-7.04924 q -0.54565,0.19172 -3.46563,0.61939 -1.47474,0.19172 -2.10887,0.44242 -0.42768,0.17697 -0.72262,0.54566 -0.23596,0.30969 -0.23596,0.79635 0,0.64889 0.54565,1.1208 0.5604,0.45717 1.84342,0.45717 1.31252,0 2.35958,-0.5309 0.50141,-0.26546 0.8406,-0.60464 0.35394,-0.35394 0.58989,-0.81111 0.35394,-0.70787 0.35394,-2.16786 z"
         id="path39" /><path
         style="letter-spacing:-0.898896px"
         d="m 685.61276,193.25459 q -1.17979,0.20646 -1.76969,0.2802 -0.58989,0.0737 -1.1208,0.0737 -1.6517,0 -2.62503,-0.50141 -1.01756,-0.5604 -1.45999,-1.47473 -0.16222,-0.36869 -0.26545,-1.17979 -0.10323,-0.82585 -0.10323,-2.02039 v -7.65388 h -1.94665 v -3.3624 h 1.94665 v -3.30341 l 4.18825,-2.34483 v 5.64824 h 2.66927 v 3.3624 h -2.66927 v 7.80135 q 0,0.33919 0,0.64889 0.0148,0.29495 0.059,0.41292 0.059,0.10324 0.16222,0.16223 0.22121,0.0737 0.53091,0.0737 0.44242,0 0.78161,-0.0442 0.58989,-0.11798 1.01757,-0.17697 z"
         id="path40" /><path
         style="letter-spacing:-2.59568px"
         d="m 697.19015,171.45798 -0.66363,3.59836 q -0.87009,-0.11798 -1.35675,-0.16222 -0.48667,-0.059 -0.85535,-0.059 -0.45717,0 -0.72262,0.059 -0.25071,0.0442 -0.42768,0.22121 -0.16222,0.16222 -0.22121,0.48666 -0.059,0.3097 -0.059,0.82586 l 0.0148,0.64888 h 3.05271 v 3.42139 h -3.05271 v 12.91869 h -4.18825 v -12.91869 h -2.34483 v -3.42139 h 2.34483 v -0.85535 q 0,-1.66645 0.30969,-2.4923 0.44243,-1.1503 1.60747,-1.90241 1.17979,-0.76686 3.18543,-0.76686 0.66363,0 1.31251,0.0737 0.64889,0.0737 2.06463,0.32444 z"
         id="path41" /><path
         d="m 713.67753,185.18778 q 0,2.97897 -1.01756,4.79289 -1.01757,1.81393 -2.93473,2.802 -1.91716,0.98808 -4.15876,0.98808 -3.59835,0 -5.88419,-2.19736 -1.10606,-1.09131 -1.66646,-2.61028 -0.5604,-1.53373 -0.5604,-3.56887 0,-4.39471 2.68402,-6.56257 1.1208,-0.89959 2.46281,-1.34201 1.35676,-0.45717 2.96422,-0.45717 3.55412,0 5.83996,2.19736 1.10605,1.07655 1.6812,2.58078 0.58989,1.48949 0.58989,3.37715 z m -4.27673,0.11798 q 0,-1.22403 -0.2802,-2.10887 -0.26545,-0.88485 -0.85535,-1.51898 -1.0913,-1.1503 -2.69877,-1.1503 -1.63695,0 -2.72826,1.13555 -0.5604,0.60464 -0.8406,1.53373 -0.26545,0.91433 -0.26545,2.19735 0,1.28302 0.2507,2.19736 0.26546,0.91434 0.85535,1.53373 1.07656,1.16504 2.72826,1.16504 1.60747,0 2.71352,-1.19454 1.1208,-1.19453 1.1208,-3.79007 z m 17.43127,-7.07874 -1.45999,3.65735 q -0.89959,-0.48666 -1.43049,-0.66363 -0.53091,-0.19172 -0.92909,-0.19172 -0.61939,0 -1.10605,0.35394 -0.48666,0.33919 -0.70787,0.98807 -0.39818,1.1503 -0.39818,2.66928 v 8.3765 h -4.203 v -16.05988 h 3.93755 v 0.64888 l 0.45717,-0.35393 q 0.94383,-0.61939 2.15311,-0.61939 0.79636,0 1.63696,0.26545 0.85534,0.26545 2.04988,0.92908 z m 24.86393,15.18979 h -4.18825 v -9.92498 q 0,-1.34201 -0.23595,-1.90241 -0.14748,-0.39818 -0.61939,-0.67838 -0.23596,-0.14747 -0.53091,-0.22121 -0.29495,-0.0737 -0.64888,-0.0737 -1.34201,0 -2.18261,0.82585 -0.44242,0.41293 -0.64889,1.10605 -0.20646,0.69313 -0.20646,1.65171 v 9.2171 h -4.203 v -10.21992 q 0,-0.75212 -0.11798,-1.22404 -0.10323,-0.47191 -0.38343,-0.82585 -0.42767,-0.5309 -1.50423,-0.5309 -0.88484,0 -1.66645,0.44242 -0.70788,0.39818 -1.07656,1.29777 -0.35394,0.89959 -0.35394,2.75775 v 8.30277 h -4.20299 v -16.05988 h 3.92279 v 0.91434 l 0.79636,-0.50141 q 1.401,-0.73737 3.17068,-0.73737 1.03232,0 1.81393,0.19171 0.79636,0.17697 1.45999,0.57515 0.79636,0.50141 1.28302,1.17979 1.90241,-1.94665 4.70441,-1.94665 2.65452,0 4.14401,1.41575 0.72262,0.70787 1.0913,1.75493 0.38343,1.03232 0.38343,2.44806 z"
         id="path42" /></g><g
       id="text8"
       style="font-weight:bold;font-size:122.979px;line-height:0;font-family:'ER Univers KOI-8';-inkscape-font-specification:'ER Univers KOI-8, Bold';letter-spacing:0px;word-spacing:0px;display:inline;fill:#000d41;stroke:none;stroke-width:0;stroke-dasharray:none"
       inkscape:label="coreboot"
       transform="scale(1.0148229,0.98539361)"
       aria-label="coreboot"><path
         style="line-height:14.67px;stroke:none;stroke-width:0;stroke-dasharray:none"
         d="m 215.20508,92.517578 c 7.47697,0 13.5906,1.798642 18.38086,5.324219 2.444,1.832999 4.43894,4.133843 5.97265,6.894533 l 0.004,0.006 0.004,0.008 c 1.45337,2.51682 2.67126,5.91246 3.66015,10.14453 l -14.68554,2.06836 c -0.69027,-2.51715 -1.39543,-4.5287 -2.11524,-5.93555 l -0.006,-0.01 c -0.77374,-1.58704 -1.77783,-2.86934 -3.0332,-3.81641 l -0.008,-0.006 c -2.12991,-1.68319 -4.71582,-2.49218 -7.75391,-2.49218 -4.72675,0 -8.59074,1.60194 -11.64844,4.875 -3.07928,3.25276 -4.53515,8.65305 -4.53515,15.93359 0,3.69746 0.32456,6.88612 0.99023,9.54883 l 0.002,0.008 0.002,0.006 c 0.71244,2.68214 1.85452,4.90877 3.46093,6.65039 0.001,0.001 0.003,0.003 0.004,0.004 0.003,0.003 0.005,0.007 0.008,0.01 2.86206,3.20168 6.55438,4.76172 11.11719,4.76172 3.65454,0 6.72619,-1.03848 9.17773,-3.18359 1.3441,-1.16489 2.38105,-2.74592 3.14649,-4.69532 0.72515,-1.75562 1.34875,-4.23739 1.88086,-7.32812 l 14.9414,1.80273 c -0.85983,4.72733 -2.03725,8.56304 -3.54492,11.47071 -1.61727,3.08051 -3.75506,5.68086 -6.40234,7.79101 -2.63467,2.09224 -5.52006,3.68024 -8.6543,4.76367 -3.12518,1.04042 -6.59842,1.56641 -10.42578,1.56641 -9.37831,0 -16.8851,-2.88513 -22.5918,-8.5918 -5.65057,-5.72744 -8.54101,-13.7994 -8.54101,-24.2832 0,-6.80521 1.21766,-12.76137 3.625,-17.88672 2.42506,-5.08108 6.14504,-8.916471 11.14648,-11.494139 5.09903,-2.607902 10.57404,-3.914063 16.42188,-3.914063 z m 71.39844,0 c 9.41771,0 17.09571,2.905814 23.08789,8.666012 2.89207,2.81495 5.10064,6.19937 6.61132,10.15039 l 0.002,0.006 0.002,0.006 c 1.54798,3.90865 2.33008,8.36462 2.33008,13.38477 0,7.98064 -1.35974,14.29489 -4.01563,19.0293 -2.65824,4.73861 -6.51076,8.42216 -11.53906,11.01367 -5.05548,2.60552 -10.54855,3.91406 -16.47851,3.91406 -9.53582,0 -17.26895,-2.90589 -23.26172,-8.66211 -2.89182,-2.85325 -5.08224,-6.27591 -6.55274,-10.26172 -1.47341,-4.0325 -2.2207,-8.75655 -2.2207,-14.1914 0,-11.70229 3.56194,-20.29808 10.55859,-25.949223 2.95074,-2.368354 6.18876,-4.131831 9.72266,-5.296875 3.56878,-1.202525 7.4859,-1.808594 11.75391,-1.808594 z m 0,12.246092 c -4.73021,0 -8.64708,1.62179 -11.82422,4.92774 l -0.006,0.006 -0.008,0.008 c -1.64101,1.77057 -2.84713,3.98882 -3.64453,6.63281 l -0.002,0.006 -0.002,0.004 c -0.75311,2.59404 -1.11914,5.67781 -1.11914,9.22461 0,3.54349 0.34679,6.62014 1.05664,9.20898 l 0.002,0.008 0.002,0.008 c 0.7597,2.61672 1.98662,4.83079 3.70703,6.64063 0.003,0.003 0.007,0.005 0.01,0.008 0,0 0,0.002 0,0.002 3.13532,3.38778 7.05773,5.05273 11.82813,5.05273 4.67057,0 8.57001,-1.71815 11.77148,-5.17578 3.2726,-3.48791 4.83203,-8.93385 4.83203,-16.11328 0,-3.39359 -0.38963,-6.36517 -1.1875,-8.88477 -0.7627,-2.53509 -1.98938,-4.72391 -3.70703,-6.57031 -3.17159,-3.34303 -7.0497,-4.99219 -11.70898,-4.99219 z"
         id="path43" /><path
         style="line-height:14.67px;letter-spacing:-4.72064px;stroke:none;stroke-width:0;stroke-dasharray:none"
         d="m 354.99805,92.517578 c 2.05002,0 4.17195,0.340703 6.37109,1.035156 2.04946,0.636038 4.52228,1.743321 7.38867,3.292969 l -5.20703,13.044927 c -1.99588,-1.04359 -3.67209,-1.81043 -4.97266,-2.2461 l -0.0195,-0.006 c -1.50307,-0.54101 -2.87643,-0.83398 -4.10156,-0.83398 -1.89405,0 -3.58468,0.53761 -5.08789,1.63086 -1.52093,1.06585 -2.5766,2.57244 -3.23437,4.50195 -1.12436,3.24814 -1.67579,6.98475 -1.67579,11.19336 v 33.11523 H 329.32812 V 93.837891 h 14.04883 v 3.673828 l 3.41992,-2.646485 c 2.38437,-1.559019 5.10729,-2.347656 8.20118,-2.347656 z"
         id="path44" /><path
         style="line-height:14.67px;letter-spacing:0.99px;stroke:none;stroke-width:0;stroke-dasharray:none"
         d="m 403.54102,92.517578 c 9.25224,0 16.71797,2.91762 22.47656,8.714842 5.76696,5.76696 8.71119,13.80595 8.71679,24.18946 l -0.19921,4.74218 H 387.2793 c 0.0412,0.38189 0.0907,0.76284 0.14843,1.14258 0.66698,4.37704 2.32789,7.90987 5.03321,10.5293 3.19613,3.1109 7.12768,4.66406 11.74023,4.66406 3.45413,0 6.42338,-0.84477 8.85547,-2.58203 1.32385,-0.9267 2.48883,-2.18793 3.50586,-3.75586 l 0.004,-0.004 0.002,-0.006 c 0.92047,-1.4574 1.91679,-3.54999 2.97656,-6.18164 l 15.40235,1.75782 c -1.37098,4.35607 -2.86848,7.85807 -4.5,10.44726 -1.77247,2.7743 -4.00747,5.12448 -6.70704,7.05274 -2.54121,1.76937 -5.44169,3.12424 -8.70507,4.05664 -3.2191,0.93082 -6.84712,1.40234 -10.89454,1.40234 -5.06926,0 -9.55334,-0.72775 -13.46875,-2.16211 -3.90755,-1.43148 -7.33558,-3.60079 -10.27343,-6.5 -2.93352,-2.89492 -5.13944,-6.29745 -6.60938,-10.19922 -1.43446,-3.95446 -2.16406,-8.54055 -2.16406,-13.77344 0,-10.51748 2.98459,-18.68826 8.83984,-24.58203 5.91662,-5.955289 13.58405,-8.953122 23.07618,-8.953122 z m 0.11914,12.185552 c -2.2159,0 -4.23422,0.31547 -6.04688,0.96289 -1.77541,0.64953 -3.41847,1.69952 -4.93945,3.13086 -0.004,0.004 -0.008,0.008 -0.0117,0.0117 -0.004,0.004 -0.008,0.006 -0.0117,0.01 -2.28735,2.03752 -3.76899,4.66622 -4.49023,7.89062 -0.0893,0.4004 -0.16556,0.80361 -0.22852,1.20899 h 30.79688 c -0.0659,-0.4015 -0.14144,-0.80136 -0.22657,-1.19922 -0.62413,-2.91262 -1.66299,-5.25331 -3.16992,-6.9375 -3.02003,-3.40833 -6.89664,-5.07812 -11.67187,-5.07812 z"
         id="path45" /><path
         style="line-height:14.67px;letter-spacing:-1px;fill:#ff5500;stroke:none;stroke-width:0;stroke-dasharray:none"
         d="m 446.41602,69.699219 h 15.1289 v 26.794922 c 0.50001,-0.403044 1.01675,-0.784892 1.54883,-1.144532 3.90333,-2.640487 8.46843,-3.974609 13.73437,-3.974609 2.34825,0 4.41837,0.197018 6.21875,0.580078 l 0.0117,0.002 0.0117,0.002 c 1.83391,0.343858 3.74093,0.958722 5.72071,1.851563 l 0.0156,0.0059 0.0137,0.0078 c 3.73624,1.540717 6.89275,3.831081 9.47266,6.873051 1.14906,1.34056 2.19024,2.88022 3.125,4.63281 0.93114,1.70709 1.79144,3.6391 2.57617,5.79492 1.32316,4.0933 1.98633,8.39087 1.98633,12.88672 0,10.97026 -2.93615,19.47238 -8.67383,25.55664 -5.76163,6.07098 -12.79741,9.11914 -21.01953,9.11914 -5.36642,0 -10.02303,-1.43425 -13.95313,-4.25781 -0.54139,-0.38878 -1.06534,-0.80129 -1.57031,-1.23633 v 4.11328 h -14.34765 z m 101.3496,22.818359 c 9.41772,0 17.09572,2.905813 23.0879,8.666012 2.89207,2.81495 5.10064,6.19937 6.61132,10.15039 l 0.002,0.006 0.002,0.006 c 1.54809,3.90891 2.33203,8.36487 2.33203,13.38477 0,7.98064 -1.35973,14.29489 -4.01562,19.0293 -2.65813,4.73841 -6.51261,8.4221 -11.54102,11.01367 -5.05548,2.60552 -10.54854,3.91406 -16.47852,3.91406 -9.5358,0 -17.26893,-2.90589 -23.26171,-8.66211 -2.89165,-2.85309 -5.08018,-6.27563 -6.55079,-10.26172 -1.47341,-4.0325 -2.2207,-8.75655 -2.2207,-14.1914 0,-11.70241 3.56007,-20.29814 10.55664,-25.949223 2.95058,-2.36822 6.19062,-4.131797 9.72461,-5.296875 3.56889,-1.20256 7.48395,-1.808594 11.75195,-1.808594 z m -71.89843,11.285152 c -4.10769,0 -7.58279,1.7296 -10.52344,5.13086 -0.002,0.002 -0.004,0.004 -0.006,0.006 l -0.01,0.0117 c -1.6298,1.80728 -2.81166,4.04097 -3.56445,6.67578 -0.75225,2.5911 -1.11914,5.57103 -1.11914,8.92383 0,3.397 0.201,6.30408 0.61328,8.69531 l 0.002,0.008 0.002,0.01 c 0.45493,2.39876 1.16877,4.39181 2.17773,5.93164 0.002,0.003 0.004,0.005 0.006,0.008 7.8e-4,0.001 0.001,0.003 0.002,0.004 1.46238,2.29487 3.16275,4.06881 5.11132,5.28125 l 0.006,0.004 0.008,0.006 c 1.97868,1.18721 4.25447,1.76172 6.81445,1.76172 4.04216,0 7.51272,-1.73428 10.52539,-5.12891 1.63813,-1.81056 2.8205,-4.06799 3.57617,-6.74805 l 0.002,-0.008 c 0.79215,-2.67169 1.18164,-5.81759 1.18164,-9.4043 0,-3.73029 -0.34693,-6.92877 -1.05273,-9.55078 l -0.004,-0.01 c -0.67713,-2.66013 -1.84241,-4.92176 -3.52539,-6.77735 -2.791,-3.21231 -6.17339,-4.83008 -10.22265,-4.83008 z m 71.89843,0.96094 c -4.7302,0 -8.64531,1.62199 -11.82226,4.92774 l -0.006,0.006 -0.008,0.008 c -1.64102,1.77057 -2.84714,3.98882 -3.64453,6.63281 l -0.002,0.006 -0.002,0.004 c -0.75311,2.59404 -1.11914,5.67781 -1.11914,9.22461 0,3.54314 0.34472,6.6197 1.05469,9.20898 l 0.002,0.008 0.002,0.008 c 0.75984,2.61721 1.98885,4.8311 3.70899,6.64063 0.003,0.003 0.007,0.005 0.01,0.008 0,0 0,0.002 0,0.002 3.13513,3.38758 7.05579,5.05273 11.82617,5.05273 4.67058,0 8.57002,-1.71815 11.77149,-5.17578 3.28014,-3.49593 4.83398,-8.92922 4.83398,-16.11328 0,-3.39358 -0.38962,-6.36517 -1.1875,-8.88477 -0.76269,-2.5351 -1.98938,-4.72391 -3.70703,-6.57031 -3.17178,-3.34323 -7.05165,-4.99219 -11.71094,-4.99219 z"
         id="path46" /><path
         style="line-height:14.67px;letter-spacing:-3px;fill:#ff5500;stroke:none;stroke-width:0;stroke-dasharray:none"
         d="m 621.52734,92.517578 c 9.41772,0 17.09368,2.905732 23.08594,8.666012 2.89208,2.81495 5.10064,6.19936 6.61133,10.15039 l 0.002,0.006 0.002,0.006 c 1.54808,3.90891 2.33203,8.36487 2.33203,13.38477 0,7.98064 -1.35974,14.29489 -4.01563,19.0293 -2.65824,4.7386 -6.51075,8.42216 -11.53906,11.01367 -5.05548,2.60552 -10.54854,3.91406 -16.47852,3.91406 -9.53583,0 -17.27097,-2.90594 -23.26367,-8.66211 -2.89165,-2.85309 -5.08018,-6.27564 -6.55078,-10.26172 -1.47341,-4.0325 -2.2207,-8.75655 -2.2207,-14.1914 0,-11.70241 3.56007,-20.29814 10.55664,-25.949223 2.95057,-2.368221 6.1906,-4.131797 9.72461,-5.296875 3.56878,-1.202525 7.4859,-1.808594 11.7539,-1.808594 z m 0,12.246092 c -4.73019,0 -8.64707,1.62179 -11.82422,4.92774 l -0.006,0.006 -0.008,0.008 c -1.64102,1.77057 -2.84714,3.98882 -3.64453,6.63281 l -0.002,0.006 -0.002,0.004 c -0.75312,2.59404 -1.11915,5.67781 -1.11915,9.22461 10e-6,3.54349 0.34679,6.62014 1.05665,9.20898 l 0.002,0.008 0.002,0.008 c 0.75969,2.61671 1.98663,4.8308 3.70703,6.64063 0.003,0.003 0.005,0.005 0.008,0.008 0,0 0.002,0.002 0.002,0.002 3.13532,3.38778 7.05773,5.05273 11.82812,5.05273 4.67058,0 8.57001,-1.71815 11.77149,-5.17578 3.2726,-3.48791 4.83203,-8.93385 4.83203,-16.11328 0,-3.39358 -0.38963,-6.36517 -1.1875,-8.88477 l 0.006,0.0137 c -0.76238,-2.54124 -1.99198,-4.73406 -3.71289,-6.58398 -3.17159,-3.34303 -7.0497,-4.99219 -11.70899,-4.99219 z"
         id="path47" /><path
         style="line-height:14.67px;fill:#ff5500;stroke:none;stroke-width:0;stroke-dasharray:none"
         d="m 684.24805,71.779297 v 22.298828 h 10.86914 v 11.707035 h -10.86914 v 32.75781 2.66601 l 0.002,0.0254 c 0.0411,0.82211 0.1396,1.54858 0.30078,1.97852 0.0105,0.0269 0.0215,0.0536 0.0332,0.0801 0.0115,0.0216 0.0232,0.0431 0.0352,0.0644 0.24744,0.43301 0.59125,0.78094 1.0293,1.03125 0.0297,0.0168 0.0596,0.0331 0.0898,0.0488 0.0292,0.0107 0.0585,0.0211 0.0879,0.0312 0.72538,0.2418 1.56312,0.34961 2.47656,0.34961 1.23173,0 2.33815,-0.0607 3.31055,-0.1875 l 0.0332,-0.006 0.0332,-0.006 c 1.18547,-0.2371 2.1999,-0.41339 3.13281,-0.56055 l 2.13477,12.70508 c -2.65875,0.45712 -4.78426,0.79554 -6.18555,0.9707 -1.56539,0.19568 -3.04607,0.29297 -4.44141,0.29297 -4.39467,0 -7.76591,-0.66441 -10.23047,-1.93359 h -0.002 c -2.58183,-1.42713 -4.3944,-3.27025 -5.49219,-5.52148 l -0.002,-0.006 c -0.40081,-0.91353 -0.72542,-2.34876 -1.00195,-4.52149 -0.27389,-2.19107 -0.41407,-4.8862 -0.41407,-8.10351 v -32.15625 h -7.92578 V 94.078125 h 7.92578 V 80.214844 Z"
         id="path48" /></g></g></svg>
