<?xml version="1.0" encoding="utf-8"?>
<!-- Generator: Adobe Illustrator 24.1.2, SVG Export Plug-In . SVG Version: 6.00 Build 0)  -->
<svg version="1.1" id="Layer_1" xmlns="http://www.w3.org/2000/svg" xmlns:xlink="http://www.w3.org/1999/xlink" x="0px" y="0px"
	 viewBox="0 0 386.9 546.1" style="enable-background:new 0 0 386.9 546.1;" xml:space="preserve">
<style type="text/css">
	.st0{fill:#264DE4;}
	.st1{fill:#2965F1;}
	.st2{fill:none;}
	.st3{fill:#FFFFFF;}
	.st4{fill:#EBEBEB;}
	.st5{fill:#231F20;}
</style>
<path class="st0" d="M386.9,107.3l-35.2,394.9l-158.4,43.9l-158-43.9L0,107.3H386.9z"/>
<path class="st1" d="M321.5,477.1l30.1-337.4H193.5v372.9L321.5,477.1z"/>
<path class="st2" d="M677.8,112.2L677.8,112.2c-1.9,1.1-3.7,2.4-1.7,4.5c-1,0.6-1.9,1.1-2.9,1.6c-1.5,1.2-4.9,1.8-4.5,4.2
	c1.7,2.7,3.2,5.6,4.4,8.6c3.7-3,6.7-7.1,8.6-11.5c0.4-0.4,1.3-1.3,1.7-1.7c-0.2-2-0.6-3.9-1.4-5.8
	C680.6,112.2,679.2,112.2,677.8,112.2z"/>
<path class="st3" d="M334.2,205.4c-0.9-0.4-1.8-0.7-2.7-1.1c-0.5,0.4-1.5,1.1-2,1.4c-6.5,0.5-13.1,0.1-19.7,0.2c0.1-2,1.1-4.3-0.7-6
	c-0.4,0.5-1.1,1.3-1.5,1.8c-0.5-0.6-1.5-1.9-2-2.5c0-3.3,0-6.7-0.1-10c-0.6,0-1.7,0-2.3,0.1c0,4.2,0,8.5,0,12.8c-0.6,0-1.8,0-2.4,0
	c0-0.8,0.2-2.4,0.2-3.2c-23.4-0.2-46.7,0-70.1-0.1c0-0.5,0-1.6,0-2.1c-1.4-0.3-2.8-0.7-4.2-1.1c0-2.2-0.1-4.4-1.2-6.4
	c-1,2.9-1.5,6-2.2,8.9c-5.3-0.4-9.9,3.4-15.3,2.5c-0.3-3.1-0.8-6.2-0.8-9.3c2.5-0.8,5.6-1.2,7.4-3.4c2.6-6.5,0.9-13.8-1.8-19.9
	c0.2-0.4,0.4-1.1,0.6-1.5c-0.3-0.5-0.9-1.6-1.2-2.2c-3.8-1.4-7.2-3.6-10.6-5.8c-1.3-0.6-4.8-1.4-8.2-1.9v225.6
	c2.7,0.9,6.1,1.6,7.5,1c1.1,1.9,2.8,3.5,3.3,5.6c-0.3,3.3-0.8,6.7-1,10c-2.1,1.9-3.6,4.6-3,7.5c0.7,6,1.2,12,1.7,18
	c0.7,4.1,2.8,8,2.4,12.3c0.6,0.5,1.7,1.4,2.3,1.9c-0.4,6.6,1.4,13.2,0.5,19.8c-3,5.8-3.1,12.4-4.7,18.6c3.8,4.5,9.9,2,14.9,2.1
	c5.1,0.6,9.9,3.4,15.2,3.2c6.9-0.1,13.8,0.5,20.6-0.7c0.5-2.4,0.6-4.9-0.3-7.3c-3.1-2-6.5-3.5-10-4.6c-3.8-0.9-5.8-4.5-8.3-7.1
	c-2.3-3-5.6-5.5-6-9.5c-0.6-5.4-0.3-10.9-0.2-16.3c0.8-2.3,2.7-4.3,2.5-6.9c1.2-5.1-1.8-10.1-0.7-15.2c1.8-11.3,3.2-22.7,2.8-34.1
	c-0.6-0.9-1.2-1.7-1.8-2.6c-0.2-1.9-0.4-3.7-0.6-5.6c-1.5-0.7-3.2-1.3-3.5-3.1c-3.3-9.3-7.1-18.4-11.4-27.2
	c-4.1-7.8-9.5-14.9-15.5-21.5c-1.1-3.1-1.4-6.4-2.1-9.5c0.6-1.2,1.2-2.4,1.8-3.5c2.7,0.4,6.2,2.9,8.4,0.4c2.5-3.9,4.6-8.2,4.3-12.9
	c0-8.1,2.3-16.1,1.1-24.1c-0.6-3.7-3.6-6.3-7.2-7c0.7-2.6,1.4-5.2,1.9-7.9c9.5,4.9,18.7,11.3,29.6,12.2c-0.4,2,3.5,2.8,0.4,0.3
	c6,0.9,9-4.8,13.5-7.4c5.8-4.1,4.3-12.3,6.8-18.2c1.8-0.6,3.5-1.1,5.3-1.6c-0.9-5.8-3.3-11.3-2.9-17.3c3.2-2.4,6.9-5,8.2-8.8
	c1.2-0.6,2.5-1.2,3.7-1.9c9-0.1,18,0.1,27-0.1c2.3,0.1,1.5-2.9,2-4.3c2.3,1.5,5.1,1.6,7.7,0.9c4.3-1.4,9-0.6,13.4-0.8
	c2.9,0.1,6.2-0.6,8.6,1.5c3.7-0.6,7.5-0.6,11.3-0.5c0.1-1.5,0.1-3,0.2-4.6C340,205.3,337.1,205.3,334.2,205.4z M246,224.6
	c-2,4.3-4.9,8.4-8.6,11.5c-1.2-3-2.7-5.8-4.4-8.6c-0.4-2.3,3-3,4.5-4.2c1-0.5,1.9-1.1,2.9-1.6c-2-2.1-0.1-3.4,1.7-4.5l0,0
	c1.4,0,2.8,0,4.2-0.1c0.8,1.8,1.2,3.8,1.4,5.8C247.3,223.3,246.5,224.1,246,224.6z"/>
<path class="st4" d="M185.8,156.4c-16,2.9-24.4,23.3-17.4,37.3c-0.8,0.8-1.7,1.6-2.5,2.4c-3.1-4.2-8.6-3.1-12.9-2
	c-9.2,3.1-15.2,11.6-18.3,20.5c-3.9,10.4-3.5,21.7-2.2,32.5c-4.3,2-9.1,0.7-13.5,2.3c-0.3,8.7-0.9,17.3-2.4,25.9
	c-0.3,2.5-0.9,5.2,0.1,7.6c3.9,0.9,7.8,1.9,11.7,2.4c-2.4,0.5-4.8,1.3-6.9,2.5l0.4,3.8c-0.7-0.8-1.4-1.6-2.1-2.5
	c-1.3,11.3,2.6,22.2,2.3,33.5c-5.2-1.1-5,5-5.7,8.4c0.7,0.7,1.4,1.3,2.1,2c-0.7,1.2-1.3,2.4-1.7,3.7c0.9,3.2,0,7.1,2.9,9.5
	c-1.5,9.6-3.3,19.1-4.3,28.8c-0.4,3.2,1.6,6.3,0.5,9.4c-1.1,3.5-3.8,6.3-4.6,9.9c-4.2,4.1-6.5,9.7-9.2,14.8
	c-2.3,4.1-1.9,8.9-2.8,13.4c-2.5,4.4-6.1,8.6-6,13.9c0,2.8-0.6,6.1,1.8,8.2c-1.9,10.2-5,20.1-7.4,30.1c-0.4,3.8-0.6,8,1.2,11.5
	c7.6,2.2,15.6,1.1,23.4,0.5c0.5-3.4,0.6-6.9-1.1-10c-2.8-9.8-0.1-20.5,4.8-29.2c4.3-0.8,5.8-4.9,6.8-8.6c2.2-8.2,7.6-15.2,9.3-23.6
	c0.4-2.6-1.3-5.3-0.2-7.9c1.2-2.8,1.9-6.2,4.6-7.9c2.5-1.6,3.7-4.4,4.8-7c0.8-2.5,3.9-2.9,5.1-5.1c2.3-4,1.1-9,3.2-13.1
	c2.7-6.3,4.1-13.6,9.2-18.6c2.4-2.1,2.3-5.6,4.3-8c1.4,2.8,2.6,5.9,4.9,8.2c2,0.8,4.2,0.6,6.2,0.8c5.3,7.8,10.6,15.6,15.8,23.4
	c0.3,0.5,1.8,1.3,3.5,1.9V156.6C190.2,156.2,187,156,185.8,156.4z"/>
<g>
	<g>
		<polygon class="st5" points="10.4,74.5 69.1,74.5 69.1,50 35,50 35,24.5 69.1,24.5 69.1,0 10.4,0 		"/>
		<polygon class="st5" points="80.8,48 114.9,48 114.9,52.3 80.8,52.3 80.8,74.7 139.5,74.7 139.5,25.6 105.4,25.6 105.4,21.3 
			139.5,21.3 139.5,0 80.8,0 		"/>
		<path class="st5" d="M317.6,0.1v74.5h58.7V54.9v-4.8V24.6v-5.8V0.1H317.6z M349.5,50.1h-5V24.6h5V50.1z"/>
		<polygon class="st5" points="276.7,48 285.7,48 285.7,52.3 272.4,52.3 272.4,21.3 306.5,21.3 306.5,0 247.9,0 247.9,48 247.9,48 
			247.9,52.3 247.9,52.3 247.9,74.7 306.6,74.7 306.6,25.6 276.7,25.6 		"/>
		<polygon class="st5" points="151.2,48 185.3,48 185.3,52.3 151.2,52.3 151.2,74.7 209.9,74.7 209.9,25.6 175.8,25.6 175.8,21.3 
			209.9,21.3 209.9,0 151.2,0 		"/>
	</g>
	<rect x="220.6" y="52.3" class="st5" width="16.5" height="16.5"/>
	<rect x="220.6" y="17.5" class="st5" width="16.5" height="16.5"/>
</g>
</svg>
