<?xml version="1.0" encoding="UTF-8" standalone="no"?>
<!-- Generator: Adobe Illustrator 16.0.4, SVG Export Plug-In . SVG Version: 6.00 Build 0)  -->

<svg
   version="1.1"
   id="ubuntu__x5F__black_x26_orange"
   x="0px"
   y="0px"
   width="270"
   height="64"
   viewBox="0 0 270.00001 63.999998"
   enable-background="new 0 0 425.197 209.764"
   xml:space="preserve"
   sodipodi:docname="Debian.svg"
   inkscape:version="1.1 (c68e22c387, 2021-05-23)"
   xmlns:inkscape="http://www.inkscape.org/namespaces/inkscape"
   xmlns:sodipodi="http://sodipodi.sourceforge.net/DTD/sodipodi-0.dtd"
   xmlns="http://www.w3.org/2000/svg"
   xmlns:svg="http://www.w3.org/2000/svg"><defs
   id="defs37" /><sodipodi:namedview
   id="namedview35"
   pagecolor="#ffffff"
   bordercolor="#666666"
   borderopacity="1.0"
   inkscape:pageshadow="2"
   inkscape:pageopacity="0.0"
   inkscape:pagecheckerboard="0"
   showgrid="false"
   inkscape:zoom="4"
   inkscape:cx="235.375"
   inkscape:cy="91.875"
   inkscape:window-width="3840"
   inkscape:window-height="2097"
   inkscape:window-x="-8"
   inkscape:window-y="-8"
   inkscape:window-maximized="1"
   inkscape:current-layer="ubuntu__x5F__black_x26_orange" />




<g
   id="g32"
   transform="translate(-70.867,-73.050999)"
   sodipodi:insensitive="true">
	<g
   aria-label="debian"
   id="text2795"
   style="font-size:80.8px;line-height:1.25;font-family:HeltenLarge;-inkscape-font-specification:'HeltenLarge, Normal';font-variant-ligatures:none;letter-spacing:-2.11px"
   inkscape:label="g22"><path
     d="m 100.359,102.6238 q -1.373598,-1.1312 -3.959198,-2.1816 -2.5856,-1.050401 -5.656001,-1.050401 -3.232,0 -5.5752,1.212001 -2.2624,1.1312 -3.7168,3.232 -1.4544,2.02 -2.1008,4.848 -0.6464,2.828 -0.6464,6.06 0,7.3528 3.636,11.3928 3.636,3.9592 9.696001,3.9592 3.0704,0 5.0904,-0.2424 2.1008,-0.3232 3.231998,-0.6464 z m 0,-28.280002 7.5144,-1.2928 V 134.5398 q -2.5856,0.7272 -6.6256,1.4544 -4.039998,0.7272 -9.291998,0.7272 -4.848001,0 -8.726401,-1.5352 -3.8784,-1.5352 -6.6256,-4.3632 -2.7472,-2.828 -4.2824,-6.868 -1.4544,-4.1208 -1.4544,-9.2112 0,-4.848 1.212,-8.888 1.2928,-4.04 3.7168,-6.948801 2.424,-2.9088 5.8984,-4.5248 3.5552,-1.616 8.08,-1.616 3.636001,0 6.383201,0.9696 2.828,0.9696 4.201598,1.8584 z"
     style="font-family:Ubuntu;-inkscape-font-specification:Ubuntu"
     id="path86146"
     inkscape:label="path10" /><path
     d="m 116.3481,114.8246 q 0,-5.5752 1.616,-9.696 1.616,-4.2016 4.2824,-6.948801 2.6664,-2.7472 6.1408,-4.1208 3.4744,-1.3736 7.1104,-1.3736 8.484,0 13.0088,5.3328 4.5248,5.252001 4.5248,16.079201 0,0.4848 0,1.2928 0,0.7272 -0.0808,1.3736 h -28.7648 q 0.4848,6.5448 3.7976,9.9384 3.3128,3.3936 10.3424,3.3936 3.9592,0 6.6256,-0.6464 2.7472,-0.7272 4.1208,-1.3736 l 1.0504,6.3024 q -1.3736,0.7272 -4.848,1.5352 -3.3936,0.808 -7.7568,0.808 -5.4944,0 -9.5344,-1.616 -3.9592,-1.6968 -6.5448,-4.6056 -2.5856,-2.9088 -3.8784,-6.868 -1.212,-4.04 -1.212,-8.8072 z m 28.8456,-4.1208 q 0.0808,-5.0904 -2.5856,-8.3224 -2.5856,-3.312801 -7.1912,-3.312801 -2.5856,0 -4.6056,1.050401 -1.9392,0.9696 -3.3128,2.5856 -1.3736,1.616 -2.1816,3.7168 -0.7272,2.1008 -0.9696,4.2824 z"
     style="font-family:Ubuntu;-inkscape-font-specification:Ubuntu"
     id="path86148"
     inkscape:label="path12" /><path
     d="m 169.26276,95.594199 q 1.3736,-0.8888 4.1208,-1.8584 2.828,-0.9696 6.464,-0.9696 4.5248,0 7.9992,1.616 3.5552,1.616 5.9792,4.5248 2.424,2.908801 3.636,6.948801 1.2928,4.04 1.2928,8.888 0,5.0904 -1.5352,9.2112 -1.4544,4.04 -4.2016,6.868 -2.7472,2.828 -6.6256,4.3632 -3.8784,1.5352 -8.7264,1.5352 -5.252,0 -9.292,-0.7272 -4.04,-0.7272 -6.6256,-1.4544 V 74.343798 l 7.5144,-1.2928 z m 0,33.612801 q 1.1312,0.3232 3.1512,0.6464 2.1008,0.2424 5.1712,0.2424 6.06,0 9.696,-3.9592 3.636,-4.04 3.636,-11.3928 0,-3.232 -0.6464,-6.06 -0.6464,-2.828 -2.1008,-4.848 -1.4544,-2.1008 -3.7976,-3.232 -2.2624,-1.212001 -5.4944,-1.212001 -3.0704,0 -5.656,1.050401 -2.5856,1.0504 -3.9592,2.1816 z"
     style="font-family:Ubuntu;-inkscape-font-specification:Ubuntu"
     id="path86150"
     inkscape:label="path14" /><path
     d="m 214.74386,135.7518 h -7.5144 V 93.735799 h 7.5144 z m -3.7976,-49.611201 q -2.02,0 -3.4744,-1.2928 -1.3736,-1.3736 -1.3736,-3.636001 0,-2.2624 1.3736,-3.5552 1.4544,-1.3736 3.4744,-1.3736 2.02,0 3.3936,1.3736 1.4544,1.2928 1.4544,3.5552 0,2.262401 -1.4544,3.636001 -1.3736,1.2928 -3.3936,1.2928 z"
     style="font-family:Ubuntu;-inkscape-font-specification:Ubuntu"
     id="path86152"
     inkscape:label="path16" /><path
     d="m 239.78252,130.3382 q 2.6664,0 4.6864,-0.0808 2.1008,-0.1616 3.4744,-0.4848 v -12.524 q -0.808,-0.404 -2.6664,-0.6464 -1.7776,-0.3232 -4.3632,-0.3232 -1.6968,0 -3.636,0.2424 -1.8584,0.2424 -3.4744,1.0504 -1.5352,0.7272 -2.5856,2.1008 -1.0504,1.2928 -1.0504,3.4744 0,4.04 2.5856,5.656 2.5856,1.5352 7.0296,1.5352 z m -0.6464,-37.652801 q 4.5248,0 7.5952,1.212 3.1512,1.1312 5.0096,3.3128 1.9392,2.1008 2.7472,5.090401 0.808,2.9088 0.808,6.464 v 26.26 q -0.9696,0.1616 -2.7472,0.4848 -1.6968,0.2424 -3.8784,0.4848 -2.1816,0.2424 -4.7672,0.404 -2.5048,0.2424 -5.0096,0.2424 -3.5552,0 -6.5448,-0.7272 -2.9896,-0.7272 -5.1712,-2.2624 -2.1816,-1.616 -3.3936,-4.2016 -1.212,-2.5856 -1.212,-6.2216 0,-3.4744 1.3736,-5.9792 1.4544,-2.5048 3.8784,-4.04 2.424,-1.5352 5.656,-2.2624 3.232,-0.7272 6.7872,-0.7272 1.1312,0 2.3432,0.1616 1.212,0.0808 2.2624,0.3232 1.1312,0.1616 1.9392,0.3232 0.808,0.1616 1.1312,0.2424 v -2.1008 q 0,-1.8584 -0.404,-3.636 -0.404,-1.8584 -1.4544,-3.232 -1.0504,-1.4544 -2.9088,-2.2624 -1.7776,-0.888801 -4.6864,-0.888801 -3.7168,0 -6.5448,0.5656 -2.7472,0.484801 -4.1208,1.050401 l -0.8888,-6.221601 q 1.4544,-0.6464 4.848,-1.212 3.3936,-0.6464 7.3528,-0.6464 z"
     style="font-family:Ubuntu;-inkscape-font-specification:Ubuntu"
     id="path86154"
     inkscape:label="path18" /><path
     d="m 265.62927,94.947799 q 2.5856,-0.6464 6.868,-1.3736 4.2824,-0.7272 9.8576,-0.7272 5.0096,0 8.3224,1.4544 3.3128,1.3736 5.252,3.9592 2.02,2.504801 2.828,6.060001 0.808,3.5552 0.808,7.8376 v 23.5936 h -7.5144 v -21.9776 q 0,-3.8784 -0.5656,-6.6256 -0.4848,-2.7472 -1.6968,-4.444 -1.212,-1.6968 -3.232,-2.424 -2.02,-0.808001 -5.0096,-0.808001 -1.212,0 -2.5048,0.0808 -1.2928,0.0808 -2.5048,0.2424 -1.1312,0.0808 -2.1008,0.242401 -0.8888,0.1616 -1.2928,0.2424 v 35.4712 h -7.5144 z"
     style="font-family:Ubuntu;-inkscape-font-specification:Ubuntu"
     id="path86156"
     inkscape:label="path20" /></g>
	<g
   id="g30"
   transform="translate(-13.891991)">
		<circle
   fill="#e95420"
   cx="337.36499"
   cy="90.016998"
   r="16.966"
   id="circle24" />
		<g
   id="g28">
			<path
   fill="#ffffff"
   d="m 328.784,90.017 c 0,1.144 -0.928,2.071 -2.071,2.071 -1.145,0 -2.072,-0.928 -2.072,-2.071 0,-1.145 0.928,-2.073 2.072,-2.073 1.143,0 2.071,0.928 2.071,2.073 z m 11.79,10.075 c 0.571,0.991 1.838,1.33 2.829,0.758 0.991,-0.572 1.331,-1.839 0.757,-2.831 -0.571,-0.991 -1.838,-1.33 -2.828,-0.758 -0.992,0.572 -1.332,1.839 -0.758,2.831 z m 3.586,-18.079 c 0.574,-0.991 0.234,-2.258 -0.757,-2.83 -0.991,-0.572 -2.258,-0.232 -2.829,0.759 -0.574,0.991 -0.234,2.258 0.758,2.831 0.99,0.57 2.258,0.231 2.828,-0.76 z m -7.012,2.094 c 3.088,0 5.621,2.368 5.886,5.385 l 2.999,-0.046 c -0.143,-2.244 -1.115,-4.261 -2.614,-5.749 -0.795,0.307 -1.716,0.265 -2.509,-0.194 -0.797,-0.458 -1.292,-1.236 -1.424,-2.078 -0.746,-0.202 -1.529,-0.311 -2.338,-0.311 -1.418,0 -2.758,0.333 -3.948,0.922 l 1.458,2.62 c 0.758,-0.352 1.602,-0.549 2.49,-0.549 z m -5.91,5.91 c 0,-2 0.994,-3.767 2.514,-4.836 l -1.539,-2.573 c -1.783,1.19 -3.112,3.008 -3.673,5.137 0.663,0.534 1.089,1.354 1.089,2.272 0,0.918 -0.426,1.737 -1.089,2.271 0.561,2.129 1.89,3.947 3.673,5.138 l 1.539,-2.573 c -1.52,-1.071 -2.514,-2.837 -2.514,-4.836 z m 5.91,5.908 c -0.889,0 -1.732,-0.197 -2.49,-0.548 l -1.458,2.62 c 1.19,0.59 2.53,0.921 3.948,0.921 0.809,0 1.592,-0.107 2.338,-0.311 0.132,-0.842 0.627,-1.619 1.424,-2.078 0.793,-0.458 1.714,-0.5 2.509,-0.193 1.499,-1.488 2.472,-3.506 2.614,-5.75 l -2.999,-0.047 c -0.264,3.02 -2.798,5.386 -5.886,5.386 z"
   id="path26" />
		</g>
	</g>
</g>
</svg>
