<svg width="256" height="256" viewBox="0 0 256 256" fill="none" xmlns="http://www.w3.org/2000/svg">
<path d="M38 21.99C58.33 7.32 87.08 6.06 108.73 18.61C133.14 14.38 158.95 18.4 180.73 30.27C205.04 43.33 224.13 65.76 233.02 91.9C239.13 109.59 240.55 128.82 237.37 147.25C245.19 161 247.9 177.55 244.73 193.06C241.38 210.17 230.83 225.68 216.24 235.21C196.04 248.79 168.29 249.56 147.25 237.38C123.82 241.41 99.11 237.92 77.91 227.1C53.27 214.72 33.62 192.82 24.01 166.97C17.05 148.5 15.3 128.18 18.61 108.74C10.62 94.75 8.02999 77.84 11.44 62.1C14.82 46.02 24.55 31.41 38 21.99Z" fill="#5865F2"/>
<path d="M49 34.98C61.35 26.69 77.55 24.62 91.62 29.41C96.62 31 101.12 33.75 105.64 36.34C123.28 32.49 142 33.05 159.07 39.16C186.24 48.55 208.42 71.08 217.34 98.41C223 115.07 223.38 133.21 219.65 150.34C224.05 157.55 227.84 165.35 228.73 173.85C230.91 189.86 224.39 206.64 212.12 217.12C200.14 227.68 182.84 231.7 167.42 227.49C161.27 226 155.76 222.81 150.34 219.66C131.76 223.73 111.98 222.83 94.21 215.84C67.98 205.85 46.85 183.53 38.38 156.77C32.95 140.32 32.68 122.5 36.35 105.64C30.68 96.8 26.67 86.62 26.87 75.97C26.72 59.73 35.4 43.82 49 34.98Z" fill="white"/>
<path d="M175.73 84.7289C167.043 80.7431 157.728 77.8066 147.989 76.1247C147.811 76.0922 147.634 76.1733 147.543 76.3356C146.345 78.4663 145.018 81.246 144.089 83.4309C133.613 81.8626 123.191 81.8626 112.931 83.4309C112.001 81.1975 110.626 78.4663 109.423 76.3356C109.331 76.1787 109.154 76.0976 108.977 76.1247C99.2427 77.8012 89.9277 80.7377 81.2357 84.7289C81.1604 84.7613 81.0959 84.8155 81.0531 84.8857C63.3844 111.282 58.5442 137.03 60.9186 162.459C60.9294 162.583 60.9992 162.702 61.0959 162.778C72.7532 171.339 84.0453 176.536 95.1278 179.981C95.3051 180.035 95.4931 179.97 95.6059 179.824C98.2275 176.244 100.564 172.469 102.568 168.5C102.686 168.267 102.573 167.991 102.332 167.9C98.625 166.493 95.0955 164.779 91.7004 162.832C91.4318 162.675 91.4103 162.291 91.6574 162.107C92.3718 161.572 93.0865 161.015 93.7687 160.453C93.8921 160.35 94.0641 160.328 94.2093 160.393C116.514 170.577 140.661 170.577 162.703 160.393C162.848 160.323 163.02 160.344 163.149 160.447C163.831 161.01 164.545 161.572 165.265 162.107C165.512 162.291 165.496 162.675 165.228 162.832C161.833 164.817 158.303 166.493 154.591 167.894C154.349 167.986 154.242 168.267 154.36 168.5C156.407 172.464 158.744 176.239 161.317 179.819C161.424 179.97 161.618 180.035 161.795 179.981C172.931 176.536 184.223 171.339 195.88 162.778C195.983 162.702 196.047 162.589 196.058 162.464C198.9 133.066 191.298 107.529 175.907 84.8911C175.87 84.8155 175.805 84.7613 175.73 84.7289ZM105.899 146.976C99.1836 146.976 93.6505 140.811 93.6505 133.239C93.6505 125.668 99.0763 119.503 105.899 119.503C112.775 119.503 118.255 125.722 118.147 133.239C118.147 140.811 112.721 146.976 105.899 146.976ZM151.185 146.976C144.47 146.976 138.937 140.811 138.937 133.239C138.937 125.668 144.363 119.503 151.185 119.503C158.061 119.503 163.541 125.722 163.433 133.239C163.433 140.811 158.061 146.976 151.185 146.976Z" fill="#5865F2"/>
</svg>
