<?xml version="1.0" encoding="UTF-8" standalone="no"?>
<svg
   width="442.38553"
   height="142.84856"
   viewBox="0 0 442.38553 142.84856"
   version="1.1"
   id="svg25"
   sodipodi:docname="cursed-django.svg"
   inkscape:version="1.1.1 (c3084ef, 2021-09-22)"
   xmlns:inkscape="http://www.inkscape.org/namespaces/inkscape"
   xmlns:sodipodi="http://sodipodi.sourceforge.net/DTD/sodipodi-0.dtd"
   xmlns="http://www.w3.org/2000/svg"
   xmlns:svg="http://www.w3.org/2000/svg">
  <defs
     id="defs29" />
  <sodipodi:namedview
     id="namedview27"
     pagecolor="#ffffff"
     bordercolor="#666666"
     borderopacity="1.0"
     inkscape:pageshadow="2"
     inkscape:pageopacity="0.0"
     inkscape:pagecheckerboard="0"
     showgrid="false"
     inkscape:zoom="2.7103647"
     inkscape:cx="116.22052"
     inkscape:cy="102.20027"
     inkscape:window-width="1680"
     inkscape:window-height="997"
     inkscape:window-x="0"
     inkscape:window-y="25"
     inkscape:window-maximized="0"
     inkscape:current-layer="g23"
     fit-margin-top="0"
     fit-margin-left="0"
     fit-margin-right="0"
     fit-margin-bottom="0" />
  <g
     fill="#cc0000"
     fill-rule="evenodd"
     transform="translate(0,-0.4)"
     id="g23">
    <path
       d="m 7,139.6 h 79 c 0,0 -15.1,-68.9 34.9,-96.8 10.9,-5.3 45.6,-25.1 102.4,16.9 1.8,-1.5 3.5,-2.7 3.5,-2.7 0,0 -52,-51.9 -109.9,-46.1 C 87.8,13.5 52,40 31,75 10,110 7,139.6 7,139.6 Z"
       id="path15" />
    <path
       d="m 7,139.6 h 79 c 0,0 -15.1,-68.9 34.9,-96.8 10.9,-5.3 45.6,-25.1 102.4,16.9 1.8,-1.5 3.5,-2.7 3.5,-2.7 0,0 -52,-51.9 -109.9,-46.1 C 87.8,13.5 52,40 31,75 10,110 7,139.6 7,139.6 Z"
       id="path17" />
    <path
       d="m 7,139.6 h 79 c 0,0 -15.1,-68.9 34.9,-96.8 10.9,-5.3 45.6,-25.1 102.4,16.9 1.8,-1.5 3.5,-2.7 3.5,-2.7 0,0 -52,-51.9 -109.9,-46.1 C 87.7,13.5 51.9,40 30.9,75 9.9,110 7,139.6 7,139.6 Z M 171.6,16.5 172,9.8 c -0.9,-0.5 -3.4,-1.7 -9.7,-3.5 l -0.4,6.6 c 3.3,1.1 6.5,2.3 9.7,3.6 z"
       id="path19" />
    <path
       d="m 162.1,37.7 -0.4,6.3 c 3.3,0.1 6.6,0.5 9.9,1.2 L 172,39 c -3.4,-0.7 -6.7,-1.1 -9.9,-1.3 z m -37,-31.2 h 1 l -2,-6.1 c -3.1,0 -6.3,0.2 -9.6,0.6 l 1.9,5.9 c 2.9,-0.3 5.8,-0.4 8.7,-0.4 z m 4.8,36.8 2.3,6.9 c 2.9,-1.4 5.8,-2.6 8.7,-3.5 l -2.2,-6.6 c -3.4,1 -6.3,2.1 -8.8,3.2 z M 84.5,17 80,10.1 c -2.5,1.3 -5.1,2.7 -7.8,4.3 l 4.6,7 c 2.6,-1.6 5.1,-3.1 7.7,-4.4 z m 20.5,45 4.8,7.2 c 1.7,-2.5 3.7,-4.8 5.9,-7.1 l -4.5,-6.8 c -2.3,2.1 -4.4,4.4 -6.2,6.7 z m -14.5,32.2 8.1,6.4 c 0.4,-3.9 1.1,-7.8 2.1,-11.7 l -7.2,-5.7 c -1.3,3.7 -2.2,7.4 -3,11 z M 46.7,46.7 39.6,40.5 C 37,43 34.5,45.5 32.2,48 l 7.7,6.6 c 2.1,-2.7 4.4,-5.4 6.8,-7.9 z M 16.5,91.4 5,87.2 c -1.9,4.3 -4,9.3 -5,12 l 11.5,4.2 c 1.3,-3.4 3.4,-8.3 5,-12 z M 89,119.6 c 0.2,5.3 0.7,9.6 1.2,12.6 l 12,4.3 c -0.9,-3.9 -1.8,-8.3 -2.4,-13 z"
       id="path21" />
    <path
       style="fill:#cc0000;fill-opacity:1;stroke-width:0.3"
       d="m 185.51384,142.51946 c -4.27699,-1.10545 -9.97839,-4.10796 -9.98133,-5.25644 -0.002,-0.64965 2.02985,-12.0358 2.17295,-12.1789 0.0661,-0.0661 0.95563,0.2194 1.97684,0.63435 7.27943,2.9579 12.39354,0.50763 13.52752,-6.48129 0.19755,-1.21751 0.31304,-10.76574 0.31447,-25.999162 l 0.002,-24.075001 h 9.16022 9.16022 l -0.0996,28.125001 c -0.0892,25.205482 -0.1524,28.342992 -0.60858,30.225002 -2.51783,10.38757 -9.21377,15.78101 -19.53528,15.73525 -2.4929,-0.011 -4.01965,-0.19378 -6.08973,-0.72881 z m 154.84504,-12.29423 c -9.05232,-13.88749 -8.72755,-36.594686 0.71459,-49.962213 5.4755,-7.751841 13.351,-12 22.24633,-12 7.48506,0 14.12454,2.918496 19.45826,8.553206 2.03432,2.149125 5.44849,6.958464 5.44849,7.674976 0,0.160167 -6.41642,6.024043 -8.73782,7.985365 -0.43047,0.363702 -0.80081,0.101028 -3.15,-2.234208 -3.01219,-2.994304 -5.68441,-4.58652 -8.75783,-5.218263 -1.65668,-0.340533 -2.14069,-0.325384 -3.83945,0.120167 -4.15172,1.088912 -7.16346,4.381837 -8.94538,9.780538 -3.3608,10.182252 -1.37497,23.622402 4.27052,28.903102 2.45391,2.29534 3.64344,2.76875 6.95996,2.76991 2.15495,6e-4 3.0018,-0.38128 3.83362,-0.52906 l 0.98363,-0.53006 -0.0836,-3.96283 -0.0836,-3.96284 -4.575,-0.0828 -4.575,-0.0828 v -8.54219 -8.54218 h 13.8 13.8 v 21 21 h -4.58911 -4.58912 l -1.17177,-1.2 c -1.34337,-1.37574 -1.54686,-1.41762 -2.92807,-0.60269 -1.42178,0.83887 -4.18752,1.76671 -6.77332,2.27228 -2.71316,0.53047 -10.62999,0.28453 -12.91159,-0.72967 -10.99566,-3.78867 -12.89085,-7.31576 -15.80474,-11.87774 z m 54.46569,-13.96221 c -0.7505,-4.82816 -0.75272,-16.14674 -0.004,-21.000002 1.63736,-10.615165 5.21982,-18.104401 10.8736,-22.731545 6.35448,-5.200614 16.62144,-5.711826 23.53251,-1.17173 7.98759,5.247287 12.50397,16.226908 13.10259,31.853277 0.39522,10.31692 -1.30407,20.03349 -4.72194,27 -3.35409,6.83655 -11.70952,13.03411 -20.0187,12.76033 -12.775,0.0437 -20.91962,-16.01161 -22.76406,-26.71033 z m 24.74015,7.356 c 2.00625,-1.68816 3.01947,-6.49314 3.26571,-15.48679 0.37623,-13.742668 -1.66995,-21.746511 -5.23866,-20.491465 -2.43978,0.85803 -3.94884,7.710819 -3.95937,17.980125 -0.0102,9.98039 1.22391,16.34208 3.5208,18.14882 0.98019,0.77102 1.34307,0.74834 2.41152,-0.15069 z M 123.52656,105.77996 V 69.163017 l 12.375,0.0039 c 10.90793,0.0035 12.69509,0.07035 15.075,0.564134 14.07135,2.919505 24.8221,15.352965 26.87538,31.081929 0.43705,3.34801 0.20913,9.65946 -0.46586,12.9 -2.40831,11.56198 -9.32656,20.82738 -19.14254,25.63702 -5.70292,2.79433 -5.89031,2.82022 -21.29198,2.94131 l -13.425,0.10555 z m 22.83405,19.17853 c 5.20414,-0.98071 9.61976,-5.94103 11.37841,-12.78202 2.58325,-10.04857 -1.36428,-21.23065 -8.71246,-24.679607 -1.28083,-0.601171 -2.23613,-0.835703 -4.275,-0.883996 l -2.625,-0.109548 v 19.379851 19.37985 h 1.30905 c 0.71998,0 2.03623,-0.13704 2.925,-0.30453 z M 280.12656,105.7561 V 69.149172 l 5.30461,0.08192 5.30462,0.08192 7.91367,10.95 c 4.35252,6.022497 9.74786,13.485601 11.98967,16.584667 2.2418,3.099066 4.19107,5.705771 4.33171,5.792701 l 0.25571,-33.477363 h 8.25 8.25 v 36.600003 36.6 h -5.33744 -5.33743 l -1.78757,-2.50715 c -0.98316,-1.37893 -6.44507,-8.94626 -12.13756,-16.8163 l -10.34999,-14.30916 -0.0775,16.81631 -0.0775,16.8163 h -8.2475 -8.2475 z"
       id="path340"
       sodipodi:nodetypes="ccssscccccsccccsssssssssscscccccccccccccsssccccssssccsssssscccsssssccsssscccssccccssccccccccsscccccc" />
    <path
       d="m 256.09571,69.693683 h -21.00009 c -14.96929,0 -20.03085,12.932679 -20.03085,19.091097 v 53.57824 h 21.00009 v -12.83004 h 19.70777 v 12.83004 h 20.35393 V 88.78478 c 0,-15.601327 -14.8616,-19.091097 -20.03085,-19.091097 z m -0.32308,39.105957 H 235.95716 V 91.042867 c 0,0 0,-4.002972 6.56926,-4.002972 h 7.21542 c 5.8154,0 5.9231,4.002972 5.9231,4.002972 v 17.756773 z"
       id="path574"
       style="stroke-width:1.05136" />
  </g>
</svg>
