<?xml version="1.0" encoding="UTF-8" standalone="no"?>
<!-- Generator: Adobe Illustrator 25.2.0, SVG Export Plug-In . SVG Version: 6.00 Build 0)  -->

<svg
   version="1.1"
   id="Layer_1"
   x="0px"
   y="0px"
   viewBox="0 0 486 129"
   style="enable-background:new 0 0 486 129;"
   xml:space="preserve"
   sodipodi:docname="emacs.svg"
   inkscape:version="1.1.1 (3bf5ae0d25, 2021-09-20)"
   xmlns:inkscape="http://www.inkscape.org/namespaces/inkscape"
   xmlns:sodipodi="http://sodipodi.sourceforge.net/DTD/sodipodi-0.dtd"
   xmlns="http://www.w3.org/2000/svg"
   xmlns:svg="http://www.w3.org/2000/svg"><defs
   id="defs179" /><sodipodi:namedview
   id="namedview177"
   pagecolor="#ffffff"
   bordercolor="#666666"
   borderopacity="1.0"
   inkscape:pageshadow="2"
   inkscape:pageopacity="0.0"
   inkscape:pagecheckerboard="0"
   showgrid="false"
   inkscape:zoom="2.4104938"
   inkscape:cx="390.37644"
   inkscape:cy="0.62227913"
   inkscape:window-width="2556"
   inkscape:window-height="1404"
   inkscape:window-x="0"
   inkscape:window-y="16"
   inkscape:window-maximized="1"
   inkscape:current-layer="Layer_1" />
<style
   type="text/css"
   id="style111">
	.st0{fill:#2C2255;}
	.st1{fill:#F7941E;}
	.st2{fill:url(#SVGID_1_);}
	.st3{fill:url(#SVGID_2_);}
	.st4{fill:url(#SVGID_3_);}
	.st5{fill:#FFFFFF;}
	.st6{font-family:'OpenSans';}
	.st7{font-size:16px;}
</style>
<path
   class="st0"
   d="M38.1,76.9H21.4c2.2,7.6,6.3,14.4,12.4,20.4c9.6,9.6,21.1,14.4,34.7,14.4c2.7,0,5.3-0.2,7.9-0.6  c10.2-1.5,19.1-6.1,26.7-13.8c6.1-6,10.2-12.8,12.4-20.4h-6.8h-9.9H38.1z"
   id="path113" />
<g
   id="g119">
	<path
   class="st0"
   d="M28.9,54.2h-8.7c-0.3,1.9-0.5,3.9-0.6,5.9H30h5.2h75.3h6.9c-0.1-2-0.3-4-0.6-5.9"
   id="path115" />
	<path
   class="st0"
   d="M19.5,65.6c0.1,2,0.3,4,0.6,5.9h9.1h6.9h73.6h6.8c0.3-1.9,0.5-3.9,0.6-5.9"
   id="path117" />
</g>
<path
   class="st0"
   d="M115.4,48.7c-2.2-7.6-6.4-14.5-12.4-20.5C95.3,20.6,86.5,16,76.3,14.5c-2.6-0.4-5.2-0.6-7.9-0.6  c-13.5,0-25,4.8-34.7,14.3c-6,6.1-10.1,12.9-12.4,20.5"
   id="path121" />
<g
   id="g125">
	<path
   class="st1"
   d="M16.6,62.8c0-25.8,19.4-47.3,44.6-51c-0.6,0-1.3,0-1.9,0C31,11.7,8.1,34.6,8.1,62.8s23,51.1,51.3,51.1   c0.6,0,1.3,0,1.9,0C36,110.1,16.6,88.7,16.6,62.8z"
   id="path123" />
</g>








<g
   id="g164">
	
		<linearGradient
   id="SVGID_1_"
   gradientUnits="userSpaceOnUse"
   x1="68.4"
   y1="12.5762"
   x2="68.4"
   y2="86.2111"
   gradientTransform="matrix(1 0 0 -1 0 131)">
		<stop
   offset="0.3033"
   style="stop-color:#473788"
   id="stop143" />
		<stop
   offset="0.872"
   style="stop-color:#2C2255"
   id="stop145" />
	</linearGradient>
	<path
   class="st2"
   d="M101.7,60.1c-0.2-2-0.5-4-1-5.9H36.1c-0.5,1.9-0.8,3.9-1,5.9H101.7z"
   id="path148" />
	
		<linearGradient
   id="SVGID_2_"
   gradientUnits="userSpaceOnUse"
   x1="68.4"
   y1="12.5752"
   x2="68.4"
   y2="86.2101"
   gradientTransform="matrix(1 0 0 -1 0 131)">
		<stop
   offset="0.3033"
   style="stop-color:#473788"
   id="stop150" />
		<stop
   offset="0.872"
   style="stop-color:#2C2255"
   id="stop152" />
	</linearGradient>
	<path
   class="st3"
   d="M101.7,65.6H35.1c0.2,2,0.5,4,1,5.9h64.5C101.1,69.6,101.5,67.6,101.7,65.6z"
   id="path155" />
	
		<linearGradient
   id="SVGID_3_"
   gradientUnits="userSpaceOnUse"
   x1="68.4"
   y1="12.5771"
   x2="68.4"
   y2="86.2084"
   gradientTransform="matrix(1 0 0 -1 0 131)">
		<stop
   offset="0.3033"
   style="stop-color:#473788"
   id="stop157" />
		<stop
   offset="0.8631"
   style="stop-color:#2C2255"
   id="stop159" />
	</linearGradient>
	<path
   class="st4"
   d="M68.4,96.2c13.4,0,24.9-7.9,30.3-19.3H38.1C43.4,88.3,55,96.2,68.4,96.2z"
   id="path162" />
</g>
<g
   id="g172">
	<path
   class="st5"
   d="M30.2,65.6h4.9h66.7h8.8h6.7c0-0.9,0.1-1.7,0.1-2.6c0-1,0-1.9-0.1-2.8h-6.6h-8.8H35.1h-5.2H19.5   c-0.1,0.9-0.1,1.9-0.1,2.8c0,0.9,0,1.8,0.1,2.6H30.2z"
   id="path166" />
	<path
   class="st5"
   d="M37.9,48.7H21.4c-0.5,1.8-0.9,3.6-1.2,5.5h8.5H36h64.7h9.2h6.5c-0.3-1.9-0.8-3.7-1.3-5.5"
   id="path168" />
	<path
   class="st5"
   d="M110,71.5h-9.2H36.2h-6.9h-9.1c0.3,1.9,0.7,3.7,1.2,5.5h16.8h60.7h10h6.5c0.5-1.8,1-3.6,1.3-5.5H110z"
   id="path170" />
</g>

<text
   xml:space="preserve"
   style="font-style:normal;font-weight:normal;font-size:40px;line-height:1.25;font-family:sans-serif;fill:#000000;fill-opacity:1;stroke:none"
   x="268.93597"
   y="109.02679"
   id="text18081"><tspan
     sodipodi:role="line"
     id="tspan18079"
     x="268.93597"
     y="109.02679" /></text><text
   xml:space="preserve"
   style="font-style:normal;font-weight:normal;font-size:114.441px;line-height:1.25;font-family:sans-serif;fill:#2c2255;fill-opacity:1;stroke:none;stroke-width:2.86103"
   x="138.48563"
   y="94.424919"
   id="text73346"><tspan
     id="tspan73344">e</tspan></text><text
   xml:space="preserve"
   style="font-style:normal;font-weight:normal;font-size:114.441px;line-height:1.25;font-family:sans-serif;fill:#2c2255;fill-opacity:1;stroke:none;stroke-width:2.86103"
   x="197.88191"
   y="94.424919"
   id="text73350"><tspan
     id="tspan73348">m</tspan></text><text
   xml:space="preserve"
   style="font-style:normal;font-weight:normal;font-size:114.441px;line-height:1.25;font-family:sans-serif;fill:#2c2255;fill-opacity:1;stroke:none;stroke-width:2.86103"
   x="298.23779"
   y="94.424919"
   id="text73354"><tspan
     id="tspan73352">a</tspan></text><text
   xml:space="preserve"
   style="font-style:normal;font-weight:normal;font-size:114.441px;line-height:1.25;font-family:sans-serif;fill:#2c2255;fill-opacity:1;stroke:none;stroke-width:2.86103"
   x="357.13116"
   y="94.424919"
   id="text73358"><tspan
     id="tspan73356">c</tspan></text><text
   xml:space="preserve"
   style="font-style:normal;font-weight:normal;font-size:114.441px;line-height:1.25;font-family:sans-serif;fill:#2c2255;fill-opacity:1;stroke:none;stroke-width:2.86103"
   x="412.22473"
   y="94.424919"
   id="text73362"><tspan
     id="tspan73360">s</tspan></text><text
   xml:space="preserve"
   style="font-style:normal;font-weight:normal;font-size:11.8912px;line-height:1.25;font-family:sans-serif;fill:#2c2255;fill-opacity:1;stroke:none;stroke-width:0.29728"
   x="-467.90329"
   y="22.522282"
   id="text75467"
   transform="scale(-1,1)"><tspan
     sodipodi:role="line"
     id="tspan75465"
     x="-467.90329"
     y="22.522282"
     style="stroke-width:0.29728">©</tspan></text></svg>
