<?xml version="1.0" encoding="UTF-8" standalone="no"?>
<svg
   width="6000"
   height="4000"
   viewBox="0 0 614.4 409.6"
   preserveAspectRatio="xMidYMid"
   version="1.1"
   id="svg85326"
   sodipodi:docname="facebook.svg"
   inkscape:version="1.1.1 (3bf5ae0d25, 2021-09-20, custom)"
   xmlns:inkscape="http://www.inkscape.org/namespaces/inkscape"
   xmlns:sodipodi="http://sodipodi.sourceforge.net/DTD/sodipodi-0.dtd"
   xmlns="http://www.w3.org/2000/svg"
   xmlns:svg="http://www.w3.org/2000/svg">
  <defs
     id="defs85330">
    <rect
       x="-678.35637"
       y="-784.48813"
       width="6741.1168"
       height="5238.9731"
       id="rect13198" />
  </defs>
  <sodipodi:namedview
     id="namedview85328"
     pagecolor="#ffffff"
     bordercolor="#666666"
     borderopacity="1.0"
     inkscape:pageshadow="2"
     inkscape:pageopacity="0.0"
     inkscape:pagecheckerboard="0"
     showgrid="false"
     width="5000px"
     inkscape:zoom="0.042698918"
     inkscape:cx="3536.3894"
     inkscape:cy="-140.51878"
     inkscape:window-width="1338"
     inkscape:window-height="721"
     inkscape:window-x="12"
     inkscape:window-y="31"
     inkscape:window-maximized="1"
     inkscape:current-layer="text86874" />
  <path
     d="m 434.04942,140.83679 c 0,-70.694005 -57.309,-128.004005 -128.002,-128.004005 -70.662,0 -127.948,57.262 -127.998,127.914005 v 99.054 c 0.038,16.042 13.049,29.029 29.101,29.029 h 98.949 c 70.67,-0.028 127.95,-57.318 127.95,-127.993"
     fill="#294172"
     id="path85320"
     inkscape:export-filename="/home/nan0scho1ar/Pictures/memes/Programming/Cursed Logos/OC/Facebook(fedora).png"
     inkscape:export-xdpi="96"
     inkscape:export-ydpi="96" />
  <path
     d="m 343.62942,43.139785 c -33.109,0 -60.045,26.935 -60.045,60.044995 v 31.87001 h -31.738 c -33.109,0 -60.045,26.937 -60.045,60.046 0,33.108 26.936,60.045 60.045,60.045 33.109,0 60.045,-26.937 60.045,-60.045 v -31.871 h 31.738 c 33.109,0 60.046,-26.936 60.046,-60.04501 0,-33.109995 -26.937,-60.044995 -60.046,-60.044995 z m -59.823,151.961005 c 0,17.622 -14.337,31.959 -31.96,31.959 -17.623,0 -31.96,-14.337 -31.96,-31.959 0,-17.623 14.337,-31.96 31.96,-31.96 h 31.738 v 0.089 h 0.222 z m 59.823,-59.956 h -31.738 v -0.09 h -0.221 v -31.87001 c 0,-17.622995 14.337,-31.959995 31.959,-31.959995 17.622,0 31.96,14.337 31.96,31.959995 0,17.62301 -14.338,31.96001 -31.96,31.96001 z"
     fill="#3c6eb4"
     id="path85322"
     inkscape:export-filename="/home/nan0scho1ar/Pictures/memes/Programming/Cursed Logos/OC/Facebook(fedora).png"
     inkscape:export-xdpi="96"
     inkscape:export-ydpi="96" />
  <path
     d="m 356.90042,44.960785 c -4.66,-1.218 -8.238,-1.786 -13.271,-1.786 -33.177,0 -60.075,26.899 -60.075,60.073995 v 31.84201 h -25.16 c -7.845,0 -14.185,6.165 -14.18,13.996 0,7.782 6.27,13.973 14.032,13.973 l 20.831,0.004 c 2.473,0 4.479,2 4.479,4.469 v 27.553 c -0.031,17.491 -14.219,31.659 -31.71,31.659 -5.925,0 -7.392,-0.776 -11.437,-0.776 -8.497,0 -14.182,5.696 -14.182,13.528 0,6.479 5.554,12.049 12.348,13.827 4.66,1.218 8.238,1.787 13.271,1.787 33.177,0 60.075,-26.899 60.075,-60.075 v -31.841 h 25.16 c 7.845,0 14.185,-6.165 14.18,-13.996 0,-7.783 -6.27,-13.973 -14.032,-13.973 l -20.831,-0.004 a 4.475,4.475 0 0 1 -4.479,-4.47 v -27.55301 c 0.031,-17.490995 14.219,-31.658995 31.71,-31.658995 5.925,0 7.392,0.777 11.437,0.777 8.497,0 14.182,-5.697 14.182,-13.528 0,-6.48 -5.554,-12.05 -12.348,-13.828"
     fill="#ffffff"
     id="path85324"
     inkscape:export-filename="/home/nan0scho1ar/Pictures/memes/Programming/Cursed Logos/OC/Facebook(fedora).png"
     inkscape:export-xdpi="96"
     inkscape:export-ydpi="96" />
  <g
     aria-label="Facebook"
     id="text86874"
     style="font-size:136.533px;line-height:1.25;font-family:GurbaniBoliLite;-inkscape-font-specification:GurbaniBoliLite;fill:#3c6eb4;stroke-width:0.1024"
     transform="translate(0.25954395,-0.09292983)">
    <path
       d="M 40.552448,387.75533 H 28.152478 V 290.2889 h 50.599878 v 10.93331 H 40.552448 v 34.39992 h 35.666581 v 10.9333 H 40.552448 Z"
       id="path17317" />
    <path
       d="m 134.81889,387.75533 -2.46666,-10.1333 h -0.53333 q -2.2,2.99999 -4.39999,5.19998 -2.19999,2.13333 -4.79999,3.53333 -2.59999,1.39999 -5.79998,2.06666 -3.2,0.66666 -7.39999,0.66666 -4.59999,0 -8.46665,-1.33333 -3.866654,-1.26666 -6.733314,-3.93332 -2.799994,-2.73333 -4.39999,-6.79998 Q 88.219,372.8887 88.219,367.28872 q 0,-10.93331 7.666648,-16.79996 7.733322,-5.86665 23.466612,-6.39999 l 12.26664,-0.46666 v -4.59999 q 0,-4.46666 -1,-7.46665 -0.93333,-2.99999 -2.79999,-4.79999 -1.8,-1.86666 -4.53332,-2.66666 -2.66666,-0.8 -6.13332,-0.8 -5.53332,0 -10.33331,1.6 -4.73332,1.6 -9.133316,3.86666 l -4.266656,-9.13331 q 4.933321,-2.66667 10.999982,-4.53333 6.06665,-1.86666 12.7333,-1.86666 6.79998,0 11.7333,1.4 4.99999,1.33333 8.19998,4.33332 3.26666,2.93333 4.86666,7.53332 1.59999,4.59998 1.59999,11.1333 v 50.13321 z m -22.26661,-8.46664 q 4.06666,0 7.53331,-1.26667 3.46666,-1.26666 5.99999,-3.79999 2.53333,-2.59999 3.93332,-6.46665 1.46667,-3.93332 1.46667,-9.19998 v -6.59998 l -9.53331,0.46667 q -5.99999,0.26666 -10.06665,1.33333 -4.06665,1.06666 -6.53331,2.99999 -2.4,1.86666 -3.46667,4.59999 -1.06666,2.66666 -1.06666,6.06665 0,6.13332 3.2,8.99998 3.26665,2.86666 8.53331,2.86666 z"
       id="path17319" />
    <path
       d="m 194.01874,389.08866 q -6.73332,0 -12.59997,-2.06666 -5.86665,-2.13333 -10.19997,-6.66665 -4.33333,-4.59999 -6.79999,-11.66664 -2.46666,-7.13331 -2.46666,-17.13329 0,-10.46664 2.53333,-17.73329 2.53333,-7.33331 6.93332,-11.86664 4.46665,-4.59999 10.39997,-6.66665 5.93332,-2.06666 12.7333,-2.06666 5.19999,0 10.13331,1.13333 4.99999,1.13333 8.33332,2.79999 l -3.6,10.26665 q -1.53333,-0.66667 -3.39999,-1.26667 -1.86666,-0.66666 -3.86665,-1.13333 -2,-0.53333 -3.93333,-0.8 -1.93333,-0.33333 -3.66666,-0.33333 -10.46664,0 -15.26663,6.73332 -4.79998,6.66665 -4.79998,20.79995 0,14.06663 4.79998,20.59995 4.86666,6.46665 14.7333,6.46665 5.39999,0 9.73331,-1.2 4.39999,-1.26666 7.99998,-2.93332 v 10.79997 q -3.59999,1.93333 -7.73331,2.93333 -4.06666,0.99999 -9.99998,0.99999 z"
       id="path17321" />
    <path
       d="m 258.15193,389.08866 q -7.33331,0 -13.39997,-2.46666 -6.06665,-2.46666 -10.46664,-7.19998 -4.33332,-4.73332 -6.73331,-11.7333 -2.4,-6.99999 -2.4,-15.99997 0,-9.06664 2.2,-16.19996 2.19999,-7.13331 6.19998,-12.06663 3.99999,-4.99999 9.53331,-7.59999 5.59999,-2.59999 12.33331,-2.59999 6.59998,0 11.86663,2.39999 5.26666,2.33333 8.93332,6.66666 3.66665,4.26665 5.59998,10.3333 2,5.99999 2,13.33331 v 7.53331 h -46.13323 q 0.33334,12.86664 5.39999,18.93329 5.13332,6.06665 15.19997,6.06665 3.39999,0 6.26665,-0.33333 2.93332,-0.33333 5.59998,-0.93333 2.73333,-0.66667 5.26666,-1.6 2.53332,-1 5.13332,-2.19999 v 10.79997 q -2.66666,1.26666 -5.26666,2.19999 -2.53332,0.93334 -5.26665,1.53333 -2.66666,0.6 -5.59999,0.86667 -2.86666,0.26666 -6.26665,0.26666 z m -2.99999,-65.79984 q -7.59998,0 -12.06664,5.19999 -4.39999,5.19999 -5.13332,15.1333 h 32.79992 q 0,-4.53332 -0.93333,-8.26665 -0.86666,-3.79999 -2.79999,-6.46665 -1.86666,-2.66666 -4.79999,-4.13332 -2.93333,-1.46667 -7.06665,-1.46667 z"
       id="path17323" />
    <path
       d="m 335.35175,313.22218 q 6.26665,0 11.39998,2.39999 5.13332,2.4 8.73331,7.19999 3.66666,4.73332 5.66665,11.79997 2,7.06665 2,16.39996 0,9.39998 -2,16.53329 -1.99999,7.06665 -5.66665,11.86664 -3.59999,4.79999 -8.73331,7.26665 -5.13333,2.39999 -11.39998,2.39999 -3.93332,0 -7.13331,-0.86666 -3.2,-0.86666 -5.79999,-2.26666 -2.53333,-1.46666 -4.53332,-3.39999 -1.93333,-1.93333 -3.46666,-4.06666 h -0.8 l -2.46666,9.26664 h -8.86664 V 284.02225 h 12.1333 v 25.06661 q 0,2.33332 -0.0667,4.99999 -0.0667,2.59999 -0.2,4.86665 -0.13333,2.66666 -0.26666,5.19999 h 0.53333 q 1.53333,-2.33333 3.46666,-4.33333 1.93333,-1.99999 4.46665,-3.46665 2.6,-1.46667 5.79999,-2.26666 3.19999,-0.86667 7.19998,-0.86667 z m -2.33332,10.06664 q -5.33332,0 -8.93332,1.73333 -3.53332,1.66666 -5.73332,5.13332 -2.13332,3.46666 -3.06666,8.66665 -0.86666,5.19999 -0.86666,12.19997 0,6.73332 0.86666,11.99997 0.93334,5.19999 3.06666,8.79998 2.2,3.53332 5.79999,5.39999 3.59999,1.79999 8.99998,1.79999 8.99998,0 13.19997,-7.26665 4.26665,-7.26665 4.26665,-20.86661 0,-13.86664 -4.26665,-20.73329 -4.19999,-6.86665 -13.3333,-6.86665 z"
       id="path17325" />
    <path
       d="m 441.95148,351.02209 q 0,9.13331 -2.26667,16.26663 -2.19999,7.06665 -6.39998,11.9333 -4.13332,4.79999 -10.06664,7.33332 -5.93332,2.53332 -13.3333,2.53332 -6.86665,0 -12.66664,-2.53332 -5.79999,-2.53333 -10.06664,-7.33332 -4.19999,-4.86665 -6.59999,-11.9333 -2.33332,-7.13332 -2.33332,-16.26663 0,-9.06665 2.19999,-16.06663 2.26666,-7.06665 6.39998,-11.86664 4.13333,-4.86665 10.06665,-7.33331 5.99998,-2.53333 13.39997,-2.53333 6.86665,0 12.66663,2.53333 5.79999,2.46666 9.99998,7.33331 4.26665,4.79999 6.59998,11.86664 2.4,6.99998 2.4,16.06663 z m -51.19988,0 q 0,13.9333 4.53332,20.99995 4.59999,6.99998 14.86663,6.99998 10.26664,0 14.7333,-6.99998 4.53332,-7.06665 4.53332,-20.99995 0,-13.9333 -4.59999,-20.79995 -4.53332,-6.93332 -14.79996,-6.93332 -10.26664,0 -14.79997,6.93332 -4.46665,6.86665 -4.46665,20.79995 z"
       id="path17327" />
    <path
       d="m 520.75131,351.02209 q 0,9.13331 -2.26666,16.26663 -2.2,7.06665 -6.39998,11.9333 -4.13333,4.79999 -10.06665,7.33332 -5.93332,2.53332 -13.3333,2.53332 -6.86665,0 -12.66663,-2.53332 -5.79999,-2.53333 -10.06665,-7.33332 -4.19999,-4.86665 -6.59998,-11.9333 -2.33333,-7.13332 -2.33333,-16.26663 0,-9.06665 2.2,-16.06663 2.26666,-7.06665 6.39998,-11.86664 4.13332,-4.86665 10.06664,-7.33331 5.99999,-2.53333 13.39997,-2.53333 6.86665,0 12.66664,2.53333 5.79998,2.46666 9.99997,7.33331 4.26666,4.79999 6.59999,11.86664 2.39999,6.99998 2.39999,16.06663 z m -51.19988,0 q 0,13.9333 4.53333,20.99995 4.59999,6.99998 14.86663,6.99998 10.26664,0 14.7333,-6.99998 4.53332,-7.06665 4.53332,-20.99995 0,-13.9333 -4.59999,-20.79995 -4.53332,-6.93332 -14.79997,-6.93332 -10.26664,0 -14.79996,6.93332 -4.46666,6.86665 -4.46666,20.79995 z"
       id="path17329" />
    <path
       d="m 551.08453,349.95543 8.99998,-11.33331 19.53329,-24.06661 h 14.06663 l -26.73327,31.66659 28.53327,41.53323 h -13.9333 l -22.39995,-33.59991 -7.26665,5.46665 v 28.13326 H 539.88456 V 284.02225 h 11.99997 v 47.59989 l -1.06666,18.33329 z"
       id="path17331" />
  </g>
  <text
     xml:space="preserve"
     transform="scale(0.1024)"
     id="text13196"
     style="fill:black;fill-opacity:1;line-height:1.25;stroke:none;font-family:sans-serif;font-style:normal;font-weight:normal;font-size:40px;white-space:pre;shape-inside:url(#rect13198)" />
</svg>
