<?xml version="1.0" encoding="UTF-8" standalone="no"?>
<svg
   width="6000"
   height="4000"
   viewBox="0 0 614.4 409.6"
   preserveAspectRatio="xMidYMid"
   version="1.1"
   id="svg85326"
   sodipodi:docname="facebook.svg"
   inkscape:version="1.1.1 (3bf5ae0d25, 2021-09-20, custom)"
   xmlns:inkscape="http://www.inkscape.org/namespaces/inkscape"
   xmlns:sodipodi="http://sodipodi.sourceforge.net/DTD/sodipodi-0.dtd"
   xmlns="http://www.w3.org/2000/svg"
   xmlns:svg="http://www.w3.org/2000/svg">
  <defs
     id="defs85330" />
  <sodipodi:namedview
     id="namedview85328"
     pagecolor="#ffffff"
     bordercolor="#666666"
     borderopacity="1.0"
     inkscape:pageshadow="2"
     inkscape:pageopacity="0.0"
     inkscape:pagecheckerboard="0"
     showgrid="false"
     width="5000px"
     inkscape:zoom="0.063488766"
     inkscape:cx="2913.9013"
     inkscape:cy="1858.5965"
     inkscape:window-width="1338"
     inkscape:window-height="721"
     inkscape:window-x="12"
     inkscape:window-y="31"
     inkscape:window-maximized="1"
     inkscape:current-layer="svg85326" />
  <path
     d="m 434.04942,140.83679 c 0,-70.694005 -57.309,-128.004005 -128.002,-128.004005 -70.662,0 -127.948,57.262 -127.998,127.914005 v 99.054 c 0.038,16.042 13.049,29.029 29.101,29.029 h 98.949 c 70.67,-0.028 127.95,-57.318 127.95,-127.993"
     fill="#294172"
     id="path85320"
     inkscape:export-filename="/home/nan0scho1ar/Pictures/memes/Programming/Cursed Logos/OC/Facebook(fedora).png"
     inkscape:export-xdpi="96"
     inkscape:export-ydpi="96" />
  <path
     d="m 343.62942,43.139785 c -33.109,0 -60.045,26.935 -60.045,60.044995 v 31.87001 h -31.738 c -33.109,0 -60.045,26.937 -60.045,60.046 0,33.108 26.936,60.045 60.045,60.045 33.109,0 60.045,-26.937 60.045,-60.045 v -31.871 h 31.738 c 33.109,0 60.046,-26.936 60.046,-60.04501 0,-33.109995 -26.937,-60.044995 -60.046,-60.044995 z m -59.823,151.961005 c 0,17.622 -14.337,31.959 -31.96,31.959 -17.623,0 -31.96,-14.337 -31.96,-31.959 0,-17.623 14.337,-31.96 31.96,-31.96 h 31.738 v 0.089 h 0.222 z m 59.823,-59.956 h -31.738 v -0.09 h -0.221 v -31.87001 c 0,-17.622995 14.337,-31.959995 31.959,-31.959995 17.622,0 31.96,14.337 31.96,31.959995 0,17.62301 -14.338,31.96001 -31.96,31.96001 z"
     fill="#3c6eb4"
     id="path85322"
     inkscape:export-filename="/home/nan0scho1ar/Pictures/memes/Programming/Cursed Logos/OC/Facebook(fedora).png"
     inkscape:export-xdpi="96"
     inkscape:export-ydpi="96" />
  <path
     d="m 356.90042,44.960785 c -4.66,-1.218 -8.238,-1.786 -13.271,-1.786 -33.177,0 -60.075,26.899 -60.075,60.073995 v 31.84201 h -25.16 c -7.845,0 -14.185,6.165 -14.18,13.996 0,7.782 6.27,13.973 14.032,13.973 l 20.831,0.004 c 2.473,0 4.479,2 4.479,4.469 v 27.553 c -0.031,17.491 -14.219,31.659 -31.71,31.659 -5.925,0 -7.392,-0.776 -11.437,-0.776 -8.497,0 -14.182,5.696 -14.182,13.528 0,6.479 5.554,12.049 12.348,13.827 4.66,1.218 8.238,1.787 13.271,1.787 33.177,0 60.075,-26.899 60.075,-60.075 v -31.841 h 25.16 c 7.845,0 14.185,-6.165 14.18,-13.996 0,-7.783 -6.27,-13.973 -14.032,-13.973 l -20.831,-0.004 a 4.475,4.475 0 0 1 -4.479,-4.47 v -27.55301 c 0.031,-17.490995 14.219,-31.658995 31.71,-31.658995 5.925,0 7.392,0.777 11.437,0.777 8.497,0 14.182,-5.697 14.182,-13.528 0,-6.48 -5.554,-12.05 -12.348,-13.828"
     fill="#ffffff"
     id="path85324"
     inkscape:export-filename="/home/nan0scho1ar/Pictures/memes/Programming/Cursed Logos/OC/Facebook(fedora).png"
     inkscape:export-xdpi="96"
     inkscape:export-ydpi="96" />
  <text
     xml:space="preserve"
     style="font-style:normal;font-variant:normal;font-weight:normal;font-stretch:normal;font-size:136.533px;line-height:1.25;font-family:GurbaniBoliLite;-inkscape-font-specification:GurbaniBoliLite;fill:#3c6eb4;fill-opacity:1;stroke-width:0.1024"
     x="12.895727"
     y="384.52444"
     id="text86874"
     inkscape:export-filename="/home/nan0scho1ar/Pictures/memes/Programming/Cursed Logos/OC/Facebook(fedora).png"
     inkscape:export-xdpi="96"
     inkscape:export-ydpi="96"><tspan
       sodipodi:role="line"
       id="tspan86872"
       style="font-style:normal;font-variant:normal;font-weight:normal;font-stretch:normal;font-size:136.533px;font-family:GurbaniBoliLite;-inkscape-font-specification:GurbaniBoliLite;fill:#3c6eb4;fill-opacity:1;stroke-width:0.1024"
       x="12.895727"
       y="384.52444">Facebook</tspan></text>
</svg>
