<?xml version="1.0" encoding="UTF-8" standalone="no"?>
<svg
   width="100%"
   height="100%"
   viewBox="0 0 1200 800"
   version="1.1"
   xml:space="preserve"
   style="fill-rule:evenodd;clip-rule:evenodd;stroke-linejoin:round;stroke-miterlimit:1.41421;"
   id="svg244"
   xmlns="http://www.w3.org/2000/svg"
   xmlns:svg="http://www.w3.org/2000/svg"><defs
   id="defs248">
        
        
        
        
        
        
        
        
        
    </defs>
    <g
   transform="translate(1009.4,506.362)"
   id="g209"
   style="fill:#2b8390;fill-opacity:1">
            <path
   d="m 0,-7.203 -12.072,-25.006 c 0.063,-0.947 0.111,-1.898 0.111,-2.853 0,-28.346 -29.478,-54.471 -79.069,-75.389 v 17.393 c -4.836,-1.919 -9.871,-3.787 -15.117,-5.593 v -8.108 c -70.874,-25.56 -176.383,-41.778 -294.241,-41.778 -102.973,0 -196.529,12.38 -265.791,32.554 v 28.246 h -0.002 v -34.188 c -70.96,22.55 -114.954,53.877 -114.954,88.515 0,5.46 1.101,10.838 3.217,16.113 l -7.228,12.867 c 0,0 -5.792,7.512 4.406,23.362 8.994,13.977 54.048,68.685 77.827,97.335 10.214,14.687 17.141,23.734 17.746,22.859 0.955,-1.386 -6.351,-28.961 -26.635,-60.423 -9.466,-16.895 -20.768,-39.283 -27.554,-55.819 18.942,11.99 130.23,68.029 357.232,67.801 231.994,-0.232 335.115,-72.851 346.433,-82.737 -3.955,15.889 -17.468,48.033 -28.245,70.638 -17.706,32.331 -24.12,60.478 -23.296,61.87 0.524,0.878 6.565,-8.441 15.476,-23.543 C -51.025,87.37 -11.739,30.974 -3.889,16.608 5.007,0.323 0,-7.203 0,-7.203"
   style="fill:#2b8390;fill-rule:nonzero;fill-opacity:1"
   id="path207" />
        </g><g
   transform="translate(1079.49,294.885)"
   id="g213"
   style="fill:#6ad7e5;fill-opacity:1">
            <path
   d="m 0,204.135 -79.343,-58.446 c -0.745,-2.6 -1.49,-5.201 -2.26,-7.781 l 26.062,-37.754 c 2.66,-3.84 3.196,-8.832 1.469,-13.211 -1.731,-4.358 -5.515,-7.482 -9.99,-8.247 l -44.066,-7.479 c -1.709,-3.485 -3.498,-6.916 -5.294,-10.319 L -94.907,18.51 c 1.903,-4.317 1.505,-9.335 -1.022,-13.254 -2.517,-3.937 -6.786,-6.237 -11.338,-6.058 l -44.724,1.625 c -2.315,-3.016 -4.667,-6.003 -7.067,-8.937 l 10.278,-45.432 c 1.042,-4.612 -0.274,-9.443 -3.487,-12.794 -3.195,-3.339 -7.838,-4.722 -12.253,-3.639 l -43.562,10.709 c -2.82,-2.493 -5.688,-4.953 -8.588,-7.365 l 1.567,-46.641 c 0.168,-4.721 -2.033,-9.208 -5.812,-11.829 -3.777,-2.636 -8.57,-3.032 -12.701,-1.074 l -40.638,19.321 c -3.273,-1.878 -6.565,-3.737 -9.892,-5.537 l -7.181,-45.961 c -0.729,-4.656 -3.724,-8.612 -7.919,-10.418 -4.185,-1.817 -8.976,-1.228 -12.648,1.536 l -36.232,27.185 c -3.569,-1.185 -7.153,-2.32 -10.779,-3.407 l -15.617,-43.585 c -1.588,-4.443 -5.25,-7.706 -9.716,-8.624 -4.45,-0.909 -9.028,0.632 -12.114,4.08 l -30.499,34.119 c -3.685,-0.423 -7.377,-0.81 -11.076,-1.131 l -23.549,-39.676 c -2.384,-4.018 -6.597,-6.464 -11.139,-6.464 -4.529,0 -8.75,2.446 -11.118,6.464 l -23.555,39.676 c -3.701,0.321 -7.408,0.708 -11.088,1.131 l -30.499,-34.119 c -3.09,-3.448 -7.684,-4.989 -12.122,-4.08 -4.46,0.93 -8.128,4.181 -9.707,8.624 l -15.629,43.585 c -3.621,1.087 -7.205,2.23 -10.78,3.407 l -36.22,-27.185 c -3.683,-2.774 -8.478,-3.361 -12.668,-1.536 -4.181,1.806 -7.188,5.762 -7.913,10.418 l -7.186,45.961 c -3.322,1.8 -6.614,3.649 -9.895,5.537 l -40.634,-19.321 c -4.127,-1.966 -8.945,-1.562 -12.704,1.074 -3.773,2.621 -5.98,7.108 -5.81,11.829 l 1.562,46.641 c -2.894,2.412 -5.756,4.872 -8.591,7.365 l -43.554,-10.709 c -4.423,-1.074 -9.062,0.3 -12.265,3.639 -3.221,3.351 -4.526,8.182 -3.491,12.794 l 10.257,45.432 c -2.378,2.945 -4.733,5.921 -7.042,8.937 l -44.724,-1.625 c -4.513,-0.135 -8.821,2.121 -11.343,6.058 -2.527,3.919 -2.91,8.937 -1.029,13.254 l 18.528,42.388 c -1.799,3.403 -3.586,6.834 -5.309,10.319 l -44.063,7.479 c -4.479,0.754 -8.252,3.876 -9.994,8.247 -1.728,4.379 -1.167,9.371 1.474,13.211 l 26.066,37.754 c -0.201,0.667 -0.387,1.339 -0.587,2.008 l -73.696,78.285 c 0,0 -11.296,8.851 5.147,29.654 14.5,18.351 88.951,91.096 128.271,129.205 16.606,19.348 27.984,31.329 29.172,30.293 1.876,-1.645 -7.972,-36.847 -40.682,-78.149 -25.216,-37.056 -57.941,-94.049 -50.267,-100.618 0,0 8.729,-11.081 26.242,-19.057 0.641,0.512 -0.662,-0.507 0,0 0,0 369.595,170.491 712.429,2.884 39.164,-7.025 62.873,13.955 62.873,13.955 8.176,4.74 -12.996,63.344 -30.407,102.137 -23.679,44.05 -27.151,78.422 -25.144,79.614 1.268,0.757 9.883,-12.353 22.172,-33.217 C -67.814,332.649 -10.492,252.1 0,232.534 11.895,210.352 0,204.135 0,204.135"
   style="fill:#6ad7e5;fill-rule:nonzero;fill-opacity:1"
   id="path211" />
        </g><g
   transform="translate(917.896,244.679)"
   id="g217"
   style="fill:#6ad7e5;fill-opacity:1">
            <path
   d="m 0,232.466 c 0,0 53.179,-2.466 123.032,-73.462 l 9.898,-21.979 c 0,0 -108.417,-107.848 60.118,-182.291 0,0 -14.755,24.112 -10.426,117.272 0,0 50.815,-17.649 65.714,-99.94 0,0 74.12,97.724 -80.502,189.377 0,0 -72.54,116.289 -174.805,105.15 z"
   style="fill:#6ad7e5;fill-rule:nonzero;fill-opacity:1"
   id="path215" />
        </g><g
   transform="translate(512.148,482.736)"
   id="g229">
            
        </g><g
   transform="translate(269.796,270.778)"
   id="g241"
   style="fill:#6ad7e5;fill-opacity:1">
            <path
   d="m 0,190.741 c -0.667,0 -1.321,0.049 -1.973,0.101 -26.234,-5.971 -99.973,-25.185 -119.464,-56.363 0,0 99.227,-112.872 -55.86,-185.019 l 18.057,124.878 c 0,0 -47.809,-31.949 -58.126,-101.346 0,0 -116.423,84.494 51.384,165.474 0,0 15.22,57.187 161.349,102.815 l 0.107,-0.435 c 1.471,0.272 2.977,0.435 4.526,0.435 13.808,0 25.003,-11.312 25.003,-25.271 0,-13.956 -11.195,-25.269 -25.003,-25.269"
   style="fill:#6ad7e5;fill-rule:nonzero;fill-opacity:1"
   id="path239" />
        </g>
<g
   id="g1647"
   transform="matrix(1.5942346,0,0,1.5942346,-330.99225,-261.89914)"><path
     fill-rule="evenodd"
     clip-rule="evenodd"
     fill="#ffffff"
     stroke="#000000"
     stroke-width="2.9081"
     stroke-linecap="round"
     d="m 597.68516,379.61233 c 10.838,63.003 113.822,46.345 99.03,-17.197 -13.264,-56.98 -102.632,-41.208 -99.03,17.197"
     id="path278" /><path
     fill-rule="evenodd"
     clip-rule="evenodd"
     fill="#ffffff"
     stroke="#000000"
     stroke-width="2.8214"
     stroke-linecap="round"
     d="m 474.61916,389.80233 c 14.047,54.85 101.864,40.807 98.554,-14.213 -3.966,-65.895 -111.984,-53.18 -98.554,14.213"
     id="path280" /><path
     fill-rule="evenodd"
     clip-rule="evenodd"
     fill="#ffffff"
     stroke="#000000"
     stroke-width="3"
     stroke-linecap="round"
     d="m 610.11016,455.21433 c 0.046,8.191 1.861,17.387 0.312,26.101 -2.091,3.952 -6.193,4.37 -9.729,5.967 -4.89,-0.767 -9.002,-3.978 -10.963,-8.552 -1.255,-9.946 0.468,-19.576 0.785,-29.526 z"
     id="path282" /><g
     id="g288"
     transform="translate(391.51616,285.45233)">
	<ellipse
   fill-rule="evenodd"
   clip-rule="evenodd"
   cx="107.324"
   cy="95.403999"
   rx="14.829"
   ry="16.062"
   id="ellipse284" />
	<ellipse
   fill-rule="evenodd"
   clip-rule="evenodd"
   fill="#ffffff"
   cx="114.069"
   cy="99.028999"
   rx="3.4960001"
   ry="4.0819998"
   id="ellipse286" />
</g><g
     id="g294"
     transform="translate(391.51616,285.45233)">
	<ellipse
   fill-rule="evenodd"
   clip-rule="evenodd"
   cx="231.571"
   cy="91.403999"
   rx="14.582"
   ry="16.062"
   id="ellipse290" />
	<ellipse
   fill-rule="evenodd"
   clip-rule="evenodd"
   fill="#ffffff"
   cx="238.20399"
   cy="95.028999"
   rx="3.438"
   ry="4.0819998"
   id="ellipse292" />
</g><path
     fill-rule="evenodd"
     clip-rule="evenodd"
     fill="#ffffff"
     stroke="#000000"
     stroke-width="3"
     stroke-linecap="round"
     d="m 567.73316,454.32233 c -6.47,15.68 3.608,47.035 21.163,23.908 -1.255,-9.946 0.468,-19.576 0.785,-29.526 z"
     id="path296" /><g
     id="g302"
     transform="translate(391.51616,285.45233)">
	<path
   fill-rule="evenodd"
   clip-rule="evenodd"
   fill="#f6d2a2"
   stroke="#231f20"
   stroke-width="3"
   stroke-linecap="round"
   d="m 178.431,138.673 c -12.059,1.028 -21.916,15.366 -15.646,26.709 8.303,15.024 26.836,-1.329 38.379,0.203 13.285,0.272 24.17,14.047 34.84,2.49 11.867,-12.854 -5.109,-25.373 -18.377,-30.97 z"
   id="path298" />
	<path
   fill-rule="evenodd"
   clip-rule="evenodd"
   d="m 176.913,138.045 c -0.893,-20.891 38.938,-23.503 43.642,-6.016 4.692,17.446 -41.681,21.498 -43.642,6.016 -1.565,-12.363 0,0 0,0 z"
   id="path300" />
</g></g></svg>
