<?xml version="1.0" encoding="UTF-8" standalone="no"?><!DOCTYPE svg PUBLIC "-//W3C//DTD SVG 1.1//EN" "http://www.w3.org/Graphics/SVG/1.1/DTD/svg11.dtd"><svg width="100%" height="100%" viewBox="0 0 2202 613" version="1.1" xmlns="http://www.w3.org/2000/svg" xmlns:xlink="http://www.w3.org/1999/xlink" xml:space="preserve" xmlns:serif="http://www.serif.com/" style="fill-rule:evenodd;clip-rule:evenodd;stroke-linecap:square;"><g><g><path d="M362.317,188.729c-0.563,10.74 -2.21,18.682 -4.94,23.828c-2.731,5.146 -5.886,7.719 -9.466,7.719l-35.238,-0c4.641,5.369 7.845,11.466 9.613,18.29c1.768,6.824 2.458,13.927 2.071,21.31c-0.914,17.451 -4.635,32.945 -11.161,46.481c-6.527,13.535 -15.459,24.946 -26.796,34.231c-11.338,9.285 -24.796,16.332 -40.373,21.142c-15.578,4.811 -32.764,7.216 -51.557,7.216c-9.621,-0 -18.732,-1.175 -27.335,-3.524c-8.602,-2.349 -15.17,-5.09 -19.705,-8.222c-2.837,2.908 -5.424,6.376 -7.76,10.403c-2.337,4.028 -3.634,8.502 -3.892,13.424c-0.34,6.489 2.234,11.802 7.722,15.941c5.489,4.139 13.367,6.433 23.635,6.88l72.684,2.685c16.969,0.671 32.001,3.076 45.096,7.215c13.095,4.139 23.977,9.956 32.645,17.451c8.668,7.495 15.132,16.5 19.391,27.016c4.259,10.515 6.037,22.485 5.334,35.909c-0.774,14.766 -4.748,28.694 -11.922,41.782c-7.175,13.088 -17.502,24.443 -30.983,34.063c-13.48,9.621 -30.155,17.228 -50.025,22.821c-19.87,5.593 -42.893,8.39 -69.07,8.39c-25.505,-0 -47.158,-2.014 -64.957,-6.041c-17.799,-4.027 -32.273,-9.62 -43.42,-16.78c-11.147,-7.159 -19.088,-15.717 -23.824,-25.673c-4.736,-9.956 -6.793,-20.863 -6.172,-32.721c0.387,-7.383 1.707,-14.431 3.961,-21.143c2.253,-6.712 5.387,-13.144 9.401,-19.297c4.014,-6.152 8.853,-12.025 14.515,-17.619c5.663,-5.593 12.097,-10.962 19.302,-16.108c-9.35,-5.146 -16.423,-12.138 -21.218,-20.975c-4.794,-8.838 -6.916,-18.514 -6.365,-29.029c0.692,-13.201 4.343,-25.226 10.952,-36.077c6.609,-10.851 14.953,-20.639 25.031,-29.365c-7.42,-7.831 -13.192,-17.227 -17.316,-28.19c-4.124,-10.963 -5.758,-24.611 -4.902,-40.943c0.915,-17.451 4.809,-33.057 11.682,-46.816c6.874,-13.76 16.042,-25.394 27.503,-34.902c11.461,-9.509 24.93,-16.78 40.408,-21.814c15.478,-5.034 32.389,-7.551 50.736,-7.551c9.396,-0 18.372,0.559 26.927,1.678c8.555,1.118 16.472,2.684 23.749,4.698l94.975,0c3.803,0 6.75,2.461 8.842,7.383c2.091,4.922 2.832,13.2 2.222,24.834Zm-112.109,70.812c0.844,-16.109 -2.974,-28.638 -11.454,-37.587c-8.481,-8.95 -20.887,-13.424 -37.22,-13.424c-8.278,-0 -15.622,1.398 -22.033,4.195c-6.411,2.796 -11.812,6.6 -16.204,11.41c-4.391,4.81 -7.76,10.404 -10.108,16.78c-2.348,6.376 -3.703,13.032 -4.067,19.968c-0.797,15.214 3.047,27.24 11.533,36.077c8.487,8.837 20.672,13.256 36.557,13.256c8.502,0 15.955,-1.342 22.361,-4.027c6.405,-2.685 11.8,-6.376 16.185,-11.075c4.386,-4.698 7.802,-10.124 10.25,-16.276c2.448,-6.153 3.848,-12.585 4.2,-19.297Zm7.277,238.946c0.528,-10.068 -3.095,-17.787 -10.868,-23.157c-7.773,-5.369 -18.695,-8.278 -32.767,-8.725l-59.984,-1.678c-6.04,4.251 -10.896,8.334 -14.569,12.249c-3.673,3.916 -6.666,7.663 -8.979,11.243c-2.313,3.579 -3.893,7.047 -4.74,10.403c-0.848,3.356 -1.365,6.824 -1.552,10.404c-0.587,11.186 4.617,19.688 15.611,25.505c10.993,5.817 26.782,8.726 47.365,8.726c12.753,-0 23.559,-1.287 32.42,-3.86c8.86,-2.572 16.086,-5.984 21.679,-10.235c5.592,-4.251 9.645,-9.005 12.158,-14.263c2.513,-5.258 3.921,-10.795 4.226,-16.612Z" style="fill:#11557c;fill-rule:nonzero;"/><path d="M693.888,188.729c-0.563,10.74 -2.21,18.682 -4.94,23.828c-2.731,5.146 -5.886,7.719 -9.466,7.719l-35.238,-0c4.641,5.369 7.845,11.466 9.613,18.29c1.768,6.824 2.458,13.927 2.071,21.31c-0.914,17.451 -4.635,32.945 -11.161,46.481c-6.527,13.535 -15.459,24.946 -26.796,34.231c-11.338,9.285 -24.795,16.332 -40.373,21.142c-15.578,4.811 -32.764,7.216 -51.557,7.216c-9.621,-0 -18.732,-1.175 -27.335,-3.524c-8.602,-2.349 -15.17,-5.09 -19.704,-8.222c-2.838,2.908 -5.425,6.376 -7.761,10.403c-2.337,4.028 -3.634,8.502 -3.892,13.424c-0.34,6.489 2.234,11.802 7.723,15.941c5.488,4.139 13.366,6.433 23.634,6.88l72.684,2.685c16.969,0.671 32.001,3.076 45.096,7.215c13.095,4.139 23.977,9.956 32.645,17.451c8.668,7.495 15.132,16.5 19.391,27.016c4.259,10.515 6.037,22.485 5.334,35.909c-0.774,14.766 -4.748,28.694 -11.922,41.782c-7.174,13.088 -17.502,24.443 -30.982,34.063c-13.481,9.621 -30.156,17.228 -50.026,22.821c-19.87,5.593 -42.893,8.39 -69.07,8.39c-25.505,-0 -47.157,-2.014 -64.957,-6.041c-17.799,-4.027 -32.272,-9.62 -43.419,-16.78c-11.147,-7.159 -19.089,-15.717 -23.825,-25.673c-4.736,-9.956 -6.793,-20.863 -6.172,-32.721c0.387,-7.383 1.708,-14.431 3.961,-21.143c2.254,-6.712 5.387,-13.144 9.401,-19.297c4.014,-6.152 8.853,-12.025 14.515,-17.619c5.663,-5.593 12.097,-10.962 19.303,-16.108c-9.351,-5.146 -16.424,-12.138 -21.218,-20.975c-4.795,-8.838 -6.917,-18.514 -6.366,-29.029c0.692,-13.201 4.343,-25.226 10.952,-36.077c6.61,-10.851 14.953,-20.639 25.031,-29.365c-7.42,-7.831 -13.192,-17.227 -17.316,-28.19c-4.124,-10.963 -5.758,-24.611 -4.902,-40.943c0.915,-17.451 4.809,-33.057 11.683,-46.816c6.873,-13.76 16.041,-25.394 27.502,-34.902c11.461,-9.509 24.931,-16.78 40.408,-21.814c15.478,-5.034 32.39,-7.551 50.736,-7.551c9.396,-0 18.372,0.559 26.927,1.678c8.555,1.118 16.472,2.684 23.749,4.698l94.975,0c3.803,0 6.751,2.461 8.842,7.383c2.091,4.922 2.832,13.2 2.222,24.834Zm-112.109,70.812c0.844,-16.109 -2.974,-28.638 -11.454,-37.587c-8.481,-8.95 -20.887,-13.424 -37.219,-13.424c-8.279,-0 -15.623,1.398 -22.034,4.195c-6.411,2.796 -11.812,6.6 -16.204,11.41c-4.391,4.81 -7.76,10.404 -10.108,16.78c-2.348,6.376 -3.703,13.032 -4.067,19.968c-0.797,15.214 3.047,27.24 11.533,36.077c8.487,8.837 20.672,13.256 36.557,13.256c8.502,0 15.956,-1.342 22.361,-4.027c6.405,-2.685 11.8,-6.376 16.185,-11.075c4.386,-4.698 7.802,-10.124 10.25,-16.276c2.448,-6.153 3.848,-12.585 4.2,-19.297Zm7.277,238.946c0.528,-10.068 -3.095,-17.787 -10.868,-23.157c-7.773,-5.369 -18.695,-8.278 -32.767,-8.725l-59.984,-1.678c-6.04,4.251 -10.896,8.334 -14.569,12.249c-3.673,3.916 -6.666,7.663 -8.979,11.243c-2.313,3.579 -3.893,7.047 -4.74,10.403c-0.847,3.356 -1.365,6.824 -1.552,10.404c-0.587,11.186 4.617,19.688 15.611,25.505c10.993,5.817 26.782,8.726 47.365,8.726c12.753,-0 23.559,-1.287 32.42,-3.86c8.86,-2.572 16.087,-5.984 21.679,-10.235c5.592,-4.251 9.645,-9.005 12.158,-14.263c2.513,-5.258 3.922,-10.795 4.226,-16.612Z" style="fill:#11557c;fill-rule:nonzero;"/><path d="M1044.78,313.236c-1.395,26.625 -5.505,50.62 -12.33,71.986c-6.825,21.367 -16.112,39.545 -27.86,54.535c-11.749,14.99 -26,26.512 -42.755,34.567c-16.755,8.054 -35.647,12.081 -56.678,12.081c-8.726,0 -16.68,-0.839 -23.863,-2.517c-7.184,-1.678 -14.096,-4.251 -20.739,-7.719c-6.642,-3.467 -13.184,-7.774 -19.626,-12.92c-6.442,-5.146 -13.062,-11.187 -19.857,-18.122l-7.387,140.951c-0.118,2.237 -0.894,4.251 -2.331,6.041c-1.436,1.789 -3.808,3.3 -7.117,4.53c-3.308,1.231 -7.665,2.182 -13.07,2.853c-5.405,0.671 -12.246,1.007 -20.524,1.007c-8.278,-0 -15.084,-0.336 -20.419,-1.007c-5.334,-0.671 -9.591,-1.622 -12.771,-2.853c-3.18,-1.23 -5.394,-2.741 -6.642,-4.53c-1.249,-1.79 -1.814,-3.804 -1.697,-6.041l21.914,-418.156c0.118,-2.237 0.78,-4.195 1.986,-5.873c1.207,-1.678 3.238,-3.076 6.093,-4.195c2.855,-1.118 6.591,-1.957 11.207,-2.517c4.615,-0.559 10.391,-0.839 17.327,-0.839c6.712,0 12.346,0.28 16.904,0.839c4.557,0.56 8.204,1.399 10.943,2.517c2.738,1.119 4.622,2.517 5.653,4.195c1.03,1.678 1.487,3.636 1.37,5.873l-1.847,35.238c9.195,-8.949 18.166,-16.836 26.913,-23.659c8.748,-6.824 17.605,-12.529 26.571,-17.116c8.965,-4.587 18.15,-7.998 27.552,-10.236c9.402,-2.237 19.361,-3.356 29.876,-3.356c21.926,0 40.382,4.307 55.368,12.921c14.986,8.614 26.952,20.415 35.899,35.405c8.947,14.99 15.136,32.442 18.567,52.354c3.431,19.912 4.554,41.166 3.37,63.763Zm-88.243,6.041c0.668,-12.753 0.359,-25.002 -0.927,-36.748c-1.286,-11.746 -3.982,-22.205 -8.088,-31.378c-4.106,-9.173 -9.762,-16.5 -16.97,-21.982c-7.208,-5.481 -16.405,-8.222 -27.592,-8.222c-5.593,-0 -11.174,0.839 -16.744,2.517c-5.569,1.678 -11.306,4.419 -17.211,8.222c-5.904,3.804 -12.035,8.726 -18.392,14.766c-6.358,6.041 -13.127,13.536 -20.308,22.485l-5.171,98.666c11.073,14.99 21.764,26.569 32.075,34.735c10.312,8.166 21.284,12.249 32.918,12.249c10.963,0 20.451,-2.797 28.462,-8.39c8.012,-5.593 14.717,-12.92 20.114,-21.982c5.397,-9.061 9.569,-19.296 12.516,-30.707c2.947,-11.41 4.72,-22.82 5.318,-34.231Z" style="fill:#11557c;fill-rule:nonzero;"/><path d="M1188.73,467.276c-0.117,2.237 -0.891,4.195 -2.321,5.873c-1.43,1.678 -3.797,3.076 -7.1,4.195c-3.303,1.119 -7.653,1.958 -13.052,2.517c-5.399,0.559 -12.238,0.839 -20.516,0.839c-8.278,-0 -15.087,-0.28 -20.427,-0.839c-5.34,-0.559 -9.603,-1.398 -12.789,-2.517c-3.185,-1.119 -5.405,-2.517 -6.66,-4.195c-1.254,-1.678 -1.823,-3.636 -1.706,-5.873l23.129,-441.312c0.117,-2.237 0.894,-4.251 2.33,-6.04c1.436,-1.79 3.808,-3.301 7.117,-4.531c3.309,-1.231 7.665,-2.181 13.07,-2.853c5.405,-0.671 12.246,-1.006 20.524,-1.006c8.278,-0 15.085,0.335 20.419,1.006c5.334,0.672 9.591,1.622 12.771,2.853c3.18,1.23 5.394,2.741 6.642,4.531c1.249,1.789 1.815,3.803 1.697,6.04l-23.128,441.312Z" style="fill:#11557c;fill-rule:nonzero;"/><path d="M1583.68,314.579c-1.337,25.505 -5.913,48.773 -13.727,69.804c-7.814,21.031 -18.943,39.153 -33.388,54.367c-14.445,15.214 -32.176,26.96 -53.194,35.238c-21.017,8.278 -45.285,12.417 -72.804,12.417c-26.624,0 -49.587,-3.691 -68.888,-11.075c-19.302,-7.383 -35.072,-18.122 -47.309,-32.217c-12.238,-14.095 -20.95,-31.434 -26.136,-52.018c-5.185,-20.583 -7.087,-44.075 -5.703,-70.475c1.337,-25.506 5.971,-48.83 13.903,-69.973c7.932,-21.142 19.117,-39.265 33.556,-54.367c14.439,-15.101 32.112,-26.791 53.017,-35.07c20.905,-8.278 45.118,-12.417 72.637,-12.417c26.848,0 49.925,3.636 69.232,10.907c19.308,7.272 35.024,17.955 47.15,32.05c12.126,14.095 20.782,31.434 25.968,52.018c5.186,20.583 7.081,44.187 5.686,70.811Zm-87.096,3.356c0.774,-14.767 0.311,-28.358 -1.387,-40.775c-1.699,-12.418 -5.104,-23.213 -10.217,-32.386c-5.112,-9.173 -12.176,-16.332 -21.191,-21.478c-9.015,-5.146 -20.571,-7.719 -34.666,-7.719c-12.529,0 -23.612,2.294 -33.249,6.88c-9.637,4.587 -17.708,11.299 -24.211,20.136c-6.504,8.837 -11.592,19.465 -15.263,31.882c-3.671,12.417 -5.923,26.568 -6.756,42.453c-0.773,14.766 -0.255,28.358 1.555,40.775c1.81,12.417 5.216,23.212 10.217,32.385c5,9.173 12.067,16.277 21.2,21.311c9.133,5.034 20.635,7.551 34.507,7.551c12.752,-0 23.947,-2.293 33.584,-6.88c9.637,-4.586 17.705,-11.242 24.203,-19.968c6.498,-8.726 11.527,-19.297 15.086,-31.714c3.559,-12.417 5.755,-26.568 6.588,-42.453Z" style="fill:#11557c;fill-rule:nonzero;"/><path d="M1821.2,437.743c-0.516,9.845 -1.527,17.396 -3.033,22.653c-1.506,5.258 -3.322,8.95 -5.447,11.075c-2.125,2.125 -5.189,4.027 -9.192,5.705c-4.003,1.678 -8.666,3.132 -13.988,4.363c-5.322,1.231 -11.078,2.181 -17.265,2.853c-6.188,0.671 -12.414,1.006 -18.679,1.006c-16.78,0 -31.211,-2.125 -43.293,-6.376c-12.083,-4.251 -21.92,-10.795 -29.511,-19.632c-7.591,-8.838 -12.937,-19.969 -16.037,-33.393c-3.1,-13.423 -4.169,-29.308 -3.207,-47.654l8.037,-153.369l-35.909,0c-4.251,0 -7.357,-2.629 -9.319,-7.886c-1.961,-5.258 -2.62,-14.04 -1.975,-26.345c0.34,-6.488 0.907,-11.97 1.701,-16.444c0.794,-4.475 1.817,-7.999 3.071,-10.572c1.253,-2.573 2.748,-4.418 4.485,-5.537c1.737,-1.119 3.724,-1.678 5.961,-1.678l35.573,0l3.5,-66.784c0.118,-2.237 0.838,-4.251 2.163,-6.041c1.324,-1.79 3.64,-3.3 6.949,-4.53c3.309,-1.231 7.718,-2.126 13.229,-2.685c5.511,-0.559 12.293,-0.839 20.348,-0.839c8.278,-0 15.143,0.28 20.595,0.839c5.452,0.559 9.712,1.454 12.78,2.685c3.068,1.23 5.226,2.74 6.474,4.53c1.249,1.79 1.815,3.804 1.697,6.041l-3.5,66.784l65.107,0c2.237,0 4.165,0.559 5.785,1.678c1.619,1.119 2.921,2.964 3.904,5.537c0.984,2.573 1.639,6.097 1.963,10.572c0.325,4.474 0.318,9.956 -0.022,16.444c-0.645,12.305 -2.224,21.087 -4.737,26.345c-2.513,5.257 -5.895,7.886 -10.146,7.886l-65.441,0l-7.37,140.616c-0.856,16.332 1.075,28.582 5.793,36.748c4.718,8.166 13.677,12.249 26.877,12.249c4.475,0 8.523,-0.391 12.143,-1.174c3.621,-0.784 6.856,-1.678 9.706,-2.685c2.849,-1.007 5.245,-1.902 7.188,-2.685c1.943,-0.783 3.697,-1.175 5.263,-1.175c1.343,0 2.608,0.392 3.798,1.175c1.189,0.783 2.058,2.349 2.606,4.698c0.548,2.35 0.997,5.538 1.345,9.565c0.348,4.027 0.358,9.173 0.03,15.437Z" style="fill:#11557c;fill-rule:nonzero;"/><path d="M2160.56,442.777c-0.34,6.489 -0.909,12.026 -1.709,16.613c-0.8,4.586 -1.835,8.334 -3.106,11.242c-1.271,2.909 -2.834,4.978 -4.689,6.209c-1.854,1.23 -3.9,1.845 -6.137,1.845l-249.685,0c-4.922,0 -9.15,-0.447 -12.683,-1.342c-3.532,-0.895 -6.35,-2.629 -8.452,-5.202c-2.103,-2.573 -3.529,-6.32 -4.277,-11.242c-0.749,-4.922 -0.919,-11.299 -0.508,-19.129c0.387,-7.384 1.054,-13.704 2,-18.962c0.947,-5.257 2.424,-9.956 4.431,-14.095c2.006,-4.139 4.511,-8.166 7.513,-12.081c3.001,-3.916 6.863,-8.223 11.584,-12.921l79.395,-80.544c15.811,-15.661 28.64,-29.924 38.487,-42.788c9.847,-12.865 17.622,-24.611 23.325,-35.238c5.703,-10.627 9.739,-20.416 12.11,-29.365c2.371,-8.949 3.767,-17.451 4.189,-25.505c0.387,-7.384 -0.421,-14.375 -2.424,-20.975c-2.003,-6.6 -5.169,-12.362 -9.498,-17.284c-4.328,-4.922 -9.887,-8.781 -16.676,-11.578c-6.789,-2.796 -14.882,-4.195 -24.279,-4.195c-13.2,0 -24.978,1.678 -35.334,5.034c-10.356,3.356 -19.501,7.104 -27.437,11.243c-7.936,4.139 -14.567,7.942 -19.895,11.41c-5.328,3.468 -9.446,5.202 -12.354,5.202c-2.014,-0 -3.712,-0.671 -5.096,-2.014c-1.384,-1.342 -2.442,-3.579 -3.172,-6.712c-0.731,-3.132 -1.238,-7.327 -1.522,-12.585c-0.284,-5.257 -0.227,-11.69 0.172,-19.297c0.27,-5.145 0.663,-9.452 1.181,-12.92c0.517,-3.468 1.179,-6.488 1.985,-9.061c0.806,-2.573 1.818,-4.81 3.036,-6.712c1.219,-1.902 3.296,-4.195 6.234,-6.88c2.937,-2.685 8.262,-6.097 15.974,-10.236c7.712,-4.139 17.152,-8.166 28.32,-12.081c11.168,-3.916 23.422,-7.216 36.763,-9.9c13.341,-2.685 27.171,-4.028 41.49,-4.028c22.597,0 42.192,2.853 58.784,8.558c16.593,5.705 30.216,13.648 40.869,23.828c10.653,10.179 18.354,22.261 23.103,36.244c4.748,13.984 6.701,29.03 5.856,45.138c-0.738,14.095 -2.808,27.967 -6.208,41.614c-3.4,13.648 -9.764,28.359 -19.092,44.132c-9.329,15.773 -22.213,33.224 -38.653,52.353c-16.44,19.129 -38.075,41.334 -64.906,66.616l-53.401,52.018l171.155,-0c2.237,-0 4.272,0.671 6.103,2.014c1.831,1.342 3.345,3.411 4.541,6.208c1.195,2.797 2.009,6.488 2.44,11.075c0.43,4.586 0.482,10.012 0.153,16.276Z" style="fill:#11557c;fill-rule:nonzero;"/></g><g id="axes_1"><g id="patch_2"><path d="M1676.81,314.263c0,-32.865 -6.473,-65.409 -19.05,-95.772c-12.577,-30.362 -31.012,-57.952 -54.25,-81.191c-23.239,-23.238 -50.829,-41.673 -81.191,-54.25c-30.363,-12.577 -62.908,-19.05 -95.772,-19.05c-32.864,-0 -65.409,6.473 -95.771,19.05c-30.363,12.577 -57.953,31.012 -81.191,54.25c-23.239,23.239 -41.674,50.829 -54.25,81.191c-12.577,30.363 -19.051,62.907 -19.051,95.772c0,32.864 6.474,65.409 19.051,95.771c12.576,30.363 31.011,57.953 54.25,81.191c23.238,23.239 50.828,41.674 81.191,54.25c30.362,12.577 62.907,19.051 95.771,19.051c32.864,-0 65.409,-6.474 95.772,-19.051c30.362,-12.576 57.952,-31.011 81.191,-54.25c23.238,-23.238 41.673,-50.828 54.25,-81.191c12.577,-30.362 19.05,-62.907 19.05,-95.771m-250.263,-0" style="fill:#fff;fill-rule:nonzero;"/></g><g id="patch_3"><path d="M1426.55,314.263l266.391,-0l-0.526,16.726l-1.574,16.661l-2.618,16.529l-3.651,16.332l-4.669,16.071l-5.669,15.746l-6.646,15.358l-7.598,14.911l-8.518,14.405l-9.407,13.841l-10.257,13.224l-11.067,12.553l-11.834,11.833l-12.553,11.067l-13.223,10.257l-13.841,9.407l-14.405,8.519l-14.911,7.597l-15.359,6.647l-15.745,5.668l-16.071,4.669l-16.332,3.651l-16.529,2.618l-16.661,1.575l-16.727,0.526l-16.727,-0.526l-16.66,-1.575l-16.529,-2.618l-16.332,-3.651l-16.071,-4.669l-15.746,-5.668l-15.358,-6.647l-14.912,-7.597l-14.404,-8.519l-13.841,-9.407l-13.224,-10.257l-12.553,-11.067l-11.833,-11.833l-11.067,-12.553l-10.258,-13.224l-9.406,-13.841l-8.519,-14.405l-7.597,-14.911l-6.647,-15.358l-5.669,-15.746l-4.669,-16.071l-3.65,-16.332l-2.618,-16.529l-1.575,-16.661l-0.526,-16.726l0.526,-16.727l1.575,-16.661l2.618,-16.529l3.65,-16.332l4.669,-16.071l5.669,-15.745l6.647,-15.359l7.597,-14.911l8.519,-14.405l9.406,-13.841l10.258,-13.223l11.067,-12.553l11.833,-11.834l12.553,-11.067l13.224,-10.257l13.841,-9.407l14.404,-8.518l14.912,-7.598l15.358,-6.646l15.746,-5.669l16.071,-4.669l16.332,-3.651l16.529,-2.618l16.66,-1.575l16.727,-0.525l16.727,0.525l16.661,1.575l16.529,2.618l16.332,3.651l16.071,4.669l15.745,5.669l15.359,6.646l14.911,7.598l14.405,8.518l13.841,9.407l13.223,10.257l12.553,11.067l11.834,11.834l11.067,12.553l10.257,13.223l9.407,13.841l8.518,14.405l7.598,14.911l6.646,15.359l5.669,15.745l4.669,16.071l3.651,16.332l2.618,16.529l1.574,16.661l0.526,16.727l-266.391,-0Z" style="fill:#fff;fill-rule:nonzero;"/></g><g id="matplotlib.axis_1"><g id="xtick_1"><g id="line2d_1"><clipPath id="_clip1"><path d="M1676.81,314.263c0,-32.865 -6.473,-65.409 -19.05,-95.772c-12.577,-30.362 -31.012,-57.952 -54.25,-81.191c-23.239,-23.238 -50.829,-41.673 -81.191,-54.25c-30.363,-12.577 -62.908,-19.05 -95.772,-19.05c-32.864,-0 -65.409,6.473 -95.771,19.05c-30.363,12.577 -57.953,31.012 -81.191,54.25c-23.239,23.239 -41.674,50.829 -54.25,81.191c-12.577,30.363 -19.051,62.907 -19.051,95.772c0,32.864 6.474,65.409 19.051,95.771c12.576,30.363 31.011,57.953 54.25,81.191c23.238,23.239 50.828,41.674 81.191,54.25c30.362,12.577 62.907,19.051 95.771,19.051c32.864,-0 65.409,-6.474 95.772,-19.051c30.362,-12.576 57.952,-31.011 81.191,-54.25c23.238,-23.238 41.673,-50.828 54.25,-81.191c12.577,-30.362 19.05,-62.907 19.05,-95.771m-250.263,-0"/></clipPath><g clip-path="url(#_clip1)"><path d="M1426.55,314.263l250.263,-0" style="fill:none;fill-rule:nonzero;stroke:#e6e6e6;stroke-width:3.36px;"/></g></g></g><g id="xtick_2"><g id="line2d_2"><clipPath id="_clip2"><path d="M1676.81,314.263c0,-32.865 -6.473,-65.409 -19.05,-95.772c-12.577,-30.362 -31.012,-57.952 -54.25,-81.191c-23.239,-23.238 -50.829,-41.673 -81.191,-54.25c-30.363,-12.577 -62.908,-19.05 -95.772,-19.05c-32.864,-0 -65.409,6.473 -95.771,19.05c-30.363,12.577 -57.953,31.012 -81.191,54.25c-23.239,23.239 -41.674,50.829 -54.25,81.191c-12.577,30.363 -19.051,62.907 -19.051,95.772c0,32.864 6.474,65.409 19.051,95.771c12.576,30.363 31.011,57.953 54.25,81.191c23.238,23.239 50.828,41.674 81.191,54.25c30.362,12.577 62.907,19.051 95.771,19.051c32.864,-0 65.409,-6.474 95.772,-19.051c30.362,-12.576 57.952,-31.011 81.191,-54.25c23.238,-23.238 41.673,-50.828 54.25,-81.191c12.577,-30.362 19.05,-62.907 19.05,-95.771m-250.263,-0"/></clipPath><g clip-path="url(#_clip2)"><path d="M1426.55,314.263l176.963,-176.963" style="fill:none;fill-rule:nonzero;stroke:#e6e6e6;stroke-width:3.36px;"/></g></g></g><g id="xtick_3"><g id="line2d_3"><clipPath id="_clip3"><path d="M1676.81,314.263c0,-32.865 -6.473,-65.409 -19.05,-95.772c-12.577,-30.362 -31.012,-57.952 -54.25,-81.191c-23.239,-23.238 -50.829,-41.673 -81.191,-54.25c-30.363,-12.577 -62.908,-19.05 -95.772,-19.05c-32.864,-0 -65.409,6.473 -95.771,19.05c-30.363,12.577 -57.953,31.012 -81.191,54.25c-23.239,23.239 -41.674,50.829 -54.25,81.191c-12.577,30.363 -19.051,62.907 -19.051,95.772c0,32.864 6.474,65.409 19.051,95.771c12.576,30.363 31.011,57.953 54.25,81.191c23.238,23.239 50.828,41.674 81.191,54.25c30.362,12.577 62.907,19.051 95.771,19.051c32.864,-0 65.409,-6.474 95.772,-19.051c30.362,-12.576 57.952,-31.011 81.191,-54.25c23.238,-23.238 41.673,-50.828 54.25,-81.191c12.577,-30.362 19.05,-62.907 19.05,-95.771m-250.263,-0"/></clipPath><g clip-path="url(#_clip3)"><path d="M1426.55,314.263l0,-250.263" style="fill:none;fill-rule:nonzero;stroke:#e6e6e6;stroke-width:3.36px;"/></g></g></g><g id="xtick_4"><g id="line2d_4"><clipPath id="_clip4"><path d="M1676.81,314.263c0,-32.865 -6.473,-65.409 -19.05,-95.772c-12.577,-30.362 -31.012,-57.952 -54.25,-81.191c-23.239,-23.238 -50.829,-41.673 -81.191,-54.25c-30.363,-12.577 -62.908,-19.05 -95.772,-19.05c-32.864,-0 -65.409,6.473 -95.771,19.05c-30.363,12.577 -57.953,31.012 -81.191,54.25c-23.239,23.239 -41.674,50.829 -54.25,81.191c-12.577,30.363 -19.051,62.907 -19.051,95.772c0,32.864 6.474,65.409 19.051,95.771c12.576,30.363 31.011,57.953 54.25,81.191c23.238,23.239 50.828,41.674 81.191,54.25c30.362,12.577 62.907,19.051 95.771,19.051c32.864,-0 65.409,-6.474 95.772,-19.051c30.362,-12.576 57.952,-31.011 81.191,-54.25c23.238,-23.238 41.673,-50.828 54.25,-81.191c12.577,-30.362 19.05,-62.907 19.05,-95.771m-250.263,-0"/></clipPath><g clip-path="url(#_clip4)"><path d="M1426.55,314.263l-176.962,-176.963" style="fill:none;fill-rule:nonzero;stroke:#e6e6e6;stroke-width:3.36px;"/></g></g></g><g id="xtick_5"><g id="line2d_5"><clipPath id="_clip5"><path d="M1676.81,314.263c0,-32.865 -6.473,-65.409 -19.05,-95.772c-12.577,-30.362 -31.012,-57.952 -54.25,-81.191c-23.239,-23.238 -50.829,-41.673 -81.191,-54.25c-30.363,-12.577 -62.908,-19.05 -95.772,-19.05c-32.864,-0 -65.409,6.473 -95.771,19.05c-30.363,12.577 -57.953,31.012 -81.191,54.25c-23.239,23.239 -41.674,50.829 -54.25,81.191c-12.577,30.363 -19.051,62.907 -19.051,95.772c0,32.864 6.474,65.409 19.051,95.771c12.576,30.363 31.011,57.953 54.25,81.191c23.238,23.239 50.828,41.674 81.191,54.25c30.362,12.577 62.907,19.051 95.771,19.051c32.864,-0 65.409,-6.474 95.772,-19.051c30.362,-12.576 57.952,-31.011 81.191,-54.25c23.238,-23.238 41.673,-50.828 54.25,-81.191c12.577,-30.362 19.05,-62.907 19.05,-95.771m-250.263,-0"/></clipPath><g clip-path="url(#_clip5)"><path d="M1426.55,314.263l-250.263,-0" style="fill:none;fill-rule:nonzero;stroke:#e6e6e6;stroke-width:3.36px;"/></g></g></g><g id="xtick_6"><g id="line2d_6"><clipPath id="_clip6"><path d="M1676.81,314.263c0,-32.865 -6.473,-65.409 -19.05,-95.772c-12.577,-30.362 -31.012,-57.952 -54.25,-81.191c-23.239,-23.238 -50.829,-41.673 -81.191,-54.25c-30.363,-12.577 -62.908,-19.05 -95.772,-19.05c-32.864,-0 -65.409,6.473 -95.771,19.05c-30.363,12.577 -57.953,31.012 -81.191,54.25c-23.239,23.239 -41.674,50.829 -54.25,81.191c-12.577,30.363 -19.051,62.907 -19.051,95.772c0,32.864 6.474,65.409 19.051,95.771c12.576,30.363 31.011,57.953 54.25,81.191c23.238,23.239 50.828,41.674 81.191,54.25c30.362,12.577 62.907,19.051 95.771,19.051c32.864,-0 65.409,-6.474 95.772,-19.051c30.362,-12.576 57.952,-31.011 81.191,-54.25c23.238,-23.238 41.673,-50.828 54.25,-81.191c12.577,-30.362 19.05,-62.907 19.05,-95.771m-250.263,-0"/></clipPath><g clip-path="url(#_clip6)"><path d="M1426.55,314.263l-176.962,176.962" style="fill:none;fill-rule:nonzero;stroke:#e6e6e6;stroke-width:3.36px;"/></g></g></g><g id="xtick_7"><g id="line2d_7"><clipPath id="_clip7"><path d="M1676.81,314.263c0,-32.865 -6.473,-65.409 -19.05,-95.772c-12.577,-30.362 -31.012,-57.952 -54.25,-81.191c-23.239,-23.238 -50.829,-41.673 -81.191,-54.25c-30.363,-12.577 -62.908,-19.05 -95.772,-19.05c-32.864,-0 -65.409,6.473 -95.771,19.05c-30.363,12.577 -57.953,31.012 -81.191,54.25c-23.239,23.239 -41.674,50.829 -54.25,81.191c-12.577,30.363 -19.051,62.907 -19.051,95.772c0,32.864 6.474,65.409 19.051,95.771c12.576,30.363 31.011,57.953 54.25,81.191c23.238,23.239 50.828,41.674 81.191,54.25c30.362,12.577 62.907,19.051 95.771,19.051c32.864,-0 65.409,-6.474 95.772,-19.051c30.362,-12.576 57.952,-31.011 81.191,-54.25c23.238,-23.238 41.673,-50.828 54.25,-81.191c12.577,-30.362 19.05,-62.907 19.05,-95.771m-250.263,-0"/></clipPath><g clip-path="url(#_clip7)"><path d="M1426.55,314.263l0,250.263" style="fill:none;fill-rule:nonzero;stroke:#e6e6e6;stroke-width:3.36px;"/></g></g></g><g id="xtick_8"><g id="line2d_8"><clipPath id="_clip8"><path d="M1676.81,314.263c0,-32.865 -6.473,-65.409 -19.05,-95.772c-12.577,-30.362 -31.012,-57.952 -54.25,-81.191c-23.239,-23.238 -50.829,-41.673 -81.191,-54.25c-30.363,-12.577 -62.908,-19.05 -95.772,-19.05c-32.864,-0 -65.409,6.473 -95.771,19.05c-30.363,12.577 -57.953,31.012 -81.191,54.25c-23.239,23.239 -41.674,50.829 -54.25,81.191c-12.577,30.363 -19.051,62.907 -19.051,95.772c0,32.864 6.474,65.409 19.051,95.771c12.576,30.363 31.011,57.953 54.25,81.191c23.238,23.239 50.828,41.674 81.191,54.25c30.362,12.577 62.907,19.051 95.771,19.051c32.864,-0 65.409,-6.474 95.772,-19.051c30.362,-12.576 57.952,-31.011 81.191,-54.25c23.238,-23.238 41.673,-50.828 54.25,-81.191c12.577,-30.362 19.05,-62.907 19.05,-95.771m-250.263,-0"/></clipPath><g clip-path="url(#_clip8)"><path d="M1426.55,314.263l176.963,176.962" style="fill:none;fill-rule:nonzero;stroke:#e6e6e6;stroke-width:3.36px;"/></g></g></g></g><g id="matplotlib.axis_2"><g id="ytick_1"><g id="line2d_9"><clipPath id="_clip9"><path d="M1676.81,314.263c0,-32.865 -6.473,-65.409 -19.05,-95.772c-12.577,-30.362 -31.012,-57.952 -54.25,-81.191c-23.239,-23.238 -50.829,-41.673 -81.191,-54.25c-30.363,-12.577 -62.908,-19.05 -95.772,-19.05c-32.864,-0 -65.409,6.473 -95.771,19.05c-30.363,12.577 -57.953,31.012 -81.191,54.25c-23.239,23.239 -41.674,50.829 -54.25,81.191c-12.577,30.363 -19.051,62.907 -19.051,95.772c0,32.864 6.474,65.409 19.051,95.771c12.576,30.363 31.011,57.953 54.25,81.191c23.238,23.239 50.828,41.674 81.191,54.25c30.362,12.577 62.907,19.051 95.771,19.051c32.864,-0 65.409,-6.474 95.772,-19.051c30.362,-12.576 57.952,-31.011 81.191,-54.25c23.238,-23.238 41.673,-50.828 54.25,-81.191c12.577,-30.362 19.05,-62.907 19.05,-95.771m-250.263,-0"/></clipPath><g clip-path="url(#_clip9)"><path d="M1454.36,314.263l-0.826,-6.727l-2.429,-6.328l-3.887,-5.552l-5.115,-4.446l-6.039,-3.077l-6.604,-1.525l-6.777,0.118l-6.546,1.754l-5.928,3.286l-4.957,4.623l-3.692,5.684l-2.206,6.408l-0.591,6.752l1.06,6.694l2.649,6.239l4.079,5.413l5.267,4.265l6.142,2.865l6.654,1.293l6.768,-0.355l6.481,-1.981l5.81,-3.491l4.792,-4.793l3.491,-5.809l1.982,-6.482l0.422,-4.828" style="fill:none;fill-rule:nonzero;stroke:#e6e6e6;stroke-width:3.36px;"/></g></g></g><g id="ytick_2"><g id="line2d_10"><clipPath id="_clip10"><path d="M1676.81,314.263c0,-32.865 -6.473,-65.409 -19.05,-95.772c-12.577,-30.362 -31.012,-57.952 -54.25,-81.191c-23.239,-23.238 -50.829,-41.673 -81.191,-54.25c-30.363,-12.577 -62.908,-19.05 -95.772,-19.05c-32.864,-0 -65.409,6.473 -95.771,19.05c-30.363,12.577 -57.953,31.012 -81.191,54.25c-23.239,23.239 -41.674,50.829 -54.25,81.191c-12.577,30.363 -19.051,62.907 -19.051,95.772c0,32.864 6.474,65.409 19.051,95.771c12.576,30.363 31.011,57.953 54.25,81.191c23.238,23.239 50.828,41.674 81.191,54.25c30.362,12.577 62.907,19.051 95.771,19.051c32.864,-0 65.409,-6.474 95.772,-19.051c30.362,-12.576 57.952,-31.011 81.191,-54.25c23.238,-23.238 41.673,-50.828 54.25,-81.191c12.577,-30.362 19.05,-62.907 19.05,-95.771m-250.263,-0"/></clipPath><g clip-path="url(#_clip10)"><path d="M1509.97,314.263l-0.812,-11.61l-2.419,-11.384l-3.981,-10.937l-5.464,-10.276l-6.841,-9.415l-8.084,-8.372l-9.171,-7.165l-10.079,-5.82l-10.791,-4.359l-11.293,-2.816l-11.574,-1.216l-11.632,0.406l-11.461,2.021l-11.069,3.596l-10.46,5.102l-9.649,6.508l-8.649,7.788l-7.481,8.915l-6.167,9.87l-4.734,10.632l-3.208,11.187l-1.62,11.526l0,11.638l1.62,11.525l3.208,11.187l4.734,10.632l6.167,9.87l7.481,8.916l8.649,7.787l9.649,6.508l10.46,5.102l11.069,3.597l11.461,2.021l11.632,0.406l11.574,-1.217l11.293,-2.815l10.791,-4.36l10.079,-5.819l9.171,-7.165l8.084,-8.372l6.841,-9.416l5.464,-10.276l3.981,-10.936l2.419,-11.384l0.812,-11.61" style="fill:none;fill-rule:nonzero;stroke:#e6e6e6;stroke-width:3.36px;"/></g></g></g><g id="ytick_3"><g id="line2d_11"><clipPath id="_clip11"><path d="M1676.81,314.263c0,-32.865 -6.473,-65.409 -19.05,-95.772c-12.577,-30.362 -31.012,-57.952 -54.25,-81.191c-23.239,-23.238 -50.829,-41.673 -81.191,-54.25c-30.363,-12.577 -62.908,-19.05 -95.772,-19.05c-32.864,-0 -65.409,6.473 -95.771,19.05c-30.363,12.577 -57.953,31.012 -81.191,54.25c-23.239,23.239 -41.674,50.829 -54.25,81.191c-12.577,30.363 -19.051,62.907 -19.051,95.772c0,32.864 6.474,65.409 19.051,95.771c12.576,30.363 31.011,57.953 54.25,81.191c23.238,23.239 50.828,41.674 81.191,54.25c30.362,12.577 62.907,19.051 95.771,19.051c32.864,-0 65.409,-6.474 95.772,-19.051c30.362,-12.576 57.952,-31.011 81.191,-54.25c23.238,-23.238 41.673,-50.828 54.25,-81.191c12.577,-30.362 19.05,-62.907 19.05,-95.771m-250.263,-0"/></clipPath><g clip-path="url(#_clip11)"><path d="M1565.58,314.263l-0.761,-14.533l-2.277,-14.374l-3.767,-14.057l-5.215,-13.587l-6.607,-12.967l-7.926,-12.205l-9.159,-11.31l-10.29,-10.29l-11.31,-9.159l-12.205,-7.926l-12.967,-6.607l-13.587,-5.215l-14.057,-3.767l-14.374,-2.277l-14.533,-0.761l-14.533,0.761l-14.374,2.277l-14.057,3.767l-13.586,5.215l-12.967,6.607l-12.205,7.926l-11.31,9.159l-10.291,10.29l-9.158,11.31l-7.927,12.205l-6.606,12.967l-5.216,13.587l-3.766,14.057l-2.277,14.374l-0.762,14.533l0.762,14.533l2.277,14.374l3.766,14.057l5.216,13.586l6.606,12.967l7.927,12.205l9.158,11.31l10.291,10.291l11.31,9.158l12.205,7.926l12.967,6.607l13.586,5.216l14.057,3.766l14.374,2.277l14.533,0.762l14.533,-0.762l14.374,-2.277l14.057,-3.766l13.587,-5.216l12.967,-6.607l12.205,-7.926l11.31,-9.158l10.29,-10.291l9.159,-11.31l7.926,-12.205l6.607,-12.967l5.215,-13.586l3.767,-14.057l2.277,-14.374l0.761,-14.533" style="fill:none;fill-rule:nonzero;stroke:#e6e6e6;stroke-width:3.36px;"/></g></g></g><g id="ytick_4"><g id="line2d_12"><clipPath id="_clip12"><path d="M1676.81,314.263c0,-32.865 -6.473,-65.409 -19.05,-95.772c-12.577,-30.362 -31.012,-57.952 -54.25,-81.191c-23.239,-23.238 -50.829,-41.673 -81.191,-54.25c-30.363,-12.577 -62.908,-19.05 -95.772,-19.05c-32.864,-0 -65.409,6.473 -95.771,19.05c-30.363,12.577 -57.953,31.012 -81.191,54.25c-23.239,23.239 -41.674,50.829 -54.25,81.191c-12.577,30.363 -19.051,62.907 -19.051,95.772c0,32.864 6.474,65.409 19.051,95.771c12.576,30.363 31.011,57.953 54.25,81.191c23.238,23.239 50.828,41.674 81.191,54.25c30.362,12.577 62.907,19.051 95.771,19.051c32.864,-0 65.409,-6.474 95.772,-19.051c30.362,-12.576 57.952,-31.011 81.191,-54.25c23.238,-23.238 41.673,-50.828 54.25,-81.191c12.577,-30.362 19.05,-62.907 19.05,-95.771m-250.263,-0"/></clipPath><g clip-path="url(#_clip12)"><path d="M1621.2,314.263l-1.066,-20.347l-3.187,-20.123l-5.274,-19.68l-7.301,-19.021l-9.25,-18.154l-11.096,-17.087l-12.822,-15.834l-14.407,-14.407l-15.834,-12.822l-17.087,-11.096l-18.154,-9.25l-19.021,-7.301l-19.68,-5.274l-20.123,-3.187l-20.347,-1.066l-20.346,1.066l-20.124,3.187l-19.68,5.274l-19.021,7.301l-18.153,9.25l-17.088,11.096l-15.833,12.822l-14.407,14.407l-12.822,15.834l-11.097,17.087l-9.249,18.154l-7.302,19.021l-5.273,19.68l-3.187,20.123l-1.067,20.347l1.067,20.346l3.187,20.123l5.273,19.68l7.302,19.021l9.249,18.154l11.097,17.087l12.822,15.834l14.407,14.407l15.833,12.822l17.088,11.097l18.153,9.249l19.021,7.302l19.68,5.273l20.124,3.187l20.346,1.067l20.347,-1.067l20.123,-3.187l19.68,-5.273l19.021,-7.302l18.154,-9.249l17.087,-11.097l15.834,-12.822l14.407,-14.407l12.822,-15.834l11.096,-17.087l9.25,-18.154l7.301,-19.021l5.274,-19.68l3.187,-20.123l1.066,-20.346" style="fill:none;fill-rule:nonzero;stroke:#e6e6e6;stroke-width:3.36px;"/></g></g></g></g><g id="patch_4"><clipPath id="_clip13"><path d="M1676.81,314.263c0,-32.865 -6.473,-65.409 -19.05,-95.772c-12.577,-30.362 -31.012,-57.952 -54.25,-81.191c-23.239,-23.238 -50.829,-41.673 -81.191,-54.25c-30.363,-12.577 -62.908,-19.05 -95.772,-19.05c-32.864,-0 -65.409,6.473 -95.771,19.05c-30.363,12.577 -57.953,31.012 -81.191,54.25c-23.239,23.239 -41.674,50.829 -54.25,81.191c-12.577,30.363 -19.051,62.907 -19.051,95.772c0,32.864 6.474,65.409 19.051,95.771c12.576,30.363 31.011,57.953 54.25,81.191c23.238,23.239 50.828,41.674 81.191,54.25c30.362,12.577 62.907,19.051 95.771,19.051c32.864,-0 65.409,-6.474 95.772,-19.051c30.362,-12.576 57.952,-31.011 81.191,-54.25c23.238,-23.238 41.673,-50.828 54.25,-81.191c12.577,-30.362 19.05,-62.907 19.05,-95.771m-250.263,-0"/></clipPath><g clip-path="url(#_clip13)"><path d="M1426.55,314.263l20.628,-6.703l18.512,-6.015l13.752,-4.468l0.054,0.166l0.053,0.167l0.053,0.166l0.052,0.167l0.052,0.167l0.051,0.167l0.05,0.167l0.05,0.168l0.05,0.167l0.049,0.168l0.048,0.168l0.048,0.168l0.048,0.168l0.047,0.168l0.046,0.169l0.046,0.168l0.045,0.169l0.045,0.169l0.044,0.169l0.044,0.169l0.043,0.169l0.043,0.17l0.042,0.169l0.042,0.17l0.041,0.17l0.04,0.17l0.04,0.17l0.04,0.17l0.038,0.17l0.039,0.171l0.038,0.17l0.037,0.171l0.037,0.171l0.036,0.171l0.036,0.171l0.035,0.171l0.034,0.171l0.035,0.172l0.033,0.171l0.033,0.172l0.033,0.171l0.032,0.172l0.031,0.172l0.031,0.172l0.03,0.172l0.03,0.172l0.029,0.172l0.029,0.173l0.028,0.172l0.028,0.173l0.027,0.172l0.026,0.173l0.026,0.173l0.026,0.173l0.024,0.173l0.025,0.173l0.024,0.173l0.023,0.173l0.023,0.173l0.022,0.173l0.021,0.174l0.021,0.173l0.021,0.174l0.02,0.173l0.019,0.174l0.019,0.174l0.019,0.173l0.017,0.174l0.018,0.174l0.016,0.174l0.017,0.174l0.015,0.174l0.015,0.174l0.015,0.174l0.014,0.174l0.013,0.174l0.013,0.175l0.012,0.174l0.012,0.174l0.011,0.175l0.011,0.174l0.01,0.174l0.01,0.175l0.009,0.174l0.008,0.175l0.008,0.174l0.008,0.175l0.007,0.175l0.006,0.174l0.006,0.175l0.005,0.174l0.005,0.175l0.004,0.175l0.003,0.174l0.003,0.175l0.003,0.175l0.002,0.175l0.001,0.174l0.001,0.175l0,0.175l-55.614,-0Z" style="fill:#004cff;fill-opacity:0.6;fill-rule:nonzero;stroke:#4c4c4c;stroke-width:4.71px;stroke-linecap:butt;"/></g></g><g id="patch_5"><clipPath id="_clip14"><path d="M1676.81,314.263c0,-32.865 -6.473,-65.409 -19.05,-95.772c-12.577,-30.362 -31.012,-57.952 -54.25,-81.191c-23.239,-23.238 -50.829,-41.673 -81.191,-54.25c-30.363,-12.577 -62.908,-19.05 -95.772,-19.05c-32.864,-0 -65.409,6.473 -95.771,19.05c-30.363,12.577 -57.953,31.012 -81.191,54.25c-23.239,23.239 -41.674,50.829 -54.25,81.191c-12.577,30.363 -19.051,62.907 -19.051,95.772c0,32.864 6.474,65.409 19.051,95.771c12.576,30.363 31.011,57.953 54.25,81.191c23.238,23.239 50.828,41.674 81.191,54.25c30.362,12.577 62.907,19.051 95.771,19.051c32.864,-0 65.409,-6.474 95.772,-19.051c30.362,-12.576 57.952,-31.011 81.191,-54.25c23.238,-23.238 41.673,-50.828 54.25,-81.191c12.577,-30.362 19.05,-62.907 19.05,-95.771m-250.263,-0"/></clipPath><g clip-path="url(#_clip14)"><path d="M1426.55,314.263l8.208,-21.869l6.448,-17.182l6.449,-17.183l7.035,-18.744l6.448,-17.182l6.449,-17.183l7.035,-18.744l6.449,-17.182l4.103,-10.935l0.491,0.185l0.49,0.187l0.489,0.188l0.489,0.189l0.488,0.192l0.487,0.192l0.487,0.194l0.486,0.196l0.486,0.197l0.485,0.199l0.484,0.2l0.484,0.202l0.483,0.203l0.483,0.205l0.481,0.206l0.482,0.208l0.48,0.21l0.48,0.21l0.479,0.213l0.479,0.214l0.478,0.215l0.477,0.217l0.476,0.218l0.476,0.22l0.475,0.222l0.475,0.222l0.473,0.225l0.473,0.226l0.473,0.227l0.471,0.229l0.471,0.23l0.47,0.232l0.47,0.233l0.468,0.235l0.468,0.236l0.467,0.237l0.467,0.24l0.465,0.24l0.465,0.242l0.464,0.244l0.464,0.245l0.462,0.246l0.462,0.248l0.461,0.249l0.461,0.251l0.459,0.252l0.459,0.254l0.458,0.255l0.457,0.256l0.456,0.258l0.456,0.26l0.454,0.261l0.454,0.262l0.453,0.264l0.452,0.265l0.452,0.266l0.45,0.268l0.45,0.269l0.449,0.271l0.447,0.272l0.448,0.274l0.446,0.275l0.445,0.276l0.445,0.278l0.443,0.279l0.443,0.281l0.442,0.282l0.441,0.283l0.44,0.285l0.439,0.286l0.438,0.287l0.438,0.289l0.436,0.29l0.436,0.292l0.434,0.293l0.434,0.294l0.433,0.296l0.432,0.297l0.431,0.298l0.43,0.3l0.429,0.301l0.428,0.303l0.427,0.303l0.426,0.306l0.425,0.306l0.425,0.308l0.423,0.309l0.422,0.31l0.422,0.312l0.42,0.313l0.419,0.315l0.419,0.315l0.417,0.318l0.416,0.318l0.416,0.32l0.414,0.321l0.413,0.322l0.413,0.323l0.411,0.325l0.41,0.326l-10.402,13.045l-13.523,16.957l-13.523,16.958l-13.523,16.957l-13.524,16.958l-13.523,16.957l-14.563,18.262l-11.443,14.349Z" style="fill:#ceff29;fill-opacity:0.6;fill-rule:nonzero;stroke:#4c4c4c;stroke-width:4.71px;stroke-linecap:butt;"/></g></g><g id="patch_6"><clipPath id="_clip15"><path d="M1676.81,314.263c0,-32.865 -6.473,-65.409 -19.05,-95.772c-12.577,-30.362 -31.012,-57.952 -54.25,-81.191c-23.239,-23.238 -50.829,-41.673 -81.191,-54.25c-30.363,-12.577 -62.908,-19.05 -95.772,-19.05c-32.864,-0 -65.409,6.473 -95.771,19.05c-30.363,12.577 -57.953,31.012 -81.191,54.25c-23.239,23.239 -41.674,50.829 -54.25,81.191c-12.577,30.363 -19.051,62.907 -19.051,95.772c0,32.864 6.474,65.409 19.051,95.771c12.576,30.363 31.011,57.953 54.25,81.191c23.238,23.239 50.828,41.674 81.191,54.25c30.362,12.577 62.907,19.051 95.771,19.051c32.864,-0 65.409,-6.474 95.772,-19.051c30.362,-12.576 57.952,-31.011 81.191,-54.25c23.238,-23.238 41.673,-50.828 54.25,-81.191c12.577,-30.362 19.05,-62.907 19.05,-95.771m-250.263,-0"/></clipPath><g clip-path="url(#_clip15)"><path d="M1426.55,314.263l-21.385,-25.615l-24.236,-29.031l-18.534,-22.2l-18.533,-22.199l-18.534,-22.2l-18.534,-22.2l-18.533,-22.199l-4.277,-5.123l0.806,-0.67l0.809,-0.666l0.813,-0.663l0.816,-0.658l0.819,-0.655l0.821,-0.651l0.825,-0.646l0.828,-0.643l0.831,-0.64l0.834,-0.635l0.837,-0.631l0.84,-0.627l0.843,-0.623l0.846,-0.62l0.848,-0.615l0.852,-0.611l0.855,-0.608l0.857,-0.603l0.86,-0.599l0.863,-0.595l0.866,-0.591l0.868,-0.587l0.872,-0.583l0.874,-0.579l0.876,-0.575l0.88,-0.57l0.882,-0.567l0.885,-0.562l0.887,-0.558l0.89,-0.554l0.893,-0.549l0.895,-0.546l0.898,-0.541l0.9,-0.537l0.903,-0.533l0.905,-0.528l0.908,-0.524l0.911,-0.52l0.912,-0.516l0.916,-0.511l0.917,-0.507l0.92,-0.503l0.922,-0.498l0.925,-0.494l0.927,-0.489l0.929,-0.486l0.932,-0.481l0.933,-0.476l0.936,-0.472l0.939,-0.468l0.94,-0.463l0.943,-0.459l0.944,-0.454l0.947,-0.45l0.949,-0.445l0.951,-0.441l0.953,-0.436l0.956,-0.432l0.957,-0.428l0.959,-0.423l0.961,-0.418l0.963,-0.414l0.965,-0.409l0.967,-0.405l0.969,-0.4l0.971,-0.396l0.973,-0.391l0.974,-0.386l0.976,-0.382l0.979,-0.377l0.979,-0.373l0.982,-0.368l0.983,-0.363l0.985,-0.359l0.987,-0.354l0.988,-0.35l0.99,-0.344l0.992,-0.341l0.993,-0.335l0.995,-0.331l0.996,-0.326l0.998,-0.321l0.999,-0.317l1.001,-0.312l1.002,-0.307l1.004,-0.303l1.005,-0.297l1.007,-0.293l1.008,-0.289l1.009,-0.283l1.01,-0.279l1.012,-0.274l1.013,-0.269l1.015,-0.265l1.015,-0.259l1.017,-0.255l1.018,-0.25l1.019,-0.246l1.021,-0.24l1.021,-0.236l4.95,21.688l5.445,23.857l3.465,15.181l3.466,15.182l5.445,23.856l5.445,23.857l5.445,23.857l3.96,17.35l3.465,15.181l5.445,23.857l2.97,13.013Z" style="fill:#ff6800;fill-opacity:0.6;fill-rule:nonzero;stroke:#4c4c4c;stroke-width:4.71px;stroke-linecap:butt;"/></g></g><g id="patch_7"><clipPath id="_clip16"><path d="M1676.81,314.263c0,-32.865 -6.473,-65.409 -19.05,-95.772c-12.577,-30.362 -31.012,-57.952 -54.25,-81.191c-23.239,-23.238 -50.829,-41.673 -81.191,-54.25c-30.363,-12.577 -62.908,-19.05 -95.772,-19.05c-32.864,-0 -65.409,6.473 -95.771,19.05c-30.363,12.577 -57.953,31.012 -81.191,54.25c-23.239,23.239 -41.674,50.829 -54.25,81.191c-12.577,30.363 -19.051,62.907 -19.051,95.772c0,32.864 6.474,65.409 19.051,95.771c12.576,30.363 31.011,57.953 54.25,81.191c23.238,23.239 50.828,41.674 81.191,54.25c30.362,12.577 62.907,19.051 95.771,19.051c32.864,-0 65.409,-6.474 95.772,-19.051c30.362,-12.576 57.952,-31.011 81.191,-54.25c23.238,-23.238 41.673,-50.828 54.25,-81.191c12.577,-30.362 19.05,-62.907 19.05,-95.771m-250.263,-0"/></clipPath><g clip-path="url(#_clip16)"><path d="M1426.55,314.263l-22.982,4.17l-26.813,4.866l-19.152,3.476l-17.237,3.128l-19.152,3.475l-26.813,4.866l-19.152,3.476l-19.152,3.475l-21.068,3.824l-0.214,-1.204l-0.207,-1.206l-0.2,-1.206l-0.191,-1.208l-0.185,-1.209l-0.176,-1.211l-0.17,-1.211l-0.161,-1.212l-0.154,-1.213l-0.146,-1.215l-0.139,-1.215l-0.13,-1.216l-0.124,-1.217l-0.115,-1.217l-0.108,-1.218l-0.101,-1.219l-0.092,-1.22l-0.085,-1.22l-0.078,-1.22l-0.069,-1.221l-0.062,-1.222l-0.055,-1.222l-0.046,-1.222l-0.039,-1.222l-0.032,-1.223l-0.023,-1.223l-0.016,-1.222l-0.008,-1.223l-0.001,-1.223l0.007,-1.223l0.015,-1.223l0.023,-1.223l0.03,-1.223l0.038,-1.222l0.045,-1.222l0.053,-1.222l0.061,-1.222l0.069,-1.221l0.076,-1.221l0.084,-1.22l0.092,-1.219l0.099,-1.219l0.107,-1.219l0.114,-1.217l0.122,-1.217l0.13,-1.216l0.138,-1.215l0.145,-1.215l0.153,-1.213l0.16,-1.213l0.168,-1.211l0.176,-1.21l0.183,-1.21l0.19,-1.208l0.199,-1.207l0.206,-1.205l0.213,-1.204l0.221,-1.203l0.229,-1.202l0.236,-1.2l0.244,-1.198l0.251,-1.197l0.259,-1.195l0.266,-1.194l0.274,-1.192l0.281,-1.19l0.289,-1.189l0.296,-1.186l0.304,-1.185l0.311,-1.183l0.318,-1.181l0.326,-1.178l0.333,-1.177l0.341,-1.175l0.348,-1.172l0.356,-1.17l0.362,-1.168l0.37,-1.166l0.378,-1.163l0.384,-1.161l0.393,-1.159l0.399,-1.156l0.406,-1.153l0.414,-1.151l0.421,-1.149l0.428,-1.145l0.436,-1.143l0.442,-1.14l0.45,-1.137l0.457,-1.135l0.464,-1.132l0.471,-1.128l0.478,-1.126l0.485,-1.123l0.492,-1.119l0.5,-1.117l0.506,-1.113l0.513,-1.11l0.52,-1.107l0.528,-1.103l43.843,21.113l49.104,23.648l38.582,18.58l43.843,21.114Z" style="fill:#ffc400;fill-opacity:0.6;fill-rule:nonzero;stroke:#4c4c4c;stroke-width:4.71px;stroke-linecap:butt;"/></g></g><g id="patch_8"><clipPath id="_clip17"><path d="M1676.81,314.263c0,-32.865 -6.473,-65.409 -19.05,-95.772c-12.577,-30.362 -31.012,-57.952 -54.25,-81.191c-23.239,-23.238 -50.829,-41.673 -81.191,-54.25c-30.363,-12.577 -62.908,-19.05 -95.772,-19.05c-32.864,-0 -65.409,6.473 -95.771,19.05c-30.363,12.577 -57.953,31.012 -81.191,54.25c-23.239,23.239 -41.674,50.829 -54.25,81.191c-12.577,30.363 -19.051,62.907 -19.051,95.772c0,32.864 6.474,65.409 19.051,95.771c12.576,30.363 31.011,57.953 54.25,81.191c23.238,23.239 50.828,41.674 81.191,54.25c30.362,12.577 62.907,19.051 95.771,19.051c32.864,-0 65.409,-6.474 95.772,-19.051c30.362,-12.576 57.952,-31.011 81.191,-54.25c23.238,-23.238 41.673,-50.828 54.25,-81.191c12.577,-30.362 19.05,-62.907 19.05,-95.771m-250.263,-0"/></clipPath><g clip-path="url(#_clip17)"><path d="M1426.55,314.263l-19.2,13.302l-27.429,19.002l-11.886,8.235l-27.429,19.003l-5.485,3.8l-0.199,-0.287l-0.198,-0.288l-0.196,-0.289l-0.196,-0.29l-0.195,-0.29l-0.194,-0.29l-0.193,-0.292l-0.192,-0.291l-0.192,-0.293l-0.19,-0.293l-0.189,-0.294l-0.189,-0.294l-0.187,-0.295l-0.187,-0.295l-0.186,-0.296l-0.184,-0.297l-0.184,-0.297l-0.183,-0.297l-0.182,-0.299l-0.181,-0.299l-0.18,-0.299l-0.18,-0.3l-0.178,-0.301l-0.177,-0.301l-0.176,-0.302l-0.176,-0.302l-0.174,-0.303l-0.174,-0.303l-0.172,-0.304l-0.172,-0.304l-0.17,-0.305l-0.17,-0.306l-0.169,-0.306l-0.167,-0.306l-0.167,-0.307l-0.166,-0.308l-0.165,-0.308l-0.164,-0.309l-0.162,-0.309l-0.162,-0.309l-0.161,-0.311l-0.16,-0.31l-0.159,-0.311l-0.158,-0.312l-0.157,-0.312l-0.156,-0.313l-0.155,-0.313l-0.154,-0.314l-0.154,-0.314l-0.152,-0.314l25.054,-12.065l14.029,-6.757l26.056,-12.547l22.047,-10.618l13.027,-6.273Z" style="fill:#29ffce;fill-opacity:0.6;fill-rule:nonzero;stroke:#4c4c4c;stroke-width:4.71px;stroke-linecap:butt;"/></g></g><g id="patch_9"><clipPath id="_clip18"><path d="M1676.81,314.263c0,-32.865 -6.473,-65.409 -19.05,-95.772c-12.577,-30.362 -31.012,-57.952 -54.25,-81.191c-23.239,-23.238 -50.829,-41.673 -81.191,-54.25c-30.363,-12.577 -62.908,-19.05 -95.772,-19.05c-32.864,-0 -65.409,6.473 -95.771,19.05c-30.363,12.577 -57.953,31.012 -81.191,54.25c-23.239,23.239 -41.674,50.829 -54.25,81.191c-12.577,30.363 -19.051,62.907 -19.051,95.772c0,32.864 6.474,65.409 19.051,95.771c12.576,30.363 31.011,57.953 54.25,81.191c23.238,23.239 50.828,41.674 81.191,54.25c30.362,12.577 62.907,19.051 95.771,19.051c32.864,-0 65.409,-6.474 95.772,-19.051c30.362,-12.576 57.952,-31.011 81.191,-54.25c23.238,-23.238 41.673,-50.828 54.25,-81.191c12.577,-30.362 19.05,-62.907 19.05,-95.771m-250.263,-0"/></clipPath><g clip-path="url(#_clip18)"><path d="M1426.55,314.263l3.494,20.56l3.26,19.19l4.192,24.673l3.959,23.302l3.261,19.19l3.26,19.19l1.863,10.965l-0.538,0.091l-0.539,0.088l-0.539,0.086l-0.539,0.084l-0.54,0.082l-0.54,0.08l-0.541,0.077l-0.541,0.076l-0.541,0.073l-0.541,0.072l-0.541,0.069l-0.542,0.067l-0.542,0.065l-0.543,0.063l-0.542,0.06l-0.543,0.059l-0.543,0.056l-0.544,0.055l-0.543,0.052l-0.544,0.05l-0.544,0.048l-0.544,0.045l-0.544,0.044l-0.544,0.042l-0.545,0.039l-0.545,0.037l-0.545,0.035l-0.545,0.033l-0.545,0.031l-0.545,0.028l-0.545,0.027l-0.546,0.024l-0.545,0.022l-0.546,0.02l-0.546,0.018l-0.545,0.016l-0.546,0.014l-0.546,0.011l-0.546,0.01l-0.546,0.007l-0.546,0.005l-0.546,0.003l-0.546,0.001l-0.546,-0.002l-0.546,-0.003l-0.546,-0.006l-0.546,-0.008l-0.546,-0.01l-0.545,-0.012l-0.546,-0.014l-0.546,-0.016l-0.546,-0.019l-0.545,-0.021l-0.546,-0.023l-0.545,-0.024l-0.545,-0.028l-0.546,-0.029l-0.545,-0.031l-0.545,-0.034l-0.544,-0.035l-0.545,-0.038l-0.545,-0.04l-0.544,-0.042l-0.544,-0.044l-0.544,-0.047l-0.544,-0.048l-0.544,-0.051l-0.543,-0.053l-0.543,-0.054l-0.543,-0.057l-0.543,-0.06l-0.543,-0.061l-0.542,-0.063l-0.542,-0.066l-0.542,-0.068l-0.541,-0.069l-0.542,-0.072l-0.541,-0.074l-0.54,-0.076l-0.541,-0.079l-0.54,-0.08l-0.539,-0.083l-0.54,-0.084l-0.539,-0.087l-0.538,-0.089l-0.539,-0.091l-0.538,-0.093l-0.537,-0.095l-0.538,-0.098l-0.536,-0.099l-0.537,-0.102l-0.536,-0.103l-0.536,-0.106l-0.535,-0.108l-0.535,-0.11l-0.534,-0.112l-0.534,-0.114l-0.533,-0.117l-0.533,-0.118l-0.533,-0.12l4.95,-21.688l4.641,-20.333l4.641,-20.332l5.878,-25.754l4.641,-20.333l4.64,-20.332l1.547,-6.777Z" style="fill:#7dff7a;fill-opacity:0.6;fill-rule:nonzero;stroke:#4c4c4c;stroke-width:4.71px;stroke-linecap:butt;"/></g></g><g id="patch_10"><clipPath id="_clip19"><path d="M1676.81,314.263c0,-32.865 -6.473,-65.409 -19.05,-95.772c-12.577,-30.362 -31.012,-57.952 -54.25,-81.191c-23.239,-23.238 -50.829,-41.673 -81.191,-54.25c-30.363,-12.577 -62.908,-19.05 -95.772,-19.05c-32.864,-0 -65.409,6.473 -95.771,19.05c-30.363,12.577 -57.953,31.012 -81.191,54.25c-23.239,23.239 -41.674,50.829 -54.25,81.191c-12.577,30.363 -19.051,62.907 -19.051,95.772c0,32.864 6.474,65.409 19.051,95.771c12.576,30.363 31.011,57.953 54.25,81.191c23.238,23.239 50.828,41.674 81.191,54.25c30.362,12.577 62.907,19.051 95.771,19.051c32.864,-0 65.409,-6.474 95.772,-19.051c30.362,-12.576 57.952,-31.011 81.191,-54.25c23.238,-23.238 41.673,-50.828 54.25,-81.191c12.577,-30.362 19.05,-62.907 19.05,-95.771m-250.263,-0"/></clipPath><g clip-path="url(#_clip19)"><path d="M1426.55,314.263l24.566,19.143l17.547,13.674l14.037,10.939l17.547,13.674l19.301,15.041l22.811,17.776l14.038,10.939l22.811,17.776l15.792,12.307l7.018,5.47l-0.322,0.413l-0.324,0.412l-0.324,0.411l-0.326,0.411l-0.327,0.41l-0.327,0.409l-0.329,0.409l-0.329,0.408l-0.33,0.406l-0.332,0.407l-0.332,0.405l-0.333,0.404l-0.335,0.404l-0.335,0.403l-0.336,0.402l-0.337,0.402l-0.338,0.4l-0.339,0.4l-0.34,0.399l-0.341,0.398l-0.341,0.398l-0.343,0.396l-0.344,0.396l-0.344,0.395l-0.346,0.394l-0.346,0.394l-0.348,0.392l-0.348,0.392l-0.349,0.391l-0.35,0.39l-0.351,0.389l-0.352,0.388l-0.353,0.388l-0.354,0.387l-0.354,0.386l-0.356,0.385l-0.357,0.384l-0.357,0.383l-0.358,0.383l-0.36,0.382l-0.36,0.381l-0.361,0.38l-0.362,0.379l-0.362,0.378l-0.364,0.377l-0.365,0.377l-0.365,0.376l-0.366,0.375l-0.368,0.374l-0.368,0.373l-0.369,0.372l-0.37,0.371l-0.37,0.371l-0.372,0.37l-0.372,0.368l-0.374,0.368l-0.374,0.367l-0.375,0.366l-0.376,0.366l-0.377,0.364l-0.377,0.364l-0.379,0.362l-0.379,0.362l-0.38,0.361l-0.382,0.359l-0.381,0.359l-0.383,0.359l-0.384,0.357l-0.384,0.356l-0.385,0.355l-0.387,0.355l-0.387,0.353l-0.387,0.353l-0.389,0.352l-0.389,0.351l-0.391,0.35l-0.391,0.349l-0.392,0.348l-0.392,0.347l-0.394,0.346l-0.394,0.345l-0.395,0.345l-0.396,0.343l-0.397,0.343l-0.398,0.341l-0.398,0.341l-0.399,0.339l-0.4,0.339l-0.401,0.338l-0.402,0.337l-0.402,0.336l-0.403,0.335l-0.404,0.333l-0.405,0.334l-0.405,0.332l-0.407,0.331l-0.407,0.33l-0.408,0.329l-0.408,0.328l-0.41,0.328l-13.87,-17.393l-12.483,-15.653l-12.482,-15.653l-13.87,-17.392l-13.87,-17.392l-13.87,-17.393l-18.031,-22.61l-13.87,-17.392l-16.644,-20.871l-9.709,-12.174Z" style="fill:#ff6800;fill-opacity:0.6;fill-rule:nonzero;stroke:#4c4c4c;stroke-width:4.71px;stroke-linecap:butt;"/></g></g><g id="patch_11"><path d="M1676.81,314.263c0,-32.865 -6.473,-65.409 -19.05,-95.772c-12.577,-30.362 -31.012,-57.952 -54.25,-81.191c-23.239,-23.238 -50.829,-41.673 -81.191,-54.25c-30.363,-12.577 -62.908,-19.05 -95.772,-19.05c-32.864,-0 -65.409,6.473 -95.771,19.05c-30.363,12.577 -57.953,31.012 -81.191,54.25c-23.239,23.239 -41.674,50.829 -54.25,81.191c-12.577,30.363 -19.051,62.907 -19.051,95.772c0,32.864 6.474,65.409 19.051,95.771c12.576,30.363 31.011,57.953 54.25,81.191c23.238,23.239 50.828,41.674 81.191,54.25c30.362,12.577 62.907,19.051 95.771,19.051c32.864,-0 65.409,-6.474 95.772,-19.051c30.362,-12.576 57.952,-31.011 81.191,-54.25c23.238,-23.238 41.673,-50.828 54.25,-81.191c12.577,-30.362 19.05,-62.907 19.05,-95.771" style="fill:none;fill-rule:nonzero;stroke:#11557c;stroke-width:6.72px;"/></g></g></g></svg>