<?xml version="1.0" standalone="no"?>
<!DOCTYPE svg PUBLIC "-//W3C//DTD SVG 20010904//EN"
 "http://www.w3.org/TR/2001/REC-SVG-20010904/DTD/svg10.dtd">
<svg version="1.0" xmlns="http://www.w3.org/2000/svg"
 width="608.000000pt" height="259.000000pt" viewBox="0 0 608.000000 259.000000"
 style="background-color: #ffffff;"
 preserveAspectRatio="xMidYMid meet">

<g transform="translate(0.000000,259.000000) scale(0.100000,-0.100000)"
fill="#000000" stroke="none">

<path d="M0 1295 l0 -1295 3040 0 3040 0 0 1295 0 1295 -3040 0 -3040 0 0
-1295z m5568 845 c33 -15 47 -29 62 -62 19 -41 20 -71 20 -783 0 -712 -1 -742
-20 -783 -15 -33 -29 -47 -62 -62 -42 -19 -77 -20 -1383 -20 -1306 0 -1341 1
-1383 20 -33 15 -47 29 -62 62 -19 41 -20 71 -20 783 0 712 1 742 20 783 15
33 29 47 62 62 42 19 77 20 1383 20 1306 0 1341 -1 1383 -20z m-4291 -304
c127 -34 224 -109 272 -209 16 -34 32 -77 35 -94 l6 -33 -105 0 -105 0 -16 40
c-20 49 -80 103 -133 118 -49 15 -133 15 -183 0 -54 -16 -122 -79 -152 -141
-68 -139 -55 -374 26 -471 66 -80 193 -117 302 -86 76 21 151 102 170 183 l6
27 -120 0 -120 0 0 90 0 90 215 0 215 0 0 -280 0 -280 -69 0 c-69 0 -69 0 -75
30 -3 16 -9 44 -12 60 -3 17 -7 30 -8 30 -1 0 -24 -20 -50 -45 -62 -57 -119
-84 -207 -97 -149 -22 -296 28 -397 136 -69 74 -105 145 -126 248 -67 323 79
611 347 683 68 18 218 19 284 1z m713 -96 l0 -90 -100 0 -100 0 0 90 0 90 100
0 100 0 0 -90z m420 -85 l0 -105 60 0 60 0 0 -70 0 -70 -60 0 -60 0 0 -224 c0
-256 0 -256 76 -256 l44 0 0 -76 0 -77 -107 5 c-118 5 -160 19 -190 65 -16 24
-18 59 -21 295 l-3 268 -55 0 -55 0 3 68 3 67 53 3 52 3 0 105 0 104 100 0
100 0 0 -105z m-420 -480 l0 -385 -100 0 -100 0 0 385 0 385 100 0 100 0 0
-385z"/>

<path fill="#ff9300" d="M2802 2140 c-33 -15 -47 -29 -62 -62 -19 -41 -20 -71 -20 -783 0
-712 1 -742 20 -783 15 -33 29 -47 62 -62 42 -19 77 -20 1383 -20 1306 0 1341
1 1383 20 33 15 47 29 62 62 19 41 20 71 20 783 0 712 -1 742 -20 783 -15 33
-29 47 -62 62 -42 19 -77 20 -1383 20 -1306 0 -1341 -1 -1383 -20z"/>

<path d="M2957 1834 c-4 -4 -7 -238 -7 -521 l0 -513 105 0 105 0 0 243 c0 232
1 245 23 287 32 63 64 83 132 83 47 0 61 -4 82 -25 37 -37 43 -81 43 -345 l0
-243 105 0 105 0 0 275 c0 302 -6 353 -51 415 -86 119 -321 129 -414 19 l-25
-30 -2 178 -3 178 -95 3 c-53 1 -99 0 -103 -4z"/>
<path d="M3832 1263 c3 -343 5 -350 76 -419 46 -44 91 -59 187 -59 89 0 137
19 194 75 l31 32 0 -46 0 -46 100 0 100 0 0 385 0 385 -104 0 -105 0 -3 -263
-3 -264 -27 -35 c-49 -65 -154 -76 -207 -24 l-26 26 -5 278 -5 277 -103 -1
-103 3 3 -308z"/>
<path d="M4707 1833 c-4 -3 -7 -237 -7 -520 l0 -513 105 0 105 0 0 41 0 42 22
-28 c53 -67 195 -95 301 -59 209 71 290 444 144 660 -58 86 -140 127 -258 126
-75 0 -126 -21 -177 -73 l-32 -33 0 182 0 182 -98 0 c-54 0 -102 -3 -105 -7z
m443 -448 c42 -21 68 -73 80 -153 15 -110 -7 -198 -64 -251 -20 -19 -40 -26
-84 -29 -73 -5 -116 21 -152 93 -21 42 -25 63 -24 135 2 152 52 220 162 220
29 0 66 -7 82 -15z"/>
</g>
</svg>
