<?xml version="1.0" encoding="UTF-8" standalone="no"?>
<!-- Created with Inkscape (http://www.inkscape.org/) -->

<svg
   width="251.63889mm"
   height="86.512291mm"
   viewBox="0 0 251.63888 86.512294"
   version="1.1"
   id="svg58926"
   xmlns="http://www.w3.org/2000/svg"
   xmlns:svg="http://www.w3.org/2000/svg">
  <defs
     id="defs58923" />
  <path
     fill="#e24329"
     d="M 46.957632,86.51229 64.250143,33.291721 H 29.66512 Z"
     id="path59005"
     style="fill-rule:evenodd;stroke-width:0.447529" />
  <path
     fill="#fc6d26"
     d="M 46.957632,86.51229 29.66512,33.291721 H 5.4300937 Z"
     id="path59007"
     style="fill-rule:evenodd;stroke-width:0.447529" />
  <path
     fill="#fca326"
     d="M 5.4300937,33.291721 0.1752114,49.464963 A 3.5802302,3.5802302 0 0 0 1.47573,53.46766 l 45.482349,33.04463 z"
     id="path59009"
     style="fill-rule:evenodd;stroke-width:0.447529" />
  <path
     fill="#e24329"
     d="M 5.4300937,33.292168 H 29.66512 L 19.249783,1.2370255 c -0.535692,-1.64959112 -2.86866,-1.64914352 -3.404799,0 z"
     id="path59011"
     style="fill-rule:evenodd;stroke-width:0.447529" />
  <path
     fill="#fc6d26"
     d="M 46.957632,86.51229 64.250143,33.291721 h 24.235026 z"
     id="path59013"
     style="fill-rule:evenodd;stroke-width:0.447529" />
  <path
     fill="#fca326"
     d="M 88.485169,33.291721 93.74005,49.464963 A 3.5802302,3.5802302 0 0 1 92.439533,53.46766 L 46.957632,86.51229 Z"
     id="path59015"
     style="fill-rule:evenodd;stroke-width:0.447529" />
  <path
     fill="#e24329"
     d="M 88.485169,33.292168 H 64.250143 L 74.66548,1.2370255 c 0.535692,-1.64959112 2.869107,-1.64914352 3.404799,0 z"
     id="path59017"
     style="fill-rule:evenodd;stroke-width:0.447529" />
  <path
     style="fill:#8c929d;fill-opacity:1;fill-rule:evenodd;stroke-width:0.447529"
     d="m 158.11527,38.445453 h 4.02776 v 21.92891 h -4.02776 z"
     id="path26995" />
  <path
     style="fill:#8c929d;fill-opacity:1;fill-rule:evenodd;stroke-width:0.447529"
     d="m 158.11527,29.494877 h 4.02776 v 4.027759 h -4.02776 z"
     id="path26993" />
  <path
     style="fill:#8c929d;fill-opacity:1;fill-rule:evenodd;stroke-width:0.447529"
     d="m 178.25854,38.445453 v 3.490724 h -6.71294 v 10.248409 c 0,1.255318 0.48826,2.435452 1.37616,3.322454 0.87899,0.884469 2.07549,1.380219 3.32245,1.376598 h 2.01388 v 3.490725 h -2.01388 c -4.81183,0 -8.72681,-3.914982 -8.72681,-8.726811 V 27.257233 h 4.02776 v 11.18822 z"
     id="path26991" />
  <path
     style="fill:#8c929d;fill-opacity:1;fill-rule:evenodd;stroke-width:0.447529"
     d="m 183.63246,27.257215 v 29.626616 3.490742 l 4.02753,-9e-6 7e-5,-14.938246 h 12.77833 l -6e-5,14.938246 4.02748,9e-6 V 56.883831 27.257215 h -4.02766 l 1.8e-4,14.68836 h -12.77827 l 6e-5,-14.68836 z"
     id="path26989" />
  <path
     id="path26985"
     style="fill:#8c929d;fill-opacity:1;fill-rule:evenodd;stroke-width:0.447529"
     d="m 240.48422,60.933774 c -2.61581,0 -5.48357,-0.359813 -8.52497,-1.070042 V 27.257233 h 4.02775 v 12.559 l 0.34594,-0.224659 c 0.0224,-0.01432 2.26897,-1.449993 5.36498,-1.449993 0.61759,0 1.23563,0.05773 1.83263,0.170508 5.07721,1.040057 8.10833,5.136735 8.10833,10.958637 0,6.866882 -4.58673,11.663048 -11.15466,11.663048 z m 0.44798,-18.850808 c -1.60171,0 -3.27726,0.548223 -4.84495,1.5847 l -0.10025,0.06668 v 13.351573 l 0.1911,0.02819 c 1.51265,0.221526 2.96085,0.334304 4.30612,0.334304 4.19603,0 7.1269,-3.363179 7.1269,-8.177694 0,-4.567926 -2.43456,-7.18776 -6.67892,-7.18776 z" />
  <path
     style="fill:#8c929d;fill-opacity:1;fill-rule:evenodd;stroke-width:0.447529"
     d="m 141.71244,29.069725 c -6.84227,0 -11.09245,5.435684 -11.09245,14.186662 0,8.750978 4.25018,14.186662 11.09245,14.186662 2.57061,0 4.95907,-0.729024 6.90627,-2.108755 l 0.0944,-0.06668 V 45.4363 h -9.84563 v -3.490725 h 13.87341 V 56.59543 c -2.93713,2.839122 -6.74828,4.338344 -11.02845,4.338344 -9.18508,0 -15.12021,-6.938934 -15.12021,-17.677387 0,-10.738453 5.93513,-17.677387 15.12021,-17.677387 4.47171,0 8.24661,1.632585 10.93313,4.724114 l -2.68338,2.229588 c -2.02552,-2.297612 -4.8002,-3.462977 -8.24975,-3.462977 z"
     id="path26983" />
  <path
     style="fill:#8c929d;fill-opacity:1;fill-rule:evenodd;stroke-width:0.447529"
     d="m 224.20371,38.141773 h 4.02813 v 22.232581 h -4.02776 v -1.11547 l -0.34594,0.224659 c -0.0224,0.01432 -2.26897,1.450231 -5.36498,1.450231 -0.61759,0 -1.23562,-0.05797 -1.83263,-0.170746 -5.07721,-1.040057 -8.10882,-5.136735 -8.10882,-10.958637 V 38.141773 l 4.028,-4.3e-4 v 11.663048 c 0,4.567926 2.43481,7.18776 6.67917,7.18776 1.60171,0 3.27726,-0.548223 4.84495,-1.5847 l 0.10025,-0.06668 -3.7e-4,-13.351573 z"
     id="path25604" />
</svg>
