<?xml version="1.0" encoding="UTF-8"?>
<!-- Created with Inkscape (http://www.inkscape.org/) -->
<svg width="165.02mm" height="43.847mm" version="1.1" viewBox="0 0 165.02 43.847" xmlns="http://www.w3.org/2000/svg" xmlns:cc="http://creativecommons.org/ns#" xmlns:dc="http://purl.org/dc/elements/1.1/" xmlns:rdf="http://www.w3.org/1999/02/22-rdf-syntax-ns#">
 <defs>
  <style>.cls-1{fill:#fc6d26;}.cls-2{fill:#e24329;}.cls-3{fill:#fca326;}</style>
  <style>.cls-1{fill:#8c929d;}.cls-2{fill:#fc6d26;}.cls-3{fill:#e24329;}.cls-4{fill:#fca326;}</style>
  <style>.cls-1{fill:#8c929d;}.cls-2{fill:#fc6d26;}.cls-3{fill:#e24329;}.cls-4{fill:#fca326;}</style>
  <style>.cls-1{fill:#8c929d;}.cls-2{fill:#fc6d26;}.cls-3{fill:#e24329;}.cls-4{fill:#fca326;}</style>
 </defs>
 <metadata>
  <rdf:RDF>
   <cc:Work rdf:about="">
    <dc:format>image/svg+xml</dc:format>
    <dc:type rdf:resource="http://purl.org/dc/dcmitype/StillImage"/>
    <dc:title/>
   </cc:Work>
  </rdf:RDF>
 </metadata>
 <g transform="translate(-28.478 -14.453)">
  <g transform="matrix(.14098 0 0 .14098 10.991 -3.0283)">
   <path class="cls-2" d="m461 301.81-18.91-58.12-37.42-115.28a6.47 6.47 0 0 0-12.27 0l-37.4 115.21h-124.34l-37.42-115.21a6.47 6.47 0 0 0-12.27 0l-37.35 115.21-18.92 58.19a12.89 12.89 0 0 0 4.66 14.39l163.46 118.8 163.46-118.8a12.9 12.9 0 0 0 4.72-14.39" fill="#fc6d26"/>
   <path class="cls-3" d="m292.86 434.89 62.14-191.28h-124.3z" fill="#e24329"/>
   <path class="cls-2" d="m292.82 434.9-62.16-191.29h-87z" fill="#fc6d26"/>
   <path class="cls-4" d="m143.59 243.68-18.92 58.12a12.89 12.89 0 0 0 4.66 14.39l163.46 118.81z" fill="#fca326"/>
   <path class="cls-3" d="m143.61 243.68h87.11l-37.49-115.21a6.47 6.47 0 0 0-12.27 0z" fill="#e24329"/>
   <path class="cls-2" d="m292.86 434.9 62.14-191.29h87.1z" fill="#fc6d26"/>
   <path class="cls-4" d="m442.07 243.68 18.93 58.12a12.89 12.89 0 0 1-4.66 14.39l-163.47 118.7z" fill="#fca326"/>
   <path class="cls-3" d="m442.12 243.68h-87.12l37.42-115.21a6.47 6.47 0 0 1 12.27 0l37.42 115.21z" fill="#e24329"/>
  </g>
  <g fill="#8c929d" stroke-width=".91004" aria-label="GitHub">
   <path d="m83.414 36.244q0-2.9485 0.91004-5.2418 0.94644-2.3297 2.5117-3.9314 1.6017-1.6017 3.713-2.4389 2.1477-0.83724 4.5502-0.83724 2.5117 0 4.3318 0.94644 1.8565 0.94644 3.0577 2.1477l-2.9485 3.3125q-0.91004-0.83724-1.8929-1.3105-0.94644-0.47322-2.4753-0.47322-1.3833 0-2.5481 0.54602-1.1284 0.50962-1.9657 1.4925-0.80083 0.98284-1.2741 2.4025-0.47322 1.4197-0.47322 3.2033 0 3.6766 1.6381 5.715 1.6745 2.0021 5.0598 2.0021 0.72803 0 1.3833-0.18201 0.69163-0.18201 1.1284-0.54602v-4.077h-3.9314v-4.3682h8.7v10.92q-0.65523 0.54602-1.5289 1.092-0.83724 0.50962-1.8565 0.91004-1.0192 0.40042-2.1841 0.61883-1.1648 0.25481-2.4025 0.25481-2.4025 0-4.5138-0.76443-2.0749-0.80083-3.6402-2.3297-1.5653-1.5289-2.4753-3.7858-0.87364-2.2933-0.87364-5.2782z"/>
   <path d="m109.98 27.253q-1.3469 0-2.2205-0.76443-0.87364-0.80083-0.87364-2.0385t0.87364-2.0021q0.87363-0.76443 2.2205-0.76443 1.3833 0 2.2205 0.76443 0.87364 0.76443 0.87364 2.0021t-0.87364 2.0385q-0.83723 0.76443-2.2205 0.76443zm-2.6573 2.6573h5.351v18.055h-5.351z"/>
   <path d="m118.07 34.096h-2.4753v-3.9678l2.7665-0.21841 0.61882-4.805h4.441v4.805h4.3318v4.1862h-4.3318v7.2439q0 1.5289 0.61883 2.2205 0.65523 0.65523 1.7109 0.65523 0.43682 0 0.87364-0.1092 0.47322-0.1092 0.83724-0.25481l0.83723 3.895q-0.72803 0.21841-1.7109 0.43682t-2.2933 0.21841q-1.6745 0-2.8757-0.50962-1.1648-0.50962-1.9293-1.4197-0.72803-0.91004-1.092-2.1841-0.32762-1.3105-0.32762-2.8757z"/>
   <path d="m131.68 24.232h5.3874v9.1368h8.1904v-9.1368h5.351v23.734h-5.351v-9.9012h-8.1904v9.9012h-5.3874z"/>
   <path d="m155.55 29.91h5.351v10.52q0 1.9657 0.54602 2.6937t1.7109 0.72803q1.0192 0 1.7109-0.47322 0.69163-0.47322 1.4925-1.5289v-11.94h5.351v18.055h-4.3682l-0.40042-2.5117h-0.1092q-1.1648 1.3833-2.5117 2.1841-1.3104 0.76443-3.1669 0.76443-2.9485 0-4.2954-1.9293-1.3104-1.9293-1.3104-5.351z"/>
   <path d="m176.43 22.448h5.351v6.2611l-0.1456 2.7665q1.0556-0.94644 2.2569-1.4561 1.2377-0.54602 2.5117-0.54602 1.6381 0 2.9485 0.65523 1.3104 0.65523 2.2205 1.8565 0.94644 1.1648 1.4197 2.8757 0.50962 1.6745 0.50962 3.7494 0 2.3297-0.65522 4.1498-0.61883 1.8201-1.7109 3.0941-1.0556 1.2377-2.4389 1.8929-1.3469 0.65523-2.8029 0.65523-1.2012 0-2.4389-0.58242-1.2013-0.58242-2.2569-1.7473h-0.14561l-0.43682 1.8929h-4.1862zm5.351 20.421q0.72804 0.65523 1.4561 0.91004t1.4197 0.25481q1.3833 0 2.3661-1.2377 0.98284-1.2741 0.98284-4.077 0-4.8778-3.1305-4.8778-1.6017 0-3.0941 1.6381z"/>
  </g>
 </g>
</svg>
