<?xml version="1.0" encoding="UTF-8"?>
<!-- Created with Inkscape (http://www.inkscape.org/) -->
<svg width="165.02mm" height="43.847mm" version="1.1" viewBox="0 0 165.02 43.847" xmlns="http://www.w3.org/2000/svg" xmlns:cc="http://creativecommons.org/ns#" xmlns:dc="http://purl.org/dc/elements/1.1/" xmlns:rdf="http://www.w3.org/1999/02/22-rdf-syntax-ns#">
 <defs>
    <style>.cls-1{fill:#e24329;}.cls-2{fill:#fc6d26;}.cls-3{fill:#fca326;}</style>
 </defs>
 <metadata>
  <rdf:RDF>
   <cc:Work rdf:about="">
    <dc:format>image/svg+xml</dc:format>
    <dc:type rdf:resource="http://purl.org/dc/dcmitype/StillImage"/>
    <dc:title/>
   </cc:Work>
  </rdf:RDF>
 </metadata>
 <g transform="translate(-28.478 -14.453)">
  <defs>
  </defs>
  <g transform="translate(7, -8.35) scale(.235)" id="LOGO">
    <path class="cls-1" d="M282.83,170.73l-.27-.69-26.14-68.22a6.81,6.81,0,0,0-2.69-3.24,7,7,0,0,0-8,.43,7,7,0,0,0-2.32,3.52l-17.65,54H154.29l-17.65-54A6.86,6.86,0,0,0,134.32,99a7,7,0,0,0-8-.43,6.87,6.87,0,0,0-2.69,3.24L97.44,170l-.26.69a48.54,48.54,0,0,0,16.1,56.1l.09.07.24.17,39.82,29.82,19.7,14.91,12,9.06a8.07,8.07,0,0,0,9.76,0l12-9.06,19.7-14.91,40.06-30,.1-.08A48.56,48.56,0,0,0,282.83,170.73Z"/>
    <path class="cls-2" d="M282.83,170.73l-.27-.69a88.3,88.3,0,0,0-35.15,15.8L190,229.25c19.55,14.79,36.57,27.64,36.57,27.64l40.06-30,.1-.08A48.56,48.56,0,0,0,282.83,170.73Z"/>
    <path class="cls-3" d="M153.43,256.89l19.7,14.91,12,9.06a8.07,8.07,0,0,0,9.76,0l12-9.06,19.7-14.91S209.55,244,190,229.25C170.45,244,153.43,256.89,153.43,256.89Z"/>
    <path class="cls-2" d="M132.58,185.84A88.19,88.19,0,0,0,97.44,170l-.26.69a48.54,48.54,0,0,0,16.1,56.1l.09.07.24.17,39.82,29.82s17-12.85,36.57-27.64Z"/>
  </g>
  <g fill="#8c929d" stroke-width=".91004" aria-label="GitHub">
   <path d="m83.414 36.244q0-2.9485 0.91004-5.2418 0.94644-2.3297 2.5117-3.9314 1.6017-1.6017 3.713-2.4389 2.1477-0.83724 4.5502-0.83724 2.5117 0 4.3318 0.94644 1.8565 0.94644 3.0577 2.1477l-2.9485 3.3125q-0.91004-0.83724-1.8929-1.3105-0.94644-0.47322-2.4753-0.47322-1.3833 0-2.5481 0.54602-1.1284 0.50962-1.9657 1.4925-0.80083 0.98284-1.2741 2.4025-0.47322 1.4197-0.47322 3.2033 0 3.6766 1.6381 5.715 1.6745 2.0021 5.0598 2.0021 0.72803 0 1.3833-0.18201 0.69163-0.18201 1.1284-0.54602v-4.077h-3.9314v-4.3682h8.7v10.92q-0.65523 0.54602-1.5289 1.092-0.83724 0.50962-1.8565 0.91004-1.0192 0.40042-2.1841 0.61883-1.1648 0.25481-2.4025 0.25481-2.4025 0-4.5138-0.76443-2.0749-0.80083-3.6402-2.3297-1.5653-1.5289-2.4753-3.7858-0.87364-2.2933-0.87364-5.2782z"/>
   <path d="m109.98 27.253q-1.3469 0-2.2205-0.76443-0.87364-0.80083-0.87364-2.0385t0.87364-2.0021q0.87363-0.76443 2.2205-0.76443 1.3833 0 2.2205 0.76443 0.87364 0.76443 0.87364 2.0021t-0.87364 2.0385q-0.83723 0.76443-2.2205 0.76443zm-2.6573 2.6573h5.351v18.055h-5.351z"/>
   <path d="m118.07 34.096h-2.4753v-3.9678l2.7665-0.21841 0.61882-4.805h4.441v4.805h4.3318v4.1862h-4.3318v7.2439q0 1.5289 0.61883 2.2205 0.65523 0.65523 1.7109 0.65523 0.43682 0 0.87364-0.1092 0.47322-0.1092 0.83724-0.25481l0.83723 3.895q-0.72803 0.21841-1.7109 0.43682t-2.2933 0.21841q-1.6745 0-2.8757-0.50962-1.1648-0.50962-1.9293-1.4197-0.72803-0.91004-1.092-2.1841-0.32762-1.3105-0.32762-2.8757z"/>
   <path d="m131.68 24.232h5.3874v9.1368h8.1904v-9.1368h5.351v23.734h-5.351v-9.9012h-8.1904v9.9012h-5.3874z"/>
   <path d="m155.55 29.91h5.351v10.52q0 1.9657 0.54602 2.6937t1.7109 0.72803q1.0192 0 1.7109-0.47322 0.69163-0.47322 1.4925-1.5289v-11.94h5.351v18.055h-4.3682l-0.40042-2.5117h-0.1092q-1.1648 1.3833-2.5117 2.1841-1.3104 0.76443-3.1669 0.76443-2.9485 0-4.2954-1.9293-1.3104-1.9293-1.3104-5.351z"/>
   <path d="m176.43 22.448h5.351v6.2611l-0.1456 2.7665q1.0556-0.94644 2.2569-1.4561 1.2377-0.54602 2.5117-0.54602 1.6381 0 2.9485 0.65523 1.3104 0.65523 2.2205 1.8565 0.94644 1.1648 1.4197 2.8757 0.50962 1.6745 0.50962 3.7494 0 2.3297-0.65522 4.1498-0.61883 1.8201-1.7109 3.0941-1.0556 1.2377-2.4389 1.8929-1.3469 0.65523-2.8029 0.65523-1.2012 0-2.4389-0.58242-1.2013-0.58242-2.2569-1.7473h-0.14561l-0.43682 1.8929h-4.1862zm5.351 20.421q0.72804 0.65523 1.4561 0.91004t1.4197 0.25481q1.3833 0 2.3661-1.2377 0.98284-1.2741 0.98284-4.077 0-4.8778-3.1305-4.8778-1.6017 0-3.0941 1.6381z"/>
  </g>
 </g>
</svg>
