<?xml version="1.0" encoding="UTF-8" standalone="no"?>
<svg
   xmlns:dc="http://purl.org/dc/elements/1.1/"
   xmlns:cc="http://creativecommons.org/ns#"
   xmlns:rdf="http://www.w3.org/1999/02/22-rdf-syntax-ns#"
   xmlns:svg="http://www.w3.org/2000/svg"
   xmlns="http://www.w3.org/2000/svg"
   version="1.1"
   id="svg2"
   xml:space="preserve"
   width="800.12"
   height="157.16"
   viewBox="0 0 800.12 157.16"><metadata
   id="metadata8"><rdf:RDF><cc:Work
       rdf:about=""><dc:format>image/svg+xml</dc:format><dc:type
         rdf:resource="http://purl.org/dc/dcmitype/StillImage" /><dc:title></dc:title></cc:Work></rdf:RDF></metadata><defs
   id="defs6"><clipPath
     clipPathUnits="userSpaceOnUse"
     id="clipPath20"><path
       d="M 0,1178.69 V 0 h 6000.85 v 1178.69 z"
       id="path18" /></clipPath></defs><path
   d="m 112.09586,143.136 v -42.06813 h 14.02187 V 157.16 H 0 V 101.06787 H 14.021866 V 143.136 h 98.073994"
   style="fill:#bcbbbc;fill-opacity:1;fill-rule:nonzero;stroke:none;stroke-width:0.13333333"
   id="path24" /><path
   id="path893"
   d="M 28.059333,129.11213 H 98.168798 V 115.09027 H 28.059333 Z"
   style="fill:#31aa52;fill-opacity:1;fill-rule:nonzero;stroke:none;stroke-width:0.13333333" /><path
   id="path891"
   d="M 90.894798,0.00133726 79.643731,8.3693371 121.486,64.624536 132.73693,56.256403 Z"
   style="fill:#4086f4;fill-opacity:1;fill-rule:nonzero;stroke:none;stroke-width:0.13333333" /><path
   id="path889"
   d="M 56.117199,33.166803 109.99013,78.034002 118.9636,67.258936 65.090665,22.392003 Z"
   style="fill:#eb4133;fill-opacity:1;fill-rule:nonzero;stroke:none;stroke-width:0.13333333" /><path
   id="path887"
   d="M 38.529732,64.346402 102.08493,93.945468 108.00466,81.234535 44.449466,51.635469 Z"
   style="fill:#fbbd02;fill-opacity:1;fill-rule:nonzero;stroke:none;stroke-width:0.13333333" /><path
   id="path26"
   d="M 29.451599,97.198535 98.062531,111.6184 100.9464,97.896001 32.335466,83.476135 l -2.883867,13.7224"
   style="fill:#4086f4;fill-opacity:1;fill-rule:nonzero;stroke:none;stroke-width:0.13333333" /><g
   transform="translate(6,8)"
   id="text897"
   style="font-style:normal;font-weight:normal;font-size:40px;line-height:125%;font-family:Sans;letter-spacing:0px;word-spacing:0px;fill:#212325;fill-opacity:1;stroke:none;stroke-width:1px;stroke-linecap:butt;stroke-linejoin:miter;stroke-opacity:1"
   aria-label="googlesearch"><path
     id="path825"
     style="font-style:normal;font-variant:normal;font-weight:300;font-stretch:normal;font-size:120px;font-family:Yantramanav;-inkscape-font-specification:'Yantramanav, Light';font-variant-ligatures:normal;font-variant-caps:normal;font-variant-numeric:normal;font-feature-settings:normal;text-align:start;writing-mode:lr-tb;text-anchor:start;fill:#212325;fill-opacity:1"
     d="m 170.42003,57.890175 q 11.77734,0 17.8125,10.195312 l 0.76172,-9.140625 h 5.33203 v 56.308598 q 0,11.13281 -6.09375,17.46093 -6.09375,6.32813 -16.9336,6.32813 -4.21875,0 -8.84765,-0.9961 -4.62891,-0.99609 -8.02735,-2.7539 l 1.58204,-5.33203 q 6.91406,3.45703 15.17578,3.45703 8.26172,0 12.53906,-4.7461 4.27734,-4.6875 4.27734,-13.41796 v -7.14844 q -6.15234,9.02344 -17.69531,9.02344 -10.25391,0 -16.11328,-7.5586 -5.85938,-7.61719 -5.85938,-20.50781 l 0.0586,-1.113281 q 0,-13.828125 5.85937,-21.914063 5.85938,-8.144531 16.17188,-8.144531 z m -15.76172,30.117187 v 1.054688 q 0,10.546875 4.27734,16.58203 4.27735,6.03516 12.48047,6.03516 11.77735,0 16.52344,-10.48828 V 74.706581 q -4.6875,-11.308594 -16.40625,-11.308594 -8.14453,0 -12.53906,6.679688 -4.33594,6.679687 -4.33594,17.929687 z" /><path
     id="path827"
     style="font-style:normal;font-variant:normal;font-weight:300;font-stretch:normal;font-size:120px;font-family:Yantramanav;-inkscape-font-specification:'Yantramanav, Light';font-variant-ligatures:normal;font-variant-caps:normal;font-variant-numeric:normal;font-feature-settings:normal;text-align:start;writing-mode:lr-tb;text-anchor:start;fill:#212325;fill-opacity:1"
     d="m 213.7794,84.257362 v 1.699219 q 0,10.3125 5.09766,16.874999 5.09766,6.5625 13.82812,6.5625 8.73047,0 13.82813,-6.5625 5.09766,-6.621093 5.09766,-16.874999 v -1.699219 q 0,-10.078125 -5.15625,-16.699218 -5.15625,-6.679688 -13.82813,-6.679688 -8.67187,0 -13.76953,6.621094 -5.09766,6.621094 -5.09766,16.757812 z m -6.32812,1.699219 v -1.699219 q 0,-12.773437 6.91406,-20.742187 6.91406,-8.027344 18.28125,-8.027344 11.36719,0 18.28125,8.027344 6.97266,7.96875 6.97266,20.742187 v 1.699219 q 0,12.773438 -6.91407,20.800779 -6.85546,7.96875 -18.28125,7.96875 -11.42578,0 -18.33984,-7.96875 -6.91406,-7.968748 -6.91406,-20.800779 z" /><path
     id="path829"
     style="font-style:normal;font-variant:normal;font-weight:300;font-stretch:normal;font-size:120px;font-family:Yantramanav;-inkscape-font-specification:'Yantramanav, Light';font-variant-ligatures:normal;font-variant-caps:normal;font-variant-numeric:normal;font-feature-settings:normal;text-align:start;writing-mode:lr-tb;text-anchor:start;fill:#212325;fill-opacity:1"
     d="m 273.89659,84.257362 v 1.699219 q 0,10.3125 5.09766,16.874999 5.09765,6.5625 13.82812,6.5625 8.73047,0 13.82813,-6.5625 5.09765,-6.621093 5.09765,-16.874999 v -1.699219 q 0,-10.078125 -5.15625,-16.699218 -5.15625,-6.679688 -13.82812,-6.679688 -8.67188,0 -13.76953,6.621094 -5.09766,6.621094 -5.09766,16.757812 z m -6.32812,1.699219 v -1.699219 q 0,-12.773437 6.91406,-20.742187 6.91406,-8.027344 18.28125,-8.027344 11.36719,0 18.28125,8.027344 6.97265,7.96875 6.97265,20.742187 v 1.699219 q 0,12.773438 -6.91406,20.800779 -6.85547,7.96875 -18.28125,7.96875 -11.42578,0 -18.33984,-7.96875 -6.91406,-7.968748 -6.91406,-20.800779 z" /><path
     id="path831"
     style="font-style:normal;font-variant:normal;font-weight:300;font-stretch:normal;font-size:120px;font-family:Yantramanav;-inkscape-font-specification:'Yantramanav, Light';font-variant-ligatures:normal;font-variant-caps:normal;font-variant-numeric:normal;font-feature-settings:normal;text-align:start;writing-mode:lr-tb;text-anchor:start;fill:#212325;fill-opacity:1"
     d="m 350.83018,57.890175 q 11.77735,0 17.8125,10.195312 l 0.76172,-9.140625 h 5.33203 v 56.308598 q 0,11.13281 -6.09375,17.46093 -6.09375,6.32813 -16.93359,6.32813 -4.21875,0 -8.84766,-0.9961 -4.6289,-0.99609 -8.02734,-2.7539 l 1.58203,-5.33203 q 6.91406,3.45703 15.17578,3.45703 8.26172,0 12.53907,-4.7461 4.27734,-4.6875 4.27734,-13.41796 v -7.14844 q -6.15234,9.02344 -17.69531,9.02344 -10.25391,0 -16.11328,-7.5586 -5.85938,-7.61719 -5.85938,-20.50781 l 0.0586,-1.113281 q 0,-13.828125 5.85938,-21.914063 5.85937,-8.144531 16.17187,-8.144531 z m -15.76171,30.117187 v 1.054688 q 0,10.546875 4.27734,16.58203 4.27734,6.03516 12.48047,6.03516 11.77734,0 16.52344,-10.48828 V 74.706581 q -4.6875,-11.308594 -16.40625,-11.308594 -8.14454,0 -12.53907,6.679688 -4.33593,6.679687 -4.33593,17.929687 z" /><path
     id="path833"
     style="font-style:normal;font-variant:normal;font-weight:300;font-stretch:normal;font-size:120px;font-family:Yantramanav;-inkscape-font-specification:'Yantramanav, Light';font-variant-ligatures:normal;font-variant-caps:normal;font-variant-numeric:normal;font-feature-settings:normal;text-align:start;writing-mode:lr-tb;text-anchor:start;fill:#212325;fill-opacity:1"
     d="m 398.4669,31.230019 v 82.265621 h -6.26953 V 31.230019 Z" /><path
     id="path835"
     style="font-style:normal;font-variant:normal;font-weight:300;font-stretch:normal;font-size:120px;font-family:Yantramanav;-inkscape-font-specification:'Yantramanav, Light';font-variant-ligatures:normal;font-variant-caps:normal;font-variant-numeric:normal;font-feature-settings:normal;text-align:start;writing-mode:lr-tb;text-anchor:start;fill:#212325;fill-opacity:1"
     d="m 452.78331,78.339394 q 0,-7.617188 -4.39453,-12.539063 -4.39453,-4.921875 -11.60156,-4.921875 -7.20704,0 -12.01172,5.273438 -4.7461,5.273437 -5.50782,13.476562 l 0.11719,0.292969 h 33.39844 z m -15.41016,36.386716 q -10.78125,0 -17.87109,-7.91015 -7.03125,-7.91016 -7.03125,-20.039066 v -2.929688 q 0,-12.1875 6.97266,-20.273437 6.97265,-8.085938 17.28515,-8.085938 10.3125,0 16.28906,6.621094 6.03516,6.5625 6.03516,17.753906 v 5.390625 h -40.25391 v 1.523438 q 0,9.84375 5.09766,16.230466 5.15625,6.38672 13.47656,6.38672 11.13282,0 17.16797,-6.32812 l 2.69531,4.33593 q -7.14843,7.32422 -19.86328,7.32422 z" /><path
     id="path837"
     style="font-style:normal;font-variant:normal;font-weight:bold;font-stretch:normal;font-size:120px;font-family:Yantramanav;-inkscape-font-specification:'Yantramanav, Bold';font-variant-ligatures:normal;font-variant-caps:normal;font-variant-numeric:normal;font-feature-settings:normal;text-align:start;writing-mode:lr-tb;text-anchor:start;fill:#212325;fill-opacity:1"
     d="m 495.2794,104.17924 v 0.17578 q 4.21875,0 6.44532,-1.64063 2.28515,-1.69922 2.28515,-4.511715 0,-2.8125 -2.57812,-4.570313 -2.51953,-1.816406 -8.96485,-3.28125 -10.42968,-2.109375 -15.41015,-6.152343 -4.98047,-4.042969 -4.98047,-11.25 0,-7.265625 6.21094,-12.304688 6.26953,-5.039062 16.8164,-5.039062 10.60547,0 17.05078,5.097656 6.50391,5.039062 6.21094,12.949219 l -0.11719,0.292968 h -14.88281 q 0,-3.515625 -2.22656,-5.625 -2.22656,-2.109375 -6.15235,-2.109375 -3.86718,0 -6.03515,1.816407 -2.16797,1.757812 -2.16797,4.570312 0,2.8125 2.34375,4.453125 2.34375,1.582031 8.96484,2.8125 10.78125,2.167969 15.76172,6.269531 5.03906,4.101563 5.03906,11.542969 0,7.382809 -6.62109,12.246089 -6.5625,4.80469 -17.51953,4.80469 -10.95703,0 -17.75391,-5.5664 -6.73828,-5.625 -6.38672,-13.359379 l 0.0586,-0.351562 h 14.12109 q 0.23438,8.730471 10.48828,8.730471 z" /><path
     id="path839"
     style="font-style:normal;font-variant:normal;font-weight:bold;font-stretch:normal;font-size:120px;font-family:Yantramanav;-inkscape-font-specification:'Yantramanav, Bold';font-variant-ligatures:normal;font-variant-caps:normal;font-variant-numeric:normal;font-feature-settings:normal;text-align:start;writing-mode:lr-tb;text-anchor:start;fill:#212325;fill-opacity:1"
     d="m 561.95909,78.163612 q 0,-5.039062 -2.34375,-7.851562 -2.28516,-2.871094 -6.67969,-2.871094 -4.39453,0 -6.91406,3.164063 -2.51953,3.164062 -3.10547,8.671875 l 0.17578,0.292968 h 18.86719 z m -7.79297,36.621098 q -12.30469,0 -19.74609,-7.79297 -7.38281,-7.792971 -7.38281,-20.214846 v -2.109375 q 0,-8.496094 3.10546,-15.117188 3.16407,-6.621094 9.02344,-10.3125 5.91797,-3.75 13.65235,-3.75 11.48437,0 17.87109,6.914063 6.38672,6.855468 6.38672,18.867187 v 8.378906 h -34.04297 l -0.11719,0.351563 q 0.41016,5.800781 3.8086,9.375 3.39843,3.51562 8.67187,3.51562 5.27344,0 8.61328,-0.9375 3.33985,-0.99609 7.61719,-3.339839 l 4.16016,9.492189 v 0.0586 q -3.69141,3.04688 -9.31641,4.86328 -5.56641,1.75782 -12.30469,1.75782 z" /><path
     id="path841"
     style="font-style:normal;font-variant:normal;font-weight:bold;font-stretch:normal;font-size:120px;font-family:Yantramanav;-inkscape-font-specification:'Yantramanav, Bold';font-variant-ligatures:normal;font-variant-caps:normal;font-variant-numeric:normal;font-feature-settings:normal;text-align:start;writing-mode:lr-tb;text-anchor:start;fill:#212325;fill-opacity:1"
     d="m 601.74425,114.72611 q -8.90625,0 -13.76953,-4.57031 -4.86329,-4.57031 -4.86329,-12.832031 0,-8.320313 6.44532,-12.832032 6.44531,-4.570312 18.86718,-4.570312 h 8.55469 v -4.511719 q 0,-4.21875 -2.16797,-6.445312 -2.16797,-2.226563 -6.15234,-2.226563 -3.92578,0 -5.97656,1.816406 -2.05078,1.816407 -2.05078,5.039063 l -14.88282,-0.05859 v -0.292969 q -0.41015,-7.441406 6.26953,-12.597656 6.73829,-5.15625 17.28516,-5.15625 10.60547,0 16.875,5.273438 6.26953,5.273437 6.26953,14.707031 v 23.613281 q 0,7.675775 2.51953,14.531245 h -15.41015 q -1.875,-4.33594 -2.28516,-8.55469 -5.625,9.66797 -15.52734,9.66797 z M 598.34581,97.0308 h 0.0586 q 0,2.871094 1.875,4.62891 1.9336,1.69921 5.50782,1.69921 3.63281,0 6.79687,-1.93359 3.16406,-1.992186 4.33594,-4.746093 V 88.5933 h -8.55469 q -4.80469,0 -7.44141,2.402344 -2.57812,2.34375 -2.57812,6.035156 z" /><path
     id="path843"
     style="font-style:normal;font-variant:normal;font-weight:bold;font-stretch:normal;font-size:120px;font-family:Yantramanav;-inkscape-font-specification:'Yantramanav, Bold';font-variant-ligatures:normal;font-variant-caps:normal;font-variant-numeric:normal;font-feature-settings:normal;text-align:start;writing-mode:lr-tb;text-anchor:start;fill:#212325;fill-opacity:1"
     d="M 659.4005,113.49564 H 644.04893 V 56.425331 h 14.29688 l 0.64453,8.4375 q 4.39453,-9.492187 12.59766,-9.492187 1.99218,0 4.10156,0.644531 l -1.64063,13.652344 -5.625,-0.175782 q -6.5039,0 -9.02343,5.449219 z" /><path
     id="path845"
     style="font-style:normal;font-variant:normal;font-weight:bold;font-stretch:normal;font-size:120px;font-family:Yantramanav;-inkscape-font-specification:'Yantramanav, Bold';font-variant-ligatures:normal;font-variant-caps:normal;font-variant-numeric:normal;font-feature-settings:normal;text-align:start;writing-mode:lr-tb;text-anchor:start;fill:#212325;fill-opacity:1"
     d="m 693.61925,84.37455 v 1.640625 q 0,16.933595 11.13281,16.933595 4.16016,0 6.62109,-2.40235 2.46094,-2.402339 2.46094,-6.386714 H 727.838 l 0.11718,0.292969 q 0.23438,8.671875 -6.44531,14.531245 -6.67969,5.80079 -16.75781,5.80079 -12.53906,0 -19.57031,-7.85157 -6.97266,-7.910153 -6.97266,-20.917965 v -1.582031 q 0,-13.007813 6.97266,-20.917969 7.03125,-7.96875 19.57031,-7.96875 10.60547,0 16.99219,6.035156 6.44531,5.976563 6.21093,15.820313 l -0.0586,0.292968 h -14.0625 q 0,-4.511718 -2.46094,-7.382812 -2.46093,-2.929688 -6.62109,-2.929688 -11.13281,0 -11.13281,16.992188 z" /><path
     id="path847"
     style="font-style:normal;font-variant:normal;font-weight:bold;font-stretch:normal;font-size:120px;font-family:Yantramanav;-inkscape-font-specification:'Yantramanav, Bold';font-variant-ligatures:normal;font-variant-caps:normal;font-variant-numeric:normal;font-feature-settings:normal;text-align:start;writing-mode:lr-tb;text-anchor:start;fill:#212325;fill-opacity:1"
     d="m 751.62706,63.632362 q 5.80078,-8.261718 15.11719,-8.261718 9.375,0 14.29687,6.035156 4.98047,6.035156 4.98047,18.222656 V 113.49564 H 770.61143 V 79.511269 q 0,-6.503907 -2.28515,-9.316407 -2.28516,-2.871093 -7.03125,-2.871093 -6.21094,0 -9.55078,4.335937 V 113.49564 H 736.39268 V 31.230019 h 15.35157 z" /></g>
</svg>