<?xml version="1.0" encoding="UTF-8" standalone="no"?>
<!-- Generator: Adobe Illustrator 15.0.0, SVG Export Plug-In . SVG Version: 6.00 Build 0)  -->

<svg
   version="1.1"
   id="レイヤー_1"
   x="0px"
   y="0px"
   width="401.98px"
   height="559.472px"
   viewBox="0 0 401.98 559.472"
   enable-background="new 0 0 401.98 559.472"
   xml:space="preserve"
   sodipodi:docname="fepher.svg"
   inkscape:version="1.1.1 (1:1.1+202109281949+c3084ef5ed)"
   inkscape:export-filename="/media/federico/Elements/Imágenes/fepher.png"
   inkscape:export-xdpi="143.96431"
   inkscape:export-ydpi="143.96431"
   xmlns:inkscape="http://www.inkscape.org/namespaces/inkscape"
   xmlns:sodipodi="http://sodipodi.sourceforge.net/DTD/sodipodi-0.dtd"
   xmlns="http://www.w3.org/2000/svg"
   xmlns:svg="http://www.w3.org/2000/svg"><defs
   id="defs970">
	
</defs><sodipodi:namedview
   id="namedview968"
   pagecolor="#ffffff"
   bordercolor="#666666"
   borderopacity="1.0"
   inkscape:pageshadow="2"
   inkscape:pageopacity="0.0"
   inkscape:pagecheckerboard="0"
   showgrid="false"
   inkscape:zoom="0.72032204"
   inkscape:cx="-219.34634"
   inkscape:cy="109.67317"
   inkscape:window-width="1106"
   inkscape:window-height="1051"
   inkscape:window-x="0"
   inkscape:window-y="0"
   inkscape:window-maximized="0"
   inkscape:current-layer="レイヤー_1" />
<path
   fill-rule="evenodd"
   clip-rule="evenodd"
   fill="#F6D2A2"
   stroke="#000000"
   stroke-width="3"
   stroke-linecap="round"
   d="  M10.634,300.493c0.764,15.751,16.499,8.463,23.626,3.539c6.765-4.675,8.743-0.789,9.337-10.015  c0.389-6.064,1.088-12.128,0.744-18.216c-10.23-0.927-21.357,1.509-29.744,7.602C10.277,286.542,2.177,296.561,10.634,300.493"
   id="path913" />
<path
   fill-rule="evenodd"
   clip-rule="evenodd"
   fill="#C6B198"
   stroke="#000000"
   stroke-width="3"
   stroke-linecap="round"
   d="  M10.634,300.493c2.29-0.852,4.717-1.457,6.271-3.528"
   id="path915" />
<path
   fill-rule="evenodd"
   clip-rule="evenodd"
   fill="#6AD7E5"
   stroke="#000000"
   stroke-width="3"
   stroke-linecap="round"
   d="  M46.997,112.853C-13.3,95.897,31.536,19.189,79.956,50.74L46.997,112.853z"
   id="path917"
   style="fill:#f74c00" />
<path
   fill-rule="evenodd"
   clip-rule="evenodd"
   fill="#6AD7E5"
   stroke="#000000"
   stroke-width="3"
   stroke-linecap="round"
   d="  M314.895,44.984c47.727-33.523,90.856,42.111,35.388,61.141L314.895,44.984z"
   id="path919"
   style="fill:#f74c00" />
<path
   fill-rule="evenodd"
   clip-rule="evenodd"
   fill="#F6D2A2"
   stroke="#000000"
   stroke-width="3"
   stroke-linecap="round"
   d="  M325.161,494.343c12.123,7.501,34.282,30.182,16.096,41.18c-17.474,15.999-27.254-17.561-42.591-22.211  C305.271,504.342,313.643,496.163,325.161,494.343z"
   id="path921" />
<path
   fill-rule="evenodd"
   clip-rule="evenodd"
   fill="none"
   stroke="#000000"
   stroke-width="3"
   stroke-linecap="round"
   d="  M341.257,535.522c-2.696-5.361-3.601-11.618-8.102-15.939"
   id="path923" />
<path
   fill-rule="evenodd"
   clip-rule="evenodd"
   fill="#F6D2A2"
   stroke="#000000"
   stroke-width="3"
   stroke-linecap="round"
   d="  M108.579,519.975c-14.229,2.202-22.238,15.039-34.1,21.558c-11.178,6.665-15.454-2.134-16.461-3.92  c-1.752-0.799-1.605,0.744-4.309-1.979c-10.362-16.354,10.797-28.308,21.815-36.432C90.87,496.1,100.487,509.404,108.579,519.975z"
   id="path925" />
<path
   fill-rule="evenodd"
   clip-rule="evenodd"
   fill="none"
   stroke="#000000"
   stroke-width="3"
   stroke-linecap="round"
   d="  M58.019,537.612c0.542-6.233,5.484-10.407,7.838-15.677"
   id="path927" />
<path
   fill-rule="evenodd"
   clip-rule="evenodd"
   d="M49.513,91.667c-7.955-4.208-13.791-9.923-8.925-19.124  c4.505-8.518,12.874-7.593,20.83-3.385L49.513,91.667z"
   id="path929" />
<path
   fill-rule="evenodd"
   clip-rule="evenodd"
   d="M337.716,83.667c7.955-4.208,13.791-9.923,8.925-19.124  c-4.505-8.518-12.874-7.593-20.83-3.385L337.716,83.667z"
   id="path931" />
<path
   fill-rule="evenodd"
   clip-rule="evenodd"
   fill="#F6D2A2"
   stroke="#000000"
   stroke-width="3"
   stroke-linecap="round"
   d="  M392.475,298.493c-0.764,15.751-16.499,8.463-23.626,3.539c-6.765-4.675-8.743-0.789-9.337-10.015  c-0.389-6.064-1.088-12.128-0.744-18.216c10.23-0.927,21.357,1.509,29.744,7.602C392.831,284.542,400.932,294.561,392.475,298.493"
   id="path933" />
<path
   fill-rule="evenodd"
   clip-rule="evenodd"
   fill="#C6B198"
   stroke="#000000"
   stroke-width="3"
   stroke-linecap="round"
   d="  M392.475,298.493c-2.29-0.852-4.717-1.457-6.271-3.528"
   id="path935" />
<path
   fill-rule="evenodd"
   clip-rule="evenodd"
   fill="#6ad7e5"
   stroke="#000000"
   stroke-width="3"
   stroke-linecap="round"
   d="m 195.512,13.124 c 60.365,0 116.953,8.633 146.452,66.629 26.478,65.006 17.062,135.104 21.1,203.806 3.468,58.992 11.157,127.145 -16.21,181.812 -28.79,57.514 -100.73,71.982 -160,69.863 C 140.299,533.568 84.06,518.38 57.785,475.845 26.959,425.945 41.553,351.747 43.792,296.223 46.444,230.452 25.977,164.481 47.584,100.122 69.999,33.359 130.451,18.271 195.512,13.124"
   id="path937"
   style="fill:#f74c00" />







<g
   transform="matrix(0.89154097,0,0,0.89154097,244.09234,151.10354)"
   id="g1229"
   style="clip-rule:evenodd;fill-rule:evenodd;stroke-linejoin:round;stroke-miterlimit:1.41421"><path
     d="m 0,-78.192 c 0,0 36.935,-40.443 73.871,0 0,0 29.022,53.927 0,80.887 0,0 -47.487,37.748 -73.871,0 0,0 -31.658,-29.659 0,-80.887"
     style="fill-rule:nonzero"
     id="path1227" /></g><g
   transform="matrix(0.89154097,0,0,0.89154097,282.2182,94.76528)"
   id="g1233"
   style="clip-rule:evenodd;fill-rule:evenodd;stroke-linejoin:round;stroke-miterlimit:1.41421"><path
     d="m 0,0.004 c 0,15.746 -9.282,28.514 -20.732,28.514 -11.448,0 -20.73,-12.768 -20.73,-28.514 0,-15.75 9.282,-28.518 20.73,-28.518 C -9.282,-28.514 0,-15.746 0,0.004"
     style="fill:#ffffff;fill-rule:nonzero"
     id="path1231" /></g><g
   transform="matrix(0.89154097,0,0,0.89154097,97.1227,146.08862)"
   id="g1237"
   style="clip-rule:evenodd;fill-rule:evenodd;stroke-linejoin:round;stroke-miterlimit:1.41421"><path
     d="m 0,-83.609 c 0,0 63.355,-28.052 80.648,34.562 0,0 18.114,72.98 -52.03,77.099 0,0 -89.444,-17.228 -28.618,-111.661"
     style="fill-rule:nonzero"
     id="path1235" /></g><g
   transform="matrix(0.89154097,0,0,0.89154097,125.49154,95.68802)"
   id="g1241"
   style="clip-rule:evenodd;fill-rule:evenodd;stroke-linejoin:round;stroke-miterlimit:1.41421"><path
     d="m 0,0.002 c 0,16.239 -9.572,29.409 -21.381,29.409 -11.804,0 -21.379,-13.17 -21.379,-29.409 0,-16.244 9.575,-29.411 21.379,-29.411 C -9.572,-29.409 0,-16.242 0,0.002"
     style="fill:#ffffff;fill-rule:nonzero"
     id="path1239" /></g><g
   transform="matrix(0.89154097,0,0,0.89154097,169.48819,229.74904)"
   id="g1245"
   style="clip-rule:evenodd;fill-rule:evenodd;stroke-linejoin:round;stroke-miterlimit:1.41421"><path
     d="m 0,-40.271 80.796,-6.484 c 0,0 -2.738,13.006 -13.279,22.769 0,0 -27.79,30.47 -59.673,-2.533 0,0 -5.217,-5.629 -7.844,-13.752"
     style="fill-rule:nonzero"
     id="path1243" /></g></svg>
