<?xml version="1.0" encoding="UTF-8" standalone="no"?>
<svg
   id="Layer_1"
   data-name="Layer 1"
   width="1117.9365"
   height="214.79901"
   viewBox="0 0 1117.9365 214.79901"
   version="1.1"
   sodipodi:docname="haskell.svg"
   inkscape:version="1.1.1 (3bf5ae0d25, 2021-09-20)"
   xmlns:inkscape="http://www.inkscape.org/namespaces/inkscape"
   xmlns:sodipodi="http://sodipodi.sourceforge.net/DTD/sodipodi-0.dtd"
   xmlns="http://www.w3.org/2000/svg"
   xmlns:svg="http://www.w3.org/2000/svg"
   xmlns:rdf="http://www.w3.org/1999/02/22-rdf-syntax-ns#"
   xmlns:cc="http://creativecommons.org/ns#"
   xmlns:dc="http://purl.org/dc/elements/1.1/">
  <sodipodi:namedview
     id="namedview104385"
     pagecolor="#ffffff"
     bordercolor="#666666"
     borderopacity="1.0"
     inkscape:pageshadow="2"
     inkscape:pageopacity="1"
     inkscape:pagecheckerboard="false"
     showgrid="false"
     inkscape:zoom="1.2281073"
     inkscape:cx="650.59461"
     inkscape:cy="-8.5497414"
     inkscape:window-width="2556"
     inkscape:window-height="1404"
     inkscape:window-x="0"
     inkscape:window-y="16"
     inkscape:window-maximized="1"
     inkscape:current-layer="_231f20ff"
     fit-margin-top="0"
     fit-margin-left="0"
     fit-margin-right="0"
     fit-margin-bottom="0" />
  <defs
     id="defs104364">
    <style
       id="style104362">.cls-1{fill:#231f20;}.cls-2{fill:#4e5d84;}</style>
  </defs>
  <title
     id="title104366">perl-logo-freelogovectors.net</title>
  <g
     id="_231f20ff"
     data-name="#231f20ff"
     transform="translate(0.27370454,-10.720667)">
    <text
       xml:space="preserve"
       style="font-style:normal;font-variant:normal;font-weight:normal;font-stretch:normal;font-size:304.252px;line-height:1.25;font-family:FreeSerif;-inkscape-font-specification:'FreeSerif, Normal';font-variant-ligatures:normal;font-variant-caps:normal;font-variant-numeric:normal;font-variant-east-asian:normal;fill:#000000;fill-opacity:1;stroke:none;stroke-width:2.85236"
       x="234.11781"
       y="219.34444"
       id="text106393"><tspan
         sodipodi:role="line"
         id="tspan106391"
         x="234.11781"
         y="219.34444"
         style="font-style:normal;font-variant:normal;font-weight:normal;font-stretch:normal;font-size:304.252px;font-family:FreeSerif;-inkscape-font-specification:'FreeSerif, Normal';font-variant-ligatures:normal;font-variant-caps:normal;font-variant-numeric:normal;font-variant-east-asian:normal;stroke-width:2.85236">Haskell</tspan></text>
    <path
       class="cls-1"
       d="m 223.52,361.58 c 2,8.74 1.59,17.78 1.39,26.68 A 101.4,101.4 0 0 1 218,418.45 c 2.22,-7.87 4.84,-15.67 5.82,-23.82 1.97,-10.94 1.12,-22.11 -0.3,-33.05 z"
       transform="translate(-10.25,-262)"
       id="path104376" />
  </g>
  <g
     id="_4e5d84ff"
     data-name="#4e5d84ff"
     transform="translate(0.27370454,-10.720667)">
    <path
       class="cls-2"
       d="M 105.24,273.45 A 107.44,107.44 0 0 1 167,284.68 c 29.37,15 51.27,44.22 56.48,76.9 1.42,10.94 2.27,22.11 0.28,33.05 -1,8.15 -3.6,15.95 -5.82,23.82 -7.35,19.88 -21.25,37.11 -38.51,49.31 A 107.38,107.38 0 1 1 105.2,273.45 m 7.82,6 c -0.07,12.81 1,25.63 0.07,38.43 a 54.38,54.38 0 0 1 -6.54,22 c -6.46,12 -16.93,21.18 -23.94,32.81 -7.52,11.69 -8.65,26.55 -5.26,39.79 3.39,13.59 12.68,24.94 23.62,33.33 2.58,1.83 5,4.55 8.53,4.13 a 7.39,7.39 0 0 0 -1.55,-4.78 C 102.52,437.33 97,429.41 93.5,420.48 a 59.48,59.48 0 0 1 0,-44.32 c 4.23,-10.68 11.66,-19.63 16.64,-29.93 6.39,-12.68 7,-27.27 6.34,-41.19 -0.67,-8.48 -0.65,-17 -1.54,-25.47 l -1.88,-0.16 m -6.19,10.3 c 0.3,9.47 2.57,19.56 -1.69,28.51 -4.64,10.17 -14.62,16.25 -23.31,22.63 -12.47,8.91 -25.46,18.3 -33.08,32 -8.87,16 -7.5,36.56 1.72,52.1 8,13.75 21.87,23.07 36.49,28.67 3.51,1.22 7,2.84 10.81,2.88 0.2,-0.36 0.62,-1.07 0.83,-1.43 -2.52,-2.69 -6.15,-3.88 -9.17,-5.88 -12.94,-7.81 -24.85,-18.76 -30,-33.31 -4.2,-11.48 -4.31,-24.76 1,-35.92 6.26,-13.63 17.06,-24.37 27.37,-35 7.54,-7.79 16.38,-15 20.39,-25.44 3.53,-9.46 1.51,-19.63 1,-29.4 l -2.29,-0.38 m 12.28,3.92 c 0.57,7.17 2.44,14.22 2.17,21.46 -0.39,12.69 -1.46,25.45 -4.39,37.88 -2.37,10.7 -6.14,21.07 -8,31.89 -3.3,20 0.35,40.78 8.07,59.41 1.41,4.24 6.36,3.87 9.84,5.08 4.58,1.32 8.19,4.49 12,7.14 2.09,0.12 4.07,-0.75 6,-1.36 11.57,-4.08 22.56,-10.3 31.13,-19.18 a 55.23,55.23 0 0 0 16.06,-40.42 c 0.1,-11.71 -5.2,-23 -13.12,-31.4 -9.85,-10.62 -22.51,-18 -34.53,-25.84 -6.59,-4.51 -13.49,-9.15 -17.79,-16.06 -4.08,-7 -2.57,-15.54 -0.14,-22.81 -1.28,0.81 -2.54,1.65 -3.82,2.45 -1.56,-2.59 -2,-5.66 -3.56,-8.25 m -3.07,163.45 a 130.09,130.09 0 0 0 -0.11,15 l 3.29,0.68 a 117.66,117.66 0 0 0 0.39,-15.82 c -1.2,-0.38 -2.55,-1.06 -3.57,0.1 m -8.07,2.25 c -0.81,3.37 -2.55,6.5 -5.78,8.08 0,0.57 -0.1,1.69 -0.14,2.25 5.33,0.9 8.64,-4.45 9.32,-9 l -1.47,-2 -1.93,0.66 m 16.61,-0.36 c -1.65,5.32 3.08,11.16 8.59,11 0.74,-2.93 -2.52,-3.93 -4,-5.76 a 33.7,33.7 0 0 1 -2,-5.27 z"
       transform="translate(-10.25,-262)"
       id="path104379" />
    <path
       class="cls-2"
       d="m 125.14,329.42 c 2.17,0.36 3,2.48 4,4.09 3.1,5.08 8.35,8.2 13.05,11.61 11.46,8.09 23.23,16.59 30.81,28.66 a 46.26,46.26 0 0 1 5.5,38 67.39,67.39 0 0 1 -21.63,31.59 c -2.94,2.09 -5.87,5.06 -9.77,4.75 0.63,-3.4 3.55,-5.49 5.57,-8.07 12,-13.35 17.28,-32.21 14.75,-49.88 -3.54,-17.8 -16.32,-31.87 -29.57,-43.44 -5.45,-4.57 -12.17,-9.54 -12.71,-17.31 z"
       transform="translate(-10.25,-262)"
       id="path104381" />
  </g>
  <metadata
     id="metadata104387">
    <rdf:RDF>
      <cc:Work
         rdf:about="">
        <dc:title>perl-logo-freelogovectors.net</dc:title>
      </cc:Work>
    </rdf:RDF>
  </metadata>
</svg>
