<?xml version="1.0" encoding="UTF-8" standalone="no"?>
<svg
   xmlns:dc="http://purl.org/dc/elements/1.1/"
   xmlns:cc="http://creativecommons.org/ns#"
   xmlns:rdf="http://www.w3.org/1999/02/22-rdf-syntax-ns#"
   xmlns:svg="http://www.w3.org/2000/svg"
   xmlns="http://www.w3.org/2000/svg"
   xmlns:xlink="http://www.w3.org/1999/xlink"
   xmlns:sodipodi="http://sodipodi.sourceforge.net/DTD/sodipodi-0.dtd"
   xmlns:inkscape="http://www.inkscape.org/namespaces/inkscape"
   viewBox="0 0 113.7317 157.15488"
   version="1.1"
   id="svg65"
   sodipodi:docname="internet explorer.svg"
   width="113.7317"
   height="157.15488"
   inkscape:version="0.92.5 (2060ec1f9f, 2020-04-08)">
  <metadata
     id="metadata71">
    <rdf:RDF>
      <cc:Work
         rdf:about="">
        <dc:format>image/svg+xml</dc:format>
        <dc:type
           rdf:resource="http://purl.org/dc/dcmitype/StillImage" />
        <dc:title></dc:title>
      </cc:Work>
    </rdf:RDF>
  </metadata>
  <defs
     id="defs69">
    <linearGradient
       inkscape:collect="always"
       id="linearGradient949">
      <stop
         style="stop-color:#0e8cdb;stop-opacity:1;"
         offset="0"
         id="stop945" />
      <stop
         style="stop-color:#0e8cdb;stop-opacity:0;"
         offset="1"
         id="stop947" />
    </linearGradient>
    <linearGradient
       inkscape:collect="always"
       id="linearGradient943">
      <stop
         style="stop-color:#0f5196;stop-opacity:1;"
         offset="0"
         id="stop939" />
      <stop
         style="stop-color:#0f5196;stop-opacity:0;"
         offset="1"
         id="stop941" />
    </linearGradient>
    <linearGradient
       inkscape:collect="always"
       id="linearGradient935">
      <stop
         style="stop-color:#000000;stop-opacity:0.36397058"
         offset="0"
         id="stop931" />
      <stop
         style="stop-color:#000000;stop-opacity:0;"
         offset="1"
         id="stop933" />
    </linearGradient>
    <linearGradient
       inkscape:collect="always"
       id="linearGradient927">
      <stop
         style="stop-color:#34c1ef;stop-opacity:1"
         offset="0"
         id="stop923" />
      <stop
         style="stop-color:#4cd76e;stop-opacity:1"
         offset="1"
         id="stop925" />
    </linearGradient>
    <linearGradient
       inkscape:collect="always"
       xlink:href="#linearGradient927"
       id="linearGradient929"
       x1="36.610168"
       y1="21.152542"
       x2="86.508476"
       y2="19.525423"
       gradientUnits="userSpaceOnUse"
       gradientTransform="translate(-7.1341486,-2.036906)" />
    <linearGradient
       inkscape:collect="always"
       xlink:href="#linearGradient935"
       id="linearGradient937"
       x1="81.084747"
       y1="29.559322"
       x2="82.169495"
       y2="34.169491"
       gradientUnits="userSpaceOnUse"
       gradientTransform="translate(-7.1341486,-2.036906)" />
  </defs>
  <sodipodi:namedview
     pagecolor="#ffffff"
     bordercolor="#666666"
     borderopacity="1"
     objecttolerance="10"
     gridtolerance="10"
     guidetolerance="10"
     inkscape:pageopacity="0"
     inkscape:pageshadow="2"
     inkscape:window-width="1892"
     inkscape:window-height="1020"
     id="namedview67"
     showgrid="false"
     fit-margin-top="0"
     fit-margin-left="0"
     fit-margin-right="0"
     fit-margin-bottom="0"
     inkscape:zoom="1.84375"
     inkscape:cx="-76.365346"
     inkscape:cy="28.833637"
     inkscape:window-x="3854"
     inkscape:window-y="46"
     inkscape:window-maximized="0"
     inkscape:current-layer="text75-4" />
  <g
     aria-label="Internet
Explorer"
     style="font-style:normal;font-variant:normal;font-weight:normal;font-stretch:normal;font-size:32px;line-height:1.25;font-family:'simply rounded';-inkscape-font-specification:'simply rounded';letter-spacing:0.08px;word-spacing:0px;fill:#77787a;fill-opacity:1;stroke:none"
     id="text75-4">
    <path
       d="m 5.0080269,122.02228 h -2.944 V 99.110284 h 2.944 z"
       style="font-style:normal;font-variant:normal;font-weight:normal;font-stretch:normal;font-family:'Product Sans';-inkscape-font-specification:'Product Sans';text-align:center;letter-spacing:0.38px;word-spacing:0px;text-anchor:middle;fill:#77787a;fill-opacity:1"
       id="path974" />
    <path
       d="m 9.4839679,106.34228 h 2.8160001 v 2.176 h 0.128 q 0.672,-1.152 2.048,-1.92 1.408,-0.768 2.912,-0.768 2.88,0 4.416,1.664 1.568,1.632 1.568,4.672 v 9.856 h -2.944 v -9.664 q -0.096,-3.84 -3.872,-3.84 -1.76,0 -2.944,1.44 -1.184,1.408 -1.184,3.392 v 8.672 H 9.4839679 Z"
       style="font-style:normal;font-variant:normal;font-weight:normal;font-stretch:normal;font-family:'Product Sans';-inkscape-font-specification:'Product Sans';text-align:center;letter-spacing:0.38px;word-spacing:0px;text-anchor:middle;fill:#77787a;fill-opacity:1"
       id="path976" />
    <path
       d="m 32.615913,122.27828 q -1.92,0 -3.2,-1.184 -1.248,-1.184 -1.28,-3.296 v -8.768 h -2.752 v -2.688 h 2.752 v -4.8 h 2.944 v 4.8 h 3.84 v 2.688 h -3.84 v 7.808 q 0,1.568 0.608,2.144 0.608,0.544 1.376,0.544 0.352,0 0.672,-0.064 0.352,-0.096 0.64,-0.224 l 0.928,2.624 q -1.152,0.416 -2.688,0.416 z"
       style="font-style:normal;font-variant:normal;font-weight:normal;font-stretch:normal;font-family:'Product Sans';-inkscape-font-specification:'Product Sans';text-align:center;letter-spacing:0.38px;word-spacing:0px;text-anchor:middle;fill:#77787a;fill-opacity:1"
       id="path978" />
    <path
       d="m 44.99582,122.53428 q -3.456,0 -5.696,-2.368 -2.24,-2.368 -2.24,-5.984 0,-3.584 2.176,-5.952 2.176,-2.4 5.568,-2.4 3.488,0 5.536,2.272 2.08,2.24 2.08,6.304 l -0.032,0.32 h -12.32 q 0.064,2.304 1.536,3.712 1.472,1.408 3.52,1.408 2.816,0 4.416,-2.816 l 2.624,1.28 q -1.056,1.984 -2.944,3.104 -1.856,1.12 -4.224,1.12 z m -4.704,-10.24 h 8.992 q -0.128,-1.632 -1.344,-2.688 -1.184,-1.088 -3.2,-1.088 -1.664,0 -2.88,1.024 -1.184,1.024 -1.568,2.752 z"
       style="font-style:normal;font-variant:normal;font-weight:normal;font-stretch:normal;font-family:'Product Sans';-inkscape-font-specification:'Product Sans';text-align:center;letter-spacing:0.38px;word-spacing:0px;text-anchor:middle;fill:#77787a;fill-opacity:1"
       id="path980" />
    <path
       d="m 58.431799,122.02228 h -2.944 v -15.68 h 2.816 v 2.56 h 0.128 q 0.448,-1.248 1.824,-2.112 1.408,-0.896 2.752,-0.896 1.28,0 2.176,0.384 l -0.896,2.848 q -0.544,-0.224 -1.728,-0.224 -1.664,0 -2.912,1.344 -1.216,1.344 -1.216,3.136 z"
       style="font-style:normal;font-variant:normal;font-weight:normal;font-stretch:normal;font-family:'Product Sans';-inkscape-font-specification:'Product Sans';text-align:center;letter-spacing:0.38px;word-spacing:0px;text-anchor:middle;fill:#77787a;fill-opacity:1"
       id="path982" />
    <path
       d="m 67.483767,106.34228 h 2.816 v 2.176 h 0.128 q 0.672,-1.152 2.048,-1.92 1.408,-0.768 2.912,-0.768 2.88,0 4.416,1.664 1.568,1.632 1.568,4.672 v 9.856 h -2.944 v -9.664 q -0.096,-3.84 -3.872,-3.84 -1.76,0 -2.944,1.44 -1.184,1.408 -1.184,3.392 v 8.672 h -2.944 z"
       style="font-style:normal;font-variant:normal;font-weight:normal;font-stretch:normal;font-family:'Product Sans';-inkscape-font-specification:'Product Sans';text-align:center;letter-spacing:0.38px;word-spacing:0px;text-anchor:middle;fill:#77787a;fill-opacity:1"
       id="path984" />
    <path
       d="m 92.247758,122.53428 q -3.456,0 -5.696,-2.368 -2.24,-2.368 -2.24,-5.984 0,-3.584 2.176,-5.952 2.176,-2.4 5.568,-2.4 3.488,0 5.536,2.272 2.08,2.24 2.08,6.304 l -0.032,0.32 h -12.32 q 0.064,2.304 1.536,3.712 1.472,1.408 3.52,1.408 2.816,0 4.416,-2.816 l 2.624,1.28 q -1.056,1.984 -2.944,3.104 -1.856,1.12 -4.224,1.12 z m -4.704,-10.24 h 8.992 q -0.128,-1.632 -1.344,-2.688 -1.184,-1.088 -3.2,-1.088 -1.664,0 -2.88,1.024 -1.184,1.024 -1.568,2.752 z"
       style="font-style:normal;font-variant:normal;font-weight:normal;font-stretch:normal;font-family:'Product Sans';-inkscape-font-specification:'Product Sans';text-align:center;letter-spacing:0.38px;word-spacing:0px;text-anchor:middle;fill:#77787a;fill-opacity:1"
       id="path986" />
    <path
       d="m 108.4677,122.27828 q -1.92,0 -3.2,-1.184 -1.248,-1.184 -1.28,-3.296 v -8.768 h -2.752 v -2.688 h 2.752 v -4.8 h 2.944 v 4.8 h 3.84 v 2.688 h -3.84 v 7.808 q 0,1.568 0.608,2.144 0.608,0.544 1.376,0.544 0.352,0 0.672,-0.064 0.352,-0.096 0.64,-0.224 l 0.928,2.624 q -1.152,0.416 -2.688,0.416 z"
       style="font-style:normal;font-variant:normal;font-weight:normal;font-stretch:normal;font-family:'Product Sans';-inkscape-font-specification:'Product Sans';text-align:center;letter-spacing:0.38px;word-spacing:0px;text-anchor:middle;fill:#77787a;fill-opacity:1"
       id="path988" />
    <path
       d="m 13.376001,127.33088 v 2.816 h -10.432 v 7.264 h 9.408 v 2.752 h -9.408 v 7.264 h 10.432 v 2.816 H 9.932518e-7 v -22.912 z"
       style="font-style:normal;font-variant:normal;font-weight:normal;font-stretch:normal;font-family:'Product Sans';-inkscape-font-specification:'Product Sans';text-align:center;letter-spacing:0.38px;word-spacing:0px;text-anchor:middle;fill:#77787a;fill-opacity:1"
       id="path990" />
    <path
       d="m 24.347987,142.27488 5.6,7.968 h -3.456 l -3.872,-5.792 -3.808,5.792 h -3.456 l 5.536,-7.968 -5.408,-7.712 h 3.328 l 3.872,5.536 3.68,-5.536 h 3.456 z"
       style="font-style:normal;font-variant:normal;font-weight:normal;font-stretch:normal;font-family:'Product Sans';-inkscape-font-specification:'Product Sans';text-align:center;letter-spacing:0.38px;word-spacing:0px;text-anchor:middle;fill:#77787a;fill-opacity:1"
       id="path992" />
    <path
       d="m 40.055929,148.06688 q 2.112,0 3.552,-1.6 1.44,-1.568 1.44,-4.064 0,-2.464 -1.44,-4.064 -1.44,-1.6 -3.552,-1.6 -2.144,0 -3.584,1.6 -1.408,1.6 -1.408,4.064 0,2.496 1.408,4.096 1.44,1.568 3.584,1.568 z m 0.48,2.688 q -1.728,0 -3.168,-0.736 -1.408,-0.736 -2.176,-1.952 h -0.128 l 0.128,2.176 v 6.912 h -2.944 v -22.592 h 2.816 v 2.176 h 0.128 q 0.768,-1.216 2.176,-1.952 1.44,-0.736 3.168,-0.736 3.104,0 5.248,2.432 2.208,2.464 2.208,5.92 0,3.488 -2.208,5.92 -2.144,2.432 -5.248,2.432 z"
       style="font-style:normal;font-variant:normal;font-weight:normal;font-stretch:normal;font-family:'Product Sans';-inkscape-font-specification:'Product Sans';text-align:center;letter-spacing:0.38px;word-spacing:0px;text-anchor:middle;fill:#77787a;fill-opacity:1"
       id="path994" />
    <path
       d="m 53.683878,127.33088 v 22.912 h -2.944 v -22.912 z"
       style="font-style:normal;font-variant:normal;font-weight:normal;font-stretch:normal;font-family:'Product Sans';-inkscape-font-specification:'Product Sans';text-align:center;letter-spacing:0.38px;word-spacing:0px;text-anchor:middle;fill:#77787a;fill-opacity:1"
       id="path996" />
    <path
       d="m 56.591799,142.40288 q 0,-3.616 2.272,-5.984 2.304,-2.368 5.792,-2.368 3.488,0 5.76,2.368 2.304,2.368 2.304,5.984 0,3.648 -2.304,5.984 -2.272,2.368 -5.76,2.368 -3.488,0 -5.792,-2.368 -2.272,-2.368 -2.272,-5.984 z m 2.944,0 q 0,2.528 1.472,4.096 1.472,1.568 3.648,1.568 2.176,0 3.648,-1.568 1.472,-1.568 1.472,-4.096 0,-2.496 -1.472,-4.064 -1.504,-1.6 -3.648,-1.6 -2.144,0 -3.648,1.6 -1.472,1.568 -1.472,4.064 z"
       style="font-style:normal;font-variant:normal;font-weight:normal;font-stretch:normal;font-family:'Product Sans';-inkscape-font-specification:'Product Sans';text-align:center;letter-spacing:0.38px;word-spacing:0px;text-anchor:middle;fill:#77787a;fill-opacity:1"
       id="path998" />
    <path
       d="m 78.411775,150.24288 h -2.944 v -15.68 h 2.816 v 2.56 h 0.128 q 0.448,-1.248 1.824,-2.112 1.408,-0.896 2.752,-0.896 1.28,0 2.176,0.384 l -0.896,2.848 q -0.544,-0.224 -1.728,-0.224 -1.664,0 -2.912,1.344 -1.216,1.344 -1.216,3.136 z"
       style="font-style:normal;font-variant:normal;font-weight:normal;font-stretch:normal;font-family:'Product Sans';-inkscape-font-specification:'Product Sans';text-align:center;letter-spacing:0.38px;word-spacing:0px;text-anchor:middle;fill:#77787a;fill-opacity:1"
       id="path1000" />
    <path
       d="m 93.543718,150.75488 q -3.456,0 -5.696,-2.368 -2.24,-2.368 -2.24,-5.984 0,-3.584 2.176,-5.952 2.176,-2.4 5.568,-2.4 3.488,0 5.536,2.272 2.080002,2.24 2.080002,6.304 l -0.032,0.32 H 88.615718 q 0.064,2.304 1.536,3.712 1.472,1.408 3.52,1.408 2.816,0 4.416,-2.816 l 2.624002,1.28 q -1.056002,1.984 -2.944002,3.104 -1.856,1.12 -4.224,1.12 z m -4.704,-10.24 h 8.992 q -0.128,-1.632 -1.344,-2.688 -1.184,-1.088 -3.2,-1.088 -1.664,0 -2.88,1.024 -1.184,1.024 -1.568,2.752 z"
       style="font-style:normal;font-variant:normal;font-weight:normal;font-stretch:normal;font-family:'Product Sans';-inkscape-font-specification:'Product Sans';text-align:center;letter-spacing:0.38px;word-spacing:0px;text-anchor:middle;fill:#77787a;fill-opacity:1"
       id="path1002" />
    <path
       d="m 106.9797,150.24288 h -2.944 v -15.68 h 2.816 v 2.56 h 0.128 q 0.448,-1.248 1.824,-2.112 1.408,-0.896 2.752,-0.896 1.28,0 2.176,0.384 l -0.896,2.848 q -0.544,-0.224 -1.728,-0.224 -1.664,0 -2.912,1.344 -1.216,1.344 -1.216,3.136 z"
       style="font-style:normal;font-variant:normal;font-weight:normal;font-stretch:normal;font-family:'Product Sans';-inkscape-font-specification:'Product Sans';text-align:center;letter-spacing:0.38px;word-spacing:0px;text-anchor:middle;fill:#77787a;fill-opacity:1"
       id="path1004" />
  </g>
  <circle
     cx="56.979851"
     cy="47.458092"
     r="46.536999"
     id="circle4"
     style="fill:#ffffff" />
  <path
     d="m 86.594851,55.919094 c 0,-16.356 -13.26,-29.615 -29.614,-29.615 -16.356,0 -29.615,13.259 -29.615,29.615 h 8.461 c 0,-11.683 9.471,-21.153 21.152,-21.153 11.683,0 21.153,9.47 21.153,21.153"
     id="path6"
     inkscape:connector-curvature="0"
     style="fill-opacity:0.1" />
  <circle
     cx="59.094849"
     cy="53.380093"
     r="16.077"
     id="circle8"
     style="fill-opacity:0.1" />
  <linearGradient
     id="a"
     gradientUnits="userSpaceOnUse"
     x1="395.19"
     y1="337.85901"
     x2="395.19"
     y2="338.28201"
     gradientTransform="matrix(82,0,0,82,-32348.634,-27674.35)">
    <stop
       offset="0"
       stop-color="#81B4E0"
       id="stop10" />
    <stop
       offset="1"
       stop-color="#0C5A94"
       id="stop12" />
  </linearGradient>
  <circle
     cx="56.979851"
     cy="47.457092"
     r="17.346001"
     id="circle15"
     style="fill:url(#a)" />
  <linearGradient
     id="b"
     gradientUnits="userSpaceOnUse"
     x1="-609.40503"
     y1="-597.66498"
     x2="-609.40503"
     y2="-559.16498"
     gradientTransform="translate(675,599.775)">
    <stop
       offset="0"
       stop-color="#F06B59"
       id="stop17" />
    <stop
       offset="1"
       stop-color="#DF2227"
       id="stop19" />
  </linearGradient>
  <path
     d="m 99.286851,26.304094 c -11.648,-23.433 -40.087,-32.989 -63.521,-21.342 -7.308,3.632 -13.553,9.089 -18.131,15.843 l 19.038,33 c -3.507,-11.144 2.686,-23.021 13.83,-26.527 1.959,-0.617 3.999,-0.944 6.053,-0.973"
     id="path22"
     style="fill:url(#linearGradient929);fill-opacity:1"
     inkscape:connector-curvature="0" />
  <linearGradient
     id="c"
     gradientUnits="userSpaceOnUse"
     x1="-646.73102"
     y1="-516.59998"
     x2="-627.271"
     y2="-548.75299"
     gradientTransform="translate(675,599.775)">
    <stop
       offset="0"
       stop-color="#388B41"
       id="stop24" />
    <stop
       offset="1"
       stop-color="#4CB749"
       id="stop26" />
  </linearGradient>
  <path
     d="m 17.635851,20.804094 c -14.5719996,21.737 -8.7639996,51.171 12.974,65.743 6.725,4.508 14.493,7.217 22.563,7.871 l 19.883,-33.845 c -7.435,9.012 -20.767,10.29 -29.778,2.854 -3.061,-2.525 -5.35,-5.86 -6.604,-9.623"
     id="path29"
     style="fill:#0f5196;fill-opacity:1"
     inkscape:connector-curvature="0" />
  <linearGradient
     id="d"
     gradientUnits="userSpaceOnUse"
     x1="-581.539"
     y1="-513.18103"
     x2="-602.26898"
     y2="-563.10199"
     gradientTransform="translate(675,599.775)">
    <stop
       offset="0"
       stop-color="#E4B022"
       id="stop31" />
    <stop
       offset=".3"
       stop-color="#FCD209"
       id="stop33" />
  </linearGradient>
  <path
     d="m 53.172851,94.418094 c 26.094,1.973 48.846999,-17.582 50.818999,-43.676 0.637,-8.419 -0.987,-16.855 -4.705999,-24.438 h -42.73 c 11.683,0.054 21.11,9.567 21.056,21.251 -0.021,4.726 -1.625,9.31 -4.556,13.018"
     id="path36"
     style="fill:#0e8cdb;fill-opacity:1"
     inkscape:connector-curvature="0" />
  <linearGradient
     id="e"
     gradientUnits="userSpaceOnUse"
     x1="-639.47461"
     y1="-558.28351"
     x2="-635.13562"
     y2="-562.62244"
     gradientTransform="translate(667.86585,597.73809)"
     xlink:href="#linearGradient943">
    <stop
       offset="0"
       stop-opacity=".15"
       id="stop38"
       style="stop-color:#000000;stop-opacity:0.19117647" />
    <stop
       offset="1"
       stop-opacity=".03"
       id="stop42"
       style="stop-color:#000000;stop-opacity:0" />
  </linearGradient>
  <path
     d="m 17.635851,20.804094 19.038,33 c -1.411,-4.747 -1.111,-9.837 0.845,-14.385 l -19.038,-19.884"
     id="path45"
     style="fill:url(#e);fill-opacity:1"
     inkscape:connector-curvature="0" />
  <linearGradient
     id="f"
     gradientUnits="userSpaceOnUse"
     x1="-599.33899"
     y1="-517.33435"
     x2="-608.55933"
     y2="-522.2157"
     gradientTransform="translate(667.86585,597.73809)"
     xlink:href="#linearGradient949">
    <stop
       offset="0"
       stop-opacity=".15"
       id="stop47"
       style="stop-color:#000000;stop-opacity:0.43014705" />
    <stop
       offset="1"
       stop-opacity=".03"
       id="stop51"
       style="stop-color:#000000;stop-opacity:0" />
  </linearGradient>
  <path
     d="m 53.172851,94.418094 19.883,-33.845 c -3.137,3.742 -7.473,6.281 -12.269,7.192 l -8.461,26.653"
     id="path54"
     style="fill:url(#f);fill-opacity:1"
     inkscape:connector-curvature="0" />
  <linearGradient
     id="g"
     gradientUnits="userSpaceOnUse"
     x1="-593.90997"
     y1="-527.45898"
     x2="-590.526"
     y2="-560.87903"
     gradientTransform="translate(675,599.775)">
    <stop
       offset="0"
       stop-opacity=".15"
       id="stop56" />
    <stop
       offset=".3"
       stop-opacity=".06"
       id="stop58" />
    <stop
       offset="1"
       stop-opacity=".03"
       id="stop60" />
  </linearGradient>
  <path
     d="m 99.286851,26.304094 h -42.731 c 6.437,0.03 12.51,2.988 16.5,8.038 l 27.075999,-6.769"
     id="path63"
     style="fill:url(#linearGradient937);fill-opacity:1"
     inkscape:connector-curvature="0" />
</svg>
