<?xml version="1.0" encoding="UTF-8" standalone="no"?>
<svg
   viewBox="0 0 32.621677 24.120001"
   fill="#ffffff"
   fill-rule="evenodd"
   stroke="#000000"
   stroke-linecap="round"
   stroke-linejoin="round"
   version="1.1"
   id="svg84"
   sodipodi:docname="iPad.svg"
   width="32.621677"
   height="24.120001"
   inkscape:version="1.1.1 (1:1.1+202109281949+c3084ef5ed)"
   xmlns:inkscape="http://www.inkscape.org/namespaces/inkscape"
   xmlns:sodipodi="http://sodipodi.sourceforge.net/DTD/sodipodi-0.dtd"
   xmlns="http://www.w3.org/2000/svg"
   xmlns:svg="http://www.w3.org/2000/svg">
  <defs
     id="defs88" />
  <sodipodi:namedview
     id="namedview86"
     pagecolor="#ffffff"
     bordercolor="#666666"
     borderopacity="1.0"
     inkscape:pageshadow="2"
     inkscape:pageopacity="0.0"
     inkscape:pagecheckerboard="0"
     showgrid="false"
     fit-margin-top="0"
     fit-margin-left="0"
     fit-margin-right="0"
     fit-margin-bottom="0"
     inkscape:zoom="22.627417"
     inkscape:cx="16.086679"
     inkscape:cy="3.3587572"
     inkscape:window-width="1892"
     inkscape:window-height="1020"
     inkscape:window-x="1934"
     inkscape:window-y="46"
     inkscape:window-maximized="1"
     inkscape:current-layer="svg84" />
  <g
     id="use77"
     transform="translate(-37.383322)">
    <path
       d="M 37.862316,23.892 V 5.3 h 3.12 v 18.6 h -3.12 z m 4.809684,0 V 0.75 h 3.607 c 3.803,0 5.493,1.43 5.396,4.518 v 5.005 c 0.032,3.77 -1.886,4.94 -5.558,4.745 v 8.873 h -3.445 z m 3.445,-11.636 c 1.007,0 2.015,0.033 2.112,-1.04 V 5.724 c 0,-2.146 -0.747,-2.308 -2.112,-2.2 v 8.742 z M 60.97,23.892 H 58.044 C 57.85,23.492 57.85,23.047 57.85,22.624 h -0.065 c -0.65,1.072 -1.138,1.495 -2.438,1.495 -1.365,0 -2.112,-0.748 -2.112,-2.146 v -6.24 c 0,-3.77 4.518,-1.787 4.518,-6.532 0,-0.553 0.13,-1.853 -0.618,-1.853 -0.9,0 -0.747,1.495 -0.747,2.145 v 2.438 H 53.236 V 8.193 c 0,-1.917 1.495,-3.12 3.867,-3.12 2.372,0 3.868,1.203 3.868,3.12 v 15.7 z m -3.12,-9.62 c -0.878,0.52 -1.495,0.9 -1.495,1.885 v 4.68 c 0.064,0.4 0.324,0.65 0.747,0.617 0.423,-0.065 0.748,-0.325 0.748,-0.748 V 14.27 Z m 12.155,9.62 h -3.12 V 22.787 H 66.82 c -0.487,0.683 -1.3,1.333 -2.242,1.333 -1.203,0 -2.308,-0.65 -2.308,-2.178 V 7.25 c 0,-1.527 1.104,-2.178 2.308,-2.178 1.007,0 1.787,0.683 2.242,1.397 h 0.065 V 0.75 h 3.12 z M 65.4,20.316 c 0,0.975 0.357,1.138 0.747,1.138 0.39,0 0.748,-0.163 0.748,-1.138 V 8.876 c 0,-0.975 -0.358,-1.138 -0.748,-1.138 -0.39,0 -0.747,0.162 -0.747,1.138 z"
       fill="#000000"
       fill-rule="nonzero"
       stroke="none"
       id="path288"
       sodipodi:nodetypes="ccccccccsccccccccscccccccssssssccssscccsccsccccccsssscccccsssssss" />
    <path
       id="circle290"
       style="fill:#e32726;stroke:none"
       d="M 41.150299,2.9377538 C 40.814212,3.5697145 40.149016,4 39.383322,4 c -1.104569,0 -2,-0.8954305 -2,-2 0,-1.1045695 0.895431,-2 2,-2 0.723921,0 1.35801,0.38461693 1.709069,0.96065245 -0.697001,0.65742325 -0.437573,1.45196205 0.05791,1.97710135 z"
       sodipodi:nodetypes="cssscc" />
  </g>
  <symbol
     id="A"
     overflow="visible"
     transform="translate(-37.883322,-0.5)">
    <path
       d="m 9.457,0.75 v 3.022 h -3 v 20.12 H 3.022 V 3.773 H 0 V 0.75 Z m 4.16,5.624 h 0.065 c 0.455,-0.877 1.3,-1.3 2.145,-1.3 2.373,0 2.405,1.397 2.405,3.348 v 15.47 h -3.12 V 8.876 c 0,-0.52 -0.032,-1.138 -0.683,-1.138 -0.78,0 -0.813,0.618 -0.813,1.138 v 15.016 h -3.12 V 0.75 h 3.12 v 5.623 z m 6.11,17.518 V 5.3 h 3.12 v 18.6 h -3.12 z M 24.34,5.3 h 3.12 v 1.073 h 0.065 c 0.455,-0.877 1.3,-1.3 2.146,-1.3 2.373,0 2.405,1.397 2.405,3.348 v 15.47 h -3.12 V 8.876 c 0,-0.52 -0.032,-1.138 -0.683,-1.138 -0.78,0 -0.813,0.618 -0.813,1.138 v 15.016 h -3.12 z m 9.102,18.592 V 0.75 h 3.12 v 13.1 h 0.13 l 1.7,-8.548 h 3.12 L 39.724,13.688 41.6,23.892 H 38.414 L 36.7,14.1 h -0.13 v 9.783 h -3.12 z m 9.23,0 V 0.75 h 3.607 c 3.803,0 5.493,1.43 5.396,4.518 v 5.005 c 0.032,3.77 -1.886,4.94 -5.558,4.745 v 8.873 h -3.445 z m 3.445,-11.636 c 1.007,0 2.015,0.033 2.112,-1.04 V 5.724 c 0,-2.146 -0.747,-2.308 -2.112,-2.2 v 8.742 z M 60.97,23.892 H 58.044 C 57.85,23.492 57.85,23.047 57.85,22.624 h -0.065 c -0.65,1.072 -1.138,1.495 -2.438,1.495 -1.365,0 -2.112,-0.748 -2.112,-2.146 v -6.24 c 0,-3.77 4.518,-1.787 4.518,-6.532 0,-0.553 0.13,-1.853 -0.618,-1.853 -0.9,0 -0.747,1.495 -0.747,2.145 v 2.438 H 53.236 V 8.193 c 0,-1.917 1.495,-3.12 3.867,-3.12 2.372,0 3.868,1.203 3.868,3.12 v 15.7 z m -3.12,-9.62 c -0.878,0.52 -1.495,0.9 -1.495,1.885 v 4.68 c 0.064,0.4 0.324,0.65 0.747,0.617 0.423,-0.065 0.748,-0.325 0.748,-0.748 V 14.27 Z m 12.155,9.62 h -3.12 V 22.787 H 66.82 c -0.487,0.683 -1.3,1.333 -2.242,1.333 -1.203,0 -2.308,-0.65 -2.308,-2.178 V 7.25 c 0,-1.527 1.104,-2.178 2.308,-2.178 1.007,0 1.787,0.683 2.242,1.397 h 0.065 V 0.75 h 3.12 z M 65.4,20.316 c 0,0.975 0.357,1.138 0.747,1.138 0.39,0 0.748,-0.163 0.748,-1.138 V 8.876 c 0,-0.975 -0.358,-1.138 -0.748,-1.138 -0.39,0 -0.747,0.162 -0.747,1.138 z"
       fill="#000000"
       fill-rule="nonzero"
       stroke="none"
       id="path79" />
    <circle
       cx="21.25"
       cy="2"
       fill="#e32726"
       stroke="none"
       r="2"
       id="circle81" />
  </symbol>
</svg>
