<svg xmlns="http://www.w3.org/2000/svg" width="574" height="585" fill="none">
  <path fill="#fff" d="M370.297 82.5525l.128-.0324.078-.0195c10.641-2.649 21.608 2.9431 25.714 13.1114 4.106 10.168.096 21.808-9.401 27.29-20.173 11.646-33.745 20.826-42.644 28.243-9.114 7.597-11.674 12.005-12.32 13.642-.02.05-.041.095-.062.14-.154.328-.285.609.392 2.309 1.274 3.199 3.833 7.075 9.041 14.542l.016.022c.855 1.225 1.766 2.531 2.693 3.877 8.973 12.53 11.684 26.18 8.914 39.255-.974 4.598-2.56 8.824-4.489 12.663.294-.044.586-.087.875-.129 3.583-.532 6.772-1.028 9.438-1.454.042-.086.084-.173.127-.259.044-.087.032-.063.032-.063l.032-.064.027-.053.042-.082c.048-.092.099-.19.153-.292.109-.205.233-.43.371-.673.276-.484.616-1.048 1.025-1.67.808-1.23 1.941-2.77 3.451-4.397 2.876-3.098 7.59-7.002 14.404-9.126 33.167-11.379 70.685 5.035 76.003 39.538 2.659 17.258-4.196 34.266-17.973 47.803-13.472 13.237-33.827 23.672-60.992 30.739-2.434.634-4.9.834-7.304.64 1.922 3.194 3.042 6.89 3.141 10.782.131 5.147-1.539 10.042-4.541 13.954 7.644-1.144 14.212-2.409 19.377-3.76.096-.564.214-1.128.355-1.69 2.614-10.395 12.337-17.394 23.024-16.572h.001c2.622.202 5.171.871 7.532 1.961 4.599 2.096 14.028 7.19 18.283 17.045.997.097 1.997.261 2.995.494 11.069 2.583 18.591 12.864 17.703 24.196-1.138 14.527-9.559 24.644-18.941 31.566 3.047 1.431 6.031 3.464 8.732 6.283 5.555 5.76 8.156 12.858 8.536 19.814l.201.078h2.341c1.93 0 3.805.237 5.596.685 4.641-1.218 9.265-1.623 13.506-1.623 7.905 0 15.578 1.79 22.641 5.487l1.07-3.505c2.956-9.672 11.883-16.279 21.996-16.279h7.735c10.043 0 18.582 6.437 21.718 15.41 11.357 1.404 20.149 11.087 20.149 22.825v9.726c0 11.227-8.044 20.576-18.683 22.596 1.56.302 3.097.768 4.587 1.398 6.298 2.665 11.083 7.994 13.058 14.541l2.226 7.383c2.813 9.324-.553 19.41-8.402 25.176-4.781 3.512-10.204 5.709-14.965 7.209l-.073.023-.078.024c-5.43 1.671-11.116 2.658-16.959 2.658-8.56 0-18.541-2.158-26.74-9.525l-.064-.057-.071-.066c-.63-.575-1.227-1.164-1.791-1.766-1.546 1.201-3.17 2.327-4.87 3.373l-.043.026c-5.461 3.345-11.288 5.564-17.312 6.802v6.924c0 12.703-10.298 23-23 23h-12.891c-12.703 0-23-10.297-23-23v-6.648h-6.126c-6.173 0-11.779-2.433-15.91-6.392-4.132 3.959-9.737 6.392-15.911 6.392h-12.891c-3.351 0-6.534-.717-9.406-2.006-.183.06-.365.119-.547.176-.07.022-.141.044-.211.066-6.049 1.846-12.271 2.701-18.551 2.701-9.865 0-19.634-2.391-28.343-8.044l-.053-.034-.06-.039-.083-.056c-.616-.408-1.219-.828-1.811-1.258-2.958 2.065-6.149 3.769-9.505 5.123l-.069.028-.093.037c-7.703 3.04-15.873 4.243-24.031 4.243-4.816 0-9.582-.359-14.278-1.106l-.04-.006c-3.707-.597-7.326-1.358-10.761-2.344-3.522 2.191-7.68 3.456-12.133 3.456h-5.273c-2.305 0-5.995-.106-9.79-1.096-.743-.194-1.469-.417-2.175-.667-4.451 1.18-9.016 1.763-13.64 1.763-6.965 0-14.021-1.362-20.685-4.611l-.102-.05c-2.96-1.462-5.719-3.245-8.23-5.34-4.223 6.165-11.276 10.001-18.976 10.001h-10.84c-6.169 0-11.928-2.463-16.146-6.618-4.152 4.092-9.853 6.618-16.144 6.618h-5.274c-2.304 0-5.994-.106-9.79-1.096-.743-.194-1.468-.417-2.175-.667-4.4503 1.18-9.0154 1.763-13.64 1.763-6.9648 0-14.0205-1.362-20.6842-4.611l-.1027-.05-.0825-.041c-.616.874-1.2642 1.732-1.9449 2.574-4.6067 5.743-10.2122 10.553-16.8194 14.1-5.6641 3.04-11.8103 5.283-18.3757 6.282-9.3396 1.421-18.5985-3.013-23.34556-11.181l-3.98437-6.855c-3.419193-5.883-4.057933-12.979-1.74446-19.378 2.31348-6.399 7.34169-11.445 13.73249-13.781.6033-.221 1.2843-.571 2.0713-1.2.1978-.82.5187-2.69.6592-6.005.0026-.061.0054-.123.0085-.184.2068-4.102.3224-9.766.3224-17.123v-55.664c0-12.703 10.2975-23 23-23h13.2422c12.7026 0 23 10.297 23 23v.867c1.0683-.267 2.1476-.52 3.2364-.759 4.8912-1.105 9.8738-1.721 14.9011-1.721 6.6942 0 13.6802.734 20.2662 2.972 2.896-1.285 6.067-1.976 9.328-1.976h13.887c1.828 0 3.618.216 5.343.627 8.502-10.688 10.984-24.035-1.687-30.513-1.16-.593-2.002-1.158-2.544-1.694-2.551-.913-4.979-1.981-7.23-3.243-6.508-3.649-16.262-11.998-15.562-26.136.567-11.449 8.05-18.856 11.682-22.009 4.494-3.9 9.844-7.027 14.824-9.468 10.082-4.941 22.461-8.911 33.667-10.954 5.214-.951 10.785-1.599 16.154-1.551.266-1.224.619-2.445 1.06-3.655.766-2.096 1.734-3.987 2.82-5.687-5.36-3.168-11.863-8.432-14.97-16.928-2.497-6.831-2.065-12.966-.236-18.152-4.482-.985-8.539-2.128-12.021-3.451-3.185-1.21-7.273-3.069-10.987-6.032-3.57-2.848-9.518-8.982-10.147-18.795-.638-9.975 4.633-16.938 8.145-20.397 3.568-3.514 7.753-5.949 11.256-7.672.059-.029.117-.058.176-.086 19.729-9.491 37.806-13.697 51.092-15.527 5.846-.806 10.799-1.156 14.607-1.29-4.171-5.095-7.909-10.24-11.049-15.419-5.726-9.446-10.254-20.248-11.119-32.107-.899-12.332 2.287-24.256 9.522-35.13 11.049-16.703 27.818-29.952 41.415-40.6942l1.284-1.0146c15.194-12.0138 26.985-21.5779 34.421-32.5133 6.436-9.4645 9.557-19.9215 5.669-35.3291-2.431-9.6297 1.892-19.69352 10.55-24.5605 8.657-4.86699 19.502-3.3301 26.466 3.75073l.054.05522.058.05968.037.0377c.029.03023.059.06193.091.09509.09.09448.191.20092.301.31928.22.23661.479.52137.77.85377.581.66396 1.297 1.52309 2.099 2.57323 1.6 2.093 3.579 4.9925 5.526 8.6633 3.903 7.3593 7.753 17.9876 7.934 31.334.165 12.126-2.663 25.1107-9.545 38.7417 5.953-2.1763 11.094-3.8145 14.842-4.9335 1.989-.5937 3.598-1.0447 4.742-1.3555.572-.1555 1.029-.2761 1.36-.3622.166-.0431.3-.0775.402-.1033z"/>
  <path fill="url(#paint0_linear)" d="M23 544.598c3.6328-1.328 6.9727-3.359 10.0195-6.094 3.0469-2.695 5.1367-6.152 6.2696-10.371.8203-2.968 1.3281-6.758 1.5234-11.367.2344-4.648.3516-10.742.3516-18.281v-55.664h13.2421v53.262l.0586 12.539c0 3.867-.0781 7.265-.2343 10.195-.1563 2.93-.4688 5.644-.9375 8.144-.8594 4.766-2.7149 8.907-5.5664 12.422-2.8125 3.516-6.0743 6.27-9.7852 8.262-3.7109 1.992-7.3633 3.262-10.957 3.809L23 544.598z"/>
  <path fill="url(#paint1_linear)" d="M95.5437 464.208c5.1563 0 9.4533.585 12.8903 1.757 3.438 1.172 6.114 3.321 8.028 6.446 1.914 3.086 2.871 7.441 2.871 13.066v47.461h-5.274c-1.757 0-3.086-.117-3.984-.352-.898-.234-1.602-.781-2.109-1.64-.508-.86-.762-2.227-.762-4.102v-.469c-1.953 1.797-4.649 3.34-8.086 4.629-3.3985 1.289-6.9532 1.934-10.6641 1.934-3.9453 0-7.4805-.762-10.6055-2.285-3.0859-1.524-5.5078-3.692-7.2656-6.504-1.7187-2.852-2.5781-6.191-2.5781-10.02 0-4.218 1.1328-7.871 3.3984-10.957 2.3047-3.086 5.5078-5.468 9.6094-7.148 3.6328-1.445 7.7344-2.52 12.3047-3.223 4.6094-.742 8.9848-1.113 13.1248-1.113v-6.738c0-3.125-.508-5.469-1.523-7.032-.977-1.562-2.461-2.617-4.453-3.164-1.9926-.546-4.7465-.82-8.2621-.82-1.875 0-4.043.254-6.5039.762-2.4219.508-4.707 1.152-6.8555 1.933-2.1093.743-3.6718 1.465-4.6875 2.168l-3.164-8.437c1.0156-.625 2.8515-1.426 5.5078-2.402 2.6953-.977 5.7422-1.836 9.1406-2.579 3.4375-.781 6.7383-1.171 9.9023-1.171zm-3.2812 59.121c1.8359 0 3.7695-.274 5.8008-.821 2.0317-.547 3.8087-1.191 5.3317-1.933 1.563-.782 2.578-1.446 3.047-1.992v-18.692c-2.851 0-6.074.274-9.6678.82-3.5547.547-6.4258 1.348-8.6133 2.403-2.3828 1.133-4.2187 2.461-5.5078 3.984-1.289 1.524-1.9336 3.496-1.9336 5.918 0 6.875 3.8477 10.313 11.543 10.313z"/>
  <path fill="url(#paint2_linear)" d="M188.127 465.204l-25.665 67.734h-10.839l-26.485-67.734h13.887l13.242 38.027 4.922 15.937 4.512-15.937 12.715-38.027h13.711z"/>
  <path fill="url(#paint3_linear)" d="M217.545 464.208c5.157 0 9.453.585 12.891 1.757 3.437 1.172 6.113 3.321 8.027 6.446 1.914 3.086 2.871 7.441 2.871 13.066v47.461h-5.273c-1.758 0-3.086-.117-3.984-.352-.899-.234-1.602-.781-2.11-1.64-.508-.86-.762-2.227-.762-4.102v-.469c-1.953 1.797-4.648 3.34-8.085 4.629-3.399 1.289-6.954 1.934-10.665 1.934-3.945 0-7.48-.762-10.605-2.285-3.086-1.524-5.508-3.692-7.266-6.504-1.718-2.852-2.578-6.191-2.578-10.02 0-4.218 1.133-7.871 3.399-10.957 2.304-3.086 5.508-5.468 9.609-7.148 3.633-1.445 7.734-2.52 12.305-3.223 4.609-.742 8.984-1.113 13.125-1.113v-6.738c0-3.125-.508-5.469-1.524-7.032-.976-1.562-2.461-2.617-4.453-3.164-1.992-.546-4.746-.82-8.262-.82-1.875 0-4.042.254-6.503.762-2.422.508-4.707 1.152-6.856 1.933-2.109.743-3.672 1.465-4.687 2.168l-3.164-8.437c1.015-.625 2.851-1.426 5.507-2.402 2.696-.977 5.743-1.836 9.141-2.579 3.437-.781 6.738-1.171 9.902-1.171zm-3.281 59.121c1.836 0 3.77-.274 5.801-.821 2.031-.547 3.808-1.191 5.332-1.933 1.562-.782 2.578-1.446 3.047-1.992v-18.692c-2.852 0-6.074.274-9.668.82-3.555.547-6.426 1.348-8.613 2.403-2.383 1.133-4.219 2.461-5.508 3.984-1.289 1.524-1.934 3.496-1.934 5.918 0 6.875 3.848 10.313 11.543 10.313z"/>
  <path fill="url(#paint4_linear)" d="M256.632 517.118c2.383 1.484 5.527 2.773 9.434 3.867 3.906 1.055 7.773 1.582 11.601 1.582 5.781 0 10.176-.996 13.184-2.988 3.047-1.993 4.57-5.118 4.57-9.375 0-2.813-.742-5.215-2.226-7.207-1.446-1.993-3.458-3.77-6.036-5.332-2.578-1.563-6.406-3.575-11.484-6.036-6.523-3.164-11.875-6.953-16.055-11.367-4.179-4.414-6.269-9.57-6.269-15.469 0-5.39 1.406-9.785 4.219-13.183 2.812-3.438 6.445-5.918 10.898-7.442 4.453-1.523 9.297-2.285 14.531-2.285 4.883 0 9.082.469 12.598 1.407 3.515.898 6.23 1.972 8.144 3.222l-2.636 10.313c-2.539-1.524-5.137-2.676-7.793-3.457-2.657-.821-6.153-1.231-10.489-1.231-2.968 0-5.742.391-8.32 1.172-2.578.781-4.668 1.992-6.269 3.633-1.602 1.641-2.403 3.672-2.403 6.094 0 2.851.567 5.234 1.699 7.148 1.133 1.875 2.872 3.613 5.215 5.215 2.383 1.562 5.996 3.594 10.84 6.094 5 2.578 9.18 5.019 12.539 7.324 3.399 2.266 6.27 5.058 8.613 8.379 2.344 3.32 3.516 7.148 3.516 11.484 0 5.352-1.25 9.844-3.75 13.477-2.461 3.633-5.918 6.347-10.371 8.144-4.453 1.758-9.648 2.637-15.586 2.637-3.672 0-7.226-.273-10.664-.82-3.398-.547-6.367-1.211-8.906-1.993-2.5-.781-4.317-1.542-5.449-2.285l3.105-10.722z"/>
  <path fill="url(#paint5_linear)" d="M345.523 464.266c3.789 0 7.149.371 10.079 1.113 2.929.704 5.039 1.485 6.328 2.344l-2.051 10.195c-1.797-1.25-3.906-2.168-6.328-2.753-2.422-.625-5.313-.938-8.672-.938-3.359 0-6.504.859-9.434 2.578-2.89 1.719-5.234 4.414-7.031 8.086-1.797 3.633-2.695 8.223-2.695 13.77 0 5.156.82 9.589 2.461 13.3 1.64 3.672 3.886 6.465 6.738 8.379 2.852 1.914 6.055 2.871 9.609 2.871 3.086 0 6.094-.39 9.024-1.171 2.929-.821 5.234-1.739 6.914-2.754l2.637 7.324c-2.071 1.914-4.961 3.457-8.672 4.629-3.711 1.133-7.657 1.699-11.836 1.699-6.094 0-11.367-1.445-15.821-4.336-4.414-2.93-7.773-6.934-10.078-12.012-2.304-5.078-3.457-10.84-3.457-17.285 0-6.68 1.211-12.656 3.633-17.93 2.461-5.312 6.113-9.492 10.957-12.539 4.844-3.046 10.742-4.57 17.695-4.57z"/>
  <path fill="url(#paint6_linear)" d="M401.075 464.208c3.125 0 5.293.273 6.504.82v12.07c-.82-.469-1.895-.84-3.223-1.113-1.289-.313-3.144-.469-5.566-.469-2.969 0-5.723.547-8.262 1.641-2.5 1.054-4.609 2.343-6.328 3.867V532h-12.891v-66.679h10.84l.879 7.383c.86-1.172 2.246-2.422 4.16-3.75 1.953-1.329 4.16-2.442 6.621-3.34 2.5-.938 4.922-1.406 7.266-1.406z"/>
  <path fill="url(#paint7_linear)" d="M428.912 465.321V532h-12.891v-66.679h12.891zm-15.352-20.156c0-1.641.449-3.165 1.348-4.571.937-1.406 2.148-2.519 3.633-3.34 1.484-.82 2.988-1.23 4.511-1.23 2.657 0 4.688.742 6.094 2.226 1.445 1.485 2.168 3.379 2.168 5.684 0 1.719-.449 3.281-1.348 4.688-.898 1.406-2.07 2.5-3.515 3.281-1.446.781-2.989 1.172-4.629 1.172-1.485 0-2.852-.313-4.102-.938-1.25-.664-2.265-1.601-3.047-2.812-.742-1.211-1.113-2.598-1.113-4.16z"/>
  <path fill="url(#paint8_linear)" d="M475.909 464.266c4.843 0 9.257 1.192 13.242 3.574 3.984 2.344 7.168 5.918 9.551 10.723 2.382 4.766 3.574 10.625 3.574 17.578 0 7.149-1.387 13.516-4.16 19.102-2.774 5.586-6.7 9.941-11.778 13.066-5.039 3.086-10.879 4.629-17.519 4.629-3.985 0-7.637-.566-10.957-1.699l.176 8.906v21.504h-12.891v-96.445h11.66v7.207c2.188-2.305 4.727-4.239 7.617-5.801 2.891-1.563 6.719-2.344 11.485-2.344zm13.242 32.988c0-7.695-1.446-13.418-4.336-17.168-2.852-3.789-7.012-5.683-12.481-5.683-2.851 0-5.488.547-7.91 1.64-2.383 1.055-4.511 2.325-6.386 3.809v40.723c1.21 1.054 2.773 1.816 4.687 2.285 1.953.469 4.395.703 7.324.703 3.672 0 6.953-1.016 9.844-3.047 2.891-2.031 5.156-5.019 6.797-8.965 1.64-3.945 2.461-8.711 2.461-14.297z"/>
  <path fill="url(#paint9_linear)" d="M516.519 474.93h-8.672v-6.972l2.109-.586c1.797-.508 3.125-.918 3.985-1.231.859-.351 1.601-.82 2.226-1.406.664-.625 1.192-1.465 1.582-2.52.586-1.484 1.446-4.16 2.578-8.027l1.289-4.219h7.735v15.235h18.867v9.726h-18.867v33.809c0 4.453.176 7.617.527 9.492.352 1.836.996 3.027 1.934 3.574.976.547 2.617.82 4.922.82 1.679 0 3.711-.273 6.093-.82 2.422-.547 4.2-1.113 5.332-1.699l2.227 7.383c-1.914 1.406-4.668 2.676-8.262 3.808-3.554 1.094-6.953 1.641-10.195 1.641-4.883 0-8.672-1.211-11.367-3.633-2.696-2.461-4.043-6.894-4.043-13.301V474.93z"/>
  <path fill="url(#paint10_linear)" d="M234.168 330.096s-15.296 9.316 10.64 11.978c31.256 3.992 47.881 3.328 82.462-3.327 0 0 9.311 5.989 21.946 10.647-77.807 33.272-176.23-1.997-115.048-19.298zm-9.976-43.253s-16.625 12.643 9.31 15.305c33.917 3.327 60.518 3.992 106.404-5.324 0 0 5.985 6.655 15.96 9.982-93.768 27.949-198.842 2.662-131.674-19.963zm183.546 75.86s11.305 9.316-12.636 16.635c-44.556 13.309-186.871 17.301-226.772 0-13.965-5.988 12.635-14.639 21.28-15.97 8.646-1.996 13.301-1.996 13.301-1.996-15.295-10.647-101.748 21.959-43.892 31.275 158.94 25.952 289.95-11.312 248.717-29.944h.002zM241.482 241.594s-72.486 17.301-25.935 23.29c19.951 2.661 59.187 1.996 95.763-.666 29.926-2.661 59.852-7.985 59.852-7.985s-10.64 4.658-17.956 9.317c-73.817 19.297-215.466 10.646-174.9-9.317 34.581-16.636 63.176-14.639 63.176-14.639zm129.68 72.532c74.482-38.596 39.902-75.86 15.961-71.201-5.986 1.33-8.646 2.661-8.646 2.661s1.995-3.992 6.65-5.323c47.217-16.636 84.458 49.907-15.294 75.859 0 0 .664-.665 1.329-1.996zM248.798 419.264c71.823 4.659 181.551-2.661 184.211-36.598 0 0-5.32 13.309-59.187 23.289-61.182 11.313-136.994 9.982-181.551 2.662 0 0 9.311 7.986 56.527 10.647z"/>
  <path fill="url(#paint11_linear)" d="M325.941 22.0005s41.231 41.9222-39.237 105.1385c-64.507 51.238-14.63 80.517 0 113.789-37.906-33.937-65.172-63.882-46.551-91.83 27.266-41.257 102.413-61.2197 85.788-127.0975zM304.66 212.98c19.285 21.959-5.32 41.923-5.32 41.923s49.211-25.287 26.601-56.563c-20.616-29.944-36.577-44.583 49.876-94.491 0 0-136.329 33.937-71.157 109.131z"/>
  <defs>
    <linearGradient id="paint0_linear" x1="286.812" x2="286.812" y1="414" y2="565" gradientUnits="userSpaceOnUse">
      <stop stop-color="#F25656"/>
      <stop offset=".510417" stop-color="#FB8E8E"/>
      <stop offset="1" stop-color="#BF4A4A"/>
    </linearGradient>
    <linearGradient id="paint1_linear" x1="286.812" x2="286.812" y1="414" y2="565" gradientUnits="userSpaceOnUse">
      <stop stop-color="#F25656"/>
      <stop offset=".510417" stop-color="#FB8E8E"/>
      <stop offset="1" stop-color="#BF4A4A"/>
    </linearGradient>
    <linearGradient id="paint2_linear" x1="286.812" x2="286.812" y1="414" y2="565" gradientUnits="userSpaceOnUse">
      <stop stop-color="#F25656"/>
      <stop offset=".510417" stop-color="#FB8E8E"/>
      <stop offset="1" stop-color="#BF4A4A"/>
    </linearGradient>
    <linearGradient id="paint3_linear" x1="286.812" x2="286.812" y1="414" y2="565" gradientUnits="userSpaceOnUse">
      <stop stop-color="#F25656"/>
      <stop offset=".510417" stop-color="#FB8E8E"/>
      <stop offset="1" stop-color="#BF4A4A"/>
    </linearGradient>
    <linearGradient id="paint4_linear" x1="286.812" x2="286.812" y1="414" y2="565" gradientUnits="userSpaceOnUse">
      <stop stop-color="#F25656"/>
      <stop offset=".510417" stop-color="#FB8E8E"/>
      <stop offset="1" stop-color="#BF4A4A"/>
    </linearGradient>
    <linearGradient id="paint5_linear" x1="286.812" x2="286.812" y1="414" y2="565" gradientUnits="userSpaceOnUse">
      <stop stop-color="#F25656"/>
      <stop offset=".510417" stop-color="#FB8E8E"/>
      <stop offset="1" stop-color="#BF4A4A"/>
    </linearGradient>
    <linearGradient id="paint6_linear" x1="286.812" x2="286.812" y1="414" y2="565" gradientUnits="userSpaceOnUse">
      <stop stop-color="#F25656"/>
      <stop offset=".510417" stop-color="#FB8E8E"/>
      <stop offset="1" stop-color="#BF4A4A"/>
    </linearGradient>
    <linearGradient id="paint7_linear" x1="286.812" x2="286.812" y1="414" y2="565" gradientUnits="userSpaceOnUse">
      <stop stop-color="#F25656"/>
      <stop offset=".510417" stop-color="#FB8E8E"/>
      <stop offset="1" stop-color="#BF4A4A"/>
    </linearGradient>
    <linearGradient id="paint8_linear" x1="286.812" x2="286.812" y1="414" y2="565" gradientUnits="userSpaceOnUse">
      <stop stop-color="#F25656"/>
      <stop offset=".510417" stop-color="#FB8E8E"/>
      <stop offset="1" stop-color="#BF4A4A"/>
    </linearGradient>
    <linearGradient id="paint9_linear" x1="286.812" x2="286.812" y1="414" y2="565" gradientUnits="userSpaceOnUse">
      <stop stop-color="#F25656"/>
      <stop offset=".510417" stop-color="#FB8E8E"/>
      <stop offset="1" stop-color="#BF4A4A"/>
    </linearGradient>
    <linearGradient id="paint10_linear" x1="286.161" x2="286.161" y1="237.627" y2="420.531" gradientUnits="userSpaceOnUse">
      <stop stop-color="#3E627B"/>
      <stop offset=".479167" stop-color="#79A1BD"/>
      <stop offset="1" stop-color="#4E7896"/>
    </linearGradient>
    <linearGradient id="paint11_linear" x1="304.984" x2="304.984" y1="22.0005" y2="254.903" gradientUnits="userSpaceOnUse">
      <stop stop-color="#F25656"/>
      <stop offset=".479167" stop-color="#EA7979"/>
      <stop offset=".869792" stop-color="#D45050"/>
      <stop offset="1" stop-color="#CD4242"/>
    </linearGradient>
  </defs>
</svg>