<?xml version="1.0" encoding="UTF-8" standalone="no"?>
<!-- Created with Inkscape (http://www.inkscape.org/) -->

<svg
   width="58.58532mm"
   height="22.376057mm"
   viewBox="0 0 58.585319 22.376057"
   version="1.1"
   id="svg5"
   xmlns="http://www.w3.org/2000/svg"
   xmlns:svg="http://www.w3.org/2000/svg">
  <defs
     id="defs2" />
  <g
     id="layer1"
     transform="translate(-52.752509,-163.29631)">
    <g
       aria-label="QUERY"
       id="text2058"
       style="font-size:12.0251px;line-height:1.25;font-family:Emperatriz;-inkscape-font-specification:Emperatriz;letter-spacing:0px;word-spacing:0px;stroke-width:0.300629">
      <path
         d="m 86.553524,180.07562 q 1.350272,0 2.621114,-0.37066 l -0.119141,0.75456 q -1.297318,0.33095 -2.528448,0.33095 -4.315571,0 -6.923448,-2.7932 -0.635422,0.19856 -1.376747,0.19856 -1.985692,0 -3.296248,-1.31055 -1.29732,-1.31056 -1.29732,-3.28302 0,-1.90625 1.244367,-3.24329 1.244368,-1.33703 3.349201,-1.33703 2.104834,0 3.335964,1.33703 1.244367,1.33704 1.244367,3.24329 0,1.36352 -0.661898,2.44902 -0.64866,1.08551 -1.773884,1.65474 1.098749,1.12524 2.713779,1.74742 1.61503,0.62218 3.468342,0.62218 z m -11.066925,-9.16065 q -1.019323,1.09875 -1.019323,2.68729 0,1.58857 1.019323,2.70055 1.019322,1.09876 2.740255,1.09876 1.707696,0 2.727018,-1.09876 1.019322,-1.11198 1.019322,-2.70055 0,-1.58854 -1.019322,-2.68729 -1.019322,-1.11199 -2.727018,-1.11199 -1.720933,0 -2.740255,1.11199 z"
         id="path2182"
         style="stroke-width:0.330951" />
      <path
         d="m 84.578577,170.17231 v 4.91826 q 0,1.28669 0.61328,1.97212 0.625305,0.68543 1.76769,0.68543 1.154409,0 1.767689,-0.68543 0.625306,-0.68543 0.625306,-1.97212 v -4.91826 h 0.733531 v 4.91826 q 0,1.62339 -0.805682,2.4892 -0.805682,0.86581 -2.320844,0.86581 -1.527188,0 -2.33287,-0.86581 -0.793656,-0.86581 -0.793656,-2.4892 v -4.91826 z"
         id="path2184" />
      <path
         d="m 96.399227,170.17231 v 0.69745 h -3.511329 v 2.94615 h 3.078426 v 0.69746 h -3.078426 v 3.17463 h 3.511329 v 0.69745 h -4.24486 v -8.21314 z"
         id="path2186" />
      <path
         d="m 101.84342,174.49189 2.43181,3.89356 h -0.95677 l -2.57799,-4.15933 q 1.00992,-0.3588 1.47503,-0.89035 0.47839,-0.53154 0.47839,-1.36872 0,-0.87705 -0.5847,-1.38202 -0.5847,-0.50497 -1.76739,-0.50497 h -1.448477 v 8.30539 h -0.810606 v -9.07613 h 2.259083 q 1.48833,0 2.32552,0.7043 0.85046,0.7043 0.85046,1.91356 0,1.78068 -1.67436,2.56471 z"
         id="path2188"
         style="stroke-width:0.332217" />
      <path
         d="m 104.94048,170.17231 2.76577,4.02841 2.78983,-4.02841 h 0.84175 l -3.28285,4.73789 -0.012,3.47525 h -0.73354 v -3.4993 l -3.2588,-4.71384 z"
         id="path2190" />
    </g>
    <g
       id="g4316"
       transform="matrix(0.00888704,0,0,0.00888704,49.837862,161.15378)">
      <polygon
         fill="#dd0932"
         points="1500,241.085 327.966,659.04 506.722,2208.753 1500,2758.915 2493.283,2208.753 2672.034,659.04 "
         id="polygon4310" />
      <polygon
         fill="#c31631"
         points="1500,241.085 1500,520.571 1500,519.3 1500,1794.573 1500,2758.915 2493.283,2208.753 2672.034,659.04 "
         id="polygon4312" />
      <g
         aria-label="J"
         id="text7574"
         style="font-size:2276.73px;line-height:1.25;font-family:'Hasklug Nerd Font Mono';-inkscape-font-specification:'Hasklug Nerd Font Mono';letter-spacing:0px;word-spacing:0px;fill:#ffffff;stroke-width:56.9185">
        <path
           d="m 1474.956,2208.9382 c 371.107,0 494.0504,-227.673 494.0504,-505.4341 V 685.80583 H 1153.937 v 159.3711 h 626.1008 V 1687.567 c 0,245.8869 -95.6227,355.1699 -309.6353,355.1699 -116.1132,0 -236.7799,-63.7484 -321.0189,-198.0755 l -118.39,116.1132 c 102.4529,170.7548 277.7611,248.1636 443.9624,248.1636 z"
           id="path3225" />
      </g>
    </g>
  </g>
</svg>
