<?xml version="1.0" encoding="UTF-8" standalone="no"?>
<svg
   xmlns:dc="http://purl.org/dc/elements/1.1/"
   xmlns:cc="http://creativecommons.org/ns#"
   xmlns:rdf="http://www.w3.org/1999/02/22-rdf-syntax-ns#"
   xmlns:svg="http://www.w3.org/2000/svg"
   xmlns="http://www.w3.org/2000/svg"
   id="svg12"
   version="1.1"
   viewBox="-58.46985 -50.32625 391.94303 162.77765"
   width="928.15417"
   height="431.25977">
  <metadata
     id="metadata18">
    <rdf:RDF>
      <cc:Work
         rdf:about="">
        <dc:format>image/svg+xml</dc:format>
        <dc:type
           rdf:resource="http://purl.org/dc/dcmitype/StillImage" />
        <dc:title></dc:title>
      </cc:Work>
    </rdf:RDF>
  </metadata>
  <defs
     id="defs16" />
  <path
     style="fill:#00618a"
     id="path6"
     d="m 322.02519,49.886021 c -7.893,-0.214 -13.923,0.52 -19.078,2.694 -1.465,0.618 -3.801,0.634 -4.04,2.47 0.805,0.844 0.93,2.104 1.57,3.142 1.23,1.992 3.309,4.661 5.163,6.061 2.026,1.53 4.114,3.165 6.286,4.49 3.863,2.355 8.176,3.7 11.896,6.06 2.192,1.391 4.37,3.143 6.509,4.713 1.057,0.776 1.768,1.983 3.142,2.47 v -0.225 c -0.722,-0.919 -0.908,-2.183 -1.571,-3.143 l -2.918,-2.918 c -2.853,-3.787 -6.475,-7.113 -10.325,-9.876 -3.07,-2.204 -9.942,-5.18 -11.223,-8.754 l -0.225,-0.225 c 2.177,-0.245 4.726,-1.033 6.735,-1.57 3.375,-0.906 6.39,-0.672 9.876,-1.572 1.57,-0.449 3.142,-0.899 4.714,-1.347 v -0.898 c -1.762,-1.808 -3.018,-4.2 -4.94,-5.836 -5.025,-4.28 -10.511,-8.556 -16.16,-12.121 -3.133,-1.978 -7.005,-3.263 -10.325,-4.939 -1.117,-0.563 -3.08,-0.856 -3.817,-1.796 -1.744,-2.223 -2.694,-5.042 -4.04,-7.632 -2.817,-5.425 -5.584,-11.3509999 -8.08,-17.0599999 -1.703,-3.8919997 -2.815,-7.7299997 -4.938,-11.2229997 -10.192,-16.7570004 -21.163,-26.8700004 -38.158,-36.8120004 -3.616,-2.114 -7.97,-2.95 -12.571,-4.04 l -7.407,-0.45 c -1.507,-0.63 -3.075,-2.473 -4.49,-3.367 -5.63,-3.556 -20.07,-11.293 -24.24,-1.122 -2.633,6.42 3.935,12.685 6.284,15.938 1.649,2.282 3.76,4.84 4.938,7.407 0.775,1.687 0.909,3.378 1.572,5.163 1.632,4.397 3.05,9.18 5.162,13.243 1.067,2.056 2.243,4.2220004 3.592,6.0600004 0.827,1.129 2.244,1.626 2.468,3.368 -1.386,1.94 -1.465,4.9499997 -2.244,7.4069997 -3.508,11.0619999 -2.185,24.8099999 2.918,32.9969999 1.566,2.513 5.254,7.903 10.325,5.836 4.436,-1.807 3.445,-7.406 4.714,-12.345 0.287,-1.12 0.11,-1.944 0.673,-2.694 v 0.225 l 4.04,8.08 c 2.99,4.815 8.298,9.848 12.795,13.244 2.332,1.761 4.168,4.806 7.183,5.836 v -0.225 h -0.225 c -0.584,-0.91 -1.498,-1.288 -2.244,-2.02 -1.757,-1.722 -3.71,-3.863 -5.163,-5.836 -4.09,-5.553 -7.705,-11.63 -10.998,-17.957 -1.573,-3.02 -2.94,-6.354 -4.266,-9.428 -0.511,-1.185 -0.505,-2.977 -1.57,-3.592 -1.452,2.253 -3.591,4.075 -4.714,6.735 -1.796,4.252 -2.028,9.437 -2.693,14.814 -0.394,0.141 -0.22,0.044 -0.45,0.224 -3.126,-0.754 -4.225,-3.972 -5.386,-6.733 -2.94,-6.982 -3.485,-18.225 -0.9,-26.2619999 0.67,-2.08 3.694,-8.6299997 2.47,-10.5499997 -0.584,-1.917 -2.512,-3.026 -3.591,-4.4900004 -1.335,-1.811 -2.668,-4.195 -3.592,-6.286 -2.405,-5.444 -3.528,-11.555 -6.06,-17.058 -1.21,-2.631 -3.257,-5.293 -4.938,-7.632 -1.861,-2.59 -3.945,-4.5 -5.387,-7.633 -0.513,-1.113 -1.21,-2.895 -0.45,-4.04 0.243,-0.772 0.584,-1.095 1.348,-1.347 1.302,-1.003 4.928,0.334 6.284,0.898 3.6,1.495 6.604,2.919 9.653,4.938 1.464,0.971 2.944,2.848 4.713,3.368 h 2.02 c 3.16,0.726 6.7,0.225 9.652,1.122 5.218,1.586 9.894,4.052 14.14,6.734 12.939,8.169 23.517,19.798 30.753,33.6700004 1.164,2.2329997 1.668,4.36499969 2.693,6.7339997 2.069,4.778 4.675,9.6939999 6.733,14.3659999 2.054,4.66 4.056,9.365 6.959,13.244 1.527,2.039 7.422,3.133 10.1,4.264 1.879,0.794 4.956,1.621 6.735,2.693 3.398,2.05 6.69,4.49 9.877,6.735 1.593,1.122 6.489,3.583 6.733,5.611 z" />
  <path
     style="fill:#00618a;fill-rule:evenodd"
     id="path8"
     d="m 221.69219,-35.634979 c -1.646,-0.03 -2.81,0.18 -4.041,0.448 v 0.225 h 0.225 c 0.785,1.613 2.17,2.651 3.142,4.04 a 6815.3,6815.3 0 0 0 2.245,4.714 l 0.224,-0.224 c 1.39,-0.98 2.027,-2.547 2.02,-4.938 -0.557,-0.586 -0.64,-1.322 -1.122,-2.021 -0.642,-0.932 -1.884,-1.46 -2.693,-2.244 z" />
  <g
     transform="translate(-54.114808,-59.993979)"
     style="fill:#00618a;fill-opacity:1"
     id="g884">
    <path
       class="cls-1"
       d="m 64.261949,128.01021 13.757615,53.20993 H 67.634155 L 58.470551,142.89186 41.194124,181.22014 H 32.421529 L 15.24284,143.11179 5.8104434,181.22014 H -4.3550422 L 9.2803865,128.01021 h 8.9925485 l 18.571551,41.1995 18.498233,-41.1995 z"
       id="path8-3"
       style="fill:#00618a;fill-opacity:1;stroke-width:1.22181261" />
    <path
       class="cls-1"
       d="m 117.25196,148.57331 v -6.19458 h 10.03109 v 38.84141 h -10.03109 v -6.2557 c -2.65133,4.49628 -8.10062,7.07432 -14.73505,7.07432 -13.867563,0 -21.601647,-9.77451 -21.601647,-21.0152 0,-10.83746 7.330866,-19.54898 20.123257,-19.54898 7.29421,0.0856 13.34219,2.52914 16.21344,7.09873 z m -25.658046,12.97563 c 0,7.1476 4.496275,13.2689 13.195556,13.2689 8.39385,0 12.96344,-5.97466 12.96344,-13.04898 0,-7.07428 -4.71619,-13.12226 -13.43995,-13.12226 -8.357197,0 -12.706836,6.03577 -12.706836,12.90234 z"
       id="path10-6"
       style="fill:#00618a;fill-opacity:1;stroke-width:1.22181261" />
    <path
       class="cls-1"
       d="m 149.89881,181.22014 h -10.01888 v -38.84141 h 10.01888 v 8.69927 a 15.370402,15.370402 0 0 1 14.00196,-9.51789 18.131699,18.131699 0 0 1 6.26791,1.0263 l -2.13819,7.33089 a 21.992627,21.992627 0 0 0 -5.30265,-0.73308 c -7.23313,0 -12.82903,5.44928 -12.82903,13.43992 z"
       id="path12"
       style="fill:#00618a;fill-opacity:1;stroke-width:1.22181261" />
    <path
       class="cls-1"
       d="m 175.17812,132.12771 a 5.0949585,5.0949585 0 0 1 5.37597,-5.22936 5.2904484,5.2904484 0 0 1 5.46149,5.38818 5.0705221,5.0705221 0 0 1 -5.46149,5.15604 5.1560491,5.1560491 0 0 1 -5.37597,-5.31486 z m 0.43984,10.25102 h 10.03107 v 28.38268 c 0,1.75942 0.36655,3.01789 1.83273,3.01789 A 10.813041,10.813041 0 0 0 189.4,173.5594 l 1.55171,7.33087 a 17.545229,17.545229 0 0 1 -6.63444,1.22183 c -4.20303,0 -8.69931,-1.22183 -8.69931,-10.76418 z"
       id="path14"
       style="fill:#00618a;fill-opacity:1;stroke-width:1.22181261" />
    <path
       class="cls-1"
       d="m 230.45289,148.57331 v -6.19458 h 10.06775 v 38.84141 h -10.03109 v -6.2557 c -2.65132,4.49628 -8.10061,7.07432 -14.73505,7.07432 -13.85535,0 -21.60164,-9.77451 -21.60164,-21.0152 0,-10.83746 7.33086,-19.54898 20.12325,-19.54898 7.25755,0.0856 13.30553,2.52914 16.17678,7.09873 z m -25.65804,12.97563 c 0,7.1476 4.49627,13.2689 13.19558,13.2689 8.40607,0 12.97563,-5.97466 12.97563,-13.04898 0,-7.07428 -4.72841,-13.12226 -13.43993,-13.12226 -8.36943,0 -12.71907,6.03577 -12.71907,12.90234 z"
       id="path16"
       style="fill:#00618a;fill-opacity:1;stroke-width:1.22181261" />
  </g>
  <g
     transform="translate(-54.114808,-59.993979)"
     style="fill:#e48e00;fill-opacity:1"
     id="g888">
    <path
       class="cls-1"
       d="m 255.87883,128.01021 h 24.03305 c 20.19657,0 30.28874,11.13071 30.14211,26.59884 0.14669,16.07904 -10.99632,26.61109 -28.37048,26.61109 h -25.80468 z m 6.63444,4.7162 v 43.85085 h 18.32717 c 16.06686,0 22.18813,-10.8375 22.18813,-22.11481 0,-12.74353 -7.66076,-21.73604 -22.18813,-21.73604 z"
       id="path18"
       style="fill:#e48e00;fill-opacity:1;stroke-width:1.22181261" />
    <path
       class="cls-1"
       d="m 351.03359,181.22014 h -30.54533 v -53.20993 h 27.55189 c 10.53202,0 20.56311,1.97931 20.41647,13.78203 0,8.32054 -5.16825,10.61755 -10.61754,11.49727 7.73408,0.65977 12.38917,5.59589 12.38917,13.56211 0.0489,11.93712 -10.42204,14.36852 -19.19466,14.36852 z m -2.2848,-29.9955 c 10.54426,0 12.90234,-4.05643 12.90234,-9.21247 0,-7.7463 -4.71619,-9.50572 -12.90234,-9.50572 h -21.89488 v 18.71819 z m 0.29325,4.49627 h -22.18813 v 21.00296 h 23.14114 c 6.48783,0 13.34219,-2.13817 13.34219,-10.3121 0,-9.43239 -7.88069,-10.69086 -14.2952,-10.69086 z"
       id="path20"
       style="fill:#e48e00;fill-opacity:1;stroke-width:1.22181261" />
  </g>
</svg>
