<?xml version="1.0" encoding="UTF-8"?>
<svg width="928.15" height="431.26" version="1.1" viewBox="-58.46985 -50.32625 391.94303 162.77765" xmlns="http://www.w3.org/2000/svg" xmlns:cc="http://creativecommons.org/ns#" xmlns:dc="http://purl.org/dc/elements/1.1/" xmlns:rdf="http://www.w3.org/1999/02/22-rdf-syntax-ns#">
<metadata>
<rdf:RDF>
<cc:Work rdf:about="">
<dc:format>image/svg+xml</dc:format>
<dc:type rdf:resource="http://purl.org/dc/dcmitype/StillImage"/>
<dc:title/>
</cc:Work>
</rdf:RDF>
</metadata>
<path d="m322.03 49.886c-7.893-0.214-13.923 0.52-19.078 2.694-1.465 0.618-3.801 0.634-4.04 2.47 0.805 0.844 0.93 2.104 1.57 3.142 1.23 1.992 3.309 4.661 5.163 6.061 2.026 1.53 4.114 3.165 6.286 4.49 3.863 2.355 8.176 3.7 11.896 6.06 2.192 1.391 4.37 3.143 6.509 4.713 1.057 0.776 1.768 1.983 3.142 2.47v-0.225c-0.722-0.919-0.908-2.183-1.571-3.143l-2.918-2.918c-2.853-3.787-6.475-7.113-10.325-9.876-3.07-2.204-9.942-5.18-11.223-8.754l-0.225-0.225c2.177-0.245 4.726-1.033 6.735-1.57 3.375-0.906 6.39-0.672 9.876-1.572 1.57-0.449 3.142-0.899 4.714-1.347v-0.898c-1.762-1.808-3.018-4.2-4.94-5.836-5.025-4.28-10.511-8.556-16.16-12.121-3.133-1.978-7.005-3.263-10.325-4.939-1.117-0.563-3.08-0.856-3.817-1.796-1.744-2.223-2.694-5.042-4.04-7.632-2.817-5.425-5.584-11.351-8.08-17.06-1.703-3.892-2.815-7.73-4.938-11.223-10.192-16.757-21.163-26.87-38.158-36.812-3.616-2.114-7.97-2.95-12.571-4.04l-7.407-0.45c-1.507-0.63-3.075-2.473-4.49-3.367-5.63-3.556-20.07-11.293-24.24-1.122-2.633 6.42 3.935 12.685 6.284 15.938 1.649 2.282 3.76 4.84 4.938 7.407 0.775 1.687 0.909 3.378 1.572 5.163 1.632 4.397 3.05 9.18 5.162 13.243 1.067 2.056 2.243 4.222 3.592 6.06 0.827 1.129 2.244 1.626 2.468 3.368-1.386 1.94-1.465 4.95-2.244 7.407-3.508 11.062-2.185 24.81 2.918 32.997 1.566 2.513 5.254 7.903 10.325 5.836 4.436-1.807 3.445-7.406 4.714-12.345 0.287-1.12 0.11-1.944 0.673-2.694v0.225l4.04 8.08c2.99 4.815 8.298 9.848 12.795 13.244 2.332 1.761 4.168 4.806 7.183 5.836v-0.225h-0.225c-0.584-0.91-1.498-1.288-2.244-2.02-1.757-1.722-3.71-3.863-5.163-5.836-4.09-5.553-7.705-11.63-10.998-17.957-1.573-3.02-2.94-6.354-4.266-9.428-0.511-1.185-0.505-2.977-1.57-3.592-1.452 2.253-3.591 4.075-4.714 6.735-1.796 4.252-2.028 9.437-2.693 14.814-0.394 0.141-0.22 0.044-0.45 0.224-3.126-0.754-4.225-3.972-5.386-6.733-2.94-6.982-3.485-18.225-0.9-26.262 0.67-2.08 3.694-8.63 2.47-10.55-0.584-1.917-2.512-3.026-3.591-4.49-1.335-1.811-2.668-4.195-3.592-6.286-2.405-5.444-3.528-11.555-6.06-17.058-1.21-2.631-3.257-5.293-4.938-7.632-1.861-2.59-3.945-4.5-5.387-7.633-0.513-1.113-1.21-2.895-0.45-4.04 0.243-0.772 0.584-1.095 1.348-1.347 1.302-1.003 4.928 0.334 6.284 0.898 3.6 1.495 6.604 2.919 9.653 4.938 1.464 0.971 2.944 2.848 4.713 3.368h2.02c3.16 0.726 6.7 0.225 9.652 1.122 5.218 1.586 9.894 4.052 14.14 6.734 12.939 8.169 23.517 19.798 30.753 33.67 1.164 2.233 1.668 4.365 2.693 6.734 2.069 4.778 4.675 9.694 6.733 14.366 2.054 4.66 4.056 9.365 6.959 13.244 1.527 2.039 7.422 3.133 10.1 4.264 1.879 0.794 4.956 1.621 6.735 2.693 3.398 2.05 6.69 4.49 9.877 6.735 1.593 1.122 6.489 3.583 6.733 5.611z" fill="#00618a"/>
<path d="m221.69-35.635c-1.646-0.03-2.81 0.18-4.041 0.448v0.225h0.225c0.785 1.613 2.17 2.651 3.142 4.04a6815.3 6815.3 0 0 0 2.245 4.714l0.224-0.224c1.39-0.98 2.027-2.547 2.02-4.938-0.557-0.586-0.64-1.322-1.122-2.021-0.642-0.932-1.884-1.46-2.693-2.244z" fill="#00618a" fill-rule="evenodd"/>
<g transform="translate(-54.115 -59.994)" fill="#00618a" stroke-width="1.2218">
<path class="cls-1" d="m64.262 128.01 13.758 53.21h-10.385l-9.1636-38.328-17.276 38.328h-8.7726l-17.179-38.108-9.4324 38.108h-10.165l13.635-53.21h8.9925l18.572 41.2 18.498-41.2z"/>
<path class="cls-1" d="m117.25 148.57v-6.1946h10.031v38.841h-10.031v-6.2557c-2.6513 4.4963-8.1006 7.0743-14.735 7.0743-13.868 0-21.602-9.7745-21.602-21.015 0-10.837 7.3309-19.549 20.123-19.549 7.2942 0.0856 13.342 2.5291 16.213 7.0987zm-25.658 12.976c0 7.1476 4.4963 13.269 13.196 13.269 8.3938 0 12.963-5.9747 12.963-13.049 0-7.0743-4.7162-13.122-13.44-13.122-8.3572 0-12.707 6.0358-12.707 12.902z"/>
<path class="cls-1" d="m149.9 181.22h-10.019v-38.841h10.019v8.6993a15.37 15.37 0 0 1 14.002 -9.5179 18.132 18.132 0 0 1 6.2679 1.0263l-2.1382 7.3309a21.993 21.993 0 0 0 -5.3026 -0.73308c-7.2331 0-12.829 5.4493-12.829 13.44z"/>
<path class="cls-1" d="m175.18 132.13a5.095 5.095 0 0 1 5.376 -5.2294 5.2904 5.2904 0 0 1 5.4615 5.3882 5.0705 5.0705 0 0 1 -5.4615 5.156 5.156 5.156 0 0 1 -5.376 -5.3149zm0.43984 10.251h10.031v28.383c0 1.7594 0.36655 3.0179 1.8327 3.0179a10.813 10.813 0 0 0 1.9182 -0.2199l1.5517 7.3309a17.545 17.545 0 0 1 -6.6344 1.2218c-4.203 0-8.6993-1.2218-8.6993-10.764z"/>
<path class="cls-1" d="m230.45 148.57v-6.1946h10.068v38.841h-10.031v-6.2557c-2.6513 4.4963-8.1006 7.0743-14.735 7.0743-13.855 0-21.602-9.7745-21.602-21.015 0-10.837 7.3309-19.549 20.123-19.549 7.2576 0.0856 13.306 2.5291 16.177 7.0987zm-25.658 12.976c0 7.1476 4.4963 13.269 13.196 13.269 8.4061 0 12.976-5.9747 12.976-13.049 0-7.0743-4.7284-13.122-13.44-13.122-8.3694 0-12.719 6.0358-12.719 12.902z"/>
</g>
<g transform="translate(-54.115 -59.994)" fill="#e48e00" stroke-width="1.2218">
<path class="cls-1" d="m255.88 128.01h24.033c20.197 0 30.289 11.131 30.142 26.599 0.14669 16.079-10.996 26.611-28.37 26.611h-25.805zm6.6344 4.7162v43.851h18.327c16.067 0 22.188-10.838 22.188-22.115 0-12.744-7.6608-21.736-22.188-21.736z"/>
<path class="cls-1" d="m351.03 181.22h-30.545v-53.21h27.552c10.532 0 20.563 1.9793 20.416 13.782 0 8.3205-5.1682 10.618-10.618 11.497 7.7341 0.65977 12.389 5.5959 12.389 13.562 0.0489 11.937-10.422 14.369-19.195 14.369zm-2.2848-29.996c10.544 0 12.902-4.0564 12.902-9.2125 0-7.7463-4.7162-9.5057-12.902-9.5057h-21.895v18.718zm0.29325 4.4963h-22.188v21.003h23.141c6.4878 0 13.342-2.1382 13.342-10.312 0-9.4324-7.8807-10.691-14.295-10.691z"/>
</g>
</svg>
