<svg width="1025" height="152" viewBox="0 0 1025 152" fill="none" xmlns="http://www.w3.org/2000/svg">
<path d="M114.497 69.5549L62.94 17.9976L57.9424 13L19.1321 51.8103L1.38756 69.5549C0.499059 70.4445 0 71.6504 0 72.9077C0 74.165 0.499059 75.3709 1.38756 76.2605L36.8451 111.718L57.9424 132.815L96.7527 94.005L97.3537 93.4041L114.497 76.2605C115.386 75.3709 115.885 74.165 115.885 72.9077C115.885 71.6504 115.386 70.4445 114.497 69.5549V69.5549ZM57.9424 90.6206L40.2295 72.9077L57.9424 55.1947L75.6554 72.9077L57.9424 90.6206Z" fill="#2684FF"/>
<path d="M57.9425 55.1947C52.3715 49.6231 49.2313 42.0736 49.2076 34.1946C49.1839 26.3157 52.2786 18.7474 57.816 13.1423L19.0531 51.8894L40.1505 72.9867L57.9425 55.1947Z" fill="url(#paint0_linear_6_13)"/>
<path d="M75.7028 72.8602L57.9424 90.6206C60.714 93.3906 62.9126 96.6795 64.4127 100.299C65.9128 103.919 66.6849 107.8 66.6849 111.718C66.6849 115.636 65.9128 119.517 64.4127 123.136C62.9126 126.756 60.714 130.045 57.9424 132.815L96.8001 93.9576L75.7028 72.8602Z" fill="url(#paint1_linear_6_13)"/>
<path d="M145.6 120V31.2H161.08L187.24 84L213.28 31.2H228.76V120H217.24V48.48L192.76 97.2H181.6L157.12 48.24V120H145.6ZM253.545 44.28C251.385 44.28 249.585 43.56 248.145 42.12C246.785 40.68 246.105 38.96 246.105 36.96C246.105 34.88 246.785 33.12 248.145 31.68C249.585 30.24 251.385 29.52 253.545 29.52C255.625 29.52 257.385 30.24 258.825 31.68C260.265 33.12 260.985 34.88 260.985 36.96C260.985 38.96 260.265 40.68 258.825 42.12C257.385 43.56 255.625 44.28 253.545 44.28ZM247.905 120V56.4H259.305V120H247.905ZM307.265 121.2C302.065 121.2 297.505 120.28 293.585 118.44C289.665 116.52 286.385 114 283.745 110.88C281.185 107.68 279.225 104.12 277.865 100.2C276.585 96.28 275.945 92.28 275.945 88.2C275.945 84.12 276.585 80.16 277.865 76.32C279.145 72.4 281.065 68.84 283.625 65.64C286.265 62.44 289.545 59.92 293.465 58.08C297.385 56.16 301.985 55.2 307.265 55.2C312.385 55.2 316.625 55.96 319.985 57.48C323.345 59 326.025 60.92 328.025 63.24C330.105 65.48 331.625 67.76 332.585 70.08C333.625 72.32 334.305 74.2 334.625 75.72C334.945 77.24 335.105 78 335.105 78H324.065C324.065 78 323.865 77.36 323.465 76.08C323.065 74.72 322.305 73.2 321.185 71.52C320.065 69.84 318.385 68.36 316.145 67.08C313.905 65.72 310.945 65.04 307.265 65.04C302.865 65.04 299.145 66.16 296.105 68.4C293.145 70.56 290.905 73.4 289.385 76.92C287.945 80.44 287.225 84.2 287.225 88.2C287.225 92.2 287.945 95.96 289.385 99.48C290.905 103 293.145 105.88 296.105 108.12C299.145 110.28 302.865 111.36 307.265 111.36C310.945 111.36 313.905 110.72 316.145 109.44C318.385 108.08 320.065 106.56 321.185 104.88C322.305 103.2 323.065 101.72 323.465 100.44C323.865 99.08 324.065 98.4 324.065 98.4H335.105C335.105 98.4 334.945 99.16 334.625 100.68C334.305 102.2 333.625 104.12 332.585 106.44C331.625 108.68 330.105 110.96 328.025 113.28C326.025 115.52 323.345 117.4 319.985 118.92C316.625 120.44 312.385 121.2 307.265 121.2ZM350.139 120V56.4H361.539V64.32H362.019C363.379 61.92 365.379 59.8 368.019 57.96C370.659 56.12 374.379 55.2 379.179 55.2C380.539 55.2 381.779 55.28 382.899 55.44C384.019 55.52 384.579 55.56 384.579 55.56V66.48C384.579 66.48 383.939 66.44 382.659 66.36C381.459 66.2 380.179 66.12 378.819 66.12C373.299 66.12 369.019 67.72 365.979 70.92C363.019 74.04 361.539 79.16 361.539 86.28V120H350.139ZM421.847 121.2C415.047 121.2 409.327 119.64 404.687 116.52C400.047 113.32 396.527 109.2 394.127 104.16C391.727 99.12 390.527 93.8 390.527 88.2C390.527 82.52 391.727 77.2 394.127 72.24C396.527 67.2 400.047 63.12 404.687 60C409.327 56.8 415.047 55.2 421.847 55.2C428.647 55.2 434.367 56.8 439.007 60C443.647 63.12 447.167 67.2 449.567 72.24C451.967 77.2 453.167 82.52 453.167 88.2C453.167 93.8 451.967 99.12 449.567 104.16C447.167 109.2 443.647 113.32 439.007 116.52C434.367 119.64 428.647 121.2 421.847 121.2ZM421.847 111.24C426.167 111.24 429.767 110.16 432.647 108C435.607 105.76 437.807 102.88 439.247 99.36C440.767 95.84 441.527 92.12 441.527 88.2C441.527 84.2 440.767 80.48 439.247 77.04C437.807 73.52 435.607 70.68 432.647 68.52C429.767 66.28 426.167 65.16 421.847 65.16C417.607 65.16 414.007 66.28 411.047 68.52C408.087 70.68 405.847 73.52 404.327 77.04C402.887 80.48 402.167 84.2 402.167 88.2C402.167 92.12 402.887 95.84 404.327 99.36C405.847 102.88 408.087 105.76 411.047 108C414.007 110.16 417.607 111.24 421.847 111.24ZM491.399 121.2C486.519 121.2 482.479 120.52 479.279 119.16C476.159 117.8 473.679 116.12 471.839 114.12C469.999 112.04 468.639 110 467.759 108C466.879 105.92 466.319 104.2 466.079 102.84C465.839 101.48 465.719 100.8 465.719 100.8H477.239C477.239 100.8 477.359 101.36 477.599 102.48C477.919 103.52 478.519 104.76 479.399 106.2C480.359 107.56 481.799 108.8 483.719 109.92C485.719 110.96 488.359 111.48 491.639 111.48C495.399 111.48 498.319 110.6 500.399 108.84C502.479 107 503.519 104.76 503.519 102.12C503.519 99.8 502.679 97.96 500.999 96.6C499.399 95.24 497.079 94.2 494.039 93.48L485.399 91.44C482.199 90.64 479.199 89.56 476.399 88.2C473.599 86.84 471.319 85 469.559 82.68C467.879 80.28 467.039 77.32 467.039 73.8C467.039 68.36 469.079 63.92 473.159 60.48C477.239 56.96 482.559 55.2 489.119 55.2C493.519 55.2 497.159 55.84 500.039 57.12C502.919 58.32 505.199 59.84 506.879 61.68C508.639 63.52 509.919 65.36 510.719 67.2C511.599 69.04 512.159 70.6 512.399 71.88C512.639 73.08 512.759 73.68 512.759 73.68H501.719C501.719 73.68 501.599 73.24 501.359 72.36C501.119 71.4 500.559 70.36 499.679 69.24C498.879 68.04 497.639 67 495.959 66.12C494.279 65.16 492.039 64.68 489.239 64.68C485.399 64.68 482.599 65.56 480.839 67.32C479.079 69.08 478.199 71 478.199 73.08C478.199 75.08 478.999 76.72 480.599 78C482.279 79.2 484.439 80.12 487.079 80.76L495.839 82.8C501.279 84.08 505.759 86.2 509.279 89.16C512.879 92.04 514.679 96.2 514.679 101.64C514.679 105.16 513.759 108.44 511.919 111.48C510.079 114.44 507.439 116.8 503.999 118.56C500.559 120.32 496.359 121.2 491.399 121.2ZM535.896 120V65.76H525.456V56.4H535.896V48.6C535.896 45.24 536.496 41.96 537.696 38.76C538.896 35.48 540.896 32.8 543.696 30.72C546.496 28.64 550.296 27.6 555.096 27.6C557.416 27.6 559.256 27.8 560.616 28.2C562.056 28.52 562.776 28.68 562.776 28.68V37.68C562.776 37.68 562.136 37.56 560.856 37.32C559.656 37 558.256 36.84 556.656 36.84C552.976 36.84 550.496 37.96 549.216 40.2C547.936 42.44 547.296 45.24 547.296 48.6V56.4H562.056V65.76H547.296V120H535.896ZM601.145 121.2C594.585 121.2 589.625 119.52 586.265 116.16C582.985 112.8 581.345 108.08 581.345 102V65.76H569.945V56.4H581.345V40.44H592.745V56.4H608.225V65.76H592.745V102C592.745 105.2 593.625 107.56 595.385 109.08C597.145 110.52 599.705 111.24 603.065 111.24C604.825 111.24 606.505 111.12 608.105 110.88C609.705 110.64 610.505 110.52 610.505 110.52V120.24C610.505 120.24 609.585 120.4 607.745 120.72C605.905 121.04 603.705 121.2 601.145 121.2ZM676.65 120V41.52H648.93V31.2H716.13V41.52H688.41V120H676.65ZM747.515 121.2C742.315 121.2 737.795 120.28 733.955 118.44C730.195 116.52 727.075 113.96 724.595 110.76C722.195 107.56 720.395 104.04 719.195 100.2C717.995 96.28 717.395 92.28 717.395 88.2C717.395 84.2 717.955 80.24 719.075 76.32C720.275 72.4 722.075 68.84 724.475 65.64C726.955 62.44 730.035 59.92 733.715 58.08C737.475 56.16 741.915 55.2 747.035 55.2C752.475 55.2 757.275 56.44 761.435 58.92C765.595 61.4 768.875 65.08 771.275 69.96C773.675 74.84 774.875 80.96 774.875 88.32V91.68H728.915C729.155 95.28 729.995 98.6 731.435 101.64C732.955 104.6 735.075 107 737.795 108.84C740.515 110.6 743.755 111.48 747.515 111.48C750.795 111.48 753.435 110.96 755.435 109.92C757.515 108.8 759.155 107.52 760.355 106.08C761.555 104.64 762.355 103.4 762.755 102.36C763.235 101.24 763.475 100.68 763.475 100.68H774.155C774.155 100.68 773.955 101.4 773.555 102.84C773.155 104.2 772.435 105.88 771.395 107.88C770.355 109.88 768.835 111.92 766.835 114C764.835 116 762.275 117.72 759.155 119.16C756.035 120.52 752.155 121.2 747.515 121.2ZM729.035 82.8H763.715C763.555 78.64 762.675 75.28 761.075 72.72C759.475 70.08 757.435 68.12 754.955 66.84C752.475 65.56 749.835 64.92 747.035 64.92C741.995 64.92 737.875 66.56 734.675 69.84C731.475 73.04 729.595 77.36 729.035 82.8ZM816.845 55.2C820.845 55.2 824.205 55.84 826.925 57.12C829.645 58.4 831.845 59.92 833.525 61.68C835.205 63.36 836.485 64.96 837.365 66.48H838.085V56.4H849.485V120H838.085V109.92H837.365C836.485 111.44 835.205 113.08 833.525 114.84C831.845 116.6 829.645 118.12 826.925 119.4C824.205 120.6 820.845 121.2 816.845 121.2C812.045 121.2 807.845 120.28 804.245 118.44C800.645 116.52 797.645 114 795.245 110.88C792.845 107.68 791.045 104.12 789.845 100.2C788.645 96.28 788.045 92.28 788.045 88.2C788.045 84.12 788.645 80.12 789.845 76.2C791.045 72.28 792.845 68.76 795.245 65.64C797.645 62.44 800.645 59.92 804.245 58.08C807.845 56.16 812.045 55.2 816.845 55.2ZM818.765 64.92C814.525 64.92 810.965 66.08 808.085 68.4C805.205 70.64 803.045 73.52 801.605 77.04C800.245 80.56 799.565 84.28 799.565 88.2C799.565 92.04 800.245 95.76 801.605 99.36C803.045 102.88 805.205 105.8 808.085 108.12C810.965 110.36 814.525 111.48 818.765 111.48C823.005 111.48 826.525 110.36 829.325 108.12C832.205 105.8 834.325 102.88 835.685 99.36C837.125 95.76 837.845 92.04 837.845 88.2C837.845 84.28 837.125 80.56 835.685 77.04C834.325 73.52 832.205 70.64 829.325 68.4C826.525 66.08 823.005 64.92 818.765 64.92ZM865.637 120V56.4H877.037V65.64H877.517C878.157 64.44 879.157 63.04 880.517 61.44C881.877 59.76 883.717 58.32 886.037 57.12C888.437 55.84 891.437 55.2 895.037 55.2C899.757 55.2 903.717 56.36 906.917 58.68C910.197 60.92 912.637 63.96 914.237 67.8H914.357C916.117 64.28 918.597 61.32 921.797 58.92C925.077 56.44 929.317 55.2 934.517 55.2C941.397 55.2 946.677 57.56 950.357 62.28C954.117 66.92 955.997 72.92 955.997 80.28V120H944.597V80.88C944.597 76.16 943.477 72.36 941.237 69.48C938.997 66.52 935.757 65.04 931.517 65.04C927.837 65.04 924.877 66.04 922.637 68.04C920.477 70.04 918.917 72.52 917.957 75.48C916.997 78.44 916.517 81.4 916.517 84.36V120H905.117V80.88C905.117 76.16 903.997 72.36 901.757 69.48C899.597 66.52 896.357 65.04 892.037 65.04C888.357 65.04 885.397 66.04 883.157 68.04C880.997 70.04 879.437 72.56 878.477 75.6C877.517 78.56 877.037 81.48 877.037 84.36V120H865.637ZM995.427 121.2C990.547 121.2 986.507 120.52 983.307 119.16C980.187 117.8 977.707 116.12 975.867 114.12C974.027 112.04 972.667 110 971.787 108C970.907 105.92 970.347 104.2 970.107 102.84C969.867 101.48 969.747 100.8 969.747 100.8H981.267C981.267 100.8 981.387 101.36 981.627 102.48C981.947 103.52 982.547 104.76 983.427 106.2C984.387 107.56 985.827 108.8 987.747 109.92C989.747 110.96 992.387 111.48 995.667 111.48C999.427 111.48 1002.35 110.6 1004.43 108.84C1006.51 107 1007.55 104.76 1007.55 102.12C1007.55 99.8 1006.71 97.96 1005.03 96.6C1003.43 95.24 1001.11 94.2 998.067 93.48L989.427 91.44C986.227 90.64 983.227 89.56 980.427 88.2C977.627 86.84 975.347 85 973.587 82.68C971.907 80.28 971.067 77.32 971.067 73.8C971.067 68.36 973.107 63.92 977.187 60.48C981.267 56.96 986.587 55.2 993.147 55.2C997.547 55.2 1001.19 55.84 1004.07 57.12C1006.95 58.32 1009.23 59.84 1010.91 61.68C1012.67 63.52 1013.95 65.36 1014.75 67.2C1015.63 69.04 1016.19 70.6 1016.43 71.88C1016.67 73.08 1016.79 73.68 1016.79 73.68H1005.75C1005.75 73.68 1005.63 73.24 1005.39 72.36C1005.15 71.4 1004.59 70.36 1003.71 69.24C1002.91 68.04 1001.67 67 999.987 66.12C998.307 65.16 996.067 64.68 993.267 64.68C989.427 64.68 986.627 65.56 984.867 67.32C983.107 69.08 982.227 71 982.227 73.08C982.227 75.08 983.027 76.72 984.627 78C986.307 79.2 988.467 80.12 991.107 80.76L999.867 82.8C1005.31 84.08 1009.79 86.2 1013.31 89.16C1016.91 92.04 1018.71 96.2 1018.71 101.64C1018.71 105.16 1017.79 108.44 1015.95 111.48C1014.11 114.44 1011.47 116.8 1008.03 118.56C1004.59 120.32 1000.39 121.2 995.427 121.2Z" fill="#253858"/>
<defs>
<linearGradient id="paint0_linear_6_13" x1="54.7795" y1="37.2762" x2="30.0446" y2="62.0111" gradientUnits="userSpaceOnUse">
<stop offset="0.18" stop-color="#0052CC"/>
<stop offset="1" stop-color="#2684FF"/>
</linearGradient>
<linearGradient id="paint1_linear_6_13" x1="1564.85" y1="3686.95" x2="2419.14" y2="3133.28" gradientUnits="userSpaceOnUse">
<stop offset="0.18" stop-color="#0052CC"/>
<stop offset="1" stop-color="#2684FF"/>
</linearGradient>
</defs>
</svg>
