<svg width="1100" height="152" viewBox="0 0 1100 152" fill="none" xmlns="http://www.w3.org/2000/svg">
<path d="M114.497 69.5549L62.94 17.9976L57.9424 13L19.1321 51.8103L1.38756 69.5549C0.499059 70.4445 0 71.6504 0 72.9077C0 74.165 0.499059 75.3709 1.38756 76.2605L36.8451 111.718L57.9424 132.815L96.7527 94.005L97.3537 93.4041L114.497 76.2605C115.386 75.3709 115.885 74.165 115.885 72.9077C115.885 71.6504 115.386 70.4445 114.497 69.5549V69.5549ZM57.9424 90.6206L40.2295 72.9077L57.9424 55.1947L75.6554 72.9077L57.9424 90.6206Z" fill="#2684FF"/>
<path d="M57.9425 55.1947C52.3715 49.6231 49.2313 42.0736 49.2076 34.1946C49.1839 26.3157 52.2786 18.7474 57.816 13.1423L19.0531 51.8894L40.1505 72.9867L57.9425 55.1947Z" fill="url(#paint0_linear_6_13)"/>
<path d="M75.7028 72.8602L57.9424 90.6206C60.714 93.3906 62.9126 96.6795 64.4127 100.299C65.9128 103.919 66.6849 107.8 66.6849 111.718C66.6849 115.636 65.9128 119.517 64.4127 123.136C62.9126 126.756 60.714 130.045 57.9424 132.815L96.8001 93.9576L75.7028 72.8602Z" fill="url(#paint1_linear_6_13)"/>
<path d="M145.6 120V31.2H161.08L187.24 84L213.28 31.2H228.76V120H217.24V48.48L192.76 97.2H181.6L157.12 48.24V120H145.6ZM253.545 44.28C251.385 44.28 249.585 43.56 248.145 42.12C246.785 40.68 246.105 38.96 246.105 36.96C246.105 34.88 246.785 33.12 248.145 31.68C249.585 30.24 251.385 29.52 253.545 29.52C255.625 29.52 257.385 30.24 258.825 31.68C260.265 33.12 260.985 34.88 260.985 36.96C260.985 38.96 260.265 40.68 258.825 42.12C257.385 43.56 255.625 44.28 253.545 44.28ZM247.905 120V56.4H259.305V120H247.905ZM307.265 121.2C302.065 121.2 297.505 120.28 293.585 118.44C289.665 116.52 286.385 114 283.745 110.88C281.185 107.68 279.225 104.12 277.865 100.2C276.585 96.28 275.945 92.28 275.945 88.2C275.945 84.12 276.585 80.16 277.865 76.32C279.145 72.4 281.065 68.84 283.625 65.64C286.265 62.44 289.545 59.92 293.465 58.08C297.385 56.16 301.985 55.2 307.265 55.2C312.385 55.2 316.625 55.96 319.985 57.48C323.345 59 326.025 60.92 328.025 63.24C330.105 65.48 331.625 67.76 332.585 70.08C333.625 72.32 334.305 74.2 334.625 75.72C334.945 77.24 335.105 78 335.105 78H324.065C324.065 78 323.865 77.36 323.465 76.08C323.065 74.72 322.305 73.2 321.185 71.52C320.065 69.84 318.385 68.36 316.145 67.08C313.905 65.72 310.945 65.04 307.265 65.04C302.865 65.04 299.145 66.16 296.105 68.4C293.145 70.56 290.905 73.4 289.385 76.92C287.945 80.44 287.225 84.2 287.225 88.2C287.225 92.2 287.945 95.96 289.385 99.48C290.905 103 293.145 105.88 296.105 108.12C299.145 110.28 302.865 111.36 307.265 111.36C310.945 111.36 313.905 110.72 316.145 109.44C318.385 108.08 320.065 106.56 321.185 104.88C322.305 103.2 323.065 101.72 323.465 100.44C323.865 99.08 324.065 98.4 324.065 98.4H335.105C335.105 98.4 334.945 99.16 334.625 100.68C334.305 102.2 333.625 104.12 332.585 106.44C331.625 108.68 330.105 110.96 328.025 113.28C326.025 115.52 323.345 117.4 319.985 118.92C316.625 120.44 312.385 121.2 307.265 121.2ZM350.139 120V56.4H361.539V64.32H362.019C363.379 61.92 365.379 59.8 368.019 57.96C370.659 56.12 374.379 55.2 379.179 55.2C380.539 55.2 381.779 55.28 382.899 55.44C384.019 55.52 384.579 55.56 384.579 55.56V66.48C384.579 66.48 383.939 66.44 382.659 66.36C381.459 66.2 380.179 66.12 378.819 66.12C373.299 66.12 369.019 67.72 365.979 70.92C363.019 74.04 361.539 79.16 361.539 86.28V120H350.139ZM421.847 121.2C415.047 121.2 409.327 119.64 404.687 116.52C400.047 113.32 396.527 109.2 394.127 104.16C391.727 99.12 390.527 93.8 390.527 88.2C390.527 82.52 391.727 77.2 394.127 72.24C396.527 67.2 400.047 63.12 404.687 60C409.327 56.8 415.047 55.2 421.847 55.2C428.647 55.2 434.367 56.8 439.007 60C443.647 63.12 447.167 67.2 449.567 72.24C451.967 77.2 453.167 82.52 453.167 88.2C453.167 93.8 451.967 99.12 449.567 104.16C447.167 109.2 443.647 113.32 439.007 116.52C434.367 119.64 428.647 121.2 421.847 121.2ZM421.847 111.24C426.167 111.24 429.767 110.16 432.647 108C435.607 105.76 437.807 102.88 439.247 99.36C440.767 95.84 441.527 92.12 441.527 88.2C441.527 84.2 440.767 80.48 439.247 77.04C437.807 73.52 435.607 70.68 432.647 68.52C429.767 66.28 426.167 65.16 421.847 65.16C417.607 65.16 414.007 66.28 411.047 68.52C408.087 70.68 405.847 73.52 404.327 77.04C402.887 80.48 402.167 84.2 402.167 88.2C402.167 92.12 402.887 95.84 404.327 99.36C405.847 102.88 408.087 105.76 411.047 108C414.007 110.16 417.607 111.24 421.847 111.24ZM491.399 121.2C486.519 121.2 482.479 120.52 479.279 119.16C476.159 117.8 473.679 116.12 471.839 114.12C469.999 112.04 468.639 110 467.759 108C466.879 105.92 466.319 104.2 466.079 102.84C465.839 101.48 465.719 100.8 465.719 100.8H477.239C477.239 100.8 477.359 101.36 477.599 102.48C477.919 103.52 478.519 104.76 479.399 106.2C480.359 107.56 481.799 108.8 483.719 109.92C485.719 110.96 488.359 111.48 491.639 111.48C495.399 111.48 498.319 110.6 500.399 108.84C502.479 107 503.519 104.76 503.519 102.12C503.519 99.8 502.679 97.96 500.999 96.6C499.399 95.24 497.079 94.2 494.039 93.48L485.399 91.44C482.199 90.64 479.199 89.56 476.399 88.2C473.599 86.84 471.319 85 469.559 82.68C467.879 80.28 467.039 77.32 467.039 73.8C467.039 68.36 469.079 63.92 473.159 60.48C477.239 56.96 482.559 55.2 489.119 55.2C493.519 55.2 497.159 55.84 500.039 57.12C502.919 58.32 505.199 59.84 506.879 61.68C508.639 63.52 509.919 65.36 510.719 67.2C511.599 69.04 512.159 70.6 512.399 71.88C512.639 73.08 512.759 73.68 512.759 73.68H501.719C501.719 73.68 501.599 73.24 501.359 72.36C501.119 71.4 500.559 70.36 499.679 69.24C498.879 68.04 497.639 67 495.959 66.12C494.279 65.16 492.039 64.68 489.239 64.68C485.399 64.68 482.599 65.56 480.839 67.32C479.079 69.08 478.199 71 478.199 73.08C478.199 75.08 478.999 76.72 480.599 78C482.279 79.2 484.439 80.12 487.079 80.76L495.839 82.8C501.279 84.08 505.759 86.2 509.279 89.16C512.879 92.04 514.679 96.2 514.679 101.64C514.679 105.16 513.759 108.44 511.919 111.48C510.079 114.44 507.439 116.8 503.999 118.56C500.559 120.32 496.359 121.2 491.399 121.2ZM557.404 121.2C550.604 121.2 544.884 119.64 540.244 116.52C535.604 113.32 532.084 109.2 529.684 104.16C527.284 99.12 526.084 93.8 526.084 88.2C526.084 82.52 527.284 77.2 529.684 72.24C532.084 67.2 535.604 63.12 540.244 60C544.884 56.8 550.604 55.2 557.404 55.2C564.204 55.2 569.924 56.8 574.564 60C579.204 63.12 582.724 67.2 585.124 72.24C587.524 77.2 588.724 82.52 588.724 88.2C588.724 93.8 587.524 99.12 585.124 104.16C582.724 109.2 579.204 113.32 574.564 116.52C569.924 119.64 564.204 121.2 557.404 121.2ZM557.404 111.24C561.724 111.24 565.324 110.16 568.204 108C571.164 105.76 573.364 102.88 574.804 99.36C576.324 95.84 577.084 92.12 577.084 88.2C577.084 84.2 576.324 80.48 574.804 77.04C573.364 73.52 571.164 70.68 568.204 68.52C565.324 66.28 561.724 65.16 557.404 65.16C553.164 65.16 549.564 66.28 546.604 68.52C543.644 70.68 541.404 73.52 539.884 77.04C538.444 80.48 537.724 84.2 537.724 88.2C537.724 92.12 538.444 95.84 539.884 99.36C541.404 102.88 543.644 105.76 546.604 108C549.564 110.16 553.164 111.24 557.404 111.24ZM611.117 120V65.76H600.677V56.4H611.117V48.6C611.117 45.24 611.717 41.96 612.917 38.76C614.117 35.48 616.117 32.8 618.917 30.72C621.717 28.64 625.517 27.6 630.317 27.6C632.637 27.6 634.477 27.8 635.837 28.2C637.277 28.52 637.997 28.68 637.997 28.68V37.68C637.997 37.68 637.357 37.56 636.077 37.32C634.877 37 633.477 36.84 631.877 36.84C628.197 36.84 625.717 37.96 624.437 40.2C623.157 42.44 622.517 45.24 622.517 48.6V56.4H637.277V65.76H622.517V120H611.117ZM676.366 121.2C669.806 121.2 664.846 119.52 661.486 116.16C658.206 112.8 656.566 108.08 656.566 102V65.76H645.166V56.4H656.566V40.44H667.966V56.4H683.446V65.76H667.966V102C667.966 105.2 668.846 107.56 670.606 109.08C672.366 110.52 674.926 111.24 678.286 111.24C680.046 111.24 681.726 111.12 683.326 110.88C684.926 110.64 685.726 110.52 685.726 110.52V120.24C685.726 120.24 684.806 120.4 682.966 120.72C681.126 121.04 678.926 121.2 676.366 121.2ZM751.87 120V41.52H724.15V31.2H791.35V41.52H763.63V120H751.87ZM822.736 121.2C817.536 121.2 813.016 120.28 809.176 118.44C805.416 116.52 802.296 113.96 799.816 110.76C797.416 107.56 795.616 104.04 794.416 100.2C793.216 96.28 792.616 92.28 792.616 88.2C792.616 84.2 793.176 80.24 794.296 76.32C795.496 72.4 797.296 68.84 799.696 65.64C802.176 62.44 805.256 59.92 808.936 58.08C812.696 56.16 817.136 55.2 822.256 55.2C827.696 55.2 832.496 56.44 836.656 58.92C840.816 61.4 844.096 65.08 846.496 69.96C848.896 74.84 850.096 80.96 850.096 88.32V91.68H804.136C804.376 95.28 805.216 98.6 806.656 101.64C808.176 104.6 810.296 107 813.016 108.84C815.736 110.6 818.976 111.48 822.736 111.48C826.016 111.48 828.656 110.96 830.656 109.92C832.736 108.8 834.376 107.52 835.576 106.08C836.776 104.64 837.576 103.4 837.976 102.36C838.456 101.24 838.696 100.68 838.696 100.68H849.376C849.376 100.68 849.176 101.4 848.776 102.84C848.376 104.2 847.656 105.88 846.616 107.88C845.576 109.88 844.056 111.92 842.056 114C840.056 116 837.496 117.72 834.376 119.16C831.256 120.52 827.376 121.2 822.736 121.2ZM804.256 82.8H838.936C838.776 78.64 837.896 75.28 836.296 72.72C834.696 70.08 832.656 68.12 830.176 66.84C827.696 65.56 825.056 64.92 822.256 64.92C817.216 64.92 813.096 66.56 809.896 69.84C806.696 73.04 804.816 77.36 804.256 82.8ZM892.066 55.2C896.066 55.2 899.426 55.84 902.146 57.12C904.866 58.4 907.066 59.92 908.746 61.68C910.426 63.36 911.706 64.96 912.586 66.48H913.306V56.4H924.706V120H913.306V109.92H912.586C911.706 111.44 910.426 113.08 908.746 114.84C907.066 116.6 904.866 118.12 902.146 119.4C899.426 120.6 896.066 121.2 892.066 121.2C887.266 121.2 883.066 120.28 879.466 118.44C875.866 116.52 872.866 114 870.466 110.88C868.066 107.68 866.266 104.12 865.066 100.2C863.866 96.28 863.266 92.28 863.266 88.2C863.266 84.12 863.866 80.12 865.066 76.2C866.266 72.28 868.066 68.76 870.466 65.64C872.866 62.44 875.866 59.92 879.466 58.08C883.066 56.16 887.266 55.2 892.066 55.2ZM893.986 64.92C889.746 64.92 886.186 66.08 883.306 68.4C880.426 70.64 878.266 73.52 876.826 77.04C875.466 80.56 874.786 84.28 874.786 88.2C874.786 92.04 875.466 95.76 876.826 99.36C878.266 102.88 880.426 105.8 883.306 108.12C886.186 110.36 889.746 111.48 893.986 111.48C898.226 111.48 901.746 110.36 904.546 108.12C907.426 105.8 909.546 102.88 910.906 99.36C912.346 95.76 913.066 92.04 913.066 88.2C913.066 84.28 912.346 80.56 910.906 77.04C909.546 73.52 907.426 70.64 904.546 68.4C901.746 66.08 898.226 64.92 893.986 64.92ZM940.858 120V56.4H952.258V65.64H952.738C953.378 64.44 954.378 63.04 955.738 61.44C957.098 59.76 958.938 58.32 961.258 57.12C963.658 55.84 966.658 55.2 970.258 55.2C974.978 55.2 978.938 56.36 982.138 58.68C985.418 60.92 987.858 63.96 989.458 67.8H989.578C991.338 64.28 993.818 61.32 997.018 58.92C1000.3 56.44 1004.54 55.2 1009.74 55.2C1016.62 55.2 1021.9 57.56 1025.58 62.28C1029.34 66.92 1031.22 72.92 1031.22 80.28V120H1019.82V80.88C1019.82 76.16 1018.7 72.36 1016.46 69.48C1014.22 66.52 1010.98 65.04 1006.74 65.04C1003.06 65.04 1000.1 66.04 997.858 68.04C995.698 70.04 994.138 72.52 993.178 75.48C992.218 78.44 991.738 81.4 991.738 84.36V120H980.338V80.88C980.338 76.16 979.218 72.36 976.978 69.48C974.818 66.52 971.578 65.04 967.258 65.04C963.578 65.04 960.618 66.04 958.378 68.04C956.218 70.04 954.658 72.56 953.698 75.6C952.738 78.56 952.258 81.48 952.258 84.36V120H940.858ZM1070.65 121.2C1065.77 121.2 1061.73 120.52 1058.53 119.16C1055.41 117.8 1052.93 116.12 1051.09 114.12C1049.25 112.04 1047.89 110 1047.01 108C1046.13 105.92 1045.57 104.2 1045.33 102.84C1045.09 101.48 1044.97 100.8 1044.97 100.8H1056.49C1056.49 100.8 1056.61 101.36 1056.85 102.48C1057.17 103.52 1057.77 104.76 1058.65 106.2C1059.61 107.56 1061.05 108.8 1062.97 109.92C1064.97 110.96 1067.61 111.48 1070.89 111.48C1074.65 111.48 1077.57 110.6 1079.65 108.84C1081.73 107 1082.77 104.76 1082.77 102.12C1082.77 99.8 1081.93 97.96 1080.25 96.6C1078.65 95.24 1076.33 94.2 1073.29 93.48L1064.65 91.44C1061.45 90.64 1058.45 89.56 1055.65 88.2C1052.85 86.84 1050.57 85 1048.81 82.68C1047.13 80.28 1046.29 77.32 1046.29 73.8C1046.29 68.36 1048.33 63.92 1052.41 60.48C1056.49 56.96 1061.81 55.2 1068.37 55.2C1072.77 55.2 1076.41 55.84 1079.29 57.12C1082.17 58.32 1084.45 59.84 1086.13 61.68C1087.89 63.52 1089.17 65.36 1089.97 67.2C1090.85 69.04 1091.41 70.6 1091.65 71.88C1091.89 73.08 1092.01 73.68 1092.01 73.68H1080.97C1080.97 73.68 1080.85 73.24 1080.61 72.36C1080.37 71.4 1079.81 70.36 1078.93 69.24C1078.13 68.04 1076.89 67 1075.21 66.12C1073.53 65.16 1071.29 64.68 1068.49 64.68C1064.65 64.68 1061.85 65.56 1060.09 67.32C1058.33 69.08 1057.45 71 1057.45 73.08C1057.45 75.08 1058.25 76.72 1059.85 78C1061.53 79.2 1063.69 80.12 1066.33 80.76L1075.09 82.8C1080.53 84.08 1085.01 86.2 1088.53 89.16C1092.13 92.04 1093.93 96.2 1093.93 101.64C1093.93 105.16 1093.01 108.44 1091.17 111.48C1089.33 114.44 1086.69 116.8 1083.25 118.56C1079.81 120.32 1075.61 121.2 1070.65 121.2Z" fill="#253858"/>
<defs>
<linearGradient id="paint0_linear_6_13" x1="54.7795" y1="37.2762" x2="30.0446" y2="62.0111" gradientUnits="userSpaceOnUse">
<stop offset="0.18" stop-color="#0052CC"/>
<stop offset="1" stop-color="#2684FF"/>
</linearGradient>
<linearGradient id="paint1_linear_6_13" x1="1564.85" y1="3686.95" x2="2419.14" y2="3133.28" gradientUnits="userSpaceOnUse">
<stop offset="0.18" stop-color="#0052CC"/>
<stop offset="1" stop-color="#2684FF"/>
</linearGradient>
</defs>
</svg>
