<svg width="402" height="138" viewBox="0 0 402 138" fill="none" xmlns="http://www.w3.org/2000/svg">
<path d="M77.224 110.288C75.944 110.288 75.304 109.936 75.304 109.232C75.304 108.848 75.464 108.56 75.784 108.368C76.168 108.176 76.744 107.952 77.512 107.696C78.92 107.248 79.944 106.832 80.584 106.448C81.288 106 81.64 105.2 81.64 104.048V83.408C81.64 81.36 81.384 79.76 80.872 78.608C80.424 77.456 79.464 76.752 77.992 76.496C77.416 76.368 77.128 75.952 77.128 75.248C77.128 74.608 77.384 74.224 77.896 74.096C79.624 73.648 81 73.2 82.024 72.752C83.048 72.24 84.232 71.504 85.576 70.544L87.688 69.104C87.752 69.104 87.848 69.04 87.976 68.912C88.168 68.784 88.36 68.72 88.552 68.72C88.68 68.72 88.808 68.784 88.936 68.912C89.064 69.04 89.128 69.2 89.128 69.392L88.936 71.408C88.872 71.92 88.808 72.56 88.744 73.328C88.68 74.032 88.648 74.768 88.648 75.536C88.648 76.176 88.712 76.56 88.84 76.688H89.032C93.448 72.4 98.44 70.256 104.008 70.256C106.376 70.256 108.328 70.768 109.864 71.792C111.4 72.816 112.648 74.512 113.608 76.88H113.896C118.888 72.464 124.104 70.256 129.544 70.256C132.488 70.256 134.824 71.6 136.552 74.288C138.28 76.912 139.144 80.016 139.144 83.6V104.048C139.144 105.2 139.464 106 140.104 106.448C140.808 106.832 141.864 107.248 143.272 107.696C144.04 107.952 144.584 108.176 144.904 108.368C145.288 108.56 145.48 108.848 145.48 109.232C145.48 109.616 145.32 109.872 145 110C144.744 110.192 144.264 110.288 143.56 110.288C141.832 110.288 140.488 110.192 139.528 110C138.248 109.872 137.064 109.808 135.976 109.808C134.824 109.808 133.608 109.872 132.328 110C131.176 110.192 129.736 110.288 128.008 110.288C126.728 110.288 126.088 109.936 126.088 109.232C126.088 108.784 126.248 108.464 126.568 108.272C126.952 108.08 127.528 107.888 128.296 107.696C129.64 107.376 130.664 106.992 131.368 106.544C132.072 106.032 132.424 105.2 132.424 104.048V83.888C132.424 81.52 131.656 79.408 130.12 77.552C128.584 75.696 126.792 74.768 124.744 74.768C121.352 74.768 118.568 75.632 116.392 77.36C114.6 78.768 113.704 81.072 113.704 84.272V104.048C113.704 105.2 114.088 106.032 114.856 106.544C115.624 106.992 116.68 107.376 118.024 107.696C119.496 108.016 120.232 108.528 120.232 109.232C120.232 109.936 119.592 110.288 118.312 110.288C116.584 110.288 115.176 110.192 114.088 110C112.68 109.872 111.464 109.808 110.44 109.808C109.288 109.808 108.072 109.872 106.792 110C105.64 110.192 104.2 110.288 102.472 110.288C101.192 110.288 100.552 109.936 100.552 109.232C100.552 108.848 100.68 108.592 100.936 108.464C101.256 108.272 101.576 108.112 101.896 107.984C102.28 107.856 102.568 107.76 102.76 107.696C104.232 107.248 105.288 106.832 105.928 106.448C106.632 106 106.984 105.2 106.984 104.048V83.888C106.984 81.52 106.216 79.408 104.68 77.552C103.144 75.696 101.352 74.768 99.304 74.768C95.912 74.768 93.128 75.632 90.952 77.36C89.224 78.64 88.36 80.944 88.36 84.272V104.048C88.36 105.2 88.68 106 89.32 106.448C90.024 106.832 91.08 107.248 92.488 107.696C92.68 107.76 92.968 107.856 93.352 107.984C93.8 108.112 94.12 108.272 94.312 108.464C94.568 108.656 94.696 108.912 94.696 109.232C94.696 109.936 94.056 110.288 92.776 110.288C91.112 110.288 89.736 110.192 88.648 110C87.24 109.872 86.024 109.808 85 109.808C83.976 109.808 82.76 109.872 81.352 110C80.328 110.192 78.952 110.288 77.224 110.288ZM150.019 137.36C148.611 137.36 147.427 137.04 146.467 136.4C145.571 135.76 145.123 134.768 145.123 133.424C145.123 132.208 145.411 131.184 145.987 130.352C146.563 129.52 147.331 129.104 148.291 129.104C148.803 129.104 149.475 129.2 150.307 129.392C151.203 129.584 151.811 129.68 152.131 129.68C152.899 129.68 153.507 129.328 153.955 128.624C155.171 126.768 156.515 124.304 157.987 121.232C159.459 118.224 160.835 114.992 162.115 111.536C162.307 110.96 162.403 110.224 162.403 109.328C162.403 108.176 162.275 107.248 162.019 106.544L150.883 78.416C149.795 75.792 148.355 74.224 146.563 73.712C145.795 73.456 145.219 73.232 144.835 73.04C144.515 72.784 144.355 72.432 144.355 71.984C144.355 71.408 144.995 71.12 146.275 71.12C147.939 71.12 149.187 71.216 150.019 71.408C151.171 71.536 152.259 71.6 153.283 71.6C154.371 71.6 155.491 71.536 156.643 71.408C157.603 71.216 158.915 71.12 160.579 71.12C161.027 71.12 161.443 71.216 161.827 71.408C162.275 71.6 162.499 71.856 162.499 72.176C162.499 72.624 162.179 73.04 161.539 73.424C160.963 73.808 160.355 74.096 159.715 74.288C159.011 74.48 158.499 74.832 158.179 75.344C157.923 75.792 157.795 76.464 157.795 77.36C157.795 77.936 158.051 78.832 158.563 80.048L166.339 99.248C166.467 99.632 166.659 99.824 166.915 99.824C167.107 99.824 167.267 99.632 167.395 99.248L174.019 81.68C174.211 81.232 174.371 80.656 174.499 79.952C174.691 79.184 174.787 78.576 174.787 78.128C174.787 77.04 174.627 76.24 174.307 75.728C173.987 75.152 173.507 74.736 172.867 74.48C171.011 73.648 170.083 72.88 170.083 72.176C170.083 71.856 170.275 71.6 170.659 71.408C171.107 71.216 171.555 71.12 172.003 71.12C172.323 71.12 173.059 71.184 174.211 71.312C176.515 71.504 178.051 71.6 178.819 71.6C179.715 71.6 180.931 71.504 182.467 71.312C183.235 71.184 183.907 71.12 184.483 71.12C185.763 71.12 186.403 71.408 186.403 71.984C186.403 72.432 186.211 72.784 185.827 73.04C185.507 73.232 184.963 73.456 184.195 73.712C183.235 74.032 182.211 74.8 181.123 76.016C180.035 77.232 179.171 78.608 178.531 80.144L165.475 111.248L164.035 114.8C160.067 124.4 157.475 130.608 156.259 133.424C155.683 134.704 154.851 135.664 153.763 136.304C152.675 137.008 151.427 137.36 150.019 137.36Z" fill="#414044"/>
<path d="M225.252 111.44C219.748 111.44 215.044 109.968 211.14 107.024C210.308 106.32 209.828 105.648 209.7 105.008C208.996 102.96 208.58 99.152 208.452 93.584C208.452 93.136 208.612 92.816 208.932 92.624C209.316 92.368 209.796 92.24 210.372 92.24C211.268 92.24 211.844 92.624 212.1 93.392C213.38 98.064 215.3 101.648 217.859 104.144C220.484 106.64 223.396 107.888 226.596 107.888C229.796 107.888 232.356 106.864 234.276 104.816C236.26 102.768 237.252 100.176 237.252 97.04C237.252 94.736 236.836 92.816 236.004 91.28C235.236 89.68 234.148 88.336 232.74 87.248C231.332 86.096 229.22 84.688 226.404 83.024C222.564 80.72 219.652 78.864 217.668 77.456C215.748 76.048 214.052 74.256 212.58 72.08C211.108 69.84 210.372 67.184 210.372 64.112C210.372 60.72 211.204 57.68 212.868 54.992C214.532 52.24 216.932 50.096 220.068 48.56C223.268 47.024 227.012 46.256 231.3 46.256C235.012 46.256 238.628 46.992 242.148 48.464C243.236 48.912 243.972 49.776 244.356 51.056C245.444 55.408 245.988 58.8 245.988 61.232C245.988 61.552 245.828 61.808 245.508 62C245.252 62.192 244.9 62.288 244.452 62.288C243.876 62.288 243.332 62.16 242.82 61.904C242.308 61.648 241.988 61.328 241.86 60.944C240.58 57.296 238.948 54.576 236.964 52.784C235.044 50.928 232.708 50 229.956 50C226.82 50 224.292 50.832 222.372 52.496C220.516 54.16 219.588 56.72 219.588 60.176C219.588 62.544 220.644 64.688 222.756 66.608C224.868 68.464 228.26 70.8 232.932 73.616C237.604 76.496 241.092 79.312 243.396 82.064C245.7 84.752 246.852 88.208 246.852 92.432C246.852 98.384 244.9 103.056 240.996 106.448C237.092 109.776 231.844 111.44 225.252 111.44ZM321.694 133.808C317.534 133.808 313.662 133.168 310.078 131.888C306.558 130.672 303.166 128.88 299.902 126.512L298.27 125.36C293.086 121.712 288.83 118.48 285.502 115.664C282.302 112.976 278.654 110.768 274.558 109.04C268.734 106.48 263.934 102.864 260.158 98.192C256.382 93.456 254.494 87.312 254.494 79.76C254.494 73.872 255.774 68.368 258.334 63.248C260.958 58.128 264.766 54.032 269.758 50.96C274.814 47.824 280.798 46.256 287.71 46.256C293.47 46.256 298.814 47.6 303.742 50.288C308.734 52.912 312.702 56.624 315.646 61.424C318.654 66.224 320.158 71.696 320.158 77.84C320.158 82.64 319.294 87.184 317.566 91.472C315.902 95.76 313.374 99.504 309.982 102.704C306.654 105.904 302.622 108.24 297.886 109.712C297.31 109.904 297.022 110.16 297.022 110.48C297.022 110.736 297.182 111.024 297.502 111.344C300.702 114.736 304.542 118.128 309.022 121.52C312.158 123.824 315.102 125.456 317.854 126.416C320.606 127.376 323.678 127.856 327.07 127.856C329.246 127.856 330.814 127.696 331.774 127.376C332.35 127.184 332.99 127.088 333.694 127.088C334.782 127.088 335.326 127.472 335.326 128.24C335.326 128.816 335.198 129.264 334.942 129.584C334.686 129.968 334.206 130.384 333.502 130.832C330.174 132.816 326.238 133.808 321.694 133.808ZM288.382 107.216C294.974 107.216 299.966 105.04 303.358 100.688C306.814 96.336 308.542 90.32 308.542 82.64C308.542 76.688 307.678 71.312 305.95 66.512C304.286 61.648 301.758 57.776 298.366 54.896C295.038 52.016 290.942 50.576 286.078 50.576C279.614 50.576 274.654 52.752 271.198 57.104C267.806 61.392 266.11 67.312 266.11 74.864C266.11 80.816 266.942 86.256 268.606 91.184C270.27 96.048 272.766 99.952 276.094 102.896C279.486 105.776 283.582 107.216 288.382 107.216ZM328.675 110.48C327.907 110.48 327.299 110.352 326.851 110.096C326.467 109.84 326.275 109.552 326.275 109.232C326.275 108.528 326.947 107.952 328.291 107.504C330.851 106.928 332.675 106.16 333.763 105.2C334.915 104.24 335.491 102.768 335.491 100.784V56.528C335.491 54.992 335.331 53.872 335.011 53.168C334.691 52.4 334.147 51.824 333.379 51.44C332.611 51.056 331.331 50.704 329.539 50.384C327.683 50 326.755 49.36 326.755 48.464C326.755 47.632 327.587 47.216 329.251 47.216C330.979 47.216 333.123 47.28 335.683 47.408C337.987 47.536 339.779 47.6 341.059 47.6L347.203 47.504C350.019 47.376 352.259 47.312 353.923 47.312C355.523 47.312 356.323 47.696 356.323 48.464C356.323 49.36 355.395 50 353.539 50.384C350.659 51.024 348.611 51.696 347.395 52.4C346.243 53.104 345.667 54.32 345.667 56.048V100.496C345.667 102.48 346.115 103.92 347.011 104.816C347.971 105.648 349.731 106.064 352.291 106.064H363.427C364.963 106.064 366.339 105.84 367.555 105.392C368.835 104.88 369.891 104.272 370.723 103.568C371.875 102.48 372.803 101.456 373.507 100.496C374.211 99.472 374.947 98.128 375.715 96.464C376.227 95.44 376.643 94.704 376.963 94.256C377.283 93.744 377.635 93.488 378.019 93.488C378.403 93.488 378.691 93.68 378.883 94.064C379.139 94.448 379.267 94.864 379.267 95.312C379.267 95.504 379.235 95.696 379.171 95.888C379.107 96.016 379.075 96.176 379.075 96.368C378.179 99.568 377.539 101.968 377.155 103.568C376.835 105.104 376.579 106.832 376.387 108.752C376.259 109.904 375.779 110.48 374.947 110.48C371.619 110.48 366.115 110.416 358.435 110.288C352.803 110.096 347.299 110 341.923 110C338.915 110 335.491 110.128 331.651 110.384L328.675 110.48Z" fill="#C0BDBA"/>
<path d="M32.2344 130.278L28.7346 129.121C28.7346 129.121 29.1809 111.435 22.7926 110.197C18.58 105.324 23.441 -97.9773 38.7446 109.5C38.7446 109.5 33.5066 112.126 32.5151 116.586C31.5239 121.048 32.2344 130.278 32.2344 130.278" fill="url(#paint0_linear_2_37)"/>
<path d="M34.1213 113.199C34.1213 113.199 64.5329 93.2008 57.4082 51.6677C50.5468 21.493 34.3471 11.5733 32.6063 7.78629C30.6899 5.1061 28.7596 0.355711 28.7596 0.355711L30.0532 84.431C30.0532 84.431 27.3775 110.103 34.1213 113.199" fill="url(#paint1_linear_2_37)"/>
<path d="M26.9541 114.317C26.9541 114.317 -1.57304 94.8865 0.0681964 60.6033C1.71001 26.319 21.8585 9.4623 25.7828 6.40423C28.3199 3.70421 28.4248 2.66386 28.621 -2.71727e-06C30.3991 3.81384 30.1035 56.9653 30.2919 63.1778C31.0229 87.3614 28.9504 109.752 26.9541 114.317" fill="url(#paint2_linear_2_37)"/>
<path d="M392.794 101.993H394.42C395.735 101.993 396.235 101.536 396.235 100.349C396.235 99.1427 395.755 98.7452 394.274 98.7452H392.794V101.993ZM396.255 107.093L394.338 102.971H392.794V107.093H391.668V97.7254H394.443C396.506 97.7254 397.361 98.6426 397.361 100.349C397.361 101.721 396.713 102.596 395.506 102.847L397.485 107.092L396.255 107.093ZM394.442 95.6662C390.667 95.6662 387.666 98.6426 387.666 102.431C387.665 103.316 387.839 104.192 388.178 105.01C388.517 105.828 389.015 106.57 389.642 107.195C390.27 107.82 391.015 108.315 391.835 108.651C392.655 108.987 393.534 109.158 394.42 109.153C395.305 109.156 396.182 108.983 397 108.646C397.818 108.309 398.561 107.814 399.187 107.189C399.813 106.564 400.309 105.822 400.646 105.005C400.984 104.189 401.157 103.313 401.155 102.43C401.155 98.6221 398.237 95.6662 394.442 95.6662ZM394.42 109.821C390.252 109.821 387 106.573 387 102.41C387 98.2255 390.252 95 394.442 95C398.529 95 401.842 98.2675 401.842 102.305C401.842 106.53 398.591 109.82 394.42 109.82" fill="#C0BDBA"/>
<defs>
<linearGradient id="paint0_linear_2_37" x1="9.0839" y1="66.4431" x2="49.2795" y2="80.0961" gradientUnits="userSpaceOnUse">
<stop stop-color="#929669"/>
<stop offset="0.231" stop-color="#929669"/>
<stop offset="1" stop-color="#FDFCF1"/>
</linearGradient>
<linearGradient id="paint1_linear_2_37" x1="23.8223" y1="1.14648" x2="41.5684" y2="112.007" gradientUnits="userSpaceOnUse">
<stop stop-color="#45AA3A"/>
<stop offset="1" stop-color="#3D9439"/>
</linearGradient>
<linearGradient id="paint2_linear_2_37" x1="-2.92983" y1="64.1268" x2="44.767" y2="48.1391" gradientUnits="userSpaceOnUse">
<stop stop-color="#41A83B"/>
<stop offset="1" stop-color="#5EBC44"/>
</linearGradient>
</defs>
</svg>
