<?xml version="1.0" encoding="UTF-8"?>
<svg data-name="Layer 1" version="1.1" viewBox="0 0 309.88 252.72" xmlns="http://www.w3.org/2000/svg" xmlns:cc="http://creativecommons.org/ns#" xmlns:dc="http://purl.org/dc/elements/1.1/" xmlns:rdf="http://www.w3.org/1999/02/22-rdf-syntax-ns#">
<metadata>
<rdf:RDF>
<cc:Work rdf:about="">
<dc:format>image/svg+xml</dc:format>
<dc:type rdf:resource="http://purl.org/dc/dcmitype/StillImage"/>
<dc:title>MDB-VLogo_RGB</dc:title>
</cc:Work>
</rdf:RDF>
</metadata>
<defs>
<style>.cls-1{fill:#003545;}</style>
</defs>
<title>MDB-VLogo_RGB</title>
<path class="cls-1" transform="translate(-5.58 -6.4)" d="M314.08,7.35a4.18,4.18,0,0,0-2.84-.95c-2.83,0-6.49,1.92-8.46,2.95l-.78.4a26.86,26.86,0,0,1-10.57,2.66c-3.76.12-7,.34-11.22.78-25,2.57-36.15,21.73-46.89,40.26C227.47,63.53,221.43,74,213.15,82a54.4,54.4,0,0,1-5.45,4.63C199.13,93,188.37,97.55,180,100.77c-8.06,3.08-16.86,5.85-25.36,8.53-7.79,2.45-15.14,4.77-21.9,7.28-3.05,1.13-5.64,2-7.93,2.76-6.16,2-10.6,3.53-17.09,8-2.53,1.73-5.07,3.6-6.79,5a71.62,71.62,0,0,0-13.55,14.27A84.25,84.25,0,0,1,76,160.27c-1.37,1.34-3.8,2-7.44,2-4.26,0-9.43-.88-14.9-1.81-5.64-1-11.47-1.95-16.47-1.95-4.06,0-7.17.66-9.49,2,0,0-3.91,2.28-5.56,5.23l1.62.73a33.21,33.21,0,0,1,6.92,5,34.72,34.72,0,0,0,7.2,5.12A6.18,6.18,0,0,1,40.1,178c-.68,1-1.68,2.29-2.73,3.67-5.77,7.55-9.14,12.32-7.21,14.92a6.07,6.07,0,0,0,3,.68c12.58,0,19.34-3.27,27.89-7.41,2.48-1.2,5-2.43,8-3.7,5-2.17,10.38-5.63,16.09-9.29C92.61,172,100.42,167,108,164.59a62.3,62.3,0,0,1,19.23-2.7c8,0,16.42,1.07,24.54,2.11,6.05.78,12.32,1.58,18.47,1.95,2.39.14,4.6.21,6.75.21a78.21,78.21,0,0,0,8.61-.45l.69-.24c4.31-2.65,6.33-8.34,8.29-13.84,1.26-3.54,2.32-6.72,4-8.74a2.55,2.55,0,0,1,.32-.27.4.4,0,0,1,.49.08s0,.05,0,.16c-1,21.51-9.66,35.17-18.42,47.31l-5.85,6.27s8.19,0,12.85-1.8c17-5.08,29.83-16.28,39.17-34.14a145.7,145.7,0,0,0,6.17-14.09c.16-.4,1.63-1.14,1.49.93-.05.61-.09,1.29-.14,2h0c0,.42,0,.85-.08,1.28-.24,3-.95,9.34-.95,9.34l5.25-2.81c12.66-8,22.42-24.14,29.82-49.25,3.08-10.46,5.34-20.85,7.33-30,2.38-11,4.43-20.43,6.78-24.09,3.69-5.74,9.32-9.62,14.77-13.39.74-.51,1.49-1,2.22-1.54,6.85-4.81,13.66-10.36,15.16-20.71l0-.23C316.05,10.22,315.13,8.25,314.08,7.35Z"/>
<g transform="matrix(.79442 0 0 .79442 -.20926 93.136)" fill="#003545">
<path d="m0 183.35h12.842v-50.711l19.88 44.208c2.346 5.35 5.557 7.244 11.854 7.244 6.298 0 9.385-1.893 11.732-7.244l19.88-44.208v50.71h12.842v-50.627c0-4.94-1.976-7.327-6.05-8.561-9.755-3.046-16.3-0.412-19.264 6.174l-19.51 43.63-18.892-43.63c-2.84-6.586-9.508-9.22-19.263-6.174-4.075 1.234-6.051 3.622-6.051 8.56zm99.708-41.276h12.838v27.938c-0.12 1.518 0.487 5.08 7.522 5.19 3.589 0.057 27.7 0 27.925 0v-33.264h12.868c0.059 0-0.013 45.364-0.012 45.557 0.07 11.188-13.882 13.618-20.313 13.806h-40.55v-8.64c0.072 0 40.52 9e-3 40.622-1e-3 8.265-0.873 7.289-4.981 7.288-6.364v-3.368h-27.296c-12.7-0.117-20.786-5.66-20.886-12.035-0.01-0.591 0.274-28.54-7e-3 -28.82z"/>
<path d="m170.76 183.35h36.92c4.322 0 8.52-0.905 11.855-2.47 5.556-2.551 8.273-6.008 8.273-10.537v-9.384c0-3.705-3.087-7.163-9.138-9.467-3.211-1.236-7.162-1.894-10.99-1.894h-15.56c-5.184 0-7.654-1.564-8.271-5.021-0.124-0.412-0.124-0.742-0.124-1.153v-5.844c0-0.33 0-0.66 0.124-1.071 0.617-2.634 1.976-3.376 6.544-3.787 0.37 0 0.864-0.083 1.235-0.083h36.674v-8.56h-36.057c-5.186 0-7.903 0.329-10.372 1.069-7.656 2.388-10.99 6.175-10.99 12.76v7.492c0 5.763 6.545 10.702 17.534 11.854 1.236 0.082 2.47 0.164 3.704 0.164h13.336c0.495 0 0.989 0 1.359 0.083 4.075 0.33 5.803 1.07 7.039 2.552 0.74 0.74 0.987 1.482 0.987 2.305v7.49c0 0.907-0.617 2.06-1.851 3.047-1.112 0.988-2.964 1.647-5.434 1.812-0.494 0-0.864 0.082-1.358 0.082h-35.44v8.56zm137.16-14.9c0 8.808 6.544 13.748 19.757 14.736 1.234 0.082 2.47 0.164 3.704 0.164h33.464v-8.561h-33.711c-7.532 0-10.372-1.894-10.372-6.421v-44.29h-12.842zm-71.916 0.449v-30.523c0-7.754 5.445-12.457 16.209-13.942a24.63 24.63 0 0 1 3.465 -0.247h24.376c1.237 0 2.352 0.083 3.589 0.247 10.765 1.485 16.209 6.188 16.209 13.942v30.522c0 6.29-2.312 9.658-7.641 11.852l12.65 11.418h-14.911l-10.234-9.238-10.303 0.653h-13.735c-2.351 0-4.825-0.331-7.548-1.073-8.166-2.227-12.126-6.517-12.126-13.612zm13.86-0.742c0 0.413 0.124 0.825 0.248 1.32 0.742 3.547 4.083 5.527 9.156 5.527h11.667l-10.717-9.675h14.91l9.348 8.438c1.722-0.918 2.856-2.322 3.252-4.125 0.123-0.412 0.123-0.825 0.123-1.237v-29.285c0-0.33 0-0.743-0.123-1.156-0.743-3.3-4.084-5.196-9.033-5.196h-19.427c-5.691 0-9.403 2.475-9.403 6.352v29.037z"/>
<path d="m370.87 174.55c0 5.654 4.468 9.464 9.465 9.464s9.464-3.81 9.464-9.464c0-5.653-4.467-9.463-9.464-9.463s-9.464 3.81-9.464 9.463zm16.809 0c0 4.29-3.28 7.496-7.344 7.496-4.113 0-7.344-3.206-7.344-7.496s3.23-7.496 7.344-7.496c4.064 0 7.344 3.206 7.344 7.496zm-4.794 5.4h2.119l-3.103-4.743c1.665-0.177 2.926-0.985 2.926-2.953 0-2.196-1.387-3.104-4.062-3.104h-4.215v10.8h1.817v-4.668h1.69l2.828 4.669zm-4.518-6.182v-3.104h2.094c1.086 0 2.398 0.202 2.398 1.464 0 1.513-1.186 1.64-2.55 1.64z" fill-rule="evenodd"/>
</g>
</svg>
