<svg width="7128" height="2890" viewBox="0 0 7128 2890" fill="none" xmlns="http://www.w3.org/2000/svg">
<g clip-path="url(#clip0_3_20)">
<path d="M2457.08 854.5V1852H2370.15L1728.9 1042.6V1852H1623.45V854.5H1710.38L2353.05 1663.9V854.5H2457.08ZM3485.18 1353.25H3586.35V1733.72C3539.8 1774.57 3484.7 1805.92 3421.05 1827.77C3357.4 1849.62 3290.43 1860.55 3220.13 1860.55C3120.38 1860.55 3030.6 1838.7 2950.8 1795C2871 1751.3 2808.3 1690.97 2762.7 1614.02C2717.1 1536.12 2694.3 1449.2 2694.3 1353.25C2694.3 1257.3 2717.1 1170.85 2762.7 1093.9C2808.3 1016 2871 955.2 2950.8 911.5C3030.6 867.8 3120.85 845.95 3221.55 845.95C3297.55 845.95 3367.38 858.3 3431.03 883C3494.68 906.75 3548.35 942.375 3592.05 989.875L3526.5 1056.85C3447.65 978.95 3347.43 940 3225.83 940C3145.08 940 3071.93 958.05 3006.38 994.15C2941.78 1029.3 2890.95 1078.7 2853.9 1142.35C2816.85 1205.05 2798.33 1275.35 2798.33 1353.25C2798.33 1431.15 2816.85 1501.45 2853.9 1564.15C2890.95 1626.85 2941.78 1676.25 3006.38 1712.35C3070.98 1748.45 3143.65 1766.5 3224.4 1766.5C3327 1766.5 3413.93 1740.85 3485.18 1689.55V1353.25ZM3884.8 854.5H3990.25V1852H3884.8V854.5ZM5148.43 854.5V1852H5061.51L4420.26 1042.6V1852H4314.81V854.5H4401.73L5044.41 1663.9V854.5H5148.43ZM6099.59 1852L5777.54 1413.1L5456.91 1852H5335.79L5714.84 1339L5360.01 854.5H5481.14L5781.81 1262.05L6081.06 854.5H6195.06L5841.66 1336.15L6222.14 1852H6099.59Z" fill="#D22128"/>
<path d="M6461.7 847.8C6477 863.1 6484.6 881.5 6484.6 903C6484.6 924.5 6477 942.9 6461.7 958.4C6446.4 973.8 6427.9 981.5 6406.1 981.5C6384.3 981.5 6365.9 973.9 6350.7 958.6C6335.6 943.3 6328 924.9 6328 903.4C6328 881.9 6335.6 863.5 6350.9 848C6366.2 832.6 6384.6 824.9 6406.3 824.9C6427.9 824.9 6446.4 832.5 6461.7 847.8ZM6455.1 951.9C6468.4 938.3 6475.1 922.1 6475.1 903.2C6475.1 884.3 6468.5 868.2 6455.3 854.7C6442.1 841.3 6425.9 834.6 6406.7 834.6C6387.5 834.6 6371.3 841.3 6358 854.8C6344.7 868.3 6338.1 884.5 6338.1 903.5C6338.1 922.5 6344.7 938.7 6357.8 952.1C6370.9 965.5 6387.1 972.2 6406.3 972.2C6425.5 972.2 6441.7 965.4 6455.1 951.9ZM6444.1 888.1C6444.1 902.1 6438 910.9 6425.7 914.5L6448.2 945H6430L6409.7 916.7H6391.1V945H6376.4V860.4H6408.2C6421 860.4 6430.2 862.6 6435.8 867C6441.4 871.4 6444.1 878.4 6444.1 888.1ZM6425.2 900C6428.2 897.6 6429.6 893.5 6429.6 888C6429.6 882.5 6428.1 878.6 6425.1 876.4C6422.1 874.2 6416.7 873.2 6409.1 873.2H6391.1V903.7H6408.6C6416.7 903.6 6422.3 902.4 6425.2 900Z" fill="#6D6E71"/>
<path d="M1803.6 499.8V655.2H1783.6V499.8H1726.8V480.6H1860.7V499.8H1803.6Z" fill="#6D6E71"/>
<path d="M2082.2 655.2V578.3H1977V655.2H1957V480.5H1977V559.4H2082.2V480.5H2102.2V655.2H2082.2Z" fill="#6D6E71"/>
<path d="M2241.4 499.8V557.2H2329.5V576.4H2241.4V636.2H2343.2V655.2H2221.4V480.5H2340V499.7H2241.4V499.8Z" fill="#6D6E71"/>
<path d="M1659.39 2063.41C1670.37 2066.92 1680.06 2071.73 1688.25 2077.65L1678.66 2100.3C1670.28 2094.29 1661.34 2089.87 1651.75 2086.87C1642.25 2083.96 1633.13 2082.46 1624.56 2082.46C1611.9 2082.46 1601.75 2084.86 1594.21 2089.77C1586.67 2094.69 1582.85 2101.6 1582.85 2110.52C1582.85 2118.14 1584.99 2124.56 1589.18 2129.57C1593.37 2134.58 1598.68 2138.49 1605.01 2141.3C1611.34 2144.1 1620 2147.31 1631.08 2150.92C1644.49 2155.53 1655.29 2159.84 1663.39 2163.85C1671.58 2167.86 1678.57 2173.77 1684.34 2181.69C1690.11 2189.51 1693 2199.93 1693 2212.76C1693 2224.49 1690.02 2234.61 1684.15 2243.44C1678.29 2252.16 1669.91 2258.97 1659.2 2263.78C1648.4 2268.59 1636.02 2271 1621.96 2271C1607.9 2271 1594.3 2268.09 1581.08 2262.28C1567.86 2256.47 1556.5 2248.65 1547 2238.82L1556.96 2217.17C1565.9 2226.6 1576.24 2233.91 1587.97 2239.13C1599.7 2244.34 1611.06 2246.94 1622.23 2246.94C1636.48 2246.94 1647.65 2243.94 1655.85 2238.02C1664.04 2232.11 1668.14 2224.09 1668.14 2214.07C1668.14 2206.25 1666 2199.73 1661.71 2194.62C1657.43 2189.51 1652.12 2185.6 1645.79 2182.69C1639.46 2179.89 1630.8 2176.68 1619.72 2173.07C1606.5 2168.86 1595.79 2164.75 1587.5 2160.84C1579.22 2156.93 1572.23 2151.12 1566.55 2143.3C1560.87 2135.58 1557.99 2125.36 1557.99 2112.63C1557.99 2101.7 1560.78 2092.18 1566.37 2083.96C1571.95 2075.74 1579.96 2069.33 1590.2 2064.82C1600.54 2060.31 1612.36 2058 1625.77 2058C1637.23 2058.1 1648.31 2059.9 1659.39 2063.41Z" fill="#6D6E71"/>
<path d="M1950.05 2073.08C1965.67 2082.47 1978.13 2095.35 1987.24 2111.43C1996.35 2127.6 2001 2145.28 2001 2164.65C2001 2184.12 1996.44 2202 1987.24 2218.18C1978.13 2234.45 1965.67 2247.23 1950.05 2256.72C1934.43 2266.21 1917.23 2271 1898.73 2271C1879.86 2271 1862.66 2266.31 1846.95 2256.72C1831.33 2247.23 1818.87 2234.35 1809.76 2218.18C1800.65 2201.9 1796 2184.12 1796 2164.65C1796 2145.18 1800.56 2127.4 1809.76 2111.23C1818.87 2095.05 1831.33 2082.27 1846.95 2072.98C1862.57 2063.6 1879.86 2059 1898.73 2059C1917.23 2058.9 1934.34 2063.6 1950.05 2073.08ZM1858.76 2092.95C1846.58 2100.34 1836.81 2110.43 1829.56 2123.01C1822.31 2135.59 1818.59 2149.47 1818.59 2164.65C1818.59 2179.93 1822.22 2193.91 1829.56 2206.59C1836.81 2219.27 1846.58 2229.36 1858.76 2236.75C1870.93 2244.14 1884.23 2247.83 1898.64 2247.83C1913.05 2247.83 1926.25 2244.14 1938.34 2236.75C1950.42 2229.36 1960 2219.37 1967.25 2206.59C1974.41 2193.91 1978.04 2179.93 1978.04 2164.65C1978.04 2149.37 1974.41 2135.49 1967.25 2122.91C1960.09 2110.33 1950.42 2100.34 1938.34 2092.95C1926.25 2085.56 1913.05 2081.77 1898.73 2081.77C1884.32 2081.77 1871.03 2085.46 1858.76 2092.95Z" fill="#6D6E71"/>
<path d="M2142.33 2082.24V2156.38H2233.53V2179.63H2142.33V2270H2120V2059H2244V2082.24H2142.33V2082.24Z" fill="#6D6E71"/>
<path d="M2426.54 2082.24V2270H2403.99V2082.24H2340V2059H2491V2082.24H2426.54Z" fill="#6D6E71"/>
<path d="M2780.11 2270L2727.19 2092.26L2673.52 2270H2650.69L2585 2059H2609.13L2663.08 2242.05L2716.28 2059.3L2738.74 2059L2792.5 2242.05L2845.71 2059H2869L2803.22 2270H2780.11V2270Z" fill="#6D6E71"/>
<path d="M2980.77 2216.7L2958.86 2270H2935L3022.99 2059H3046.29L3134 2270H3109.67L3087.77 2216.7H2980.77ZM3034.08 2086.45L2990.37 2193.45H3078.35L3034.08 2086.45Z" fill="#6D6E71"/>
<path d="M3328.83 2202.77C3323.23 2203.17 3318.84 2203.37 3315.67 2203.37H3263.4V2270H3241V2059H3315.67C3340.12 2059 3359.16 2065.21 3372.79 2077.54C3386.32 2089.86 3393.13 2107.39 3393.13 2129.93C3393.13 2147.17 3389.31 2161.69 3381.75 2173.32C3374.19 2184.94 3363.27 2193.35 3349.08 2198.36L3395 2270H3369.52L3328.83 2202.77ZM3357.01 2167.61C3366.63 2159.19 3371.48 2146.77 3371.48 2130.54C3371.48 2114.61 3366.63 2102.58 3357.01 2094.47C3347.4 2086.35 3333.59 2082.24 3315.67 2082.24H3263.4V2180.23H3315.67C3333.59 2180.23 3347.4 2176.02 3357.01 2167.61Z" fill="#6D6E71"/>
<path d="M3540.48 2082.24V2151.58H3639.52V2174.82H3540.48V2247.06H3655V2270H3518V2059H3651.27V2082.24H3540.48V2082.24Z" fill="#6D6E71"/>
<path d="M3967.51 2082.24V2156.38H4059.44V2179.63H3967.51V2270H3945V2059H4070V2082.24H3967.51V2082.24Z" fill="#6D6E71"/>
<path d="M4318.05 2073.08C4333.67 2082.47 4346.13 2095.35 4355.24 2111.43C4364.35 2127.6 4369 2145.28 4369 2164.65C4369 2184.12 4364.44 2202 4355.24 2218.18C4346.13 2234.45 4333.67 2247.23 4318.05 2256.72C4302.43 2266.21 4285.23 2271 4266.73 2271C4247.86 2271 4230.66 2266.31 4214.95 2256.72C4199.33 2247.23 4186.87 2234.35 4177.76 2218.18C4168.65 2201.9 4164 2184.12 4164 2164.65C4164 2145.18 4168.56 2127.4 4177.76 2111.23C4186.87 2095.05 4199.33 2082.27 4214.95 2072.98C4230.57 2063.6 4247.86 2059 4266.73 2059C4285.33 2058.9 4302.43 2063.6 4318.05 2073.08ZM4226.85 2092.95C4214.67 2100.34 4204.91 2110.43 4197.66 2123.01C4190.4 2135.59 4186.68 2149.47 4186.68 2164.65C4186.68 2179.93 4190.31 2193.91 4197.66 2206.59C4204.91 2219.27 4214.67 2229.36 4226.85 2236.75C4239.03 2244.14 4252.32 2247.83 4266.73 2247.83C4281.14 2247.83 4294.34 2244.14 4306.43 2236.75C4318.52 2229.36 4328.09 2219.37 4335.34 2206.59C4342.5 2193.91 4346.13 2179.93 4346.13 2164.65C4346.13 2149.37 4342.5 2135.49 4335.34 2122.91C4328.19 2110.33 4318.52 2100.34 4306.43 2092.95C4294.34 2085.56 4281.14 2081.77 4266.83 2081.77C4252.32 2081.77 4239.03 2085.46 4226.85 2092.95Z" fill="#6D6E71"/>
<path d="M4626.17 2247.7C4611.53 2263.2 4591.38 2271 4565.73 2271C4539.9 2271 4519.66 2263.2 4505.01 2247.7C4490.37 2232.2 4483 2210.7 4483 2183.1V2059.1H4505.48V2183.1C4505.48 2203.4 4510.89 2219.2 4521.61 2230.6C4532.43 2242 4547.08 2247.7 4565.73 2247.7C4584.48 2247.7 4599.12 2242 4609.66 2230.7C4620.3 2219.4 4625.52 2203.5 4625.52 2183V2059H4648V2183C4648.09 2210.7 4640.82 2232.2 4626.17 2247.7Z" fill="#6D6E71"/>
<path d="M4919.01 2270L4801.43 2100.58V2270H4779V2059H4802.27L4919.84 2228.62V2059H4942V2270H4919.01Z" fill="#6D6E71"/>
<path d="M5207.21 2072.93C5222.56 2082.24 5234.73 2094.87 5243.62 2110.9C5252.6 2126.93 5257 2144.86 5257 2164.5C5257 2184.14 5252.51 2202.17 5243.62 2218.2C5234.73 2234.33 5222.47 2246.96 5206.84 2256.17C5191.3 2265.39 5173.89 2270 5154.89 2270H5076V2059H5155.74C5174.74 2059 5191.86 2063.61 5207.21 2072.93ZM5098.55 2247.06H5156.02C5170.52 2247.06 5183.72 2243.55 5195.61 2236.44C5207.49 2229.32 5216.94 2219.5 5223.87 2206.88C5230.8 2194.36 5234.26 2180.33 5234.26 2164.8C5234.26 2149.27 5230.7 2135.34 5223.68 2122.82C5216.66 2110.3 5207.12 2100.48 5195.04 2093.16C5183.06 2085.95 5169.78 2082.24 5155.18 2082.24H5098.55V2247.06V2247.06Z" fill="#6D6E71"/>
<path d="M5383.77 2216.7L5361.86 2270H5338L5425.99 2059H5449.29L5537 2270H5512.77L5490.86 2216.7H5383.77ZM5437.08 2086.45L5393.37 2193.45H5481.35L5437.08 2086.45Z" fill="#6D6E71"/>
<path d="M5683.87 2082.24V2270H5661.57V2082.24H5598V2059H5748V2082.24H5683.87Z" fill="#6D6E71"/>
<path d="M5856 2270V2059H5879V2270H5856Z" fill="#6D6E71"/>
<path d="M6152.05 2073.08C6167.67 2082.47 6180.13 2095.35 6189.24 2111.43C6198.35 2127.6 6203 2145.28 6203 2164.65C6203 2184.12 6198.44 2202 6189.24 2218.18C6180.13 2234.45 6167.67 2247.23 6152.05 2256.72C6136.43 2266.21 6119.23 2271 6100.73 2271C6081.86 2271 6064.66 2266.31 6048.95 2256.72C6033.33 2247.23 6020.87 2234.35 6011.76 2218.18C6002.65 2201.9 5998 2184.12 5998 2164.65C5998 2145.18 6002.56 2127.4 6011.76 2111.23C6020.87 2095.05 6033.33 2082.27 6048.95 2072.98C6064.57 2063.6 6081.86 2059 6100.73 2059C6119.33 2058.9 6136.43 2063.6 6152.05 2073.08ZM6060.85 2092.95C6048.67 2100.34 6038.91 2110.43 6031.66 2123.01C6024.4 2135.59 6020.68 2149.47 6020.68 2164.65C6020.68 2179.93 6024.31 2193.91 6031.66 2206.59C6038.91 2219.27 6048.67 2229.36 6060.85 2236.75C6073.03 2244.14 6086.32 2247.83 6100.73 2247.83C6115.14 2247.83 6128.34 2244.14 6140.43 2236.75C6152.52 2229.36 6162.09 2219.37 6169.34 2206.59C6176.5 2193.91 6180.13 2179.93 6180.13 2164.65C6180.13 2149.37 6176.5 2135.49 6169.34 2122.91C6162.19 2110.33 6152.52 2100.34 6140.43 2092.95C6128.34 2085.56 6115.14 2081.77 6100.83 2081.77C6086.32 2081.77 6073.12 2085.46 6060.85 2092.95Z" fill="#6D6E71"/>
<path d="M6462.01 2270L6344.43 2100.58V2270H6322V2059H6345.27L6462.84 2228.62V2059H6485V2270H6462.01Z" fill="#6D6E71"/>
<path d="M1230.1 13.6998C1184.8 40.4998 1109.5 116.2 1019.6 226L1102.2 381.9C1160.2 299 1219.1 224.4 1278.5 160.7C1283.1 155.6 1285.5 153.2 1285.5 153.2C1283.2 155.7 1280.9 158.2 1278.5 160.7C1259.3 181.9 1201 249.9 1113 385.1C1197.7 380.9 1327.9 363.5 1434.1 345.4C1465.7 168.4 1403.1 87.3998 1403.1 87.3998C1403.1 87.3998 1323.4 -41.4002 1230.1 13.6998Z" fill="url(#paint0_linear_3_20)"/>
<path d="M952.6 1323C942 1324.9 931.2 1326.8 920.1 1328.7C920 1328.7 920 1328.8 919.9 1328.8C925.5 1328 931.1 1327.1 936.5 1326.2C942 1325.2 947.3 1324.1 952.6 1323Z" fill="#BE202E"/>
<path opacity="0.35" d="M952.6 1323C942 1324.9 931.2 1326.8 920.1 1328.7C920 1328.7 920 1328.8 919.9 1328.8C925.5 1328 931.1 1327.1 936.5 1326.2C942 1325.2 947.3 1324.1 952.6 1323Z" fill="#BE202E"/>
<path d="M980.3 1186.7C980.2 1186.7 980.2 1186.7 980.3 1186.7C980.2 1186.8 980.1 1186.8 980.1 1186.8C981.9 1186.6 983.6 1186.3 985.3 1186C992.3 1185 999.2 1183.8 1006 1182.3C997.5 1183.8 989 1185.2 980.3 1186.7Z" fill="#BE202E"/>
<path opacity="0.35" d="M980.3 1186.7C980.2 1186.7 980.2 1186.7 980.3 1186.7C980.2 1186.8 980.1 1186.8 980.1 1186.8C981.9 1186.6 983.6 1186.3 985.3 1186C992.3 1185 999.2 1183.8 1006 1182.3C997.5 1183.8 989 1185.2 980.3 1186.7Z" fill="#BE202E"/>
<path d="M858.6 784.7C883.7 737.8 909.1 691.9 934.8 647.3C961.5 600.9 988.5 556 1015.7 512.6C1017.3 510 1018.9 507.4 1020.5 504.9C1047.5 462.2 1074.7 421.2 1102.1 382L1019.5 226C1013.3 233.6 1007 241.3 1000.7 249.2C976.9 278.9 952.1 310.8 926.8 344.7C898.2 382.9 868.8 423.6 839 466.4C811.4 505.9 783.5 547.3 755.5 590.1C731.7 626.6 707.8 664.1 684.1 702.6C683.2 704 682.3 705.5 681.5 706.9L789 919.2C811.8 873.6 835.1 828.7 858.6 784.7Z" fill="url(#paint1_linear_3_20)"/>
<path d="M369 1981C354.8 2020.1 340.5 2059.9 326.1 2100.6C325.9 2101.2 325.7 2101.8 325.5 2102.4C323.5 2108.1 321.4 2113.9 319.4 2119.6C309.7 2147 301.4 2171.7 282.1 2227.8C313.8 2242.3 339.2 2280.3 363.2 2323.4C360.6 2278.7 342.2 2236.8 307 2204.3C463.1 2211.3 597.6 2171.9 667.1 2057.7C673.3 2047.5 679 2036.8 684.1 2025.5C652.5 2065.6 613.3 2082.6 539.6 2078.5C539.4 2078.6 539.3 2078.6 539.1 2078.7C539.3 2078.6 539.4 2078.6 539.6 2078.5C648.2 2029.9 702.7 1983.2 750.8 1905.9C762.2 1887.6 773.3 1867.5 784.6 1845.3C689.7 1942.8 579.6 1970.6 463.7 1949.5L376.8 1959C374.4 1966.3 371.7 1973.6 369 1981Z" fill="url(#paint2_linear_3_20)"/>
<path d="M409.6 1786.3C428.4 1737.8 447.7 1688.6 467.6 1639.1C486.6 1591.7 506.1 1543.9 526.1 1495.9C546.1 1447.9 566.5 1399.8 587.3 1351.7C608.5 1302.7 630.2 1253.9 652.2 1205.2C674 1157.1 696.2 1109.3 718.8 1061.9C726.9 1044.8 735.1 1027.8 743.4 1010.9C757.6 981.6 772 952.5 786.5 923.7C787.3 922.1 788.1 920.6 788.9 919.1L681.4 706.8C679.6 709.7 677.9 712.6 676.1 715.4C651 756.3 626.1 798.1 601.7 840.8C577 883.9 552.7 927.9 529 972.5C509 1010.1 489.4 1048.1 470.4 1086.4C466.6 1094.2 462.8 1101.9 459.1 1109.6C435.7 1157.8 414.5 1204.4 395.4 1249.1C373.7 1299.8 354.7 1348.3 337.9 1394.2C326.9 1424.4 316.9 1453.6 307.8 1481.6C300.3 1505.6 293.1 1529.5 286.3 1553.4C270.3 1609.7 256.4 1665.8 245.1 1721.7L353 1935.1C367.3 1897 381.9 1858.3 397 1819.1C401.1 1808.2 405.4 1797.3 409.6 1786.3Z" fill="url(#paint3_linear_3_20)"/>
<path d="M243.5 1729.4C229.9 1797.6 220.3 1865.6 215.5 1933.2C215.3 1935.6 215.1 1937.9 215 1940.3C181.3 1886.3 91 1833.5 91.2 1834.1C155.8 1927.8 204.9 2020.8 212.1 2112.1C177.5 2119.2 130.1 2108.9 75.3 2088.8C132.4 2141.3 175.3 2155.8 192 2159.7C139.5 2163 84.9 2199 29.9 2240.5C110.4 2207.7 175.4 2194.7 222 2205.2C148.1 2414.2 74.1 2645 0 2890C22.7 2883.3 36.2 2868.1 43.9 2847.4C57.1 2803 144.7 2511.8 281.9 2129.2C285.8 2118.3 289.7 2107.4 293.7 2096.3C294.8 2093.3 295.9 2090.2 297 2087.1C311.5 2047 326.5 2006 342.1 1964.2C345.6 1954.7 349.2 1945.2 352.8 1935.6C352.9 1935.4 352.9 1935.2 353 1935L245.1 1721.8C244.6 1724.4 244 1726.9 243.5 1729.4Z" fill="url(#paint4_linear_3_20)"/>
<path d="M805.6 937C802.5 943.3 799.4 949.7 796.3 956.1C787 975.3 777.5 994.9 768 1014.9C757.7 1036.6 747.3 1058.8 736.7 1081.4C731.4 1092.8 726.1 1104.3 720.7 1116C704.6 1151 688.3 1187.1 671.8 1224.3C651.5 1270.1 630.8 1317.7 609.8 1367.1C589.8 1414.2 569.5 1463 548.9 1513.4C529.4 1561.3 509.6 1610.7 489.6 1661.7C471.8 1707.1 453.7 1753.8 435.6 1801.8C434.7 1804.1 433.8 1806.5 433 1808.8C415 1856.4 396.8 1905.4 378.4 1955.6C378 1956.7 377.6 1957.9 377.1 1959L464 1949.5C462.3 1949.2 460.5 1949 458.8 1948.6C562.7 1935.6 700.9 1858 790.2 1762.1C831.3 1717.9 868.7 1665.8 903.2 1604.8C928.9 1559.4 953 1509 976 1453.3C996.1 1404.6 1015.4 1351.9 1034 1294.7C1010.1 1307.3 982.8 1316.5 952.6 1322.9C947.3 1324 941.9 1325.1 936.5 1326C931 1327 925.5 1327.8 919.9 1328.6C920 1328.6 920 1328.5 920.1 1328.5C1017 1291.2 1078.1 1219.3 1122.5 1131.1C1097 1148.5 1055.6 1171.2 1005.9 1182.2C999.2 1183.7 992.2 1184.9 985.2 1185.9C983.5 1186.2 981.7 1186.5 980 1186.7C980.1 1186.7 980.1 1186.7 980.1 1186.6H980.2C1013.8 1172.5 1042.2 1156.8 1066.8 1138.2C1072.1 1134.2 1077.2 1130.1 1082.1 1125.9C1089.6 1119.4 1096.8 1112.6 1103.6 1105.4C1108 1100.8 1112.2 1096.1 1116.3 1091.2C1125.9 1079.7 1135 1067.3 1143.4 1053.9C1146 1049.8 1148.5 1045.6 1151 1041.3C1154.2 1035.1 1157.3 1029 1160.3 1023C1173.8 995.8 1184.7 971.5 1193.3 950.2C1197.6 939.6 1201.4 929.7 1204.6 920.5C1205.9 916.8 1207.1 913.3 1208.3 909.9C1211.7 899.7 1214.5 890.6 1216.7 882.6C1220 870.6 1222 861.1 1223.1 854.2C1219.8 856.8 1216 859.4 1211.8 861.9C1182.5 879.4 1132.3 895.3 1091.9 902.7L1171.7 893.9L1091.9 902.7C1091.3 902.8 1090.7 902.9 1090.1 903C1086.1 903.7 1082 904.3 1077.9 905C1078.6 904.7 1079.3 904.3 1080 904L807 933.9C806.6 935 806.1 936 805.6 937Z" fill="url(#paint5_linear_3_20)"/>
<path d="M1112.9 385.1C1088.6 422.4 1062.1 464.7 1033.5 512.6C1032 515.1 1030.5 517.7 1029 520.2C1004.4 561.7 978.2 607.3 950.7 657.2C926.9 700.3 902.2 746.5 876.4 796.2C854 839.5 830.8 885.4 807 934L1080 904.1C1159.5 867.5 1195.1 834.4 1229.6 786.5C1238.8 773.3 1248 759.5 1257.1 745.2C1285.1 701.4 1312.7 653.2 1337.2 605.3C1360.9 559 1381.9 513.1 1397.9 471.8C1408.1 445.5 1416.3 421 1422 399.5C1427 380.5 1430.9 362.6 1433.9 345.4C1327.9 363.5 1197.6 380.9 1112.9 385.1Z" fill="url(#paint6_linear_3_20)"/>
<path d="M936.5 1326.1C931 1327.1 925.5 1327.9 919.9 1328.7C925.5 1328 931 1327.1 936.5 1326.1Z" fill="#BE202E"/>
<path opacity="0.35" d="M936.5 1326.1C931 1327.1 925.5 1327.9 919.9 1328.7C925.5 1328 931 1327.1 936.5 1326.1Z" fill="#BE202E"/>
<path d="M936.5 1326.1C931 1327.1 925.5 1327.9 919.9 1328.7C925.5 1328 931 1327.1 936.5 1326.1Z" fill="url(#paint7_linear_3_20)"/>
<path d="M980 1186.8C981.8 1186.6 983.5 1186.3 985.2 1186C983.5 1186.3 981.8 1186.6 980 1186.8Z" fill="#BE202E"/>
<path opacity="0.35" d="M980 1186.8C981.8 1186.6 983.5 1186.3 985.2 1186C983.5 1186.3 981.8 1186.6 980 1186.8Z" fill="#BE202E"/>
<path d="M980 1186.8C981.8 1186.6 983.5 1186.3 985.2 1186C983.5 1186.3 981.8 1186.6 980 1186.8Z" fill="url(#paint8_linear_3_20)"/>
</g>
<defs>
<linearGradient id="paint0_linear_3_20" x1="1089.57" y1="245.13" x2="1694.68" y2="76.8916" gradientUnits="userSpaceOnUse">
<stop stop-color="#F69923"/>
<stop offset="0.3123" stop-color="#F79A23"/>
<stop offset="0.8383" stop-color="#E97826"/>
</linearGradient>
<linearGradient id="paint1_linear_3_20" x1="-234.902" y1="2960.91" x2="995.845" y2="321.47" gradientUnits="userSpaceOnUse">
<stop offset="0.3233" stop-color="#9E2064"/>
<stop offset="0.6302" stop-color="#C92037"/>
<stop offset="0.7514" stop-color="#CD2335"/>
<stop offset="1" stop-color="#E97826"/>
</linearGradient>
<linearGradient id="paint2_linear_3_20" x1="178.398" y1="2765.73" x2="911.803" y2="1192.89" gradientUnits="userSpaceOnUse">
<stop stop-color="#282662"/>
<stop offset="0.0954839" stop-color="#662E8D"/>
<stop offset="0.7882" stop-color="#9F2064"/>
<stop offset="0.9487" stop-color="#CD2032"/>
</linearGradient>
<linearGradient id="paint3_linear_3_20" x1="-190.371" y1="2801.19" x2="1040.37" y2="161.756" gradientUnits="userSpaceOnUse">
<stop offset="0.3233" stop-color="#9E2064"/>
<stop offset="0.6302" stop-color="#C92037"/>
<stop offset="0.7514" stop-color="#CD2335"/>
<stop offset="1" stop-color="#E97826"/>
</linearGradient>
<linearGradient id="paint4_linear_3_20" x1="-64.9015" y1="2625.35" x2="581.893" y2="1238.24" gradientUnits="userSpaceOnUse">
<stop stop-color="#282662"/>
<stop offset="0.0954839" stop-color="#662E8D"/>
<stop offset="0.7882" stop-color="#9F2064"/>
<stop offset="0.9487" stop-color="#CD2032"/>
</linearGradient>
<linearGradient id="paint5_linear_3_20" x1="82.8006" y1="2928.57" x2="1313.55" y2="289.135" gradientUnits="userSpaceOnUse">
<stop offset="0.3233" stop-color="#9E2064"/>
<stop offset="0.6302" stop-color="#C92037"/>
<stop offset="0.7514" stop-color="#CD2335"/>
<stop offset="1" stop-color="#E97826"/>
</linearGradient>
<linearGradient id="paint6_linear_3_20" x1="-7.11139" y1="3085.98" x2="1223.63" y2="446.542" gradientUnits="userSpaceOnUse">
<stop offset="0.3233" stop-color="#9E2064"/>
<stop offset="0.6302" stop-color="#C92037"/>
<stop offset="0.7514" stop-color="#CD2335"/>
<stop offset="1" stop-color="#E97826"/>
</linearGradient>
<linearGradient id="paint7_linear_3_20" x1="164.049" y1="2966.44" x2="1394.78" y2="327.022" gradientUnits="userSpaceOnUse">
<stop offset="0.3233" stop-color="#9E2064"/>
<stop offset="0.6302" stop-color="#C92037"/>
<stop offset="0.7514" stop-color="#CD2335"/>
<stop offset="1" stop-color="#E97826"/>
</linearGradient>
<linearGradient id="paint8_linear_3_20" x1="154.749" y1="2962.23" x2="1385.62" y2="322.687" gradientUnits="userSpaceOnUse">
<stop offset="0.3233" stop-color="#9E2064"/>
<stop offset="0.6302" stop-color="#C92037"/>
<stop offset="0.7514" stop-color="#CD2335"/>
<stop offset="1" stop-color="#E97826"/>
</linearGradient>
<clipPath id="clip0_3_20">
<rect width="7127.6" height="2890" fill="white"/>
</clipPath>
</defs>
</svg>
