<?xml version="1.0" encoding="UTF-8" standalone="no"?>
<!DOCTYPE svg PUBLIC "-//W3C//DTD SVG 1.1//EN" "http://www.w3.org/Graphics/SVG/1.1/DTD/svg11.dtd">
<svg width="100%" height="100%" viewBox="0 0 550 150" version="1.1" xmlns="http://www.w3.org/2000/svg" xmlns:xlink="http://www.w3.org/1999/xlink" xml:space="preserve" xmlns:serif="http://www.serif.com/" style="fill-rule:evenodd;clip-rule:evenodd;stroke-linejoin:round;stroke-miterlimit:2;">
    <g id="X-Office" serif:id="X Office" transform="matrix(1.55727,0,0,1.55727,-116.378,-1442.12)">
        <g>
            <path d="M182.794,998.122C187.653,998.06 191.56,996.275 194.515,992.771C197.47,989.269 198.988,984.43 199.069,978.256C198.988,972.147 197.47,967.38 194.515,963.957C191.56,960.534 187.653,958.794 182.794,958.738C177.937,958.792 174.04,960.524 171.102,963.936C168.164,967.348 166.656,972.121 166.577,978.256C166.656,984.43 168.164,989.268 171.102,992.771C174.04,996.275 177.938,998.058 182.794,998.121L182.794,998.122ZM182.794,993.894C179.361,993.832 176.642,992.417 174.635,989.637C172.628,986.857 171.603,983.064 171.558,978.256C171.603,973.488 172.628,969.761 174.635,967.071C176.641,964.381 179.361,963.013 182.794,962.965C186.227,963.012 188.946,964.381 190.953,967.071C192.96,969.761 193.985,973.488 194.03,978.256C193.985,983.064 192.96,986.857 190.953,989.637C188.947,992.417 186.227,993.836 182.794,993.894Z" style="fill:rgb(235,60,0);"/>
            <path d="M207.544,994.88C208.847,995.901 210.15,996.696 211.453,997.262C212.756,997.827 214.06,998.115 215.363,998.123C218.682,998.084 221.513,996.754 223.855,994.12C226.197,991.486 227.42,987.762 227.525,982.949C227.515,978.524 226.566,975.038 224.68,972.488C222.794,969.938 220.036,968.637 216.405,968.585C214.746,968.616 213.156,969.004 211.634,969.751C210.113,970.497 208.711,971.422 207.428,972.524L207.254,972.524L206.849,969.28L202.91,969.28L202.91,1009.3L207.66,1009.3L207.66,999.802L207.544,994.88ZM207.66,991.173L207.66,976.404C209.041,975.155 210.347,974.207 211.576,973.559C212.806,972.911 214.01,972.585 215.189,972.582C217.829,972.628 219.731,973.579 220.894,975.441C222.057,977.303 222.627,979.805 222.603,982.949C222.557,986.455 221.794,989.187 220.315,991.144C218.836,993.101 216.915,994.096 214.552,994.127C213.613,994.135 212.552,993.913 211.367,993.453C210.182,992.994 208.946,992.234 207.66,991.173L207.66,991.173Z" style="fill:rgb(235,60,0);"/>
            <path d="M229.09,983.408C229.182,988.049 230.49,991.653 233.014,994.217C235.538,996.78 238.728,998.081 242.585,998.118C244.491,998.095 246.21,997.809 247.74,997.257C249.27,996.706 250.64,996.028 251.852,995.223L250.172,992.095C249.134,992.77 248.039,993.303 246.885,993.695C245.732,994.087 244.491,994.288 243.164,994.296C240.438,994.265 238.245,993.373 236.583,991.624C234.922,989.877 233.988,987.466 233.782,984.392L252.779,984.392C252.837,984.041 252.88,983.643 252.909,983.197C252.938,982.753 252.952,982.282 252.952,981.786C252.933,977.714 251.958,974.506 250.028,972.165C248.097,969.823 245.327,968.628 241.716,968.581C238.378,968.62 235.47,969.943 232.993,972.541C230.516,975.139 229.215,978.761 229.091,983.407L229.09,983.408ZM233.723,981.265C234.068,978.41 235,976.214 236.518,974.677C238.036,973.14 239.807,972.362 241.832,972.345C244.047,972.361 245.756,973.129 246.957,974.655C248.159,976.181 248.767,978.385 248.782,981.265L233.723,981.265Z" style="fill:rgb(235,60,0);"/>
            <path d="M256.048,997.428L260.797,997.428L260.797,977.041C262.179,975.618 263.455,974.54 264.627,973.805C265.799,973.07 267.09,972.701 268.5,972.697C270.344,972.682 271.695,973.278 272.554,974.485C273.414,975.693 273.838,977.607 273.829,980.226L273.829,997.428L278.578,997.428L278.578,979.59C278.589,975.989 277.9,973.257 276.507,971.394C275.115,969.531 272.948,968.595 270.006,968.585C268.082,968.616 266.356,969.075 264.83,969.96C263.303,970.846 261.882,971.971 260.566,973.334L260.392,973.334L259.986,969.28L256.048,969.28L256.048,997.428Z" style="fill:rgb(235,60,0);"/>
        </g>
        <g>
            <path d="M298.345,998.122C303.204,998.06 307.111,996.275 310.066,992.771C313.021,989.269 314.539,984.43 314.62,978.256C314.539,972.147 313.021,967.38 310.066,963.957C307.111,960.534 303.204,958.794 298.345,958.738C293.488,958.792 289.591,960.524 286.653,963.936C283.715,967.348 282.207,972.121 282.128,978.256C282.207,984.43 283.715,989.268 286.653,992.771C289.591,996.275 293.489,998.058 298.345,998.121L298.345,998.122ZM298.345,993.894C294.912,993.832 292.193,992.417 290.186,989.637C288.179,986.857 287.154,983.064 287.109,978.256C287.153,973.488 288.179,969.761 290.186,967.071C292.192,964.381 294.912,963.013 298.345,962.965C301.778,963.012 304.497,964.381 306.504,967.071C308.511,969.761 309.536,973.488 309.581,978.256C309.536,983.064 308.511,986.857 306.504,989.637C304.498,992.417 301.778,993.836 298.345,993.894Z" style="fill:rgb(85,85,85);"/>
            <path d="M332.962,956.419C332.318,956.152 331.594,955.933 330.79,955.76C329.986,955.588 329.147,955.498 328.271,955.492C325.47,955.523 323.397,956.36 322.052,958.004C320.706,959.649 320.038,961.919 320.046,964.817L320.046,969.277L316.224,969.566L316.224,973.157L320.046,973.157L320.046,997.424L324.796,997.424L324.796,973.157L330.761,973.157L330.761,969.277L324.796,969.277L324.796,964.817C324.793,963.019 325.117,961.662 325.766,960.748C326.415,959.834 327.404,959.375 328.734,959.373C329.258,959.373 329.788,959.434 330.327,959.546C330.865,959.662 331.396,959.836 331.919,960.067L332.962,956.419Z" style="fill:rgb(85,85,85);"/>
            <path d="M346.842,956.419C346.198,956.152 345.474,955.933 344.67,955.76C343.866,955.588 343.027,955.498 342.151,955.492C339.35,955.523 337.277,956.36 335.932,958.004C334.586,959.649 333.918,961.919 333.926,964.817L333.926,969.277L330.722,969.277L330.104,973.163L333.926,973.163L333.926,997.43L338.676,997.43L338.676,973.163L344.641,973.163L344.641,969.283L338.676,969.283L338.676,964.823C338.673,963.025 338.997,961.669 339.646,960.755C340.295,959.84 341.284,959.381 342.614,959.379C343.138,959.379 343.668,959.441 344.207,959.553C344.745,959.668 345.276,959.842 345.799,960.074L346.842,956.419Z" style="fill:rgb(85,85,85);"/>
            <path d="M351.744,963.491C352.692,963.476 353.474,963.188 354.09,962.629C354.705,962.071 355.023,961.335 355.045,960.421C355.024,959.482 354.705,958.739 354.09,958.191C353.474,957.643 352.692,957.364 351.744,957.351C350.796,957.367 350.014,957.643 349.398,958.191C348.783,958.739 348.464,959.482 348.443,960.421C348.464,961.335 348.783,962.071 349.398,962.629C350.014,963.188 350.796,963.475 351.744,963.491ZM349.311,997.43L354.061,997.43L354.061,969.283L349.311,969.283L349.311,997.43Z" style="fill:rgb(85,85,85);"/>
            <path d="M356.855,983.408C356.938,988.1 358.205,991.718 360.656,994.26C363.106,996.802 366.241,998.088 370.06,998.118C371.752,998.11 373.378,997.782 374.94,997.141C376.501,996.5 377.925,995.61 379.211,994.47L377.068,991.342C376.225,992.119 375.247,992.78 374.136,993.326C373.025,993.871 371.801,994.156 370.466,994.18C367.849,994.133 365.756,993.141 364.189,991.204C362.622,989.268 361.818,986.669 361.778,983.407C361.827,980.115 362.657,977.49 364.269,975.531C365.881,973.571 367.985,972.568 370.582,972.519C371.701,972.534 372.72,972.766 373.637,973.222C374.554,973.676 375.427,974.272 376.257,975.01L378.632,971.94C377.685,971.014 376.539,970.23 375.193,969.587C373.848,968.944 372.253,968.608 370.408,968.58C366.676,968.611 363.512,969.9 360.917,972.454C358.321,975.009 356.968,978.659 356.855,983.408L356.855,983.408Z" style="fill:rgb(85,85,85);"/>
            <path d="M378.733,983.408C378.825,988.049 380.133,991.653 382.657,994.217C385.181,996.78 388.371,998.081 392.228,998.118C394.134,998.095 395.853,997.809 397.383,997.257C398.913,996.706 400.283,996.028 401.495,995.223L399.815,992.095C398.777,992.77 397.682,993.303 396.528,993.695C395.375,994.087 394.134,994.288 392.807,994.296C390.081,994.265 387.888,993.373 386.226,991.624C384.565,989.877 383.631,987.466 383.425,984.392L402.422,984.392C402.48,984.041 402.523,983.643 402.552,983.197C402.581,982.753 402.595,982.282 402.595,981.786C402.576,977.714 401.601,974.506 399.671,972.165C397.74,969.823 394.97,968.628 391.359,968.581C388.021,968.62 385.113,969.943 382.636,972.541C380.159,975.139 378.858,978.761 378.734,983.407L378.733,983.408ZM383.366,981.265C383.711,978.41 384.643,976.214 386.161,974.677C387.679,973.14 389.45,972.362 391.475,972.345C393.69,972.361 395.399,973.129 396.6,974.655C397.802,976.181 398.41,978.385 398.425,981.265L383.366,981.265Z" style="fill:rgb(85,85,85);"/>
        </g>
        <g transform="matrix(1.83163,0,0,2.03514,-197.45,925.147)">
            <text x="217.324px" y="16.354px" style="font-family:'MPLUS1-Light', 'M PLUS 1';font-weight:300;font-size:9.466px;fill:rgb(136,136,136);">Mi<tspan x="228.143px 233.113px 236.379px 241.85px 246.308px 251.432px " y="16.354px 16.354px 16.354px 16.354px 16.354px 16.354px ">crosof</tspan>t</text>
        </g>
        <g transform="matrix(1,0,0,1,409.03,980.86)">
            <text x="-13.694px" y="0px" style="font-family:'ArialMT', 'Arial', sans-serif;font-size:27.388px;fill:rgb(136,136,136);">™</text>
        </g>
        <g transform="matrix(1.82058,0,0,1.82058,-771.97,-221.249)">
            <path d="M469.87,671.03L469.87,642.51L495.099,633.186L508.81,637.574L508.81,675.966L495.099,680.099L469.87,671.03L495.099,674.066L495.099,640.865L478.645,644.704L478.645,667.191L469.87,671.03Z" style="fill:rgb(235,60,0);fill-rule:nonzero;"/>
        </g>
    </g>
</svg>
