<?xml version="1.0" encoding="UTF-8" standalone="no"?>
<!-- Created with Inkscape (http://www.inkscape.org/) -->

<svg
   version="1.1"
   id="svg2"
   xml:space="preserve"
   width="1294.2267"
   height="494.43466"
   viewBox="0 0 1294.2267 494.43466"
   sodipodi:docname="oracle-sun-logo.svg"
   inkscape:export-filename="/home/haelwenn/tmp/2021-12/oracle-sun-logo.png"
   inkscape:export-xdpi="96"
   inkscape:export-ydpi="96"
   inkscape:version="1.1 (c68e22c387, 2021-05-23)"
   xmlns:inkscape="http://www.inkscape.org/namespaces/inkscape"
   xmlns:sodipodi="http://sodipodi.sourceforge.net/DTD/sodipodi-0.dtd"
   xmlns="http://www.w3.org/2000/svg"
   xmlns:svg="http://www.w3.org/2000/svg"><defs
     id="defs6" /><sodipodi:namedview
     id="namedview4"
     pagecolor="#ffffff"
     bordercolor="#666666"
     borderopacity="1.0"
     inkscape:pageshadow="2"
     inkscape:pageopacity="0.0"
     inkscape:pagecheckerboard="0"
     showgrid="false"
     inkscape:snap-page="true"
     inkscape:zoom="0.79063828"
     inkscape:cx="693.11089"
     inkscape:cy="258.01938"
     inkscape:window-width="1920"
     inkscape:window-height="1062"
     inkscape:window-x="0"
     inkscape:window-y="0"
     inkscape:window-maximized="1"
     inkscape:current-layer="g10"
     showguides="true"
     inkscape:snap-global="true"
     inkscape:guide-bbox="true"
     fit-margin-top="0"
     fit-margin-left="0"
     fit-margin-right="0"
     fit-margin-bottom="0"><sodipodi:guide
       position="854.13367,73.087485"
       orientation="0,-1"
       id="guide34672" /></sodipodi:namedview><g
     id="g8"
     inkscape:groupmode="layer"
     inkscape:label="ink_ext_XXXXXX"
     transform="matrix(1.3333333,0,0,-1.3333333,0,785.95999)"><g
       id="g10"
       transform="scale(0.1)"><path
         d="M 9706.7004,5894.7001 H 0 V 2186.44 h 9706.66"
         style="fill:#eb232c;fill-opacity:1;fill-rule:nonzero;stroke:none"
         id="path12"
         sodipodi:nodetypes="cccc" /><path
         d="m 9138.4286,4704.4731 c 0,52.29 42.6,96.12 96.59,96.12 53.13,0 96.6,-43.83 96.6,-96.12 0,-54.7 -43.47,-97.81 -96.6,-97.81 -53.99,0 -96.59,43.11 -96.59,97.81 m 96.59,-123.71 c 67.18,0 122.98,55.45 122.98,122.38 0,68.27 -55.8,122.74 -122.98,122.74 -68.75,0 -122.99,-54.47 -122.99,-122.74 0,-66.93 54.24,-122.38 122.99,-122.38 m -11.74,195.12 c 19.61,0 26.88,0 35.47,-3.26 24.93,-8.6 27.59,-30.51 27.59,-38.38 0,-1.45 -0.73,-6.41 -1.45,-11.25 -1.21,-5.69 -4.97,-16.47 -16.82,-23.73 -1.58,-0.84 -2.54,-2.05 -6.54,-3.62 l 32.07,-56.42 h -31.34 l -27.24,52.65 h -20.22 v -52.65 h -25.78 v 136.66 z m 9.68,-61.95 c 8.48,0 17.2,1.07 22.64,9.06 1.93,3.14 3.15,6.78 3.15,11.74 0,7.38 -4.11,14.18 -9.93,16.11 -5.93,3.26 -12.47,3.26 -25.54,3.26 h -8.48 v -40.17 h 18.16"
         style="fill:#ffffff;fill-opacity:1;fill-rule:nonzero;stroke:none"
         id="path16" /><path
         d="m 2159.24,4049.21 -61.86,61.97 635.13,635.01 -155.91,156.15 -627.5,-627.26 c -52.41,-51.57 -78.68,-120.19 -78.56,-188.1 0,-68.75 26.15,-136.79 78.43,-188.35 51.82,-52.05 119.36,-77.84 187.99,-77.84 67.79,0 135.81,25.79 187.75,77.84 l 627.62,627.74 -157.85,157.72 -635.24,-634.88"
         style="fill:#ffffff;fill-opacity:1;fill-rule:nonzero;stroke:none"
         id="path24" /><path
         d="m 2995.21,4131.02 62.1,-61.85 -635.12,-635.01 156.02,-155.91 627.14,627.14 c 52.41,51.58 78.68,120.09 78.44,188.11 0,68.51 -26.03,136.66 -78.44,188.35 -51.69,51.8 -119.47,77.71 -187.74,77.71 -67.79,0 -135.94,-25.67 -187.74,-77.96 L 2202,3654.1 l 157.96,-157.96 635.25,634.88"
         style="fill:#ffffff;fill-opacity:1;fill-rule:nonzero;stroke:none"
         id="path26" /><path
         d="m 1745.06,4545.31 -61.62,-62.33 -635.13,634.88 -156.025,-155.3 627.025,-627.5 c 51.69,-52.53 120.32,-78.68 188.34,-78.68 68.76,0 136.42,26.15 188.47,78.68 51.81,51.69 77.46,119.35 77.46,187.74 -0.11,67.67 -25.65,136.18 -77.58,187.86 l -627.75,627.88 -157.84,-158.34 634.65,-634.89"
         style="fill:#ffffff;fill-opacity:1;fill-rule:nonzero;stroke:none"
         id="path28" /><path
         d="m 1663.31,5380.99 61.86,62.1 635.25,-635.13 156.14,155.91 -627.25,627.26 c -51.81,52.42 -120.33,78.56 -188.47,78.56 -68.76,0 -136.3,-26.14 -188.48,-78.56 -51.68,-51.57 -77.47,-119.35 -77.47,-187.63 0,-67.65 25.79,-135.81 77.72,-187.98 l 627.87,-627.62 157.71,157.84 -634.88,635.25"
         style="fill:#ffffff;fill-opacity:1;fill-rule:nonzero;stroke:none"
         id="path30" /><path
         d="m 1747.05,2799.32 -61.85,-61.85 -635.01,635.13 -156.03,-156.15 627.27,-627.14 c 51.31,-52.4 120.07,-78.57 187.86,-78.43 68.75,0 136.77,26.03 188.58,78.67 51.82,51.7 77.59,119.12 77.59,187.38 0,67.67 -25.77,136.06 -77.59,188.11 l -627.74,627.62 -157.96,-157.96 634.88,-635.38"
         style="fill:#ffffff;fill-opacity:1;fill-rule:nonzero;stroke:none"
         id="path32" /><path
         d="m 1665.31,3635.4 61.73,61.98 635.37,-634.89 155.91,155.79 -627.26,627.25 c -51.57,52.54 -120.32,78.93 -188.23,78.69 -68.63,0 -136.53,-26.15 -188.35,-78.69 -51.8,-51.68 -77.59,-119.35 -77.59,-187.73 0,-67.68 25.55,-135.94 77.48,-187.62 l 627.98,-627.99 157.73,157.96 -634.77,635.25"
         style="fill:#ffffff;fill-opacity:1;fill-rule:nonzero;stroke:none"
         id="path34" /><path
         d="m 414.121,4048.25 -61.98,62.1 635.379,634.88 -155.911,156.03 -627.261,-627.14 c -52.532,-51.44 -78.801,-120.2 -78.684,-187.98 0,-68.75 26.152,-136.66 78.438,-188.47 51.574,-52.05 119.355,-77.71 187.617,-77.71 67.91,0 136.062,25.66 187.988,77.71 l 627.743,627.62 -157.96,157.98 -635.369,-635.02"
         style="fill:#ffffff;fill-opacity:1;fill-rule:nonzero;stroke:none"
         id="path36" /><path
         d="m 1250.37,4130.28 61.86,-61.98 -635.128,-635.25 155.906,-155.91 627.512,627.38 c 52.04,51.44 78.44,120.08 78.19,188.23 0.25,68.52 -26.15,136.41 -78.19,188.22 -51.94,51.94 -119.73,77.72 -187.87,77.72 -67.9,0 -135.93,-25.78 -187.86,-77.72 l -627.747,-627.74 157.84,-157.84 635.487,634.89"
         style="fill:#ffffff;fill-opacity:1;fill-rule:nonzero;stroke:none"
         id="path38" /><path
         id="path32983"
         style="fill:#ffffff;fill-opacity:1;fill-rule:nonzero;stroke:none;stroke-width:0.172"
         inkscape:transform-center-x="-100.29664"
         inkscape:transform-center-y="103.45876"
         d="m 919.02734,159.90039 -0.002,171.03711 c -0.0111,31.49516 -29.11681,56.98242 -65.02344,56.98242 -35.66217,0 -64.63867,-25.49652 -64.63867,-57 V 182.78125 l -35.55859,-20.01367 v 170.49414 c 0,48.6129 44.89025,87.87695 100.19726,87.87695 24.94641,0 47.4727,-8.24061 65.02344,-21.41406 v 21.62257 h 35.33203 V 179.875 Z"
         transform="matrix(7.5000002,0,0,-7.5000002,0,5894.7001)"
         sodipodi:nodetypes="ccssccssccccc" /><path
         id="path32983-3"
         style="fill:#ffffff;fill-opacity:1;fill-rule:nonzero;stroke:none;stroke-width:1.29"
         inkscape:transform-center-x="100.29664"
         inkscape:transform-center-y="-103.45876"
         d="m 7893.4653,2714.2391 0.015,1282.7783 c 0.083,236.2137 218.376,427.3682 487.6758,427.3682 267.4663,0 484.79,-191.2239 484.79,-427.5 V 2885.8455 l 266.6894,-150.1025 v 1278.7061 c 0,364.5967 -336.6768,659.0771 -751.4794,659.0771 -187.0981,0 -356.0453,-61.8046 -487.6758,-160.6054 V 4675.09 H 7628.49 V 2864.0486 Z"
         sodipodi:nodetypes="ccssccssccccc" /><g
         id="g43436"
         transform="translate(-1898.0447,516.50647)"><path
           style="fill:#a3a3a3;fill-opacity:1;stroke-width:7.5"
           d="m 3338.0004,5378.1936 c 5.414,2.1665 11.8828,1.9001 14.375,-0.5917 2.4922,-2.4922 -1.9375,-4.2648 -9.8437,-3.9392 -8.7372,0.36 -10.5143,2.1371 -4.5313,4.5312 z m 714.4984,554.2517 c 0.36,8.7371 2.137,10.5142 4.5312,4.5312 2.1665,-5.414 1.9001,-11.8828 -0.5918,-14.375 -2.4922,-2.4922 -4.2648,1.9376 -3.9391,9.8438 z m -369.0489,323.75 c -9.329,11.8954 -9.0637,12.1607 2.8317,2.8317 7.2188,-5.6614 13.125,-11.5676 13.125,-13.125 0,-6.1728 -6.1589,-2.1998 -15.9567,10.2933 z m -375.4495,126.9983 c 5.414,2.1665 11.8828,1.9001 14.375,-0.5917 2.4922,-2.4922 -1.9375,-4.2648 -9.8437,-3.9392 -8.7372,0.36 -10.5143,2.1371 -4.5313,4.5312 z m -1790.5016,689.2517 c 0.36,8.7371 2.137,10.5142 4.5312,4.5312 2.1665,-5.414 1.9001,-11.8828 -0.5918,-14.375 -2.4922,-2.4922 -4.2648,1.9376 -3.9391,9.8438 z"
           id="path43448" /><path
           style="fill:#ffffff;fill-opacity:1;stroke-width:6.80278"
           d="m 5591.9433,2505.5368 406.8088,1.9458 733.799,1.9457 49.9225,15.4107 c 157.7889,48.7084 256.3949,148.4462 298.7454,302.1765 16.762,60.8443 16.6196,236.1046 -0.2413,297.4 -31.8052,115.6284 -97.7478,198.0942 -196.125,245.2683 -108.986,52.2614 -232.84,43.2751 -499.7994,54.6592 -266.9595,11.3841 -403.422,5.6778 -445.8369,15.8991 -205.1535,49.4387 -351.1845,156.1466 -431.6777,315.4362 -109.4896,216.6716 -97.3508,499.143 29.9037,695.8584 79.6757,123.166 197.1776,202.5201 371.1616,250.6618 l 64.6264,17.8821 625.0159,1.9238 707.8383,1.9236 -126.9987,-217.6353 -557.0299,-2.0545 -601.2062,-2.0545 -49.855,-15.3353 c -166.9878,-51.365 -265.7842,-159.8098 -297.7394,-326.8167 -38.4467,-200.9333 45.0763,-395.6822 203.1934,-473.7814 100.6306,-49.7047 240.7516,-37.4795 515.4073,-51.3157 274.6557,-13.8362 363.6394,-4.9244 476.7506,-31.5592 183.3268,-43.1692 323.279,-159.0981 385.4954,-319.3239 42.1555,-108.5639 49.4472,-155.3289 49.2122,-315.6085 -0.1995,-136.0066 -1.4621,-150.8884 -18.0119,-212.2863 -67.5144,-250.474 -228.3829,-402.8404 -479.3066,-453.9753 -67.538,-13.7635 -536.5767,-11.6802 -804.9109,-14.0164 -178.2137,-1.5516 -534.6616,0 -534.6616,0 z"
           id="path43438"
           sodipodi:nodetypes="cccsscszssssccccccsssssssssacc" /></g></g></g></svg>
