<?xml version="1.0" encoding="utf-8"?>
<!-- Generator: Adobe Illustrator 24.3.0, SVG Export Plug-In . SVG Version: 6.00 Build 0)  -->
<svg version="1.1" id="图层_1" xmlns="http://www.w3.org/2000/svg" xmlns:xlink="http://www.w3.org/1999/xlink" x="0px" y="0px"
	 viewBox="0 0 320 60" style="enable-background:new 0 0 320 60;" xml:space="preserve">
<style type="text/css">
	.st0{fill:#231F20;}
	.st1{fill:#367FAF;}
	.st2{clip-path:url(#SVGID_2_);}
	.st3{fill:url(#path28_1_);}
	.st4{fill:#363254;}
	.st5{clip-path:url(#SVGID_4_);}
	.st6{fill:url(#path46_1_);}
	.st7{fill:#8B9DD7;}
	.st8{clip-path:url(#SVGID_6_);}
	.st9{fill:url(#path76_1_);}
	.st10{fill:#A6BDE6;}
	.st11{clip-path:url(#SVGID_8_);}
	.st12{fill:url(#path106_1_);}
	.st13{fill:#7483CA;}
	.st14{fill:#839AD6;}
	.st15{clip-path:url(#SVGID_10_);}
	.st16{fill:url(#path136_1_);}
	.st17{fill:#080604;}
	.st18{clip-path:url(#SVGID_12_);}
	.st19{fill:url(#path154_1_);}
	.st20{clip-path:url(#SVGID_14_);}
	.st21{fill:url(#path172_1_);}
	.st22{clip-path:url(#SVGID_16_);}
	.st23{fill:url(#path188_1_);}
	.st24{clip-path:url(#SVGID_18_);}
	.st25{fill:url(#path204_1_);}
	.st26{clip-path:url(#SVGID_20_);}
	.st27{fill:url(#path240_1_);}
	.st28{fill:#FCFCFC;}
	.st29{fill:#FFFFFF;}
	.st30{clip-path:url(#SVGID_22_);}
	.st31{fill:url(#path306_1_);}
	.st32{clip-path:url(#SVGID_24_);}
	.st33{fill:url(#path324_1_);}
</style>
<path class="st0" d="M90.1,29.2H78.5V17.5h12.2c4.5,0,6.7,2,6.7,5.9C97.4,27.3,95,29.2,90.1,29.2 M98.4,17.4
	c-1.6-1.4-3.8-2.1-6.7-2.1l-16.6,0.1v27.9h3.3l0-11.9h12.4c3.1,0,5.5-0.7,7.3-2.1s2.7-3.4,2.7-5.9S100,18.8,98.4,17.4L98.4,17.4z
	 M120.1,37.4c-0.3,0.9-0.9,1.7-1.6,2.4c-1.5,1.5-3.8,2.2-6.9,2.2c-2.8,0-4.9-0.7-6.4-2.1s-2.2-3.3-2.2-5.7c0-1.2,0.2-2.3,0.6-3.3
	s1-1.8,1.7-2.4c1.5-1.4,3.7-2.1,6.4-2.1c6,0,9,2.6,9,7.8C120.6,35.4,120.4,36.5,120.1,37.4 M120.7,27.1c-2-1.9-5.1-2.8-9.1-2.8
	c-3.8,0-6.7,1-8.8,2.9c-1.9,1.7-2.8,4-2.8,7c0,2.9,1,5.2,2.9,7c1.1,1,2.3,1.7,3.7,2.1s3.1,0.6,5,0.6c4,0,7-0.9,9.1-2.8
	c1.9-1.7,2.8-4,2.8-7C123.5,31.1,122.6,28.8,120.7,27.1L120.7,27.1z M146,38.2c0,3.8-3.4,5.6-10.1,5.6c-2.1,0-3.8-0.1-5.2-0.4
	s-2.6-0.7-3.4-1.3c-0.7-0.5-1.2-1.1-1.6-1.8c-0.4-0.7-0.7-1.7-0.8-2.8l3.1,0c0,1.5,0.5,2.6,1.6,3.3c1.2,0.8,3.3,1.3,6.3,1.3
	c4.7,0,7.1-1.2,7.1-3.5c0-1.4-0.8-2.3-2.4-2.8c-0.3-0.1-2.2-0.4-5.7-0.8s-5.7-0.8-6.5-1.2c-1.9-0.7-2.8-2.1-2.8-4
	c0-1.9,0.8-3.3,2.5-4.2c0.8-0.4,1.8-0.7,3.1-0.9s2.7-0.3,4.3-0.3c6.5,0,9.7,2,9.7,6.1h-3c0-2.9-2.3-4.3-6.8-4.3
	c-2.3,0-4,0.3-5.2,0.9c-1.1,0.6-1.7,1.5-1.7,2.7c0,1.1,0.8,1.9,2.3,2.4c0.9,0.3,3,0.6,6.2,0.9c2.9,0.3,4.9,0.6,6,1.1
	C145,34.9,146.1,36.3,146,38.2L146,38.2z M158.3,43.3l-1.3,0.2l-0.8,0.1c-2,0-3.5-0.3-4.4-0.9s-1.4-1.6-1.4-3.1V26.8h-3.7v-1.9h3.7
	l0-6h2.9v6h5v1.9l-5,0v12.4c0,0.9,0.2,1.6,0.7,1.9s1.4,0.5,2.6,0.5c0.2,0,0.4,0,0.6,0c0.3-0.1,0.7-0.1,1-0.2L158.3,43.3L158.3,43.3z
	 M178.1,39.1c-0.8,0.6-1.7,1.1-2.7,1.5S173.3,41,172,41c-6,0-9-2.5-9-7.4c0-2.3,0.8-4.1,2.3-5.4s3.7-1.9,6.5-1.9
	c2.8,0,4.9,0.7,6.4,2s2.2,3.1,2.2,5.3C180.3,35.9,179.6,37.8,178.1,39.1 M183.2,24.9h-2.9l0,3.1c-1.3-1.3-2.2-2.1-2.7-2.4
	c-1.6-0.9-3.7-1.3-6.2-1.3c-3.7,0-6.6,0.9-8.5,2.5c-1.9,1.6-2.8,3.8-2.8,6.8c0,1.5,0.2,2.8,0.7,3.9s1.2,2.1,2.1,2.9
	c2,1.6,4.7,2.5,8.3,2.5c4.3,0,7.4-1.2,9.2-3.5v3.3c0,2.1-0.7,3.7-2,4.8s-3.5,1.7-6.5,1.7c-2.8,0-4.8-0.4-6-1.2
	c-0.9-0.6-1.5-1.6-1.9-3.1h-2.9c0.3,2.1,1.2,3.5,2.6,4.5c1.6,1.1,4.4,1.6,8.3,1.6c7.5,0,11.2-2.8,11.2-8.3L183.2,24.9L183.2,24.9z
	 M198.6,26.8c-0.9-0.1-1.7-0.2-2.4-0.2c-4.7,0-7,2.6-7,7.7v9h-2.8l0-18.3l2.9,0v3.3h0.1c0.5-1.3,1.2-2.3,2.3-2.9
	c1.1-0.6,2.8-1,5.1-1h1.9L198.6,26.8L198.6,26.8z M201.3,32.9c0.4-2.1,1.2-3.7,2.4-4.8c0.8-0.7,1.8-1.2,2.8-1.5s2.2-0.5,3.5-0.5
	c2.5,0,4.6,0.7,6.2,2.1s2.4,3,2.4,4.7L201.3,32.9 M218.9,27.3c-1-1-2.2-1.7-3.7-2.2s-3.2-0.7-5.2-0.7c-3.7,0-6.6,0.9-8.6,2.6
	s-3.1,4.1-3.1,7s1,5.3,2.9,7c2.1,1.9,5.1,2.9,9,2.9c1.5,0,3-0.2,4.3-0.5s2.5-0.8,3.4-1.5c1.7-1.2,2.8-2.8,3.3-4.6h-3.1
	c-1.1,3.1-3.7,4.7-7.9,4.7c-3,0-5.3-0.8-6.9-2.3c-1.4-1.3-2.1-3-2.1-5.1h20.4C221.6,31.5,220.7,29.1,218.9,27.3L218.9,27.3z"/>
<path class="st1" d="M251.8,35.8c0,5.4-4.4,8.2-13.2,8.2c-5.3,0-9.1-0.9-11.5-2.8c-2-1.5-3-3.9-3-7h3.5c0,5.1,3.6,7.6,10.9,7.6
	c3.5,0,6-0.5,7.6-1.6c1.3-0.9,2-2.4,2-4.3c0-1.9-0.9-3.3-2.7-4.1c-1-0.4-3.5-1-7.5-1.6c-5-0.8-8.2-1.5-9.7-2.3
	c-2.1-1.1-3.2-3-3.2-5.7c0-2.5,0.9-4.4,2.7-5.6c2-1.3,5.3-2,10.1-2c8.6,0,12.9,2.9,12.9,8.6h-3.6c0-4.3-3.2-6.4-9.6-6.4
	c-3.2,0-5.5,0.4-7,1.3c-1.4,0.9-2.1,2.3-2.1,4c0,1.9,0.9,3.2,2.7,3.9c1,0.4,3.8,1,8.5,1.8c4.4,0.7,7.4,1.4,8.9,2.3
	C250.8,31.3,251.8,33.1,251.8,35.8L251.8,35.8z M280.5,38.6c-1.3,1.1-2.8,1.8-4.5,2.4s-3.5,0.8-5.6,0.8c-4.2,0-7.6-1.1-10.2-3.4
	s-3.9-5.3-3.9-9.1c0-3.9,1.3-7,3.9-9.2s6-3.3,10.2-3.3c4.3,0,7.7,1.1,10.1,3.4c1.3,1.1,2.3,2.4,2.9,3.9s0.9,3.2,0.9,5.1
	C284.4,33.2,283.1,36.3,280.5,38.6 M282.4,40.4c1.8-1.3,3.2-2.9,4.1-4.7s1.3-4,1.3-6.4c0-4.3-1.4-7.8-4.3-10.4
	c-1.5-1.4-3.4-2.5-5.6-3.2s-4.7-1.1-7.5-1.1c-5.4,0-9.7,1.3-12.8,4c-3.1,2.6-4.6,6.2-4.6,10.7c0,4.4,1.6,7.9,4.7,10.6s7.4,4,12.8,4
	c2.1,0,4-0.1,5.5-0.4s2.9-0.7,4-1.3l5.2,3.6l2.2-2L282.4,40.4L282.4,40.4z M314.2,43.3h-24.1v-28l3.3-0.1v25.7h20.8L314.2,43.3
	L314.2,43.3z"/>
<g id="g14" transform="matrix(0.13333333,0,0,-0.13333333,0,462.54667)">
	<g>
		<defs>
			<path id="SVGID_1_" d="M101,3401.8c0,0,25.8,33.7,43.6,47.7c5.7,4.5,48,30.8,75.1-59.8c14.9-49.6,15.1-86.6-18.7-102.3
				c-20.2-9.4-13-27.1-13-27.1"/>
		</defs>
		<clipPath id="SVGID_2_">
			<use xlink:href="#SVGID_1_"  style="overflow:visible;"/>
		</clipPath>
		<g id="g16" class="st2">
			
				<linearGradient id="path28_1_" gradientUnits="userSpaceOnUse" x1="-897.9855" y1="2158.2927" x2="-897.7697" y2="2158.2927" gradientTransform="matrix(115.6676 -85.4995 -86.2008 -114.7266 290160.4688 174147.3438)">
				<stop  offset="0" style="stop-color:#8C9BD6"/>
				<stop  offset="1" style="stop-color:#505E9B"/>
			</linearGradient>
			<path id="path28" class="st3" d="M101,3401.8c0,0,25.8,33.7,43.6,47.7c5.7,4.5,48,30.8,75.1-59.8c14.9-49.6,15.1-86.6-18.7-102.3
				c-20.2-9.4-13-27.1-13-27.1"/>
		</g>
	</g>
</g>
<path id="path30" class="st4" d="M18.9,2.1C16.5,4,13.2,8.3,13,8.5c-0.2,0.3-0.2,0.7,0.1,0.9c0.2,0.2,0.6,0.2,0.8-0.1
	c0,0,3.4-4.5,5.7-6.3c0.1-0.1,1.7-1.3,3.8-0.6c2.1,0.8,4,3.6,5.4,8.2c2.2,7.3,1.5,11.1-2.2,12.8c-1.1,0.5-1.8,1.2-2.1,2.1
	c-0.4,1.2,0,2.3,0,2.4c0.1,0.3,0.5,0.5,0.8,0.3c0.3-0.1,0.4-0.5,0.3-0.9c0,0-0.3-0.7,0-1.3c0.2-0.6,0.7-1,1.4-1.4
	c5.6-2.6,4.4-9.1,2.8-14.5c-1.5-5-3.6-8.1-6.1-9C21.2,0.4,19.2,1.9,18.9,2.1"/>
<g id="g32" transform="matrix(0.13333333,0,0,-0.13333333,0,462.54667)">
	<g>
		<defs>
			<path id="SVGID_3_" d="M447.5,3382.3h54.1c4.5,0,8.2-3.6,8.2-7.9l0,0c0-4.4-3.7-7.9-8.2-7.9h-42.5L447.5,3382.3z"/>
		</defs>
		<clipPath id="SVGID_4_">
			<use xlink:href="#SVGID_3_"  style="overflow:visible;"/>
		</clipPath>
		<g id="g34" class="st5">
			
				<linearGradient id="path46_1_" gradientUnits="userSpaceOnUse" x1="-898.1386" y1="2163.3892" x2="-897.9316" y2="2163.3892" gradientTransform="matrix(116.6292 -86.2104 -86.9175 -115.6804 293139 176302.0781)">
				<stop  offset="0" style="stop-color:#808FD0"/>
				<stop  offset="1" style="stop-color:#505E9B"/>
			</linearGradient>
			<path id="path46" class="st6" d="M447.5,3382.3h54.1c4.5,0,8.2-3.6,8.2-7.9l0,0c0-4.4-3.7-7.9-8.2-7.9h-42.5L447.5,3382.3"/>
		</g>
	</g>
</g>
<path id="path48" class="st4" d="M66.9,12.2c0.3,0,0.5,0.2,0.5,0.4c0,0.2-0.2,0.4-0.5,0.4c0,0-4.9,0-5.4,0c-0.1-0.2-0.3-0.4-0.6-0.8
	C62.6,12.2,66.9,12.2,66.9,12.2L66.9,12.2z M58.4,10.9l2.5,3.4h5.9c0.9,0,1.7-0.8,1.7-1.7c0-1-0.8-1.7-1.7-1.7H58.4"/>
<path id="path50" class="st7" d="M69.1,9.1c1-0.6,2.2-0.4,2.6,0.3c0.4,0.7,0,1.8-1,2.3c-1,0.6-3.6,1.2-4,0.5
	C66.2,11.5,68.1,9.7,69.1,9.1"/>
<path id="path52" class="st4" d="M69.4,9.7L69.4,9.7c0.8-0.4,1.6-0.3,1.9,0.1c0.1,0.1,0.1,0.2,0,0.4c-0.1,0.3-0.3,0.7-0.8,1
	c-1,0.5-2.7,0.9-3.2,0.7C67.5,11.3,68.5,10.2,69.4,9.7L69.4,9.7z M68.9,8.5L68.9,8.5c-0.8,0.5-2.5,2-2.8,3.1l0.1,1
	c0.8,1.3,4,0.1,4.8-0.3c0.7-0.4,1.3-1.1,1.4-1.8c0.1-0.5,0-1.1-0.2-1.5C71.6,8,70.1,7.8,68.9,8.5"/>
<path id="path54" class="st7" d="M70.9,13.4c1.1,0.4,1.7,1.4,1.3,2.2c-0.3,0.8-1.5,1.1-2.5,0.7c-1.1-0.4-3.2-2-2.9-2.8
	C67.1,12.7,69.8,13,70.9,13.4"/>
<path id="path56" class="st4" d="M71.1,12.8L71.1,12.8L71.1,12.8z M70.7,14L70.7,14c0.6,0.2,0.9,0.6,1,0.9c0.1,0.2,0,0.3,0,0.4
	c-0.2,0.4-1,0.6-1.8,0.3c-0.9-0.4-2.2-1.4-2.4-1.9C67.9,13.5,69.7,13.6,70.7,14L70.7,14z M66.3,13.2l0,1c0.4,1.1,2.3,2.4,3.2,2.7
	c1.4,0.5,2.8,0.1,3.2-1c0.1-0.2,0.1-0.5,0.1-0.7c0-0.2,0-0.5-0.1-0.7c-0.3-0.7-0.9-1.3-1.7-1.6C70.3,12.5,66.9,11.7,66.3,13.2"/>
<path id="path58" class="st7" d="M71,11c1.6,0,2.9,0.7,2.9,1.5c0,0.8-1.3,1.5-2.8,1.5c-1.6,0-5.1-0.6-5.2-1.5
	C65.9,11.7,69.5,11,71,11"/>
<path id="path60" class="st4" d="M73.3,12.5c0,0,0,0.1-0.1,0.2c-0.3,0.3-1.1,0.7-2.2,0.7c-1.4,0-3.5-0.4-4.3-0.8
	c0.8-0.4,2.9-0.9,4.3-0.9h0C72.5,11.7,73.3,12.3,73.3,12.5L73.3,12.5z M71,10.3L71,10.3c-1.1,0-4.6,0.5-5.4,1.5l-0.3,0.7
	c0,2,5.7,2.1,5.7,2.1c1.3,0,2.4-0.4,3-1.1c0.3-0.3,0.4-0.7,0.4-1.1C74.5,11.2,73,10.3,71,10.3"/>
<g id="g62" transform="matrix(0.13333333,0,0,-0.13333333,0,462.54667)">
	<g>
		<defs>
			<path id="SVGID_5_" d="M259,3224.3v-127.9c0-31.5-26.5-42.8-59.1-42.8l0,0c-32.6,0-59.1,11.3-59.1,42.8v129.4"/>
		</defs>
		<clipPath id="SVGID_6_">
			<use xlink:href="#SVGID_5_"  style="overflow:visible;"/>
		</clipPath>
		<g id="g64" class="st8">
			
				<linearGradient id="path76_1_" gradientUnits="userSpaceOnUse" x1="-897.8552" y1="2154.9133" x2="-897.6346" y2="2154.9133" gradientTransform="matrix(115.1603 -85.1246 -85.8228 -114.2234 288496.1875 172893)">
				<stop  offset="0" style="stop-color:#8C9BD6"/>
				<stop  offset="1" style="stop-color:#505E9B"/>
			</linearGradient>
			<path id="path76" class="st9" d="M259,3224.3v-127.9c0-31.5-26.5-42.8-59.1-42.8l0,0c-32.6,0-59.1,11.3-59.1,42.8v129.4"/>
		</g>
	</g>
</g>
<path id="path78" class="st4" d="M18.2,32.4v17.3c0,4.1,3,6.4,8.5,6.4c5.5,0,8.5-2.3,8.5-6.4V32.6c0-0.4-0.3-0.7-0.6-0.7
	c-0.3,0-0.6,0.3-0.6,0.7v17.1c0,4.2-4,5-7.3,5c-3.3,0-7.3-0.9-7.3-5V32.4c0-0.4-0.3-0.7-0.6-0.7C18.5,31.8,18.2,32.1,18.2,32.4"/>
<path id="path80" class="st7" d="M22.2,49.7c0,1.7-0.8,3.1-1.9,3.1c-1,0-1.9-1.4-1.9-3.1c0-1.7,0.8-5.6,1.9-5.6
	C21.4,44.1,22.2,48,22.2,49.7"/>
<path id="path82" class="st4" d="M18.7,49.7c0-1.9,0.9-5.3,1.7-5.3c0.8,0,1.7,3.5,1.7,5.3c0,1.6-0.7,2.9-1.7,2.9
	C19.5,52.5,18.7,51.3,18.7,49.7z M18.3,49.7c0,1.8,0.9,3.3,2.1,3.3c1.1,0,2.1-1.5,2.1-3.3c0-1.7-0.8-5.8-2.1-5.8
	C19.1,43.9,18.3,48,18.3,49.7"/>
<path id="path84" class="st10" d="M19,50c0-1.6,1-4.6,1.7-4.6c0.1,0,0.1,0,0.2,0.1c-0.2-0.5-0.4-0.9-0.6-0.9
	C19.6,44.6,19,48.3,19,50"/>
<path id="path86" class="st7" d="M23.1,51.3c0,1.3-0.7,2.4-1.5,2.4c-0.8,0-1.5-1.1-1.5-2.4c0-1.3,0.7-4.3,1.5-4.3
	C22.5,47,23.1,50,23.1,51.3"/>
<path id="path88" class="st4" d="M20.3,51.3c0-1.4,0.7-4.1,1.3-4.1c0.6,0,1.3,2.7,1.3,4.1c0,1.2-0.6,2.2-1.3,2.2
	C20.9,53.5,20.3,52.5,20.3,51.3z M20,51.3c0,1.4,0.8,2.6,1.7,2.6c0.9,0,1.7-1.2,1.7-2.6c0-1.1-0.6-4.5-1.7-4.5
	C20.6,46.8,20,50.2,20,51.3"/>
<path id="path90" class="st10" d="M20.8,50.5c-0.1-0.9,0.6-2.5,1.2-2.6c0.1,0,0.1,0,0.2,0c-0.2-0.3-0.3-0.5-0.5-0.4
	C21.1,47.9,20.7,49.6,20.8,50.5"/>
<g id="g92" transform="matrix(0.13333333,0,0,-0.13333333,0,462.54667)">
	<g>
		<defs>
			<path id="SVGID_7_" d="M439.7,3222.7v-127.9c0-31.5-26.4-42.8-59.1-42.8l0,0c-32.6,0-59.1,11.3-59.1,42.8v129.4"/>
		</defs>
		<clipPath id="SVGID_8_">
			<use xlink:href="#SVGID_7_"  style="overflow:visible;"/>
		</clipPath>
		<g id="g94" class="st11">
			
				<linearGradient id="path106_1_" gradientUnits="userSpaceOnUse" x1="-898.0088" y1="2157.8462" x2="-897.7882" y2="2157.8462" gradientTransform="matrix(115.1591 -85.1238 -85.822 -114.2223 288818.375 173303.9844)">
				<stop  offset="0" style="stop-color:#8C9BD6"/>
				<stop  offset="1" style="stop-color:#505E9B"/>
			</linearGradient>
			<path id="path106" class="st12" d="M439.7,3222.7v-127.9c0-31.5-26.4-42.8-59.1-42.8l0,0c-32.6,0-59.1,11.3-59.1,42.8v129.4"/>
		</g>
	</g>
</g>
<path id="path108" class="st4" d="M42.3,32.6v17.3c0,4.1,3,6.4,8.5,6.4c2.5,0,4.4-0.5,5.9-1.4c1.7-1.1,2.6-2.8,2.6-5v-17
	c0-0.4-0.3-0.7-0.6-0.7c-0.3,0-0.6,0.3-0.6,0.7v17c0,1.7-0.7,3-2,3.9c-1.2,0.8-3.1,1.2-5.3,1.2c-3.3,0-7.3-0.9-7.3-5V32.6
	c0-0.4-0.3-0.7-0.6-0.7C42.6,32,42.3,32.3,42.3,32.6"/>
<path id="path110" class="st13" d="M46.3,49.9c0,1.7-0.8,3.1-1.9,3.1c-1,0-1.9-1.4-1.9-3.1c0-1.7,0.8-5.6,1.9-5.6
	C45.5,44.3,46.3,48.2,46.3,49.9"/>
<path id="path112" class="st4" d="M42.8,49.9c0-0.9,0.2-2.2,0.5-3.3c0.4-1.2,0.8-2,1.1-2c0.8,0,1.7,3.5,1.7,5.3
	c0,1.6-0.7,2.9-1.7,2.9C43.5,52.7,42.8,51.5,42.8,49.9L42.8,49.9z M43,46.4c-0.3,1.1-0.6,2.6-0.6,3.5c0,1.8,0.9,3.3,2.1,3.3
	c1.1,0,2.1-1.5,2.1-3.3c0-1.7-0.8-5.8-2.1-5.8C43.8,44.1,43.3,45.4,43,46.4"/>
<path id="path114" class="st14" d="M43.1,50.2c0-1.6,1-4.6,1.7-4.6c0.1,0,0.1,0,0.2,0.1c-0.2-0.5-0.4-0.9-0.6-0.9
	C43.7,44.8,43.1,48.6,43.1,50.2"/>
<path id="path116" class="st13" d="M47.2,51.5c0,1.3-0.7,2.4-1.5,2.4c-0.8,0-1.5-1.1-1.5-2.4c0-1.3,0.7-4.3,1.5-4.3
	C46.5,47.2,47.2,50.2,47.2,51.5"/>
<path id="path118" class="st4" d="M44.4,51.5c0-1.4,0.7-4.1,1.3-4.1c0.6,0,1.3,2.7,1.3,4.1c0,1.2-0.6,2.2-1.3,2.2
	C45,53.7,44.4,52.7,44.4,51.5z M44.1,51.5c0,1.4,0.8,2.6,1.7,2.6c0.9,0,1.7-1.2,1.7-2.6c0-1.1-0.6-4.5-1.7-4.5
	C44.6,47,44.1,50.4,44.1,51.5"/>
<path id="path120" class="st14" d="M44.9,50.7c-0.1-0.9,0.6-2.5,1.2-2.6c0.1,0,0.1,0,0.2,0c-0.2-0.3-0.3-0.5-0.5-0.4
	C45.2,48.1,44.8,49.8,44.9,50.7"/>
<g id="g122" transform="matrix(0.13333333,0,0,-0.13333333,0,462.54667)">
	<g>
		<defs>
			<path id="SVGID_9_" d="M209.3,3398.9c23-44.2,20.6-81.6-10.1-101.2c-18.4-11.7-8.2-27.2-8.2-27.2"/>
		</defs>
		<clipPath id="SVGID_10_">
			<use xlink:href="#SVGID_9_"  style="overflow:visible;"/>
		</clipPath>
		<g id="g124" class="st15">
			
				<linearGradient id="path136_1_" gradientUnits="userSpaceOnUse" x1="-897.8229" y1="2158.2051" x2="-897.5699" y2="2158.2051" gradientTransform="matrix(111.7851 -82.6298 -83.3075 -110.8757 280403.6562 168406.5938)">
				<stop  offset="0" style="stop-color:#808FD0"/>
				<stop  offset="1" style="stop-color:#505E9B"/>
			</linearGradient>
			<path id="path136" class="st16" d="M209.3,3398.9c23-44.2,20.6-81.6-10.1-101.2c-18.4-11.7-8.2-27.2-8.2-27.2"/>
		</g>
	</g>
</g>
<path id="path138" class="st17" d="M27.6,8.8c-0.3,0.2-0.4,0.6-0.2,0.9c1.7,3.3,2.3,6.3,1.8,8.6c-0.4,1.7-1.4,3-2.9,4
	c-1,0.6-1.5,1.4-1.7,2.3c-0.2,1.2,0.4,2.2,0.4,2.3c0.2,0.3,0.6,0.4,0.8,0.1c0.3-0.2,0.3-0.6,0.1-0.9c0,0-0.4-0.6-0.2-1.2
	c0.1-0.5,0.5-1,1.1-1.4c1.8-1.2,3-2.8,3.5-4.8c0.6-2.7,0-6-1.9-9.6C28.2,8.7,27.9,8.6,27.6,8.8"/>
<g id="g140" transform="matrix(0.13333333,0,0,-0.13333333,0,462.54667)">
	<g>
		<defs>
			<path id="SVGID_11_" d="M343.7,3430.3c0,0-38.2,0.5-177.8-4.9c-139.6-5.5-134.4-64.7-134.6-149.7v-204.5
				c0-17.3,12.7-24.3,28.3-24.3c15.6,0,28.3,7,28.3,24.3c0,0,3.6,58.4,6.7,94c7,129.1,138.7-21.2,234.5-14.2
				c87,6.4,155.6,41.9,155.6,126.4C484.8,3361.8,439.9,3430.3,343.7,3430.3L343.7,3430.3z"/>
		</defs>
		<clipPath id="SVGID_12_">
			<use xlink:href="#SVGID_11_"  style="overflow:visible;"/>
		</clipPath>
		<g id="g142" class="st18">
			
				<linearGradient id="path154_1_" gradientUnits="userSpaceOnUse" x1="-898.0083" y1="2156.854" x2="-897.7977" y2="2156.854" gradientTransform="matrix(116.2523 -85.9318 -86.6366 -115.3065 291459.5 174785.1406)">
				<stop  offset="0" style="stop-color:#8C9BD6"/>
				<stop  offset="1" style="stop-color:#505E9B"/>
			</linearGradient>
			<path id="path154" class="st19" d="M343.7,3430.3c0,0-38.2,0.5-177.8-4.9c-139.6-5.5-134.4-64.7-134.6-149.7v-204.5
				c0-17.3,12.7-24.3,28.3-24.3c15.6,0,28.3,7,28.3,24.3c0,0,3.6,58.4,6.7,94c7,129.1,138.7-21.2,234.5-14.2
				c87,6.4,155.6,41.9,155.6,126.4C484.8,3361.8,439.9,3430.3,343.7,3430.3"/>
		</g>
	</g>
</g>
<path id="path156" class="st4" d="M4.8,53.1V25.8c0,0,0-1.2,0-1.2c0-10.5,0-17.4,17.4-18.1c18.4-0.7,23.6-0.7,23.7-0.7h0
	c5.9,0,10.6,2,13.8,5.8c2.9,3.5,4.4,8.3,4.4,14c0,12.2-11,15.5-20.2,16.2c-4.9,0.4-10.6-2.5-15.6-5c-5.7-2.8-10.5-5.2-13.6-3.1
	c-1.6,1.1-2.5,3.3-2.6,6.8c-0.4,4.7-0.9,12.4-0.9,12.5c0,2.3-2,2.6-3.2,2.6C6.8,55.6,4.8,55.3,4.8,53.1L4.8,53.1z M22.1,5.2
	C3.6,5.9,3.6,13.7,3.6,24.6l0,1.2v27.3C3.6,55.5,5.2,57,8,57c2.7,0,4.4-1.5,4.4-3.9c0,0,0.5-7.8,0.9-12.5c0.2-3.1,0.8-4.9,2.1-5.8
	c2.5-1.7,7.3,0.7,12.5,3.2c5.2,2.6,11,5.5,16.2,5.1c13.7-1,21.3-7.2,21.3-17.5c0-6-1.6-11.2-4.8-14.9c-3.4-4-8.5-6.2-14.6-6.2h0
	C45.8,4.5,40.5,4.4,22.1,5.2"/>
<g id="g158" transform="matrix(0.13333333,0,0,-0.13333333,0,462.54667)">
	<g>
		<defs>
			<path id="SVGID_13_" d="M35.1,3270.1c0.1-19.2-2.1-186.9,6.8-197c-2.8,7.4,3.3,169.9,3.3,180.1l-0.1,6c0,2.8,0,5.6,0,8.4
				c-3.5,1.5-6.8,3.4-10,5.5L35.1,3270.1z"/>
		</defs>
		<clipPath id="SVGID_14_">
			<use xlink:href="#SVGID_13_"  style="overflow:visible;"/>
		</clipPath>
		<g id="g160" class="st20">
			
				<linearGradient id="path172_1_" gradientUnits="userSpaceOnUse" x1="-892.9792" y1="2151.1343" x2="-892.7388" y2="2151.1343" gradientTransform="matrix(76.9715 -111.2693 -112.182 -76.3453 310003.7812 68171.4922)">
				<stop  offset="0" style="stop-color:#FAFAFD"/>
				<stop  offset="1" style="stop-color:#8892D2"/>
			</linearGradient>
			<path id="path172" class="st21" d="M35.1,3270.1c0.1-19.2-2.1-186.9,6.8-197c-2.8,7.4,3.3,169.9,3.3,180.1l-0.1,6
				c0,2.8,0,5.6,0,8.4c-3.5,1.5-6.8,3.4-10,5.5L35.1,3270.1"/>
		</g>
	</g>
</g>
<g id="g174" transform="matrix(0.13333333,0,0,-0.13333333,0,462.54667)">
	<g>
		<defs>
			<path id="SVGID_15_" d="M343.7,3424.7c0,0-37.4,0.5-173.9-4.8C33.2,3414.5,35.3,3355,35.3,3275l0-3c3.2-2.1,6.4-4,9.8-5.5
				c0,75.7,2.8,131.3,134.5,136.4c136.5,5.4,173.9,4.8,173.9,4.8c52.2,0,88.2-20.9,110.6-53.4
				C443.5,3396.5,404.4,3424.7,343.7,3424.7L343.7,3424.7z"/>
		</defs>
		<clipPath id="SVGID_16_">
			<use xlink:href="#SVGID_15_"  style="overflow:visible;"/>
		</clipPath>
		<g id="g176" class="st22">
			
				<linearGradient id="path188_1_" gradientUnits="userSpaceOnUse" x1="-893.8234" y1="2157.7468" x2="-893.6166" y2="2157.7468" gradientTransform="matrix(89.6893 -129.6543 -130.7177 -88.9597 362374.5 79519.6484)">
				<stop  offset="0" style="stop-color:#FAFAFD"/>
				<stop  offset="1" style="stop-color:#8892D2"/>
			</linearGradient>
			<path id="path188" class="st23" d="M343.7,3424.7c0,0-37.4,0.5-173.9-4.8C33.2,3414.5,35.3,3355,35.3,3275l0-3
				c3.2-2.1,6.4-4,9.8-5.5c0,75.7,2.8,131.3,134.5,136.4c136.5,5.4,173.9,4.8,173.9,4.8c52.2,0,88.2-20.9,110.6-53.4
				C443.5,3396.5,404.4,3424.7,343.7,3424.7"/>
		</g>
	</g>
</g>
<g id="g190" transform="matrix(0.13333333,0,0,-0.13333333,0,462.54667)">
	<g>
		<defs>
			<path id="SVGID_17_" d="M296.1,3165.6v-91.1c0-31.5-26.5-42.9-59.1-42.9l0,0c-32.6,0-59.1,11.3-59.1,42.9v138.6"/>
		</defs>
		<clipPath id="SVGID_18_">
			<use xlink:href="#SVGID_17_"  style="overflow:visible;"/>
		</clipPath>
		<g id="g192" class="st24">
			
				<linearGradient id="path204_1_" gradientUnits="userSpaceOnUse" x1="-897.8778" y1="2154.8081" x2="-897.6567" y2="2154.8081" gradientTransform="matrix(115.1004 -85.0803 -85.7782 -114.164 288332.3125 172783.4375)">
				<stop  offset="0" style="stop-color:#8C9BD6"/>
				<stop  offset="1" style="stop-color:#505E9B"/>
			</linearGradient>
			<path id="path204" class="st25" d="M296.1,3165.6v-91.1c0-31.5-26.5-42.9-59.1-42.9l0,0c-32.6,0-59.1,11.3-59.1,42.9v138.6"/>
		</g>
	</g>
</g>
<path id="path206" class="st4" d="M23.1,34.1v18.5c0,4.1,3,6.4,8.5,6.4c5.5,0,8.5-2.3,8.5-6.4V40.5c0-0.4-0.3-0.7-0.6-0.7
	c-0.3,0-0.6,0.3-0.6,0.7v12.1c0,4.2-4,5-7.3,5c-3.3,0-7.3-0.9-7.3-5V34.1c0-0.4-0.3-0.7-0.6-0.7C23.4,33.5,23.1,33.8,23.1,34.1"/>
<path id="path208" class="st7" d="M28.7,53.8c0,1.6-1.1,2.9-2.5,2.9c-1.4,0-2.5-1.3-2.5-2.9c0-1.6,1.1-5.2,2.5-5.2
	C27.6,48.6,28.7,52.2,28.7,53.8"/>
<path id="path210" class="st4" d="M23.9,53.8c0-1.5,1.1-4.9,2.3-4.9c1.2,0,2.3,3.4,2.3,4.9c0,1.5-1,2.6-2.3,2.6
	C24.9,56.4,23.9,55.2,23.9,53.8z M23.5,53.8c0,1.7,1.2,3.1,2.7,3.1c1.5,0,2.7-1.4,2.7-3.1c0-1.6-1.1-5.4-2.7-5.4
	C24.7,48.4,23.5,52.2,23.5,53.8"/>
<path id="path212" class="st10" d="M24.1,54c0-1.4,1.4-4,2.4-4c0.1,0,0.2,0,0.3,0.1c-0.3-0.4-0.5-0.7-0.9-0.7
	C25,49.4,24.1,52.6,24.1,54"/>
<path id="path214" class="st7" d="M30.7,54c0,2.1-1.2,3.8-2.6,3.8c-1.4,0-2.6-1.7-2.6-3.8c0-2.1,1.2-6.8,2.6-6.8
	C29.6,47.2,30.7,51.9,30.7,54"/>
<path id="path216" class="st4" d="M25.8,54c0-2.1,1.2-6.6,2.4-6.6c1.2,0,2.4,4.5,2.4,6.6c0,2-1.1,3.6-2.4,3.6
	C26.8,57.6,25.8,56,25.8,54z M25.4,54c0,2.2,1.2,4,2.8,4c1.5,0,2.8-1.8,2.8-4c0-2.1-1.2-7-2.8-7C26.5,47,25.4,51.9,25.4,54"/>
<path id="path218" class="st10" d="M26.3,54.4c0-2,1.4-5.6,2.4-5.6c0.1,0,0.2,0.1,0.3,0.1c-0.3-0.6-0.5-1.1-0.9-1.1
	C27.1,47.8,26.3,52.4,26.3,54.4"/>
<path id="path220" class="st7" d="M32.1,55.1c0,1.5-0.8,2.7-1.9,2.7c-1,0-1.9-1.2-1.9-2.7c0-1.5,0.8-4.8,1.9-4.8
	C31.2,50.3,32.1,53.6,32.1,55.1"/>
<path id="path222" class="st4" d="M28.5,55.1c0-1.6,0.9-4.6,1.7-4.6c0.8,0,1.7,3,1.7,4.6c0,1.4-0.7,2.5-1.7,2.5
	C29.3,57.6,28.5,56.5,28.5,55.1z M28.2,55.1c0,1.6,0.9,2.9,2,2.9c1.1,0,2-1.3,2-2.9c0-1.5-0.8-5-2-5C29,50.1,28.2,53.7,28.2,55.1"/>
<path id="path224" class="st10" d="M29.1,54.2c-0.1-1.1,0.8-2.8,1.5-2.9c0.1,0,0.1,0,0.2,0c-0.2-0.3-0.4-0.5-0.6-0.4
	C29.5,51.2,29,53.2,29.1,54.2"/>
<g id="g226" transform="matrix(0.13333333,0,0,-0.13333333,0,462.54667)">
	<g>
		<defs>
			<path id="SVGID_19_" d="M476.9,3228.2v-150.1c0-31.5-26.5-42.8-59.1-42.8l0,0c-32.6,0-59.1,11.3-59.1,42.8v86.2"/>
		</defs>
		<clipPath id="SVGID_20_">
			<use xlink:href="#SVGID_19_"  style="overflow:visible;"/>
		</clipPath>
		<g id="g228" class="st26">
			
				<linearGradient id="path240_1_" gradientUnits="userSpaceOnUse" x1="-897.9776" y1="2158.3499" x2="-897.7602" y2="2158.3499" gradientTransform="matrix(115.5005 -85.3761 -86.0764 -114.5608 289726.0312 173881.0156)">
				<stop  offset="0" style="stop-color:#8C9BD6"/>
				<stop  offset="1" style="stop-color:#505E9B"/>
			</linearGradient>
			<path id="path240" class="st27" d="M476.9,3228.2v-150.1c0-31.5-26.5-42.8-59.1-42.8l0,0c-32.6,0-59.1,11.3-59.1,42.8v86.2"/>
		</g>
	</g>
</g>
<path id="path242" class="st4" d="M63,32.1v20c0,4.2-4,5-7.3,5c-3.3,0-7.3-0.9-7.3-5V40.6c0-0.4-0.3-0.7-0.6-0.7
	c-0.3,0-0.6,0.3-0.6,0.7v11.5c0,4.1,3,6.4,8.5,6.4c5.5,0,8.5-2.3,8.5-6.4v-20c0-0.4-0.3-0.7-0.6-0.7C63.3,31.5,63,31.8,63,32.1"/>
<path id="path244" class="st7" d="M52.8,53.3c0,1.6-1.1,2.9-2.5,2.9s-2.5-1.3-2.5-2.9c0-1.6,1.1-5.2,2.5-5.2S52.8,51.7,52.8,53.3"/>
<path id="path246" class="st4" d="M48,53.3c0-1.5,1.1-4.9,2.3-4.9c1.2,0,2.3,3.4,2.3,4.9c0,1.5-1,2.6-2.3,2.6C49,56,48,54.8,48,53.3
	z M47.6,53.3c0,1.7,1.2,3.1,2.7,3.1c1.5,0,2.7-1.4,2.7-3.1c0-1.6-1.1-5.4-2.7-5.4C48.8,47.9,47.6,51.7,47.6,53.3"/>
<path id="path248" class="st10" d="M48.2,53.5c0-1.4,1.4-4,2.4-4c0.1,0,0.2,0,0.3,0.1c-0.3-0.4-0.5-0.7-0.9-0.7
	C49.1,48.9,48.2,52.1,48.2,53.5"/>
<path id="path250" class="st7" d="M54.8,53.5c0,2.1-1.2,3.8-2.6,3.8c-1.4,0-2.6-1.7-2.6-3.8c0-2.1,1.2-6.8,2.6-6.8
	C53.7,46.7,54.8,51.4,54.8,53.5"/>
<path id="path252" class="st4" d="M49.9,53.5c0-2.1,1.2-6.6,2.4-6.6c1.2,0,2.4,4.5,2.4,6.6c0,2-1.1,3.6-2.4,3.6
	C50.9,57.1,49.9,55.5,49.9,53.5z M49.5,53.5c0,2.2,1.2,4,2.8,4c1.5,0,2.8-1.8,2.8-4c0-2.1-1.2-7-2.8-7
	C50.6,46.5,49.5,51.4,49.5,53.5"/>
<path id="path254" class="st10" d="M50.4,53.9c0-2,1.4-5.6,2.4-5.6c0.1,0,0.2,0.1,0.3,0.1c-0.3-0.6-0.5-1.1-0.9-1.1
	C51.2,47.4,50.4,51.9,50.4,53.9"/>
<path id="path256" class="st7" d="M56.2,54.7c0,1.5-0.8,2.7-1.9,2.7s-1.9-1.2-1.9-2.7c0-1.5,0.8-4.8,1.9-4.8S56.2,53.2,56.2,54.7"/>
<path id="path258" class="st4" d="M52.7,54.7c0-1.6,0.9-4.6,1.7-4.6c0.8,0,1.7,3,1.7,4.6c0,1.4-0.7,2.5-1.7,2.5
	C53.4,57.1,52.7,56,52.7,54.7L52.7,54.7z M52.3,54.7c0,1.6,0.9,2.9,2,2.9c1.1,0,2-1.3,2-2.9c0-1.5-0.8-5-2-5
	C53.1,49.6,52.3,53.2,52.3,54.7"/>
<path id="path260" class="st10" d="M53.2,53.8c-0.1-1.1,0.8-2.8,1.5-2.9c0.1,0,0.1,0,0.2,0c-0.2-0.3-0.4-0.5-0.6-0.4
	C53.6,50.8,53.1,52.7,53.2,53.8"/>
<path id="path262" class="st4" d="M9.1,14.7c-0.2,0.3-0.1,0.8,0.2,1c0.3,0.2,0.7,0.1,0.9-0.2c1.2-1.9,3.8-2.4,5.1-1.9
	c0.2,0.1,0.6,0.1,0.7-0.1c0.1-0.2,0-0.4-0.2-0.5C14,12.3,10.7,12.2,9.1,14.7"/>
<path id="path264" class="st4" d="M14.2,22.9c-1.1,0.3-2-0.4-2.1-1.6c-0.1-1.2,0.7-2.3,1.8-2.6c1.1-0.3,2,0.4,2.1,1.6
	C16.1,21.5,15.3,22.7,14.2,22.9z M16.4,20.2c-0.1-1.3-1.2-2.2-2.5-1.9c-1.3,0.3-2.2,1.7-2.1,3c0.1,1.3,1.2,2.2,2.5,1.9
	C15.6,22.9,16.5,21.5,16.4,20.2"/>
<path id="path266" class="st28" d="M15.9,20.5c0.1,1-0.6,2-1.6,2.3c-1,0.2-1.8-0.4-1.9-1.4c-0.1-1,0.6-2,1.6-2.3
	C15,18.8,15.8,19.4,15.9,20.5"/>
<path id="path268" class="st4" d="M15.8,20.5c-0.3-0.8-0.9-1.2-1.5-1c-0.3,0.1-0.5,0.4-0.6,0.7l0.8,0.5l-0.7,0.6
	c0.3,0.7,0.9,1.1,1.5,0.9C15.8,22,16,21.2,15.8,20.5"/>
<path id="path270" class="st29" d="M15.2,20.1c0.1,0,0.3,0.2,0.4,0.5c0.1,0.3,0,0.5-0.2,0.6c-0.1,0-0.3-0.2-0.4-0.5
	C15,20.4,15,20.2,15.2,20.1"/>
<path id="path272" class="st4" d="M12.8,19c-1,0.9-1.3,2.3-0.6,3c-0.1,0,0.1,0.2,0,0.1c-1.1-0.7-1.3-2.8-0.3-4
	c0.9-1.1,3.4-1.8,3.4-1.4c-0.1,0.5-0.9,1.1-1.8,1.7C13.2,18.6,13,18.8,12.8,19"/>
<g id="g292" transform="matrix(0.13333333,0,0,-0.13333333,0,462.54667)">
	<g>
		<defs>
			<path id="SVGID_21_" d="M142.4,3414.9c0,0,34.6,28.1,56.5,37.8c7,3.1,57.2,18.8,65.4-83.9c4.5-56.2-3.6-95-42.5-102.1
				c-23.3-4.2-19.7-24.8-19.7-24.8"/>
		</defs>
		<clipPath id="SVGID_22_">
			<use xlink:href="#SVGID_21_"  style="overflow:visible;"/>
		</clipPath>
		<g id="g294" class="st30">
			
				<linearGradient id="path306_1_" gradientUnits="userSpaceOnUse" x1="-897.9901" y1="2158.6353" x2="-897.7709" y2="2158.6353" gradientTransform="matrix(115.3232 -85.245 -85.9442 -114.385 289333.125 173686.3438)">
				<stop  offset="0" style="stop-color:#8C9BD6"/>
				<stop  offset="1" style="stop-color:#505E9B"/>
			</linearGradient>
			<path id="path306" class="st31" d="M142.4,3414.9c0,0,34.6,28.1,56.5,37.8c7,3.1,57.2,18.8,65.4-83.9c4.5-56.2-3.6-95-42.5-102.1
				c-23.3-4.2-19.7-24.8-19.7-24.8"/>
		</g>
	</g>
</g>
<path id="path308" class="st4" d="M26.3,1.6c-2.9,1.3-7.5,5-7.7,5.1c-0.3,0.2-0.3,0.6-0.1,0.9c0.2,0.3,0.6,0.4,0.8,0.2
	c0,0,4.6-3.7,7.4-5c0.1,0,2.2-0.9,4.1,0.5c2.1,1.5,3.4,5,3.8,10.1c0.7,8.3-0.9,12.1-5.2,12.9c-1.2,0.2-2.1,0.8-2.6,1.6
	c-0.7,1.1-0.5,2.4-0.5,2.4c0.1,0.4,0.4,0.6,0.7,0.5c0.3-0.1,0.5-0.4,0.5-0.8c0,0-0.1-0.8,0.3-1.4c0.3-0.6,1-0.9,1.8-1.1
	c6.4-1.2,6.6-8.3,6.2-14.3c-0.5-5.7-1.9-9.4-4.3-11.2C29,0.4,26.6,1.5,26.3,1.6"/>
<g id="g310" transform="matrix(0.13333333,0,0,-0.13333333,0,462.54667)">
	<g>
		<defs>
			<path id="SVGID_23_" d="M177.8,3422.3c39.2,29,60.9,14.2,60.9,14.2c-17,18.4-36.2,12.3-40.4,10.4c-21.8-9.6-63.9-45.3-63.9-45.3
				s-5.7-11.9,5.6-9.3C140,3392.3,164.7,3412.6,177.8,3422.3L177.8,3422.3z"/>
		</defs>
		<clipPath id="SVGID_24_">
			<use xlink:href="#SVGID_23_"  style="overflow:visible;"/>
		</clipPath>
		<g id="g312" class="st32">
			
				<linearGradient id="path324_1_" gradientUnits="userSpaceOnUse" x1="-893.9673" y1="2157.5732" x2="-893.7744" y2="2157.5732" gradientTransform="matrix(91.6631 -132.5082 -133.595 -90.9174 370339.9688 81162.8359)">
				<stop  offset="0" style="stop-color:#FAFAFD"/>
				<stop  offset="1" style="stop-color:#8892D2"/>
			</linearGradient>
			<path id="path324" class="st33" d="M177.8,3422.3c39.2,29,60.9,14.2,60.9,14.2c-17,18.4-36.2,12.3-40.4,10.4
				c-21.8-9.6-63.9-45.3-63.9-45.3s-5.7-11.9,5.6-9.3C140,3392.3,164.7,3412.6,177.8,3422.3"/>
		</g>
	</g>
</g>
<path id="path326" class="st4" d="M21.8,24.5c0,3.1-0.9,6-2.3,7.5c-0.6,0.7-1.3,1-2,0.9c-0.2,0-0.4,0.2-0.4,0.4
	c0,0.2,0.2,0.5,0.4,0.5c0.9,0.1,1.8-0.4,2.6-1.2c1.5-1.6,2.5-4.7,2.5-8.1c0-0.2-0.2-0.4-0.4-0.4C22,24,21.8,24.2,21.8,24.5"/>
<path id="path328" class="st4" d="M23.5,22.2c-0.3,0.8-0.8,1.3-1.4,1.4c-0.6,0.1-1.2-0.2-1.6-0.9c-0.1-0.2-0.4-0.2-0.5-0.1
	c-0.2,0.1-0.2,0.4-0.1,0.6c0.6,0.9,1.4,1.3,2.3,1.2c0.9-0.1,1.6-0.8,2-1.9c0.1-0.2,0-0.5-0.2-0.6C23.8,21.9,23.6,22,23.5,22.2"/>
</svg>
