<?xml version="1.0" encoding="UTF-8" standalone="no"?>
<svg
   width="425"
   height="106"
   viewBox="0 0 425 106"
   fill="none"
   version="1.1"
   id="svg927"
   sodipodi:docname="pulumi.svg"
   inkscape:version="1.1 (c4e8f9e, 2021-05-24)"
   xmlns:inkscape="http://www.inkscape.org/namespaces/inkscape"
   xmlns:sodipodi="http://sodipodi.sourceforge.net/DTD/sodipodi-0.dtd"
   xmlns="http://www.w3.org/2000/svg"
   xmlns:svg="http://www.w3.org/2000/svg">
  <defs
     id="defs931" />
  <sodipodi:namedview
     id="namedview929"
     pagecolor="#ffffff"
     bordercolor="#666666"
     borderopacity="1.0"
     inkscape:pageshadow="2"
     inkscape:pageopacity="0.0"
     inkscape:pagecheckerboard="0"
     showgrid="false"
     inkscape:zoom="1.2823529"
     inkscape:cx="275.66515"
     inkscape:cy="94.747709"
     inkscape:window-width="1792"
     inkscape:window-height="1037"
     inkscape:window-x="72"
     inkscape:window-y="118"
     inkscape:window-maximized="0"
     inkscape:current-layer="svg927"
     showborder="false" />
  <path
     fill-rule="evenodd"
     clip-rule="evenodd"
     d="M254.218 19H259.473C261.104 19 262.01 19.906 262.01 21.5368V82.5561C262.01 84.187 261.104 85.093 259.473 85.093H254.218C252.587 85.093 251.681 84.187 251.681 82.5561V21.5368C251.681 19.906 252.587 19 254.218 19ZM153.154 85.0927C154.785 85.0927 155.691 84.1867 155.691 82.5559V62.1255H166.336C179.836 62.1255 188.307 54.0621 188.307 41.9217C188.307 29.8265 179.836 21.7178 166.336 21.7178H147.537C145.906 21.7178 145 22.6238 145 24.2546V82.5559C145 84.1867 145.906 85.0927 147.537 85.0927H153.154ZM155.691 30.7325H165.657C173.267 30.7325 177.571 35.1266 177.571 41.9217C177.571 48.762 173.267 53.1561 165.657 53.1561H155.691V30.7325ZM195.918 40.744V67.1087C195.918 78.6603 203.393 86.1348 214.673 86.1348C220.652 86.1348 225.771 83.1903 228.942 78.8868V82.5561C228.942 84.1869 229.848 85.0929 231.479 85.0929H236.779C238.41 85.0929 239.316 84.1869 239.316 82.5561V40.744C239.316 39.1132 238.41 38.2072 236.779 38.2072H231.479C229.848 38.2072 228.942 39.1132 228.942 40.744V63.7565C228.942 71.5481 223.325 77.0294 216.802 77.0294C210.55 77.0294 206.247 72.59 206.247 66.248V40.744C206.247 39.1132 205.341 38.2072 203.71 38.2072H198.455C196.824 38.2072 195.918 39.1132 195.918 40.744ZM273.517 40.744V67.1087C273.517 78.6603 280.991 86.1348 292.271 86.1348C298.251 86.1348 303.37 83.1903 306.541 78.8868V82.5561C306.541 84.1869 307.447 85.0929 309.078 85.0929H314.378C316.009 85.0929 316.915 84.1869 316.915 82.5561V40.744C316.915 39.1132 316.009 38.2072 314.378 38.2072H309.078C307.447 38.2072 306.541 39.1132 306.541 40.744V63.7565C306.541 71.5481 300.924 77.0294 294.4 77.0294C288.149 77.0294 283.845 72.59 283.845 66.248V40.744C283.845 39.1132 282.939 38.2072 281.309 38.2072H276.054C274.423 38.2072 273.517 39.1132 273.517 40.744ZM401.897 56.1915V82.6015C401.897 84.2323 400.991 85.1383 399.361 85.1383H394.061C392.43 85.1383 391.524 84.2323 391.524 82.6015V57.0975C391.524 50.7555 387.583 46.3161 381.784 46.3161C375.94 46.3161 370.414 52.2051 370.414 59.3172V82.6015C370.414 84.2323 369.508 85.1383 367.877 85.1383H362.577C360.946 85.1383 360.04 84.2323 360.04 82.6015V57.0975C360.04 50.7555 356.099 46.3161 350.301 46.3161C344.729 46.3161 338.93 51.6615 338.93 59.3172V82.6015C338.93 84.2323 338.024 85.1383 336.393 85.1383H331.093C329.463 85.1383 328.557 84.2323 328.557 82.6015V40.7442C328.557 39.1133 329.463 38.2073 331.093 38.2073H336.393C338.024 38.2073 338.93 39.1133 338.93 40.7442V44.3229C342.237 39.974 346.994 37.1201 352.475 37.1201C359.542 37.1201 365.476 40.7894 368.421 46.8597C371.501 40.9706 377.209 37.1201 383.913 37.1201C394.106 37.1201 401.897 44.64 401.897 56.1915ZM425 25.4328C425 21.8541 422.191 19.0908 418.567 19.0908C414.943 19.0908 412.18 21.8541 412.18 25.4328C412.18 28.9662 414.943 31.7295 418.567 31.7295C422.191 31.7295 425 28.9662 425 25.4328ZM423.732 40.7442C423.732 39.1134 422.826 38.2074 421.195 38.2074H415.94C414.309 38.2074 413.403 39.1134 413.403 40.7442V82.5563C413.403 84.1871 414.309 85.0931 415.94 85.0931H421.195C422.826 85.0931 423.732 84.1871 423.732 82.5563V40.7442Z"
     fill="black"
     id="path925" />
  <g
     id="g1082"
     transform="matrix(1.7045455,0,0,1.7045455,12.625044,1.2922809)">
    <path
       class="rect-dark"
       fill="#8a3391"
       d="M 36.4,20.2 V 39.13 L 52.8,29.67 V 10.72 Z"
       id="path1065" />
    <path
       class="rect-light"
       fill="#f7bf2a"
       d="M 18.2,10.72 34.6,20.2 V 39.13 L 18.2,29.66 Z"
       id="path1067" />
    <path
       class="rect-light"
       fill="#f26e7e"
       d="m 0,0.15 v 18.94 l 16.4,9.47 V 9.62 Z m 18.2,50.53 16.4,9.47 V 41.21 L 18.2,31.74 Z"
       id="path1069" />
  </g>
</svg>
