<svg width="712" height="384" viewBox="0 0 712 384" fill="none" xmlns="http://www.w3.org/2000/svg">
<path d="M10 191.799C10 292.202 164.734 373.597 355.6 373.597C546.466 373.597 701.201 292.202 701.201 191.799C701.201 91.3962 546.466 9.99992 355.6 9.99992C164.734 9.99992 10 91.3962 10 191.799Z" fill="url(#paint0_radial_177_9)"/>
<path d="M355.6 360.099C539.011 360.099 687.7 284.748 687.7 191.798C687.7 98.8494 539.011 23.4968 355.6 23.4968C172.189 23.4968 23.5 98.8494 23.5 191.798C23.5 284.748 172.189 360.099 355.6 360.099Z" fill="#777BB3"/>
<mask id="path-3-outside-1_177_9" maskUnits="userSpaceOnUse" x="59.6126" y="110.133" width="592.534" height="163.521" fill="black">
<rect fill="white" x="59.6126" y="110.133" width="592.534" height="163.521"/>
<path d="M94.424 147.149H140.769C154.346 147.261 164.053 151.076 169.891 158.594C175.843 166.113 177.574 176.38 175.083 189.397C174.027 195.344 172.076 201.179 169.228 206.902C166.381 212.625 162.513 217.786 157.625 222.387C151.638 228.222 145.347 231.925 138.751 233.496C132.156 235.067 125.342 235.853 118.309 235.853H97.5578L90.0215 267.833H65.9845L94.424 147.149ZM113.939 166.337L102.04 216.833C102.821 216.945 103.557 217.001 104.248 217.001C105.055 217.001 105.862 217.001 106.669 217.001C117.71 217.113 126.954 216.047 134.4 213.803C141.872 211.446 147.088 203.255 150.048 189.228C152.479 177.446 150.62 170.657 144.472 168.862C138.323 167.066 130.625 166.225 121.375 166.337C120.081 166.449 118.799 166.505 117.531 166.505C116.378 166.505 115.168 166.505 113.9 166.505L113.939 166.337Z"/>
<path d="M216.694 216.328H236.062L252.365 147.149H276.402L256.054 233.496C253.383 244.829 248.664 253.358 241.897 259.08C235.104 264.915 225.712 267.833 213.722 267.833H166.513L170.757 249.823H213.816C218.685 249.711 222.594 248.532 225.544 246.288C228.493 244.044 230.466 240.565 231.461 235.853H210.191C197.856 235.853 189.028 233.44 183.709 228.615C178.39 223.79 177.251 214.925 180.292 202.021L193.223 147.149H217.087L204.632 200.001C203.099 206.509 203.047 210.885 204.478 213.13C206.025 215.374 210.084 216.496 216.655 216.496L216.694 216.328Z"/>
<path d="M282.897 147.149H299.844L307.42 115H331.457L323.881 147.149H349.302L345.137 164.822H319.717L311.268 200.674C309.064 209.539 309.923 214.701 313.844 216.159C317.766 217.618 323.474 218.347 330.967 218.347C331.198 218.347 331.429 218.347 331.659 218.347C332.005 218.347 332.293 218.347 332.524 218.347L328.399 235.853H306.437C297.329 235.853 291.051 233.384 287.603 228.447C284.156 223.509 283.436 216.776 285.446 208.248L295.68 164.822H278.733L282.897 147.149Z"/>
<path d="M365.016 115H388.881L381.305 147.149H402.748C414.454 147.373 423.122 149.73 428.75 154.218C434.495 158.707 435.943 167.235 433.097 179.803L419.889 235.853H395.679L408.292 182.327C409.614 176.717 409.4 172.733 407.65 170.377C405.899 168.02 401.969 166.842 395.859 166.842L376.703 166.674L360.401 235.853H336.537L365.016 115Z"/>
<path d="M514.137 225.248C508.751 229.513 502.708 232.654 496.006 234.674C489.42 236.694 482.842 237.704 476.27 237.704C469.699 237.704 463.596 236.694 457.962 234.674C452.328 232.654 447.81 229.569 444.407 225.417C440.916 221.153 438.718 216.047 437.814 210.1C437.025 204.153 437.371 198.037 438.852 191.753C440.332 185.469 442.869 179.354 446.461 173.406C450.168 167.459 454.772 162.354 460.273 158.089C465.632 153.938 471.605 150.852 478.191 148.832C484.919 146.7 491.569 145.634 498.14 145.634C504.596 145.634 510.628 146.7 516.235 148.832C521.985 150.852 526.561 153.938 529.963 158.089C533.455 162.354 535.595 167.459 536.384 173.406C537.288 179.354 537 185.469 535.519 191.753C534.038 198.037 531.444 204.153 527.737 210.1C524.145 216.047 519.598 221.153 514.097 225.417L514.137 225.248ZM473.021 217.001C473.749 217.337 474.432 217.618 475.071 217.842C475.825 218.067 476.535 218.235 477.2 218.347C482.549 219.133 487.975 218.123 493.478 215.318C498.981 212.512 503.174 208.417 506.057 203.03C507.083 201.123 507.963 199.103 508.696 196.971C509.57 194.727 510.272 192.482 510.801 190.238C511.734 185.301 511.621 180.644 510.462 176.268C509.329 171.779 506.58 168.525 502.214 166.505C501.282 166.057 500.266 165.72 499.166 165.495C498.066 165.271 497.011 165.103 495.999 164.991C490.802 164.542 485.567 165.72 480.295 168.525C475.022 171.331 470.984 175.258 468.18 180.307C467.154 182.215 466.217 184.235 465.369 186.367C464.662 188.387 464.128 190.407 463.768 192.426C462.64 197.7 462.674 202.694 463.869 207.407C465.206 212.007 468.243 215.262 472.982 217.169L473.021 217.001Z"/>
<path d="M554.741 147.149H600.048C612.012 147.261 620.808 149.561 626.437 154.05C632.066 158.538 633.386 167.123 630.398 179.803L617.19 235.853H593.152L605.726 182.496C607.181 176.324 607.121 172.172 605.549 170.04C603.976 167.908 599.962 166.842 593.506 166.842L574.177 166.674L557.875 235.853H533.838L554.741 147.149Z"/>
</mask>
<path d="M94.424 147.149H140.769C154.346 147.261 164.053 151.076 169.891 158.594C175.843 166.113 177.574 176.38 175.083 189.397C174.027 195.344 172.076 201.179 169.228 206.902C166.381 212.625 162.513 217.786 157.625 222.387C151.638 228.222 145.347 231.925 138.751 233.496C132.156 235.067 125.342 235.853 118.309 235.853H97.5578L90.0215 267.833H65.9845L94.424 147.149ZM113.939 166.337L102.04 216.833C102.821 216.945 103.557 217.001 104.248 217.001C105.055 217.001 105.862 217.001 106.669 217.001C117.71 217.113 126.954 216.047 134.4 213.803C141.872 211.446 147.088 203.255 150.048 189.228C152.479 177.446 150.62 170.657 144.472 168.862C138.323 167.066 130.625 166.225 121.375 166.337C120.081 166.449 118.799 166.505 117.531 166.505C116.378 166.505 115.168 166.505 113.9 166.505L113.939 166.337Z" fill="black"/>
<path d="M216.694 216.328H236.062L252.365 147.149H276.402L256.054 233.496C253.383 244.829 248.664 253.358 241.897 259.08C235.104 264.915 225.712 267.833 213.722 267.833H166.513L170.757 249.823H213.816C218.685 249.711 222.594 248.532 225.544 246.288C228.493 244.044 230.466 240.565 231.461 235.853H210.191C197.856 235.853 189.028 233.44 183.709 228.615C178.39 223.79 177.251 214.925 180.292 202.021L193.223 147.149H217.087L204.632 200.001C203.099 206.509 203.047 210.885 204.478 213.13C206.025 215.374 210.084 216.496 216.655 216.496L216.694 216.328Z" fill="black"/>
<path d="M282.897 147.149H299.844L307.42 115H331.457L323.881 147.149H349.302L345.137 164.822H319.717L311.268 200.674C309.064 209.539 309.923 214.701 313.844 216.159C317.766 217.618 323.474 218.347 330.967 218.347C331.198 218.347 331.429 218.347 331.659 218.347C332.005 218.347 332.293 218.347 332.524 218.347L328.399 235.853H306.437C297.329 235.853 291.051 233.384 287.603 228.447C284.156 223.509 283.436 216.776 285.446 208.248L295.68 164.822H278.733L282.897 147.149Z" fill="black"/>
<path d="M365.016 115H388.881L381.305 147.149H402.748C414.454 147.373 423.122 149.73 428.75 154.218C434.495 158.707 435.943 167.235 433.097 179.803L419.889 235.853H395.679L408.292 182.327C409.614 176.717 409.4 172.733 407.65 170.377C405.899 168.02 401.969 166.842 395.859 166.842L376.703 166.674L360.401 235.853H336.537L365.016 115Z" fill="black"/>
<path d="M514.137 225.248C508.751 229.513 502.708 232.654 496.006 234.674C489.42 236.694 482.842 237.704 476.27 237.704C469.699 237.704 463.596 236.694 457.962 234.674C452.328 232.654 447.81 229.569 444.407 225.417C440.916 221.153 438.718 216.047 437.814 210.1C437.025 204.153 437.371 198.037 438.852 191.753C440.332 185.469 442.869 179.354 446.461 173.406C450.168 167.459 454.772 162.354 460.273 158.089C465.632 153.938 471.605 150.852 478.191 148.832C484.919 146.7 491.569 145.634 498.14 145.634C504.596 145.634 510.628 146.7 516.235 148.832C521.985 150.852 526.561 153.938 529.963 158.089C533.455 162.354 535.595 167.459 536.384 173.406C537.288 179.354 537 185.469 535.519 191.753C534.038 198.037 531.444 204.153 527.737 210.1C524.145 216.047 519.598 221.153 514.097 225.417L514.137 225.248ZM473.021 217.001C473.749 217.337 474.432 217.618 475.071 217.842C475.825 218.067 476.535 218.235 477.2 218.347C482.549 219.133 487.975 218.123 493.478 215.318C498.981 212.512 503.174 208.417 506.057 203.03C507.083 201.123 507.963 199.103 508.696 196.971C509.57 194.727 510.272 192.482 510.801 190.238C511.734 185.301 511.621 180.644 510.462 176.268C509.329 171.779 506.58 168.525 502.214 166.505C501.282 166.057 500.266 165.72 499.166 165.495C498.066 165.271 497.011 165.103 495.999 164.991C490.802 164.542 485.567 165.72 480.295 168.525C475.022 171.331 470.984 175.258 468.18 180.307C467.154 182.215 466.217 184.235 465.369 186.367C464.662 188.387 464.128 190.407 463.768 192.426C462.64 197.7 462.674 202.694 463.869 207.407C465.206 212.007 468.243 215.262 472.982 217.169L473.021 217.001Z" fill="black"/>
<path d="M554.741 147.149H600.048C612.012 147.261 620.808 149.561 626.437 154.05C632.066 158.538 633.386 167.123 630.398 179.803L617.19 235.853H593.152L605.726 182.496C607.181 176.324 607.121 172.172 605.549 170.04C603.976 167.908 599.962 166.842 593.506 166.842L574.177 166.674L557.875 235.853H533.838L554.741 147.149Z" fill="black"/>
<path d="M94.424 147.149H140.769C154.346 147.261 164.053 151.076 169.891 158.594C175.843 166.113 177.574 176.38 175.083 189.397C174.027 195.344 172.076 201.179 169.228 206.902C166.381 212.625 162.513 217.786 157.625 222.387C151.638 228.222 145.347 231.925 138.751 233.496C132.156 235.067 125.342 235.853 118.309 235.853H97.5578L90.0215 267.833H65.9845L94.424 147.149ZM113.939 166.337L102.04 216.833C102.821 216.945 103.557 217.001 104.248 217.001C105.055 217.001 105.862 217.001 106.669 217.001C117.71 217.113 126.954 216.047 134.4 213.803C141.872 211.446 147.088 203.255 150.048 189.228C152.479 177.446 150.62 170.657 144.472 168.862C138.323 167.066 130.625 166.225 121.375 166.337C120.081 166.449 118.799 166.505 117.531 166.505C116.378 166.505 115.168 166.505 113.9 166.505L113.939 166.337Z" stroke="white" stroke-width="10" mask="url(#path-3-outside-1_177_9)"/>
<path d="M216.694 216.328H236.062L252.365 147.149H276.402L256.054 233.496C253.383 244.829 248.664 253.358 241.897 259.08C235.104 264.915 225.712 267.833 213.722 267.833H166.513L170.757 249.823H213.816C218.685 249.711 222.594 248.532 225.544 246.288C228.493 244.044 230.466 240.565 231.461 235.853H210.191C197.856 235.853 189.028 233.44 183.709 228.615C178.39 223.79 177.251 214.925 180.292 202.021L193.223 147.149H217.087L204.632 200.001C203.099 206.509 203.047 210.885 204.478 213.13C206.025 215.374 210.084 216.496 216.655 216.496L216.694 216.328Z" stroke="white" stroke-width="10" mask="url(#path-3-outside-1_177_9)"/>
<path d="M282.897 147.149H299.844L307.42 115H331.457L323.881 147.149H349.302L345.137 164.822H319.717L311.268 200.674C309.064 209.539 309.923 214.701 313.844 216.159C317.766 217.618 323.474 218.347 330.967 218.347C331.198 218.347 331.429 218.347 331.659 218.347C332.005 218.347 332.293 218.347 332.524 218.347L328.399 235.853H306.437C297.329 235.853 291.051 233.384 287.603 228.447C284.156 223.509 283.436 216.776 285.446 208.248L295.68 164.822H278.733L282.897 147.149Z" stroke="white" stroke-width="10" mask="url(#path-3-outside-1_177_9)"/>
<path d="M365.016 115H388.881L381.305 147.149H402.748C414.454 147.373 423.122 149.73 428.75 154.218C434.495 158.707 435.943 167.235 433.097 179.803L419.889 235.853H395.679L408.292 182.327C409.614 176.717 409.4 172.733 407.65 170.377C405.899 168.02 401.969 166.842 395.859 166.842L376.703 166.674L360.401 235.853H336.537L365.016 115Z" stroke="white" stroke-width="10" mask="url(#path-3-outside-1_177_9)"/>
<path d="M514.137 225.248C508.751 229.513 502.708 232.654 496.006 234.674C489.42 236.694 482.842 237.704 476.27 237.704C469.699 237.704 463.596 236.694 457.962 234.674C452.328 232.654 447.81 229.569 444.407 225.417C440.916 221.153 438.718 216.047 437.814 210.1C437.025 204.153 437.371 198.037 438.852 191.753C440.332 185.469 442.869 179.354 446.461 173.406C450.168 167.459 454.772 162.354 460.273 158.089C465.632 153.938 471.605 150.852 478.191 148.832C484.919 146.7 491.569 145.634 498.14 145.634C504.596 145.634 510.628 146.7 516.235 148.832C521.985 150.852 526.561 153.938 529.963 158.089C533.455 162.354 535.595 167.459 536.384 173.406C537.288 179.354 537 185.469 535.519 191.753C534.038 198.037 531.444 204.153 527.737 210.1C524.145 216.047 519.598 221.153 514.097 225.417L514.137 225.248ZM473.021 217.001C473.749 217.337 474.432 217.618 475.071 217.842C475.825 218.067 476.535 218.235 477.2 218.347C482.549 219.133 487.975 218.123 493.478 215.318C498.981 212.512 503.174 208.417 506.057 203.03C507.083 201.123 507.963 199.103 508.696 196.971C509.57 194.727 510.272 192.482 510.801 190.238C511.734 185.301 511.621 180.644 510.462 176.268C509.329 171.779 506.58 168.525 502.214 166.505C501.282 166.057 500.266 165.72 499.166 165.495C498.066 165.271 497.011 165.103 495.999 164.991C490.802 164.542 485.567 165.72 480.295 168.525C475.022 171.331 470.984 175.258 468.18 180.307C467.154 182.215 466.217 184.235 465.369 186.367C464.662 188.387 464.128 190.407 463.768 192.426C462.64 197.7 462.674 202.694 463.869 207.407C465.206 212.007 468.243 215.262 472.982 217.169L473.021 217.001Z" stroke="white" stroke-width="10" mask="url(#path-3-outside-1_177_9)"/>
<path d="M554.741 147.149H600.048C612.012 147.261 620.808 149.561 626.437 154.05C632.066 158.538 633.386 167.123 630.398 179.803L617.19 235.853H593.152L605.726 182.496C607.181 176.324 607.121 172.172 605.549 170.04C603.976 167.908 599.962 166.842 593.506 166.842L574.177 166.674L557.875 235.853H533.838L554.741 147.149Z" stroke="white" stroke-width="10" mask="url(#path-3-outside-1_177_9)"/>
<defs>
<radialGradient id="paint0_radial_177_9" cx="0" cy="0" r="1" gradientUnits="userSpaceOnUse" gradientTransform="translate(217.5 73.9148) scale(453.822)">
<stop stop-color="#AEB2D5"/>
<stop offset="0.3" stop-color="#AEB2D5"/>
<stop offset="0.75" stop-color="#484C89"/>
<stop offset="1" stop-color="#484C89"/>
</radialGradient>
</defs>
</svg>
