<?xml version="1.0" encoding="UTF-8" standalone="no"?>
<!-- Generator: Adobe Illustrator 16.0.4, SVG Export Plug-In . SVG Version: 6.00 Build 0)  -->

<svg
   version="1.1"
   id="Layer_1"
   x="0px"
   y="0px"
   width="306"
   height="344.349"
   viewBox="0 0 306 344.34899"
   enable-background="new 0 0 306 344.35"
   xml:space="preserve"
   sodipodi:docname="python.svg"
   inkscape:version="1.1.1 (3bf5ae0d25, 2021-09-20)"
   xmlns:inkscape="http://www.inkscape.org/namespaces/inkscape"
   xmlns:sodipodi="http://sodipodi.sourceforge.net/DTD/sodipodi-0.dtd"
   xmlns:xlink="http://www.w3.org/1999/xlink"
   xmlns="http://www.w3.org/2000/svg"
   xmlns:svg="http://www.w3.org/2000/svg"><defs
   id="defs23"><linearGradient
     id="linearGradient2795"><stop
       style="stop-color:#b8b8b8;stop-opacity:0.49803922"
       offset="0"
       id="stop2797" /><stop
       style="stop-color:#7f7f7f;stop-opacity:0"
       offset="1"
       id="stop2799" /></linearGradient><linearGradient
     id="linearGradient2787"><stop
       style="stop-color:#7f7f7f;stop-opacity:0.5"
       offset="0"
       id="stop2789" /><stop
       style="stop-color:#7f7f7f;stop-opacity:0"
       offset="1"
       id="stop2791" /></linearGradient><linearGradient
     id="linearGradient3676"><stop
       style="stop-color:#b2b2b2;stop-opacity:0.5"
       offset="0"
       id="stop3678" /><stop
       style="stop-color:#b3b3b3;stop-opacity:0"
       offset="1"
       id="stop3680" /></linearGradient><linearGradient
     id="linearGradient3236"><stop
       style="stop-color:#f4f4f4;stop-opacity:1"
       offset="0"
       id="stop3244" /><stop
       style="stop-color:#ffffff;stop-opacity:1"
       offset="1"
       id="stop3240" /></linearGradient><linearGradient
     id="linearGradient4671"><stop
       style="stop-color:#ffd43b;stop-opacity:1"
       offset="0"
       id="stop4673" /><stop
       style="stop-color:#ffe873;stop-opacity:1"
       offset="1"
       id="stop4675" /></linearGradient><linearGradient
     id="linearGradient4689"><stop
       style="stop-color:#5a9fd4;stop-opacity:1"
       offset="0"
       id="stop4691" /><stop
       style="stop-color:#306998;stop-opacity:1"
       offset="1"
       id="stop4693" /></linearGradient><linearGradient
     x1="224.23996"
     y1="144.75717"
     x2="-65.308502"
     y2="144.75717"
     id="linearGradient2987"
     xlink:href="#linearGradient4671"
     gradientUnits="userSpaceOnUse"
     gradientTransform="translate(100.2702,99.61116)" /><linearGradient
     x1="172.94208"
     y1="77.475983"
     x2="26.670298"
     y2="76.313133"
     id="linearGradient2990"
     xlink:href="#linearGradient4689"
     gradientUnits="userSpaceOnUse"
     gradientTransform="translate(100.2702,99.61116)" /><linearGradient
     x1="224.23996"
     y1="144.75717"
     x2="-65.308502"
     y2="144.75717"
     id="linearGradient2255"
     xlink:href="#linearGradient4671"
     gradientUnits="userSpaceOnUse"
     gradientTransform="matrix(0.562541,0,0,0.567972,-11.5974,-7.60954)" /><linearGradient
     x1="172.94208"
     y1="76.176224"
     x2="26.670298"
     y2="76.313133"
     id="linearGradient2258"
     xlink:href="#linearGradient4689"
     gradientUnits="userSpaceOnUse"
     gradientTransform="matrix(0.562541,0,0,0.567972,-11.5974,-7.60954)" /><radialGradient
     cx="61.518883"
     cy="132.28575"
     r="29.036913"
     fx="61.518883"
     fy="132.28575"
     id="radialGradient2801"
     xlink:href="#linearGradient2795"
     gradientUnits="userSpaceOnUse"
     gradientTransform="matrix(1,0,0,0.177966,0,108.7434)" /><linearGradient
     x1="150.96111"
     y1="192.35176"
     x2="112.03144"
     y2="137.27299"
     id="linearGradient1475"
     xlink:href="#linearGradient4671"
     gradientUnits="userSpaceOnUse"
     gradientTransform="matrix(0.562541,0,0,0.567972,-9.399749,-5.305317)" /><linearGradient
     x1="26.648937"
     y1="20.603781"
     x2="135.66525"
     y2="114.39767"
     id="linearGradient1478"
     xlink:href="#linearGradient4689"
     gradientUnits="userSpaceOnUse"
     gradientTransform="matrix(0.562541,0,0,0.567972,-9.399749,-5.305317)" /><radialGradient
     cx="61.518883"
     cy="132.28575"
     r="29.036913"
     fx="61.518883"
     fy="132.28575"
     id="radialGradient1480"
     xlink:href="#linearGradient2795"
     gradientUnits="userSpaceOnUse"
     gradientTransform="matrix(2.382716e-8,-0.296405,1.43676,4.683673e-7,-128.544,150.5202)" /></defs><sodipodi:namedview
   id="namedview21"
   pagecolor="#505050"
   bordercolor="#eeeeee"
   borderopacity="1"
   inkscape:pageshadow="0"
   inkscape:pageopacity="0"
   inkscape:pagecheckerboard="0"
   showgrid="false"
   inkscape:snap-others="true"
   inkscape:object-nodes="true"
   inkscape:snap-center="true"
   inkscape:snap-bbox="true"
   inkscape:snap-bbox-midpoints="true"
   inkscape:zoom="1.28"
   inkscape:cx="-65.625"
   inkscape:cy="159.76563"
   inkscape:window-width="1600"
   inkscape:window-height="837"
   inkscape:window-x="-8"
   inkscape:window-y="-8"
   inkscape:window-maximized="1"
   inkscape:current-layer="Layer_1"
   fit-margin-top="0"
   fit-margin-left="0"
   fit-margin-right="0"
   fit-margin-bottom="0" />

<path
   fill="#659ad2"
   d="m 302.108,86.087 c -2.402,-4.16 -5.715,-7.793 -9.358,-9.897 L 166.25,3.156 c -7.287,-4.208 -19.213,-4.208 -26.5,0 L 13.25,76.19 C 5.962,80.397 0,90.725 0,99.14 v 146.069 c 0,4.208 1.491,8.894 3.893,13.053 L 153,172.175 Z"
   id="path6" /><path
   fill="#004482"
   d="m 166.25,341.193 126.5,-73.034 c 3.644,-2.104 6.956,-5.737 9.357,-9.897 L 153,172.175 3.893,258.263 c 2.401,4.159 5.714,7.793 9.357,9.896 l 126.5,73.034 c 7.287,4.208 19.213,4.208 26.5,0 z"
   id="path4" />




<path
   id="path46"
   style="fill:#ffffff;fill-opacity:1;stroke-width:2.84378"
   d="m 189.78252,135.42018 c 0,-41.411514 -11.80808,-62.671638 -35.4243,-63.835835 -9.39661,-0.443491 -18.57144,1.053313 -27.49683,4.51814 -7.12369,2.550105 -11.91896,5.072504 -14.44135,7.622608 v 98.844357 c 15.10659,9.47976 28.5224,13.88699 40.21961,13.19405 24.75267,-1.6354 37.14286,-21.73135 37.14287,-60.34332 z m 29.1322,1.71857 c 0,21.03836 -4.93389,38.50107 -14.85715,52.38807 -11.05971,15.71641 -26.38807,23.81023 -45.98507,24.25374 -14.77398,0.47122 -29.99148,-4.15779 -45.65246,-13.85929 v 89.83584 L 87.08528,280.72086 V 81.313567 c 4.15777,-5.100197 9.50745,-9.479735 15.99361,-13.194014 15.07888,-8.7868 33.40083,-13.304929 54.96589,-13.526656 l 0.36033,0.360328 c 19.70789,-0.249398 34.89767,7.84436 45.56933,24.253716 9.95094,15.051185 14.94029,34.343319 14.94028,57.931809 z" /><path
   fill="#00599c"
   d="M 302.107,258.262 C 304.508,254.103 306,249.417 306,245.209 V 99.14 c 0,-4.208 -1.49,-8.893 -3.892,-13.052 L 153,172.175 Z"
   id="path2" /><path
   id="path50"
   style="fill:#ffffff;fill-opacity:1;stroke-width:0.415849"
   d="m 234.70037,179.1601 c -0.4418,0.0365 -0.84712,0.0527 -1.22003,0.0527 -2.09553,0 -3.72901,-0.49854 -4.89638,-1.49972 -1.16332,-1.00117 -1.74701,-2.38335 -1.74701,-4.14653 v -14.59194 h -2.53732 v -2.33066 h 2.53732 v -6.18941 l 3.70064,-1.31734 v 7.50675 h 4.16278 v 2.33066 h -4.16278 v 14.4906 c 0,1.39029 0.37292,2.37525 1.11875,2.95081 0.64041,0.47424 1.65779,0.74582 3.04403,0.81473 z" /><path
   id="path48"
   style="fill:#ffffff;fill-opacity:1;stroke-width:0.415849"
   d="m 220.23814,176.77673 c 0,4.1263 -0.41343,6.98387 -1.2403,8.57277 -0.83092,1.5889 -2.41173,2.85758 -4.74647,3.80201 -1.89286,0.74581 -3.93978,1.15114 -6.13668,1.22004 l -0.61205,-2.3347 c 2.23337,-0.304 3.80607,-0.60801 4.71802,-0.912 1.79563,-0.608 3.02782,-1.54026 3.70479,-2.78869 0.54316,-1.01738 0.81065,-2.95891 0.81065,-5.83271 v -0.96467 c -2.53336,1.15114 -5.18826,1.72264 -7.96479,1.72264 -1.82399,0 -3.43316,-0.5715 -4.81941,-1.72264 -1.55641,-1.25249 -2.33473,-2.84139 -2.33473,-4.76671 v -15.41882 l 3.70478,-1.26869 v 15.52014 c 0,1.65781 0.53505,2.93461 1.60511,3.83039 1.07013,0.89578 2.4563,1.32543 4.15468,1.29301 1.6983,-0.0365 3.51824,-0.69312 5.4517,-1.97802 v -18.10616 h 3.7047 z" /><path
   id="path52"
   style="fill:#ffffff;fill-opacity:1;stroke-width:0.415849"
   d="m 257.13147,178.85608 h -3.70479 v -14.30009 c 0,-1.45514 -0.34042,-2.70762 -1.01738,-3.75337 -0.7823,-1.18357 -1.86855,-1.77536 -3.26289,-1.77536 -1.69831,0 -3.82228,0.89579 -6.37184,2.68736 v 17.14147 h -3.7047 v -34.18161 l 3.7047,-1.16736 v 15.56879 c 2.36715,-1.72266 4.95318,-2.58601 7.76213,-2.58601 1.96183,0 3.55066,0.66068 4.76665,1.97801 1.22004,1.31733 1.82812,2.95892 1.82812,4.92072 z" /><path
   id="path54"
   style="fill:#ffffff;fill-opacity:1;stroke-width:0.415849"
   d="m 276.82241,167.32035 c 0,-2.3266 -0.44181,-4.24788 -1.32135,-5.76786 -1.04574,-1.85237 -2.6711,-2.82922 -4.86809,-2.93056 -4.06133,0.2351 -6.08806,3.14538 -6.08806,8.72274 0,2.55765 0.42153,4.69375 1.2728,6.4083 1.08625,2.18473 2.71576,3.26292 4.88827,3.22645 4.07769,-0.0324 6.11643,-3.25077 6.11643,-9.65907 z m 4.05742,0.0243 c 0,3.31156 -0.84712,6.06781 -2.5374,8.26876 -1.86045,2.46441 -4.43027,3.70069 -7.70946,3.70069 -3.25067,0 -5.78403,-1.23627 -7.61207,-3.70069 -1.65778,-2.20096 -2.48473,-4.95721 -2.48473,-8.26876 0,-3.11295 0.89583,-5.73139 2.68741,-7.86343 1.89293,-2.26175 4.38165,-3.39668 7.45809,-3.39668 3.07653,0 5.58136,1.13493 7.51077,3.39668 1.79158,2.13204 2.6874,4.75048 2.68739,7.86343 z" /><path
   id="path56"
   style="fill:#ffffff;fill-opacity:1;stroke-width:0.415849"
   d="m 302.11918,178.85608 h -3.7047 v -15.11076 c 0,-1.65781 -0.4986,-2.95081 -1.49572,-3.88309 -0.99712,-0.9282 -2.32656,-1.37812 -3.98443,-1.34164 -1.75909,0.0324 -3.43315,0.60801 -5.02198,1.72266 v 18.61283 h -3.70478 v -19.07085 c 2.13208,-1.55242 4.09383,-2.56576 5.88539,-3.03999 1.69028,-0.44181 3.18187,-0.66069 4.46682,-0.66069 0.87955,0 1.70641,0.0851 2.48466,0.25537 1.45512,0.33641 2.6387,0.96062 3.55065,1.87668 1.01738,1.01333 1.52409,2.22933 1.52409,3.65204 z" /></svg>
