<?xml version="1.0" encoding="UTF-8" standalone="no"?>
<svg
   width="4000"
   height="3133"
   viewBox="0 0 2302.7968 1804.0733"
   version="1.1"
   id="svg6"
   sodipodi:docname="Racket 2.0.svg"
   inkscape:version="1.1.1 (3bf5ae0d25, 2021-09-20, custom)"
   xmlns:inkscape="http://www.inkscape.org/namespaces/inkscape"
   xmlns:sodipodi="http://sodipodi.sourceforge.net/DTD/sodipodi-0.dtd"
   xmlns="http://www.w3.org/2000/svg"
   xmlns:svg="http://www.w3.org/2000/svg">
  <defs
     id="defs10" />
  <sodipodi:namedview
     id="namedview8"
     pagecolor="#ffffff"
     bordercolor="#666666"
     borderopacity="1.0"
     inkscape:pageshadow="2"
     inkscape:pageopacity="0.0"
     inkscape:pagecheckerboard="0"
     showgrid="false"
     height="3133px"
     inkscape:zoom="0.08861937"
     inkscape:cx="2256.843"
     inkscape:cy="2008.5902"
     inkscape:window-width="1338"
     inkscape:window-height="721"
     inkscape:window-x="12"
     inkscape:window-y="31"
     inkscape:window-maximized="0"
     inkscape:current-layer="svg6"
     showguides="true"
     inkscape:guide-bbox="true"
     width="5500px">
    <sodipodi:guide
       position="-505.89109,91.112015"
       orientation="1,0"
       id="guide6807" />
  </sodipodi:namedview>
  <path
     fill="#e17b26"
     d="m 524.73664,644.35364 c 0,292.703 237.264,529.96296 529.97386,529.96296 292.711,0 529.978,-237.25996 529.978,-529.96296 0,-292.691 -237.267,-529.981 -529.978,-529.981 -292.70986,0 -529.97386,237.286 -529.97386,529.981 z M 1554.8135,84.314634 h 209.222 V 382.04664 h -209.222 z"
     id="path2"
     inkscape:export-filename="/home/nan0scho1ar/Pictures/memes/Programming/Cursed Logos/OC/Racket_2_v2.png"
     inkscape:export-xdpi="96"
     inkscape:export-ydpi="96" />
  <path
     fill="#49484a"
     d="m 1880.9805,221.61664 c 0,16.052 -2.02,31.129 -5.998,45.366 -3.979,14.376 -8.868,29.452 -14.591,45.514 l -226.437,531.755 c -20.594,60.723 -50.043,116.15 -88.301,166.40796 -38.321,50.391 -82.646,93.813 -132.975,130.396 -50.336,36.58 -105.826,65.191 -166.406,85.854 -60.6,20.527 -123.484,30.852 -188.6889,30.852 -84.66796,0 -164.44996,-16.045 -239.35096,-48.023 -74.892,-32.1 -140.077,-76.082 -195.511,-132.203 -55.49,-55.988 -99.534,-121.17996 -132.138,-195.45896 -32.596,-74.4 -48.856,-153.84 -48.856,-238.438 0,-84.744 16.261,-164.185 48.856,-238.451 32.604,-74.409 76.647,-139.607 132.138,-195.589 55.435,-56.117 120.628,-100.09401 195.526,-132.063006 74.899,-32.106 154.69,-48.017 239.34896,-48.017 h 631.2929 c 26.259,0 51.169,4.754 74.623,14.51 23.386,9.778 43.694,23.184 60.866,40.345 17.158,17.180996 30.926,37.417006 41.188,60.866006 10.32,23.464 15.414,48.862 15.414,76.377 z m -325.904,422.018 c 0,-68.685 -12.843,-133.602 -38.603,-194.748 -25.756,-61.138 -61.221,-114.612 -106.379,-160.404 -45.157,-45.788 -98.07,-81.803 -158.66,-108.056 -60.65,-26.255 -125.223,-39.513 -193.8419,-39.513 -68.61396,0 -133.52696,13.259 -194.74396,39.512 -61.142,26.248 -114.611,62.264 -160.334,108.053 -45.785,45.797 -81.81,99.268 -108.118,160.405 -26.315,61.146 -39.438,126.072 -39.438,194.748 0,68.542 13.123,133.189 39.438,193.779 26.309,60.583 62.333,113.497 108.118,158.72 45.724,45.24596 99.192,80.55496 160.338,106.38896 61.218,25.68 126.131,38.527 194.74496,38.527 68.6189,0 133.1959,-12.848 193.8419,-38.527 60.59,-25.834 113.503,-61.143 158.66,-106.38896 45.158,-45.223 80.623,-98.137 106.379,-158.721 25.756,-60.591 38.598,-125.228 38.598,-193.775 z m -186.992,142.398 36.013,104.561 -209.27,61.703 -125.2195,-329.316 -192.17336,305.32203 h -142.391 l 276.21696,-464.89003 -34.28196,-84.036 h -87.537 v -99.41 h 174.99216 l 209.2717,535.104 z m 365.409,-449.535 h -108.127 a 3246.924,3246.924 0 0 1 30.085,-33.497 c 12.008,-13.136 23.661,-27.085 35.106,-42.021 11.445,-14.801 20.875,-30.299 28.35,-46.208 7.384,-16.056 11.154,-32.109 11.154,-48.023 0,-26.387 -7.462,-44.676 -22.337,-55.01 -14.867,-10.18701 -33.713,-15.362008 -56.607,-15.362008 -26.314,0 -46.909,6.566998 -61.775,19.693008 -14.868,13.123 -21.15,32.95 -18.841,59.185 h 60.032 c 0,-9.067 0.831,-17.724 2.571,-25.683 1.749,-8.104 8.873,-12.01 21.426,-12.01 6.91,0 12.008,2.515 15.43,7.677 3.482,5.16 5.156,11.167 5.156,18.013 a 65.425,65.425 0 0 1 -4.254,23.171 c -2.86,7.398 -8.309,16.894 -16.336,28.338 -8.03,11.456 -19.125,25.976 -33.436,43.699 -14.303,17.722 -32.316,41.457 -54.026,71.191 v 49.696 h 166.41 v -42.856 h 0.019 z"
     id="path4"
     inkscape:export-filename="/home/nan0scho1ar/Pictures/memes/Programming/Cursed Logos/OC/Racket_2_v2.png"
     inkscape:export-xdpi="96"
     inkscape:export-ydpi="96" />
  <g
     aria-label="Racket"
     id="text3666"
     style="font-size:460.663px;line-height:1.25;fill:#e17b26;fill-opacity:1;stroke:#49484a;stroke-width:8.23147;stroke-miterlimit:4;stroke-dasharray:none;stroke-opacity:1"
     transform="matrix(1.5634987,0,0,1.4067171,-25.146608,-701.0512)"
     inkscape:export-filename="/home/nan0scho1ar/Pictures/memes/Programming/Cursed Logos/OC/Racket_2_v2.png"
     inkscape:export-xdpi="96"
     inkscape:export-ydpi="96">
    <path
       d="m 134.73914,1605.2172 v 135.8596 H 92.90158 v -328.8522 h 80.07618 q 59.83221,0 88.39871,23.1681 28.56651,23.1681 28.56651,70.1791 0,19.5692 -5.62333,34.1899 -5.39839,14.6206 -14.62065,25.1925 -8.99733,10.3469 -20.69385,17.3198 -11.69652,6.9729 -24.06784,11.4716 l 89.52338,147.3312 h -49.26035 l -78.95152,-135.8596 z m 0,-35.5394 h 36.88903 q 20.24398,0 34.41476,-3.8239 14.17079,-4.0488 23.16811,-11.6965 9.22226,-7.8727 13.27105,-19.3443 4.27373,-11.6965 4.27373,-27.2169 0,-16.1952 -4.72359,-27.4418 -4.49866,-11.2467 -13.94586,-18.4445 -9.22225,-7.1979 -23.61797,-10.347 -14.17079,-3.374 -33.73997,-3.374 h -35.98929 z"
       id="path44876"
       style="fill:#e17b26;fill-opacity:1;stroke:#49484a;stroke-width:8.23147;stroke-miterlimit:4;stroke-dasharray:none;stroke-opacity:1" />
    <path
       d="m 498.23102,1741.0768 -8.32252,-34.1898 h -1.79947 q -7.42279,10.1219 -14.84558,17.5447 -7.4228,7.1979 -16.19519,11.9215 -8.77239,4.7236 -19.56918,6.9729 -10.79679,2.2493 -24.96757,2.2493 -15.52039,0 -28.56651,-4.4986 -13.04612,-4.2737 -22.71824,-13.2711 -9.44719,-9.2222 -14.84558,-22.9431 -5.3984,-13.9459 -5.3984,-32.8403 0,-36.889 25.86731,-56.6831 26.09224,-19.7941 79.17645,-21.5936 l 41.38769,-1.5745 v -15.5204 q 0,-15.0705 -3.374,-25.1925 -3.14906,-10.122 -9.44719,-16.1952 -6.07319,-6.2981 -15.29545,-8.9973 -8.99732,-2.6992 -20.69384,-2.6992 -18.66945,0 -34.86463,5.3984 -15.97025,5.3984 -30.81584,13.0461 l -14.39572,-30.8158 q 16.64505,-8.9974 37.11397,-15.2955 20.46891,-6.2981 42.96222,-6.2981 22.94317,0 39.58822,4.7236 16.86999,4.4986 27.66678,14.6206 11.02172,9.8971 16.42011,25.4175 5.3984,15.5203 5.3984,37.5638 v 169.1497 z m -75.12766,-28.5665 q 13.72092,0 25.41744,-4.2738 11.69653,-4.2737 20.24398,-12.8211 8.54746,-8.7724 13.27106,-21.8185 4.94853,-13.2711 4.94853,-31.0408 v -22.2684 l -32.16544,1.5745 q -20.24398,0.8998 -33.9649,4.4987 -13.72092,3.5989 -22.04344,10.122 -8.09759,6.2981 -11.69652,15.5204 -3.59893,8.9973 -3.59893,20.4689 0,20.6938 10.79679,30.366 11.02172,9.6721 28.79143,9.6721 z"
       id="path44878"
       style="fill:#e17b26;fill-opacity:1;stroke:#49484a;stroke-width:8.23147;stroke-miterlimit:4;stroke-dasharray:none;stroke-opacity:1" />
    <path
       d="m 697.97159,1745.5754 q -22.71824,0 -42.51236,-6.9729 -19.79411,-7.1978 -34.41476,-22.4933 -14.62065,-15.5204 -22.94318,-39.3633 -8.32252,-24.0678 -8.32252,-57.8078 0,-35.3145 8.54746,-59.8322 8.54745,-24.7426 23.39304,-40.0381 15.07052,-15.5204 35.08956,-22.4933 20.01905,-6.9729 42.96223,-6.9729 17.54478,0 34.18983,3.8238 16.86998,3.8239 28.11664,9.4472 l -12.14639,34.6397 q -5.17346,-2.2493 -11.47159,-4.2737 -6.29813,-2.2493 -13.04612,-3.8239 -6.74799,-1.7994 -13.27105,-2.6992 -6.52306,-1.1246 -12.37132,-1.1246 -35.3145,0 -51.50968,22.7182 -16.19519,22.4933 -16.19519,70.1791 0,47.4609 16.19519,69.5044 16.42011,21.8185 49.71021,21.8185 18.21958,0 32.84023,-4.0488 14.84559,-4.2737 26.99198,-9.8971 v 36.4392 q -12.14639,6.5231 -26.09224,9.897 -13.72092,3.374 -33.73997,3.374 z"
       id="path44880"
       style="fill:#e17b26;fill-opacity:1;stroke:#49484a;stroke-width:8.23147;stroke-miterlimit:4;stroke-dasharray:none;stroke-opacity:1" />
    <path
       d="m 854.52508,1613.5397 30.36597,-38.2386 65.9054,-81.2009 h 47.46089 l -90.19818,106.8433 96.27134,140.1333 h -47.01099 l -75.57752,-113.3663 -24.51771,18.4445 v 94.9218 h -40.48796 v -349.9959 h 40.48796 v 160.6022 l -3.59893,61.8566 z"
       id="path44882"
       style="fill:#e17b26;fill-opacity:1;stroke:#49484a;stroke-width:8.23147;stroke-miterlimit:4;stroke-dasharray:none;stroke-opacity:1" />
    <path
       d="m 1142.8893,1745.5754 q -24.7426,0 -45.2115,-8.3225 -20.4689,-8.3225 -35.3145,-24.2928 -14.6207,-15.9702 -22.7183,-39.5882 -8.0976,-23.618 -8.0976,-53.9839 0,-30.5909 7.4228,-54.6588 7.4228,-24.0678 20.9188,-40.7129 13.496,-16.8699 32.1655,-25.6423 18.8943,-8.7724 41.6126,-8.7724 22.2684,0 40.0381,8.0976 17.7697,7.8726 30.141,22.4933 12.3713,14.3957 18.8944,34.8646 6.748,20.244 6.748,44.9866 v 25.4175 h -155.6537 q 1.1246,43.4121 18.2196,63.881 17.3198,20.4689 51.2847,20.4689 11.4716,0 21.1437,-1.1247 9.8971,-1.1247 18.8944,-3.149 9.2222,-2.2494 17.7697,-5.3984 8.5475,-3.374 17.3199,-7.4228 v 36.4391 q -8.9974,4.2738 -17.7698,7.4228 -8.5474,3.1491 -17.7697,5.1735 -8.9973,2.0244 -18.8944,2.9241 -9.6721,0.8997 -21.1437,0.8997 z m -10.122,-222.0089 q -25.6423,0 -40.7128,17.5448 -14.8456,17.5447 -17.3199,51.0598 h 110.6671 q 0,-15.2955 -3.1491,-27.8917 -2.9241,-12.8212 -9.4472,-21.8185 -6.2981,-8.9974 -16.1951,-13.9459 -9.8971,-4.9485 -23.843,-4.9485 z"
       id="path44884"
       style="fill:#e17b26;fill-opacity:1;stroke:#49484a;stroke-width:8.23147;stroke-miterlimit:4;stroke-dasharray:none;stroke-opacity:1" />
    <path
       d="m 1366.4728,1712.0604 q 4.0488,0 8.9973,-0.4499 5.1735,-0.4498 9.897,-1.1246 4.7236,-0.6748 8.5475,-1.5746 4.0488,-0.8997 6.0732,-1.5745 v 31.0408 q -2.9241,1.3496 -7.4228,2.6992 -4.4987,1.3496 -9.8971,2.2493 -5.3983,1.1247 -11.2466,1.5745 -5.8483,0.6748 -11.4716,0.6748 -13.9458,0 -25.8673,-3.5989 -11.9215,-3.5989 -20.6938,-12.3713 -8.5475,-8.7724 -13.496,-23.618 -4.9486,-15.0705 -4.9486,-37.7887 v -143.2824 h -34.8646 v -18.2196 l 34.8646,-17.5448 17.5448,-51.7346 h 23.618 v 56.6831 h 62.0815 v 30.8159 h -62.0815 v 143.2824 q 0,21.8185 6.9729,32.8402 7.1979,11.0217 23.3931,11.0217 z"
       id="path44886"
       style="fill:#e17b26;fill-opacity:1;stroke:#49484a;stroke-width:8.23147;stroke-miterlimit:4;stroke-dasharray:none;stroke-opacity:1" />
  </g>
</svg>
