<?xml version="1.0" encoding="UTF-8" standalone="no"?>
<svg
   xmlns:dc="http://purl.org/dc/elements/1.1/"
   xmlns:cc="http://creativecommons.org/ns#"
   xmlns:rdf="http://www.w3.org/1999/02/22-rdf-syntax-ns#"
   xmlns:svg="http://www.w3.org/2000/svg"
   xmlns="http://www.w3.org/2000/svg"
   id="svg1029"
   version="1.1"
   viewBox="0 0 156.08542 35.092716"
   height="35.092716mm"
   width="156.08542mm">
  <defs
     id="defs1023" />
  <metadata
     id="metadata1026">
    <rdf:RDF>
      <cc:Work
         rdf:about="">
        <dc:format>image/svg+xml</dc:format>
        <dc:type
           rdf:resource="http://purl.org/dc/dcmitype/StillImage" />
        <dc:title></dc:title>
      </cc:Work>
    </rdf:RDF>
  </metadata>
  <g
     transform="translate(-22.004411,-105.81374)"
     id="layer1">
    <g
       transform="translate(-51.583019,12.294399)"
       id="g895">
      <circle
         style="opacity:1;fill:none;fill-opacity:1;stroke:#464646;stroke-width:1.2649585;stroke-linecap:round;stroke-linejoin:bevel;stroke-miterlimit:4;stroke-dasharray:none;stroke-opacity:1;paint-order:markers stroke fill"
         id="path1087"
         cx="91.133789"
         cy="111.0657"
         r="16.913879" />
      <g
         id="g889"
         transform="matrix(0.90054928,0,0,0.90054928,-11.936828,1.7140134)">
        <path
           id="path1114"
           d="m 120.69552,111.41954 c -0.46294,0.004 -0.90727,0.0297 -1.33274,0.0729 -0.85093,0.0863 -1.62728,0.24379 -2.33216,0.44752 -0.70487,0.20373 -1.33826,0.45363 -1.9022,0.72502 -0.56395,0.27139 -1.05861,0.56394 -1.48674,0.85318 -0.42812,0.28924 -0.78985,0.57522 -1.08727,0.8325 -0.29742,0.25729 -0.53044,0.48595 -0.70228,0.66146 -0.38254,0.43747 -0.70729,0.91343 -0.97927,1.42111 -0.27198,0.50767 -0.49159,1.0469 -0.66456,1.61178 -0.17297,0.56489 -0.29896,1.15516 -0.38447,1.76424 -0.0855,0.60907 -0.13043,1.23713 -0.14004,1.8774 -0.01,0.64027 0.0161,1.29285 0.0708,1.9513 0.0547,0.65845 0.13845,1.32282 0.24598,1.98645 0.21507,1.32724 0.52417,2.65181 0.88109,3.92172 0.35691,1.26991 0.76207,2.48507 1.1684,3.59358 0.40634,1.10851 0.81387,2.11024 1.17719,2.95331 0.65365,1.51675 1.05099,2.27619 1.1467,2.46238 0.0243,0.001 0.0486,0.003 0.0729,0.004 9.34182,1.6e-4 16.91489,-7.57291 16.91473,-16.91473 -0.17392,-1.22298 -5.41107,-3.29342 -6.34552,-4.03086 -1.85413,-1.46322 -1.09872,-3.36624 1.52805,-3.60733 0.92977,-0.0853 2.88133,-0.15072 1.98183,-0.87975 -0.29896,-0.2423 -1.77433,-0.91586 -2.45509,-1.0995 -0.57919,-0.14907 -1.5785,-0.3778 -2.21105,-0.42311 -0.52125,-0.0917 -1.21776,-0.0915 -1.71881,-0.13197 -0.50105,-0.0405 -0.98245,-0.0566 -1.44539,-0.0522 z m -1.1312,0.51366 0.25993,0.98599 c -0.53521,0.0664 -1.05486,0.17969 -1.55907,0.33951 l -0.2651,-1.002 c 0.49425,-0.13894 1.01391,-0.2518 1.56424,-0.3235 z m -4.97902,1.94097 0.67334,0.91002 c -0.39209,0.29419 -0.76855,0.63517 -1.13481,1.00718 l -0.70384,-0.95189 c 0.32127,-0.30405 0.70277,-0.62898 1.16531,-0.96531 z m -3.37396,3.82716 1.03198,0.81907 c -0.21393,0.47488 -0.39756,0.93909 -0.52555,1.41852 l -1.09812,-0.86559 c 0.15344,-0.45361 0.35231,-0.92295 0.59169,-1.372 z m -1.01854,5.28288 1.16582,0.50436 c 0.0502,0.66012 0.14589,1.30447 0.2868,1.9327 -0.51849,-0.18852 -0.006,-0.0848 -1.30483,-0.56586 -0.065,-0.6028 -0.15379,-1.22626 -0.14779,-1.8712 z"
           style="opacity:1;fill:#464646;fill-opacity:1;stroke:none;stroke-width:1.26499999;stroke-linecap:round;stroke-linejoin:bevel;stroke-miterlimit:4;stroke-dasharray:none;stroke-opacity:1;paint-order:markers stroke fill" />
        <path
           id="path1087-3"
           d="m 114.4468,104.73003 a 16.914434,16.914434 0 0 0 -16.914214,16.91421 16.914434,16.914434 0 0 0 0.644921,4.54701 c 0.02727,-0.28958 0.04066,-0.49845 0.06667,-0.80512 l 1.147733,0.55707 c -0.05089,0.66088 -0.169688,1.36959 -0.190688,1.96784 l -0.530198,-0.2372 a 16.914434,16.914434 0 0 0 0.630968,1.48467 c 0.04514,-0.63193 0.10496,-1.28773 0.197405,-1.98076 0.101153,-0.75831 0.23358,-1.5505 0.404625,-2.37091 0.171048,-0.82041 0.384128,-1.63257 0.634068,-2.42931 0.24994,-0.79675 0.53698,-1.57805 0.85628,-2.33733 0.3193,-0.75928 0.67094,-1.49651 1.05007,-2.20452 0.37912,-0.708 0.7855,-1.38692 1.21491,-2.02985 0.42941,-0.64292 0.88169,-1.2498 1.35185,-1.81384 0.47018,-0.56404 0.95849,-1.08514 1.45987,-1.55649 0.50138,-0.47136 1.01587,-0.89295 1.53893,-1.25781 0.52306,-0.36486 1.05436,-0.67321 1.58957,-0.91777 0.52854,-0.24874 1.06536,-0.46109 1.60712,-0.64079 0.54177,-0.1797 1.08881,-0.32662 1.63764,-0.44442 0.54882,-0.11778 1.09927,-0.20673 1.64898,-0.26975 0.54972,-0.063 1.09836,-0.10038 1.6428,-0.11575 1.08888,-0.0307 2.16131,0.0266 3.19206,0.14366 1.03074,0.11703 2.01968,0.29403 2.94297,0.50178 0.92328,0.20774 1.78066,0.44641 2.54713,0.68781 0.76648,0.2414 1.44213,0.48532 2.00247,0.70332 0.59972,0.23332 0.64734,0.2725 0.95238,0.41134 a 16.914434,16.914434 0 0 0 -13.32631,-6.50709 z m 1.78129,2.4014 c 1.04571,-0.0547 1.48552,-10e-4 1.64744,0.0289 l 0.28578,1.06402 c -0.55108,-0.0323 -1.09727,-0.0491 -1.65313,-0.045 z m -5.90093,1.33997 0.61753,0.84284 -0.15141,0.0532 c -0.43857,0.15412 -0.87194,0.32369 -1.29501,0.52451 l -0.5917,-0.817 c 0.47841,-0.23764 0.95178,-0.43883 1.42059,-0.60358 z m 9.23716,3.4618 0.25993,0.98599 z m -15.40526,0.39171 1.03662,0.83457 c -0.32606,0.34051 -0.62684,0.70679 -0.93741,1.09399 l -1.05678,-0.84491 c 0.32569,-0.3925 0.64663,-0.74846 0.95757,-1.08365 z m 10.42624,1.54926 0.67334,0.91002 z m -3.37396,3.82716 1.03198,0.81907 z m -11.592576,1.50171 1.394226,0.58756 c -0.23385,0.51664 -0.44247,1.0593 -0.62063,1.59112 l -1.505335,-0.61805 c 0.21872,-0.51132 0.46764,-1.03336 0.731739,-1.56063 z m 10.574036,3.78117 1.16582,0.50436 z m 1.11569,5.90403 1.70067,0.0331 z"
           style="opacity:1;fill:#464646;fill-opacity:1;stroke:none;stroke-width:1.26499999;stroke-linecap:round;stroke-linejoin:bevel;stroke-miterlimit:4;stroke-dasharray:none;stroke-opacity:1;paint-order:markers stroke fill" />
      </g>
    </g>
    <g
       id="text828"
       style="font-style:normal;font-variant:normal;font-weight:bold;font-stretch:normal;font-size:25.96873093px;line-height:1.25;font-family:'Mrs Eaves OT';-inkscape-font-specification:'Mrs Eaves OT Bold';letter-spacing:0px;word-spacing:0px;fill:#20759d;fill-opacity:1;stroke:none;stroke-width:0.64921826"
       aria-label="RubyOnRails">
      <path
         id="path830"
         style="letter-spacing:-1.44991648px;fill:#20759d;fill-opacity:1;stroke-width:0.64921826"
         d="m 65.132842,122.57796 h -2.285249 v -6.85575 h 2.285249 c 2.259279,0 3.298028,1.55812 3.298028,3.42787 0,1.89572 -1.038749,3.42788 -3.298028,3.42788 z m 0.986811,0.93487 c 2.934467,-0.31163 4.622435,-2.10347 4.622435,-4.36275 0,-2.41509 -1.973624,-4.38871 -5.583278,-4.38871 h -6.855745 v 0.54534 c 2.155405,0 2.46703,0.4155 2.46703,3.01237 v 8.43984 c 0,2.59687 -0.311625,3.03834 -2.46703,3.03834 v 0.54535 h 7.011558 v -0.54535 c -2.155405,0 -2.46703,-0.44147 -2.46703,-3.03834 v -3.24609 h 1.220531 l 5.141808,6.82978 h 4.284841 v -0.54535 c -1.558124,-0.18178 -3.298029,-1.48022 -4.830184,-3.29803 z" />
      <path
         id="path832"
         style="letter-spacing:-1.44991648px;fill:#20759d;fill-opacity:1;stroke-width:0.64921826"
         d="m 85.006905,130.13486 v -0.54535 c -1.739905,0 -2.077498,-0.44147 -2.077498,-3.03834 v -4.85615 h -3.89531 v 0.51937 c 1.739905,0 2.077499,0.44147 2.077499,3.03834 v 1.71394 c 0,1.61006 -1.791843,2.5709 -2.804623,2.5709 -1.402312,0 -1.973624,-1.09068 -1.973624,-2.77865 v -5.0639 h -3.89531 v 0.51937 c 1.739905,0 2.05153,0.44147 2.05153,3.03834 v 1.63603 c 0,2.20735 0.831,3.89531 3.220123,3.89531 1.506186,0 2.752685,-0.98681 3.401904,-1.66199 0.07791,0.46743 0.285656,1.40231 0.415499,1.66199 z" />
      <path
         id="path834"
         style="letter-spacing:-1.44991648px;fill:#20759d;fill-opacity:1;stroke-width:0.64921826"
         d="m 88.01022,124.34383 c 0.467437,-1.22053 1.428281,-2.05153 2.622842,-2.05153 2.025561,0 2.960435,1.63603 2.960435,3.71353 0,2.0775 -0.934874,3.73949 -2.960435,3.73949 -1.194561,0 -2.155405,-0.83099 -2.622842,-2.07749 z m -0.155812,4.70034 c 0.753093,1.06472 1.947655,1.7399 3.323997,1.7399 2.46703,0 4.492591,-2.1554 4.492591,-4.77824 0,-2.62284 -2.025561,-4.75228 -4.492591,-4.75228 -1.298436,0 -2.389123,0.57131 -3.168185,1.53215 v -8.4658 l -3.895309,0.64922 v 0.54534 c 1.713936,0 2.051529,0.44147 2.051529,3.03834 v 12.23127 h 0.545344 z" />
      <path
         id="path836"
         style="letter-spacing:-1.44991648px;fill:#20759d;fill-opacity:1;stroke-width:0.64921826"
         d="m 96.716512,136.49719 c 0,0.64922 0.519374,0.85697 0.882937,0.85697 0.415499,0 0.753093,-0.44147 0.960843,-0.96084 l 5.063898,-12.64677 c 0.46744,-1.14263 1.03875,-1.53216 1.84378,-1.53216 v -0.51937 h -3.63562 v 0.51937 c 1.06472,0 1.2465,0.36357 0.75309,1.53216 l -1.66199,4.15499 -1.895721,-4.15499 c -0.597281,-1.27247 -0.311625,-1.53216 0.830999,-1.53216 v -0.51937 h -4.596465 v 0.51937 c 0.80503,0 1.194561,0.38953 1.739905,1.53216 l 2.986404,6.46621 -1.298437,3.24609 c -0.80503,2.02556 -1.973623,2.02556 -1.973623,3.03834 z" />
      <path
         id="path838"
         style="letter-spacing:-1.44991648px;fill:#20759d;fill-opacity:1;stroke-width:0.64921826"
         d="m 122.43111,122.55199 c 0,-4.51856 -3.89531,-8.23209 -8.64759,-8.23209 -4.77825,0 -8.67356,3.71353 -8.67356,8.23209 0,4.51856 3.89531,8.23208 8.67356,8.23208 4.75228,0 8.64759,-3.71352 8.64759,-8.23208 z m -8.64759,-7.21931 c 4.46662,0 6.18056,3.99918 6.18056,7.21931 0,3.22012 -1.71394,7.19333 -6.18056,7.19333 -4.49259,0 -6.20653,-3.97321 -6.20653,-7.19333 0,-3.22013 1.71394,-7.21931 6.20653,-7.21931 z" />
      <path
         id="path840"
         style="letter-spacing:-1.44991648px;fill:#20759d;fill-opacity:1;stroke-width:0.64921826"
         d="m 127.27577,123.1233 c -0.0779,-0.54534 -0.31163,-1.61006 -0.44147,-1.86975 l -3.45384,0.64922 v 0.54534 c 1.71393,0 2.05153,0.4155 2.05153,3.01237 v 1.29844 c 0,2.59687 -0.3376,3.03834 -2.05153,3.03834 v 0.54535 h 5.71312 v -0.54535 c -1.61006,0 -1.81781,-0.36356 -1.81781,-3.03834 v -1.68797 c 0,-1.42828 1.55812,-2.59687 2.9864,-2.59687 1.55813,0 2.15541,1.09069 2.15541,2.77865 v 1.50619 c 0,2.59687 -0.36357,3.03834 -2.05153,3.03834 v 0.54535 h 5.94684 v -0.54535 c -1.73991,0 -2.05153,-0.44147 -2.05153,-3.03834 v -1.63603 c 0,-2.20734 -1.03875,-3.86934 -3.37594,-3.86934 -1.71393,0 -2.9085,0.98681 -3.60965,1.86975 z" />
      <path
         id="path842"
         style="letter-spacing:-1.44991648px;fill:#454545;fill-opacity:1;stroke-width:0.64921826"
         d="m 143.16485,122.57796 h -2.28525 v -6.85575 h 2.28525 c 2.25928,0 3.29803,1.55812 3.29803,3.42787 0,1.89572 -1.03875,3.42788 -3.29803,3.42788 z m 0.98681,0.93487 c 2.93447,-0.31163 4.62243,-2.10347 4.62243,-4.36275 0,-2.41509 -1.97362,-4.38871 -5.58327,-4.38871 h -6.85575 v 0.54534 c 2.15541,0 2.46703,0.4155 2.46703,3.01237 v 8.43984 c 0,2.59687 -0.31162,3.03834 -2.46703,3.03834 v 0.54535 h 7.01156 v -0.54535 c -2.15541,0 -2.46703,-0.44147 -2.46703,-3.03834 v -3.24609 h 1.22053 l 5.14181,6.82978 h 4.28484 v -0.54535 c -1.55813,-0.18178 -3.29803,-1.48022 -4.83019,-3.29803 z" />
      <path
         id="path844"
         style="letter-spacing:-1.44991648px;fill:#454545;fill-opacity:1;stroke-width:0.64921826"
         d="m 160.02654,129.82323 -0.36356,-0.4934 c -0.18179,0.18178 -0.46744,0.38953 -0.72713,0.38953 -0.38953,0 -0.59728,-0.36357 -0.59728,-1.01278 v -3.92128 c 0,-2.46703 -1.03875,-3.53175 -3.55772,-3.53175 -1.66199,0 -3.29802,0.831 -3.29802,2.0775 0,0.51937 0.38953,0.9089 0.9089,0.9089 0.49341,0 0.88294,-0.38953 0.88294,-0.9089 0,-0.831 0.88293,-1.2465 1.48022,-1.2465 1.48021,0 1.7399,0.77906 1.7399,2.72672 -2.96044,0.51937 -5.53134,1.48021 -5.53134,3.68756 0,1.37634 1.06472,2.18137 2.33719,2.18137 1.03875,0 1.97362,-0.4155 3.24609,-1.55812 0.12984,0.93487 0.75309,1.50618 1.76587,1.50618 0.57131,0 1.22053,-0.28565 1.71394,-0.80503 z m -3.53175,-1.55812 c -1.19456,1.06472 -1.81781,1.2465 -2.36315,1.2465 -0.64922,0 -1.22053,-0.49341 -1.22053,-1.32441 0,-1.14262 1.11665,-1.99959 3.58368,-2.5709 z" />
      <path
         id="path846"
         style="letter-spacing:-1.44991648px;fill:#454545;fill-opacity:1;stroke-width:0.64921826"
         d="m 165.90873,130.34261 v -0.54535 c -1.7399,0 -2.05153,-0.44147 -2.05153,-3.03834 v -5.50537 l -3.89531,0.64922 v 0.54534 c 1.71394,0 2.05153,0.4155 2.05153,3.01237 v 1.29844 c 0,2.59687 -0.33759,3.03834 -2.05153,3.03834 v 0.54535 z m -1.84378,-12.80259 c 0,-0.62325 -0.51937,-1.14262 -1.14262,-1.14262 -0.62325,0 -1.14262,0.51937 -1.14262,1.14262 0,0.64922 0.51937,1.16859 1.14262,1.16859 0.62325,0 1.14262,-0.51937 1.14262,-1.16859 z" />
      <path
         id="path848"
         style="letter-spacing:-1.44991648px;fill:#454545;fill-opacity:1;stroke-width:0.64921826"
         d="m 171.37055,130.34261 v -0.54535 c -1.71394,0 -2.05153,-0.44147 -2.05153,-3.03834 V 114.3199 l -3.89531,0.64922 v 0.54534 c 1.73991,0 2.05153,0.44147 2.05153,3.03834 v 8.20612 c 0,2.59687 -0.31162,3.03834 -2.05153,3.03834 v 0.54535 z" />
      <path
         id="path850"
         style="letter-spacing:-1.44991648px;fill:#454545;fill-opacity:1;stroke-width:0.64921826"
         d="m 178.08983,127.95348 c 0,-0.93487 -0.64922,-1.84378 -1.79184,-2.493 l -1.2465,-0.67518 c -1.16859,-0.62325 -1.58409,-0.96085 -1.58409,-1.5841 0,-0.64921 0.44146,-1.11665 1.3244,-1.11665 1.32441,0 2.10347,1.09069 2.10347,2.18137 h 0.54534 v -3.01237 h -0.54534 c 0,1.35037 -0.4155,0 -2.36316,0 -1.3244,0 -2.62284,0.96084 -2.62284,2.36315 0,0.831 0.46744,1.92169 1.71394,2.59688 l 1.45425,0.77906 c 0.88293,0.46744 1.45425,0.93487 1.45425,1.58409 0,0.72713 -0.62325,1.32441 -1.48022,1.32441 -1.84378,0 -2.83059,-1.73991 -2.83059,-2.9085 h -0.54535 v 3.79143 h 0.54535 c 0,-1.84378 0.98681,0 2.77865,0 1.68797,0 3.09028,-1.11665 3.09028,-2.83059 z" />
    </g>
  </g>
</svg>
