<?xml version="1.0" encoding="UTF-8" standalone="no"?>
<svg
   xmlns:dc="http://purl.org/dc/elements/1.1/"
   xmlns:cc="http://creativecommons.org/ns#"
   xmlns:rdf="http://www.w3.org/1999/02/22-rdf-syntax-ns#"
   xmlns:svg="http://www.w3.org/2000/svg"
   xmlns="http://www.w3.org/2000/svg"
   id="svg1291"
   version="1.1"
   viewBox="0 0 177.41222 45.147118"
   height="45.147118mm"
   width="177.41222mm">
  <defs
     id="defs1285" />
  <metadata
     id="metadata1288">
    <rdf:RDF>
      <cc:Work
         rdf:about="">
        <dc:format>image/svg+xml</dc:format>
        <dc:type
           rdf:resource="http://purl.org/dc/dcmitype/StillImage" />
        <dc:title></dc:title>
      </cc:Work>
    </rdf:RDF>
  </metadata>
  <g
     transform="translate(-22.449247,-16.014365)"
     id="layer1">
    <g
       transform="translate(20.13776,-3.7456676)"
       id="g1928">
      <path
         style="fill:#c30e2e;fill-opacity:1;stroke:none;stroke-width:0.26458332px;stroke-linecap:butt;stroke-linejoin:miter;stroke-opacity:1"
         d="m 22.973791,19.760033 -20.6623043,7.47758 3.0737148,27.796235 17.5885895,9.8733 z"
         id="path1847" />
      <path
         style="fill:#dd0330;fill-opacity:1;stroke:none;stroke-width:0.26458332px;stroke-linecap:butt;stroke-linejoin:miter;stroke-opacity:1"
         d="m 22.973791,19.760033 20.662309,7.47758 -3.073715,27.796236 -17.588594,9.8733 z"
         id="path1847-7" />
      <g
         aria-label="R"
         style="font-style:normal;font-variant:normal;font-weight:normal;font-stretch:normal;font-size:8.97236252px;line-height:1.25;font-family:'Source Sans Pro';-inkscape-font-specification:'Source Sans Pro';letter-spacing:0px;word-spacing:0px;fill:#ffffff;fill-opacity:1;stroke:none;stroke-width:0.22430906"
         id="text1866">
        <path
           d="m 18.894574,39.988609 h 3.230051 q 2.497905,0 3.789925,-1.033616 1.335088,-1.076684 1.335088,-3.143916 0,-2.067232 -1.335088,-2.885511 -1.29202,-0.81828 -3.789925,-0.81828 H 18.894574 Z M 27.723378,55.148312 22.339961,45.027487 H 18.894574 V 55.148312 H 12.520608 V 27.068408 h 10.120825 q 2.239501,0 4.177531,0.430673 1.981098,0.430674 3.445387,1.46429 1.507357,0.990548 2.368704,2.670175 0.861347,1.679626 0.861347,4.177531 0,3.100849 -1.378155,5.125013 -1.378155,1.981098 -3.617656,2.971647 l 6.330898,11.240575 z"
           style="font-style:normal;font-variant:normal;font-weight:bold;font-stretch:normal;font-size:43.06733704px;font-family:'Source Sans Pro';-inkscape-font-specification:'Source Sans Pro Bold';fill:#ffffff;fill-opacity:1;stroke-width:0.22430906"
           id="path1921" />
      </g>
    </g>
    <g
       id="text1932"
       style="font-style:normal;font-variant:normal;font-weight:normal;font-stretch:normal;font-size:17.92770386px;line-height:1.25;font-family:'Source Sans Pro';-inkscape-font-specification:'Source Sans Pro';letter-spacing:0px;word-spacing:0px;fill:#000000;fill-opacity:1;stroke:none;stroke-width:0.4481926"
       aria-label="EACTJS">
      <path
         id="path1934"
         style="font-size:43.02649307px;stroke-width:0.4481926"
         d="m 68.106279,23.433074 h 17.597836 v 5.335285 H 74.4742 v 5.63647 h 9.551881 v 5.292259 H 74.4742 v 6.453974 h 11.66018 v 5.335285 H 68.106279 Z" />
      <path
         id="path1936"
         style="font-size:43.02649307px;stroke-width:0.4481926"
         d="m 103.55473,39.869194 -0.68842,-2.58159 q -0.60237,-2.108298 -1.16172,-4.474755 -0.51632,-2.366457 -1.11869,-4.560808 h -0.1721 q -0.473295,2.237378 -1.032639,4.603835 -0.559344,2.32343 -1.161715,4.431728 l -0.688424,2.58159 z m 1.2908,4.948047 h -8.605303 l -1.72106,6.669106 h -6.453974 l 8.820431,-28.053273 h 7.572666 l 8.82043,28.053273 h -6.71213 z" />
      <path
         id="path1938"
         style="font-size:43.02649307px;stroke-width:0.4481926"
         d="m 114.42094,37.631816 q 0,-3.485146 1.07566,-6.195815 1.07566,-2.753695 2.88277,-4.646861 1.85014,-1.893166 4.25963,-2.882775 2.45251,-0.989609 5.16318,-0.989609 2.62461,0 4.73291,1.118689 2.15133,1.075662 3.5712,2.538563 l -3.48515,3.915411 q -1.07566,-0.98961 -2.15132,-1.548954 -1.07566,-0.559345 -2.58159,-0.559345 -1.4629,0 -2.7537,0.645398 -1.24776,0.602371 -2.19435,1.764086 -0.94658,1.161715 -1.50592,2.839749 -0.51632,1.678033 -0.51632,3.786331 0,4.345676 1.85014,6.755159 1.85014,2.366457 4.94804,2.366457 1.76409,0 3.01186,-0.688423 1.29079,-0.688424 2.32343,-1.807113 l 3.48514,3.829358 q -1.76408,2.065271 -4.04449,3.097907 -2.23737,1.032636 -4.86199,1.032636 -2.71067,0 -5.12015,-0.903556 -2.40949,-0.946583 -4.2166,-2.753696 -1.80711,-1.807113 -2.83975,-4.474755 -1.03263,-2.710669 -1.03263,-6.238842 z" />
      <path
         id="path1940"
         style="font-size:43.02649307px;stroke-width:0.4481926"
         d="m 145.71666,28.768359 h -7.74477 v -5.335285 h 21.77141 v 5.335285 h -7.70175 v 22.717988 h -6.32489 z" />
      <path
         id="path1942"
         style="font-size:43.02649307px;fill:#dd0330;fill-opacity:1;stroke-width:0.4481926"
         d="m 160.54332,43.741578 q 0.81751,1.419875 1.80712,2.108299 1.03263,0.688423 2.10829,0.688423 1.72106,0 2.58159,-1.032635 0.90356,-1.075663 0.90356,-3.872385 V 23.433074 h 6.36792 v 18.716524 q 0,2.022245 -0.55934,3.829358 -0.51632,1.807113 -1.63501,3.140934 -1.07566,1.333821 -2.79672,2.108298 -1.67804,0.774477 -4.00147,0.774477 -3.22698,0 -5.42133,-1.247768 -2.19436,-1.247768 -3.65726,-3.829358 z" />
      <path
         id="path1944"
         style="font-size:43.02649307px;fill:#dd0330;fill-opacity:1;stroke-width:0.4481926"
         d="m 182.56482,43.612499 q 1.50592,1.290795 3.31304,2.108298 1.80711,0.817503 3.5712,0.817503 1.97921,0 2.9258,-0.73145 0.98961,-0.73145 0.98961,-1.979219 0,-0.645397 -0.30119,-1.118688 -0.25816,-0.473292 -0.8175,-0.817504 -0.51632,-0.387238 -1.2908,-0.688424 -0.73145,-0.344212 -1.635,-0.73145 l -3.61423,-1.548954 q -1.11869,-0.430265 -2.15132,-1.118689 -0.98961,-0.688423 -1.80712,-1.59198 -0.77447,-0.946583 -1.24776,-2.151324 -0.4733,-1.247769 -0.4733,-2.796723 0,-1.721059 0.73145,-3.226987 0.77448,-1.548953 2.06528,-2.667642 1.33382,-1.161715 3.14093,-1.807113 1.85014,-0.645397 4.04449,-0.645397 2.45251,0 4.81897,0.946583 2.40948,0.946582 4.21659,2.753695 L 195.86,30.618498 q -1.37684,-1.075662 -2.79672,-1.635007 -1.37685,-0.602371 -3.05488,-0.602371 -1.63501,0 -2.62462,0.688424 -0.94658,0.645398 -0.94658,1.85014 0,0.645397 0.30119,1.118688 0.34421,0.430265 0.90355,0.817504 0.60237,0.344212 1.37685,0.688424 0.8175,0.301185 1.72106,0.688423 l 3.5712,1.462901 q 2.58159,1.032636 4.04449,2.839749 1.50593,1.807112 1.50593,4.775941 0,1.764086 -0.73145,3.356066 -0.68843,1.548954 -2.06528,2.753696 -1.33382,1.161715 -3.31304,1.893165 -1.93619,0.688424 -4.43172,0.688424 -2.7537,0 -5.5074,-0.989609 -2.71066,-1.032636 -4.90502,-3.054881 z" />
    </g>
  </g>
</svg>
