<?xml version="1.0" encoding="UTF-8" standalone="no"?>
<svg
   xmlns:dc="http://purl.org/dc/elements/1.1/"
   xmlns:cc="http://creativecommons.org/ns#"
   xmlns:rdf="http://www.w3.org/1999/02/22-rdf-syntax-ns#"
   xmlns:svg="http://www.w3.org/2000/svg"
   xmlns="http://www.w3.org/2000/svg"
   id="svg8"
   version="1.1"
   viewBox="0 0 83.628242 31.282837"
   height="31.282837mm"
   width="83.628242mm">
  <defs
     id="defs2" />
  <metadata
     id="metadata5">
    <rdf:RDF>
      <cc:Work
         rdf:about="">
        <dc:format>image/svg+xml</dc:format>
        <dc:type
           rdf:resource="http://purl.org/dc/dcmitype/StillImage" />
        <dc:title></dc:title>
      </cc:Work>
    </rdf:RDF>
  </metadata>
  <g
     transform="translate(-26.25646,-10.891056)"
     id="layer1">
    <g
       style="fill:#303030;fill-opacity:1;stroke:#303030;stroke-width:1;stroke-linejoin:round;stroke-miterlimit:4;stroke-dasharray:none;stroke-opacity:1;paint-order:normal"
       transform="translate(1.7372519,0.92469853)"
       id="g1806">
      <path
         id="path1145-7"
         style="fill:#303030;fill-opacity:1;fill-rule:evenodd;stroke:#303030;stroke-width:1;stroke-linejoin:round;stroke-miterlimit:4;stroke-dasharray:none;stroke-opacity:1;paint-order:normal"
         d="m 45.057156,40.256023 0.104402,-5.387914 -10.00647,-5.85192 -5.06771,2.92504 15.222267,8.752915" />
      <path
         id="path1147-9"
         style="fill:#303030;fill-opacity:1;fill-rule:evenodd;stroke:#303030;stroke-width:1;stroke-linejoin:round;stroke-miterlimit:4;stroke-dasharray:none;stroke-opacity:1;paint-order:normal"
         d="m 25.019208,17.312339 c 0,5.85193 0,14.62889 0,20.48127 l 5.06817,2.92596 v -8.77834 l 5.06771,2.92688 10.13541,-5.85192 v -11.70385 l -5.06771,2.9255 v 5.85193 l -5.0677,2.92642 -5.06771,-2.92642 v -5.85193 l -5.06817,-2.9255" />
      <path
         id="path1149-9"
         style="fill:#303030;fill-opacity:1;fill-rule:evenodd;stroke:#303030;stroke-width:1;stroke-linejoin:round;stroke-miterlimit:4;stroke-dasharray:none;stroke-opacity:1;paint-order:normal"
         d="m 35.355888,11.472691 -10.33668,5.839648 5.06817,2.9255 5.06771,-2.9255 5.0677,2.9255 5.06771,-2.9255 -10.442516,-5.85146" />
    </g>
    <g
       id="g1901">
      <path
         id="path885-1"
         style="fill:#04863b;fill-opacity:1;fill-rule:evenodd;stroke:none;stroke-width:0.04604913"
         d="m 71.93306,36.321974 v -14.62981 l -5.06817,-2.9255 v 14.62889 l 5.06817,2.92642" />
      <path
         id="path887-5"
         style="fill:#409d54;fill-opacity:1;fill-rule:evenodd;stroke:none;stroke-width:0.04604913"
         d="m 51.66131,36.321974 v -14.62981 l 5.06817,-2.9255 v 14.62889 l -5.06817,2.92642" />
      <path
         id="path889-0"
         style="fill:#4bb958;fill-opacity:1;fill-rule:evenodd;stroke:none;stroke-width:0.04604913"
         d="m 61.79719,42.173894 -10.13588,-5.85192 5.06817,-2.92642 5.06771,2.92642 5.0677,-2.92642 5.06817,2.92642 -5.06817,2.92596 -5.0677,2.92596" />
    </g>
    <g
       style="fill:#303030;fill-opacity:1;stroke:#303030;stroke-width:0.2;stroke-linejoin:round;stroke-miterlimit:4;stroke-dasharray:none;stroke-opacity:1"
       transform="translate(8.5000756,1.4538652)"
       id="g1874">
      <path
         id="path867-9"
         style="fill:#303030;fill-opacity:1;fill-rule:evenodd;stroke:#303030;stroke-width:0.2;stroke-linejoin:round;stroke-miterlimit:4;stroke-dasharray:none;stroke-opacity:1"
         d="m 77.30644,34.734474 0.0115,-5.83903 C 72.24287,25.965338 72.23366,25.981916 67.17055,23.030627 v 5.851923 l 10.13588,5.851924" />
      <path
         id="path869-5"
         style="fill:#303030;fill-opacity:1;fill-rule:evenodd;stroke:#303030;stroke-width:0.2;stroke-linejoin:round;stroke-miterlimit:4;stroke-dasharray:none;stroke-opacity:1"
         d="m 77.30644,34.734474 5.0677,-2.926883 -5.07829,-2.925041 0.0106,-5.851923 10.13541,5.851923 v 5.851924 l -10.13541,5.851462 v -5.851462" />
      <path
         id="path871-0"
         style="fill:#303030;fill-opacity:1;fill-rule:evenodd;stroke:#303030;stroke-width:0.2;stroke-linejoin:round;stroke-miterlimit:4;stroke-dasharray:none;stroke-opacity:1"
         d="M 77.30644,17.178704 V 23.0426 l 5.0677,2.913528 5.06771,-2.925501 -10.13541,-5.851923" />
      <path
         id="path873-7"
         style="fill:#303030;fill-opacity:1;fill-rule:evenodd;stroke:#303030;stroke-width:0.2;stroke-linejoin:round;stroke-miterlimit:4;stroke-dasharray:none;stroke-opacity:1"
         d="m 67.17056,23.030627 5.06771,2.925501 5.06817,-2.913528 v -5.863896 l -10.13588,5.851923" />
      <path
         id="path875-4"
         style="fill:#303030;fill-opacity:1;fill-rule:evenodd;stroke:#303030;stroke-width:0.2;stroke-linejoin:round;stroke-miterlimit:4;stroke-dasharray:none;stroke-opacity:1"
         d="m 77.30644,34.734474 -5.06817,-2.926883 -5.06771,2.926883 10.13588,5.851462 v -5.851462" />
    </g>
    <g
       transform="translate(0.04724702,0.68508185)"
       id="g1914">
      <path
         id="path877-7"
         style="fill:#303030;fill-opacity:1;fill-rule:evenodd;stroke:#303030;stroke-width:0.046;stroke-linejoin:round;stroke-miterlimit:4;stroke-dasharray:none;stroke-opacity:1"
         d="M 104.79374,41.489995 99.726153,38.564032 V 15.156339 l 5.067587,-2.925501 v 29.259157" />
      <path
         id="path881-2"
         style="fill:#3ca060;fill-opacity:1;fill-rule:evenodd;stroke:none;stroke-width:0.04604913"
         d="m 109.8617,26.860185 -5.06796,-2.925501 v 5.851924 z" />
      <path
         id="path883-3"
         style="fill:#303030;fill-opacity:1;fill-rule:evenodd;stroke:#303030;stroke-width:0.046;stroke-linejoin:round;stroke-miterlimit:4;stroke-dasharray:none;stroke-opacity:1"
         d="m 109.8617,38.564032 -5.06796,2.925963 V 35.63807 l 5.06796,-2.925961 v 5.851923" />
    </g>
  </g>
</svg>
