<?xml version="1.0" encoding="UTF-8" standalone="no"?>
<!-- Created with Inkscape (http://www.inkscape.org/) -->

<svg
   width="52.545959mm"
   height="60.880863mm"
   viewBox="0 0 52.54596 60.880863"
   version="1.1"
   id="svg5"
   xmlns="http://www.w3.org/2000/svg"
   xmlns:svg="http://www.w3.org/2000/svg">
  <defs
     id="defs2" />
  <g
     id="layer1"
     transform="translate(-49.241709,-57.364136)">
    <g
       aria-label="shellscript"
       id="text2674"
       style="font-size:10.5833px;line-height:1.25;font-family:Ergonomique;-inkscape-font-specification:Ergonomique;letter-spacing:0px;word-spacing:0px;stroke-width:0.264583">
      <path
         d="m 51.887534,110.54035 q 0.846664,0 1.852077,0.27517 l -0.402165,1.17475 q -0.836081,-0.26459 -1.449912,-0.26459 -0.740831,0 -0.740831,0.41275 0,0.21167 0.285749,0.33867 0.296332,0.127 0.709081,0.23283 0.423332,0.0952 0.836081,0.24342 0.412749,0.14816 0.698498,0.48683 0.296332,0.33866 0.296332,0.85725 0,0.80433 -0.645581,1.29116 -0.645582,0.48683 -1.693328,0.48683 -1.259413,0 -2.391826,-0.59266 l 0.497415,-1.12183 q 0.888997,0.49741 1.852078,0.49741 0.793747,0 0.793747,-0.4445 0,-0.20108 -0.285749,-0.32808 -0.285749,-0.13758 -0.698498,-0.24342 -0.412749,-0.11641 -0.825497,-0.26458 -0.402166,-0.15875 -0.687915,-0.49741 -0.285749,-0.33867 -0.285749,-0.84667 0,-0.77258 0.613832,-1.22766 0.613831,-0.46567 1.672161,-0.46567 z"
         id="path1619" />
      <path
         d="m 58.015256,110.54035 q 2.169577,0 2.169577,2.05316 v 3.33374 h -1.598078 v -3.06915 q 0,-0.56092 -0.15875,-0.80433 -0.158749,-0.24342 -0.645581,-0.24342 -0.560915,0 -1.269996,0.1905 v 3.9264 H 54.91435 v -8.11739 l 1.598078,-0.10583 v 3.17499 q 0.825497,-0.33867 1.502828,-0.33867 z"
         id="path1621" />
      <path
         d="m 62.671891,113.72593 q 0.1905,1.10066 1.598078,1.10066 0.719665,0 1.777995,-0.23283 l 0.179916,1.04774 q -0.328082,0.15875 -0.920747,0.29634 -0.592665,0.13758 -1.227663,0.13758 -1.396996,0 -2.222493,-0.77258 -0.814914,-0.78317 -0.814914,-1.96849 0,-1.21708 0.793747,-2.00025 0.793748,-0.79375 2.095494,-0.79375 1.195913,0 1.936744,0.6985 0.740831,0.6985 0.740831,1.79916 0,0.37042 -0.05292,0.68792 z m 0.02117,-1.03717 h 2.349492 q 0,-0.37041 -0.285749,-0.64558 -0.275166,-0.28575 -0.878414,-0.28575 -0.952497,0 -1.185329,0.93133 z"
         id="path1623" />
      <path
         d="m 69.212356,115.92725 h -1.598078 v -8.11739 l 1.598078,-0.10583 z"
         id="path1625" />
      <path
         d="m 72.112161,115.92725 h -1.598078 v -8.11739 l 1.598078,-0.10583 z"
         id="path1627" />
      <path
         d="m 75.583464,110.54035 q 0.846664,0 1.852078,0.27517 l -0.402166,1.17475 q -0.83608,-0.26459 -1.449912,-0.26459 -0.740831,0 -0.740831,0.41275 0,0.21167 0.28575,0.33867 0.296332,0.127 0.709081,0.23283 0.423332,0.0952 0.83608,0.24342 0.412749,0.14816 0.698498,0.48683 0.296332,0.33866 0.296332,0.85725 0,0.80433 -0.645581,1.29116 -0.645581,0.48683 -1.693328,0.48683 -1.259412,0 -2.391825,-0.59266 l 0.497415,-1.12183 q 0.888997,0.49741 1.852077,0.49741 0.793748,0 0.793748,-0.4445 0,-0.20108 -0.28575,-0.32808 -0.285749,-0.13758 -0.698497,-0.24342 -0.412749,-0.11641 -0.825498,-0.26458 -0.402165,-0.15875 -0.687914,-0.49741 -0.285749,-0.33867 -0.285749,-0.84667 0,-0.77258 0.613831,-1.22766 0.613831,-0.46567 1.672161,-0.46567 z"
         id="path1629" />
      <path
         d="m 81.182022,110.54035 q 1.15358,0 1.979077,0.48684 l -0.476249,1.13241 q -0.77258,-0.34925 -1.396995,-0.34925 -0.709081,0 -1.068913,0.381 -0.359833,0.37041 -0.359833,1.02658 0,0.6985 0.391583,1.13241 0.391582,0.42333 1.100663,0.42333 0.645581,0 1.502828,-0.40216 l 0.423332,1.09008 q -0.910164,0.61383 -2.158993,0.61383 -1.312329,0 -2.095493,-0.78316 -0.783164,-0.78317 -0.783164,-1.9685 0,-1.16416 0.761997,-1.96849 0.761998,-0.81492 2.18016,-0.81492 z"
         id="path1631" />
      <path
         d="m 86.844082,110.52977 q 0.677331,0 1.09008,0.15875 l -0.264583,1.24883 q -0.666748,-0.127 -1.206496,-0.0847 -0.243416,0.0106 -0.677331,0.127 v 3.94757 h -1.598078 v -4.76248 q 1.407578,-0.635 2.656408,-0.635 z"
         id="path1633" />
      <path
         d="m 90.442389,109.77836 h -1.640412 v -1.59808 h 1.640412 z m -0.02117,6.14889 h -1.598078 v -5.23873 h 1.598078 z"
         id="path1635" />
      <path
         d="m 94.474609,110.54035 q 1.333496,0 2.031993,0.762 0.698498,0.75142 0.698498,1.905 0,1.19591 -0.730247,2.02141 -0.719665,0.82549 -2.053161,0.82549 -0.529165,0 -1.153579,-0.13758 v 2.26483 l -1.598079,0.0635 v -7.13315 q 1.481662,-0.5715 2.804575,-0.5715 z m -0.232833,4.27566 q 0.666748,0 1.005414,-0.41275 0.349249,-0.41275 0.349249,-1.16416 0,-1.41817 -1.291163,-1.41817 -0.444499,0 -1.037163,0.14817 v 2.70932 q 0.624414,0.13759 0.973663,0.13759 z"
         id="path1637" />
      <path
         d="m 100.76109,114.69959 q 0.37041,0 0.88899,-0.0741 l 0.127,1.13241 q -0.79375,0.27517 -1.59808,0.27517 -0.730244,0 -1.164159,-0.41275 -0.433915,-0.41275 -0.423332,-1.30175 v -2.43416 h -0.825497 l 0.07408,-1.19591 h 0.751414 v -1.34408 l 1.598084,-0.21166 v 1.55574 h 1.59808 l -0.0847,1.19591 h -1.51341 v 2.26483 q 0,0.28575 0.127,0.42333 0.127,0.127 0.4445,0.127 z"
         id="path1639" />
    </g>
    <g
       id="g7748"
       transform="matrix(0.06479286,0,0,0.06479286,52.744925,57.364149)">
      <path
         d="M 348.987,0.06 A 46.725,46.342 0 0 0 331.08,4.591 L 86.737,121.341 a 46.725,46.342 0 0 0 -25.282,31.438 l -60.28,262.25 a 46.725,46.342 0 0 0 6.343,35.531 46.725,46.342 0 0 0 2.656,3.688 L 179.3,664.528 a 46.725,46.342 0 0 0 36.531,17.438 l 271.22,-0.062 a 46.725,46.342 0 0 0 36.53,-17.406 L 692.644,454.185 a 46.725,46.342 0 0 0 9.031,-39.219 L 641.3,152.716 A 46.725,46.342 0 0 0 616.019,121.279 L 371.643,4.59 A 46.725,46.342 0 0 0 348.987,0.06 Z"
         fill="#326ce5"
         id="path7736" />
      <path
         style="line-height:normal;-inkscape-font-specification:Sans;text-indent:0;text-align:start;text-decoration-line:none;text-transform:none;marker:none"
         d="m 351.408,89.307 c -8.077,0.001 -14.626,7.276 -14.625,16.25 0,0.138 0.028,0.27 0.031,0.406 -0.012,1.22 -0.07,2.689 -0.031,3.75 0.192,5.176 1.32,9.138 2,13.907 1.23,10.206 2.26,18.667 1.625,26.531 -0.619,2.965 -2.803,5.677 -4.75,7.562 l -0.344,6.188 a 190.337,190.337 0 0 0 -26.437,4.062 c -37.975,8.623 -70.67,28.184 -95.563,54.594 a 245.167,245.167 0 0 1 -5.281,-3.75 c -2.611,0.353 -5.25,1.159 -8.688,-0.844 -6.545,-4.405 -12.506,-10.486 -19.719,-17.812 -3.305,-3.504 -5.698,-6.841 -9.625,-10.219 -0.891,-0.767 -2.252,-1.804 -3.25,-2.594 -3.07,-2.447 -6.69,-3.724 -10.187,-3.843 -4.496,-0.154 -8.824,1.604 -11.656,5.156 -5.036,6.315 -3.423,15.968 3.593,21.562 0.072,0.057 0.147,0.101 0.22,0.157 0.963,0.781 2.144,1.783 3.03,2.437 4.167,3.077 7.974,4.652 12.125,7.094 8.747,5.402 15.999,9.88 21.75,15.281 2.246,2.394 2.639,6.613 2.938,8.438 l 4.687,4.187 c -25.093,37.764 -36.706,84.41 -29.843,131.938 l -6.125,1.781 c -1.615,2.085 -3.896,5.365 -6.282,6.344 -7.525,2.37 -15.994,3.24 -26.218,4.312 -4.8,0.4 -8.942,0.161 -14.032,1.125 -1.12,0.212 -2.68,0.619 -3.906,0.906 l -0.125,0.032 c -0.067,0.015 -0.154,0.048 -0.219,0.062 -8.62,2.083 -14.157,10.006 -12.375,17.813 1.784,7.808 10.204,12.556 18.875,10.687 0.063,-0.014 0.154,-0.017 0.22,-0.031 0.097,-0.022 0.183,-0.07 0.28,-0.094 1.21,-0.265 2.724,-0.56 3.782,-0.843 5.003,-1.34 8.627,-3.308 13.125,-5.032 9.677,-3.47 17.691,-6.37 25.5,-7.5 3.26,-0.255 6.697,2.012 8.406,2.969 l 6.375,-1.094 c 14.67,45.483 45.414,82.245 84.344,105.313 l -2.657,6.375 c 0.958,2.475 2.014,5.824 1.3,8.27 -2.838,7.36 -7.7,15.13 -13.237,23.792 -2.68,4.002 -5.425,7.108 -7.844,11.688 -0.579,1.096 -1.316,2.78 -1.875,3.937 -3.759,8.043 -1.001,17.305 6.219,20.782 7.266,3.497 16.284,-0.192 20.187,-8.25 0.006,-0.012 0.026,-0.02 0.032,-0.032 0.004,-0.009 -0.004,-0.022 0,-0.03 0.556,-1.143 1.343,-2.645 1.812,-3.72 2.072,-4.747 2.762,-8.815 4.219,-13.406 3.87,-9.72 5.996,-19.919 11.322,-26.274 1.46,-1.74 3.837,-2.41 6.303,-3.07 l 3.312,-6 c 33.939,13.027 71.927,16.523 109.875,7.907 a 189.77,189.77 0 0 0 25.094,-7.563 c 0.931,1.651 2.661,4.826 3.125,5.625 2.506,0.815 5.24,1.236 7.469,4.531 3.985,6.81 6.71,14.865 10.031,24.594 1.458,4.591 2.178,8.66 4.25,13.406 0.472,1.082 1.256,2.605 1.813,3.75 3.894,8.085 12.942,11.787 20.218,8.282 7.22,-3.478 9.98,-12.74 6.22,-20.782 -0.56,-1.158 -1.328,-2.841 -1.907,-3.937 -2.42,-4.58 -5.163,-7.655 -7.844,-11.656 -5.537,-8.662 -10.13,-15.858 -12.969,-23.22 -1.187,-3.796 0.2,-6.157 1.125,-8.624 -0.553,-0.635 -1.738,-4.22 -2.437,-5.906 40.457,-23.889 70.298,-62.022 84.312,-106.063 1.893,0.298 5.182,0.88 6.25,1.094 2.2,-1.45 4.222,-3.344 8.188,-3.031 7.808,1.129 15.823,4.03 25.5,7.5 4.498,1.723 8.122,3.723 13.125,5.062 1.057,0.283 2.572,0.547 3.781,0.813 0.097,0.023 0.183,0.071 0.281,0.093 0.066,0.015 0.157,0.017 0.22,0.032 8.672,1.866 17.093,-2.88 18.874,-10.688 1.78,-7.807 -3.754,-15.732 -12.375,-17.812 -1.254,-0.286 -3.032,-0.77 -4.25,-1 -5.089,-0.964 -9.23,-0.727 -14.031,-1.125 -10.225,-1.072 -18.694,-1.943 -26.219,-4.313 -3.068,-1.19 -5.25,-4.841 -6.312,-6.344 l -5.907,-1.718 c 3.063,-22.155 2.237,-45.212 -3.062,-68.282 -5.349,-23.284 -14.8,-44.58 -27.406,-63.343 1.515,-1.378 4.376,-3.911 5.187,-4.657 0.237,-2.624 0.034,-5.375 2.75,-8.281 5.751,-5.4 13.003,-9.879 21.75,-15.281 4.152,-2.443 7.99,-4.017 12.156,-7.094 0.943,-0.696 2.23,-1.798 3.22,-2.594 7.014,-5.596 8.63,-15.248 3.593,-21.562 -5.037,-6.314 -14.797,-6.91 -21.813,-1.313 -0.998,0.791 -2.353,1.823 -3.25,2.594 -3.926,3.378 -6.351,6.714 -9.656,10.219 -7.212,7.326 -13.174,13.438 -19.719,17.844 -2.836,1.65 -6.99,1.08 -8.875,0.968 l -5.562,3.969 c -31.719,-33.26 -74.905,-54.525 -121.406,-58.656 -0.13,-1.949 -0.3,-5.471 -0.344,-6.532 -1.904,-1.821 -4.203,-3.376 -4.781,-7.312 -0.636,-7.864 0.426,-16.325 1.656,-26.531 0.68,-4.769 1.807,-8.73 2,-13.907 0.044,-1.176 -0.026,-2.884 -0.031,-4.156 -0.001,-8.974 -6.548,-16.25 -14.625,-16.25 z m -18.313,113.438 -4.343,76.718 -0.313,0.157 c -0.291,6.863 -5.94,12.343 -12.875,12.343 -2.84,0 -5.463,-0.912 -7.594,-2.468 l -0.125,0.062 -62.906,-44.594 c 19.334,-19.01 44.063,-33.06 72.563,-39.53 a 154.125,154.125 0 0 1 15.593,-2.688 z m 36.657,0 c 33.273,4.092 64.045,19.159 87.625,42.25 l -62.5,44.312 -0.22,-0.093 c -5.547,4.051 -13.363,3.046 -17.687,-2.375 a 12.807,12.807 0 0 1 -2.812,-7.47 l -0.063,-0.03 z m -147.625,70.875 57.437,51.375 -0.062,0.312 c 5.184,4.507 5.948,12.328 1.625,17.75 a 12.892,12.892 0 0 1 -6.688,4.406 l -0.062,0.25 -73.625,21.25 c -3.748,-34.265 4.328,-67.573 21.375,-95.343 z m 258.156,0.03 c 8.534,13.833 14.996,29.283 18.844,46.032 3.8,16.548 4.754,33.067 3.187,49.031 l -74,-21.312 -0.062,-0.313 c -6.627,-1.81 -10.7,-8.551 -9.157,-15.312 a 12.786,12.786 0 0 1 4.094,-6.844 l -0.031,-0.156 57.125,-51.125 z m -140.656,55.313 h 23.53 l 14.626,18.282 -5.25,22.812 -21.125,10.156 -21.188,-10.187 -5.25,-22.813 z m 75.437,62.563 c 1,-0.05 1.996,0.04 2.969,0.219 l 0.125,-0.157 76.156,12.875 c -11.145,31.314 -32.473,58.44 -60.969,76.594 l -29.562,-71.406 0.093,-0.125 c -2.715,-6.31 0.002,-13.71 6.25,-16.719 1.6,-0.77 3.271,-1.197 4.938,-1.281 z m -127.906,0.312 c 5.811,0.082 11.024,4.116 12.375,10.032 0.632,2.77 0.324,5.513 -0.719,7.937 l 0.219,0.281 -29.25,70.688 c -27.347,-17.549 -49.13,-43.824 -60.781,-76.063 l 75.5,-12.812 0.125,0.156 c 0.844,-0.155 1.7,-0.23 2.53,-0.219 z m 63.781,30.97 a 12.764,12.764 0 0 1 6.031,1.28 c 2.56,1.233 4.537,3.174 5.782,5.5 h 0.28 l 37.22,67.25 a 154.256,154.256 0 0 1 -14.875,4.157 c -28.465,6.463 -56.84,4.504 -82.532,-4.25 L 339.97,429.62 h 0.063 a 12.91,12.91 0 0 1 10.906,-6.813 z"
         color="#000000"
         font-weight="400"
         font-family="Sans"
         overflow="visible"
         fill="#ffffff"
         stroke="#ffffff"
         stroke-width="0.25"
         id="path7738" />
    </g>
  </g>
</svg>
