<?xml version="1.0" encoding="UTF-8" standalone="no"?>
<svg
   width="255.43784"
   height="329.22385"
   viewBox="0 0 255.43784 329.22385"
   version="1.1"
   preserveAspectRatio="xMidYMid"
   id="svg76"
   xmlns:xlink="http://www.w3.org/1999/xlink"
   xmlns="http://www.w3.org/2000/svg"
   xmlns:svg="http://www.w3.org/2000/svg">
  <defs
     id="defs12">
    <linearGradient
       x1="0.35204306"
       y1="0.65079361"
       x2="1.0115937"
       y2="0.49999997"
       id="linearGradient-1">
      <stop
         stop-color="#FFFFFF"
         offset="0%"
         id="stop2" />
      <stop
         stop-color="#C0815E"
         offset="100%"
         id="stop4" />
    </linearGradient>
    <radialGradient
       cx="130.11064"
       cy="126.24878"
       fx="130.11064"
       fy="126.24878"
       r="127.50768"
       id="radialGradient-2"
       gradientTransform="scale(0.79199076,1.262641)"
       gradientUnits="userSpaceOnUse">
      <stop
         stop-color="#FFFFFF"
         offset="0%"
         id="stop7" />
      <stop
         stop-color="#A94436"
         offset="100%"
         id="stop9" />
    </radialGradient>
    <linearGradient
       xlink:href="#linearGradient-1"
       id="linearGradient1685"
       x1="50.872627"
       y1="90.12793"
       x2="140.83141"
       y2="69.56057"
       gradientTransform="scale(0.66068749,1.5135749)"
       gradientUnits="userSpaceOnUse" />
    <linearGradient
       xlink:href="#linearGradient-1"
       id="linearGradient1687"
       x1="50.872627"
       y1="90.12793"
       x2="140.83141"
       y2="69.56057"
       gradientTransform="scale(0.66068749,1.5135749)"
       gradientUnits="userSpaceOnUse" />
  </defs>
  <g
     id="g74"
     transform="translate(-0.46966821,-0.08161964)">
    <path
       d="m 4.0960783,325.46281 c 0,0 0.4966445,-77.9836 0.4966445,-157.25902 C 4.5927228,14.652635 -8.3457531,3.2158138 60.550333,3.2158138 H 252.31874 V 224.69916 c 0,72.9103 13.62892,101.47206 -62.99329,101.47206 -76.62221,0 -185.2293717,-0.70841 -185.2293717,-0.70841 z"
       fill="#a62c39"
       id="path14" />
    <g
       transform="translate(160.31794,2.266048)"
       fill="url(#linearGradient-1)"
       id="g18"
       style="fill:url(#linearGradient1687)">
      <path
         d="m 1.886952,29.9172 c 0,0 12.288256,2.457647 22.938081,20.480412 C 35.474836,68.420378 92.000801,208.50645 92.000801,208.50645 V 94.635321 L 39.570936,9.436787 54.316818,27.459553 82.170192,4.5214721 46.124661,2.0638251 Z"
         id="path16"
         style="fill:url(#linearGradient1685)" />
    </g>
    <g
       transform="translate(50.147107,4.260545)"
       id="g24">
      <path
         d="m 3.1019746,0.88854405 c 0,0 81.1024554,54.06831795 120.4248554,64.71812195 39.32239,10.649824 79.46402,22.15077 79.46402,22.15077 l -92.5715,229.348754 40.14163,1.63843 52.42987,-128.60351 -1.63843,-190.07178163 z"
         opacity="0.668224"
         fill="url(#radialGradient-2)"
         id="path20"
         style="fill:url(#radialGradient-2)" />
      <path
         d="m 78.4699,242.55748 82.41874,79.21979 -155.3290183,-1.39422 c 0,0 -4.91529406,-49.97222 -3.2768627,-76.18714 1.6384313,-26.21494 9.830609,-26.21494 9.830609,-26.21494 z"
         fill-opacity="0.439614"
         fill="#ffffff"
         id="path22" />
    </g>
    <g
       transform="translate(2.089463,4.260545)"
       id="g30">
      <path
         d="M 204.35314,322.02148 128.16597,243.3767 58.53256,217.16175 4.4642626,96.736903 61.809443,0.88854405 l -36.73589,-2e-8 -17.3324277,13.10747197 -5.7345097,11.46904 10e-8,296.556424 z"
         fill-opacity="0.362319"
         fill="#000000"
         id="path26" />
      <path
         d="m 251.04849,196.68134 c 0,0 -77.00638,24.57649 -122.88252,47.51457 -45.876114,22.93806 -70.452626,78.64479 -70.452626,78.64479 0,0 98.306006,-4.91529 135.170756,-3.27686 36.86474,1.63843 54.06831,1.63843 57.34518,-49.97222 3.27686,-51.61065 0.81921,-72.91028 0.81921,-72.91028 z"
         opacity="0.5"
         fill="#83222d"
         id="path28" />
    </g>
    <g
       transform="translate(14.055544,16.892288)"
       fill="#ffffff"
       id="g70">
      <path
         d="M 25.266849,219.27591 H 134.22268 c 0,0 -24.16689,-54.88751 -18.02279,-105.26935 6.14413,-50.381813 45.87614,-73.319893 68.40461,-75.77754 22.52846,-2.457647 34.81671,11.46904 34.81671,11.46904 l 4.9153,-7.372941 c 0,0 -32.35907,-32.7686685 -73.3199,-29.082208 C 110.05579,16.929392 81.792794,43.96355 64.179646,76.732219 46.566478,109.50089 36.326271,132.43895 29.362928,166.84605 c -6.963344,34.4071 -4.096079,52.42986 -4.096079,52.42986 z"
         id="path44" />
      <path
         d="m 3.5576029,164.3884 21.2996491,1.63843 -3.686481,21.29963 -20.0708151,-2.45765 z"
         id="path46" />
      <path
         d="M 37.145487,119.33148 42.880018,103.35676 24.038036,95.983798 17.893908,113.18735 Z"
         id="path48" />
      <path
         d="M 63.770028,64.443963 74.829471,51.336491 60.493165,41.915501 49.024146,54.613354 Z"
         id="path50" />
      <path
         d="m 92.852236,13.652529 9.830584,11.878638 13.51707,-7.78256 -9.83059,-11.0594218 z"
         id="path52" />
      <path
         d="M 140.7764,0.13545987 143.23405,12.014098 160.028,11.604479 158.38955,0.95467554 Z"
         id="path54" />
      <path
         d="m 197.71197,12.833313 -0.40962,7.372941 11.46904,6.144128 2.45765,-3.686481 z"
         id="path56" />
      <path
         d="m 195.25432,44.373148 v 6.144128 l 11.05942,1.228834 v -4.915315 z"
         id="path58" />
      <path
         d="m 160.028,49.69806 5.3249,9.830609 7.78256,-6.144128 -1.63844,-6.553746 z"
         id="path60" />
      <path
         d="m 143.23405,62.395913 8.19218,12.288256 -4.91532,8.601775 -11.87863,-13.107471 z"
         id="path62" />
      <path
         d="m 126.84972,96.393416 -5.32491,10.649804 13.92668,11.87866 3.27687,-13.51709 z"
         id="path64" />
      <path
         d="m 121.11521,133.66776 -0.81922,14.33631 17.20355,7.37294 -0.81921,-13.51707 z"
         id="path66" />
      <path
         d="m 126.0305,184.45919 4.09608,14.74591 21.70925,1.22883 -7.78256,-15.97474 z"
         id="path68" />
    </g>
    <path
       d="m 7.230209,325.48277 c 9.72e-4,-0.15263 9.72e-4,-0.15263 0.00558,-0.8958 0.00631,-1.02907 0.00631,-1.02907 0.015767,-2.61124 0.016978,-2.8595 0.035896,-6.17847 0.056269,-9.91946 0.058207,-10.68829 0.116414,-22.61529 0.1707401,-35.48145 0.1552186,-36.76075 0.2483501,-73.68312 0.2483501,-108.37103 0,-17.87383 -0.153445,-33.48251 -0.4826476,-55.32232 C 6.238396,46.150301 6.7221793,33.440826 12.292125,21.447836 17.887523,9.4000416 28.392761,6.350008 60.550333,6.350008 H 252.31874 L 249.18455,3.2158138 V 224.69916 c 0,6.79732 0.0736,12.66225 0.25134,22.54127 0.68499,38.07631 -0.15792,48.90308 -6.30379,58.93788 -7.18826,11.73676 -22.66311,16.85872 -53.80665,16.85872 -17.58388,0 -38.26917,-0.0405 -61.423,-0.11566 -18.62434,-0.0604 -38.366429,-0.14163 -58.681238,-0.23851 -16.247348,-0.0775 -31.936337,-0.16049 -46.479341,-0.2435 -5.090014,-0.0291 -9.673186,-0.056 -13.6760658,-0.0802 -1.4009735,-0.008 -2.2198987,-0.0135 -3.6758901,-0.0225 -1.0556751,-0.007 -1.0556751,-0.007 -1.2739925,-0.008 l 3.1142864,3.15409 z m -6.28822194,3.09433 3.13424704,0.0198 c 0.2187296,10e-4 0.2187296,10e-4 1.2748412,0.008 1.4564408,0.009 2.2755308,0.014 3.6768166,0.0225 4.0035751,0.0242 8.5874571,0.0512 13.6781991,0.0803 14.544871,0.083 30.235798,0.16604 46.48523,0.24353 20.317806,0.0969 40.063019,0.17811 58.690799,0.23855 23.16008,0.0751 43.85185,0.11569 61.44333,0.11569 33.10772,0 50.5233,-5.76431 59.15215,-19.85322 7.06955,-11.54295 7.93844,-22.70351 7.22567,-62.32452 -0.1771,-9.84401 -0.25034,-15.67833 -0.25034,-22.42852 V 3.2158138 0.08161964 H 252.31874 60.550333 C 26.068886,0.08161964 13.626062,3.6942018 6.6069609,18.807456 3.0984252,26.361899 1.4030185,36.820847 0.78795599,52.979161 0.31392548,65.432422 0.3633942,72.295405 0.97659293,112.97595 c 0.32876857,21.81101 0.48193567,37.39142 0.48193567,55.22784 0,34.67808 -0.09311,71.59199 -0.2482943,108.34456 -0.054315,12.8635 -0.1125092,24.78796 -0.170703,35.47378 -0.020367,3.73994 -0.039279,7.05789 -0.0562517,9.91638 -0.009455,1.58146 -0.009455,1.58146 -0.0157584,2.60985 -0.004605,0.7425 -0.0255341,4.02874 -0.0255341,4.02874 z"
       fill="#5e000e"
       id="path72" />
    <g
       aria-label="SRPING"
       transform="scale(0.83222148,1.2016032)"
       id="text3363"
       style="font-size:56.713px;line-height:1.25;font-family:'GetVoIP Grotesque';-inkscape-font-specification:'GetVoIP Grotesque';letter-spacing:0px;word-spacing:0px;fill:#ffffff;stroke-width:1.41782">
      <path
         d="m 52.216076,239.13719 q 3.062502,0 4.763892,-0.28356 1.758103,-0.34028 2.608798,-0.79399 0.907408,-0.51041 1.13426,-1.07754 0.226852,-0.62385 0.226852,-1.13426 0,-1.02084 -0.510417,-1.58797 -0.453704,-0.62384 -1.531251,-0.96412 -1.020834,-0.34028 -2.778937,-0.4537 -1.70139,-0.17014 -4.140049,-0.22685 -1.417825,-0.0567 -3.346067,-0.17014 -1.928242,-0.11343 -3.96991,-0.45371 -2.041669,-0.39699 -4.026624,-1.07754 -1.984955,-0.73727 -3.572919,-1.98496 -1.531251,-1.3044 -2.495372,-3.23264 -0.964121,-1.92824 -0.964121,-4.70718 v -0.73727 q 0,-2.43866 0.850695,-4.65046 0.907408,-2.26852 3.005789,-3.96991 2.155094,-1.70139 5.728013,-2.66552 3.629633,-1.02083 9.017368,-1.02083 h 2.041668 q 3.913197,0 7.599542,0.51042 3.686345,0.4537 7.202551,1.36111 v 9.35764 q -4.140049,-0.96412 -8.223385,-1.53125 -4.026623,-0.56713 -8.223385,-0.56713 -3.062502,0 -4.820605,0.34028 -1.758103,0.28357 -2.665511,0.79398 -0.850695,0.45371 -1.077548,1.02084 -0.226852,0.51041 -0.226852,1.02083 0,1.02084 0.453705,1.64468 0.510417,0.62384 1.587964,0.96412 1.077547,0.34028 2.778937,0.51042 1.70139,0.11342 4.083336,0.17014 1.361112,0.0567 3.232641,0.17013 1.871529,0.0567 3.913197,0.45371 2.098381,0.34028 4.083336,1.07755 2.041668,0.73726 3.629632,2.04166 1.587964,1.24769 2.552085,3.23264 1.020834,1.92825 1.020834,4.70718 v 0.73727 q 0,2.43866 -0.907408,4.65047 -0.850695,2.21181 -3.005789,3.9132 -2.155094,1.70139 -5.728013,2.66551 -3.572919,1.02083 -9.017367,1.02083 h -2.041668 q -4.480327,0 -8.733803,-0.51042 -4.196762,-0.4537 -8.280098,-1.30439 v -9.52779 q 4.593753,1.02083 9.471071,1.64468 4.934032,0.62384 9.300933,0.62384 z"
         id="path25332" />
      <path
         d="m 153.56808,247.07701 -7.59954,-11.90973 c -2.04167,0 -4.00772,-0.0189 -5.89816,-0.0567 -1.89043,-0.0378 -3.74305,-0.20794 -5.55787,-0.51042 v 12.47686 h -10.20834 v -39.13233 l 20.75696,3.5e-4 h 1.58796 c 3.17593,0 5.80364,0.34028 7.88311,1.02083 2.07948,0.64275 3.74306,1.53126 4.99075,2.66552 1.24768,1.13426 2.11728,2.45756 2.60879,3.96991 0.49151,1.51235 0.73727,3.11921 0.73727,4.8206 v 2.26852 c 0,2.38195 -0.47261,4.55595 -1.41782,6.522 -0.94522,1.92824 -2.62771,3.42168 -5.04746,4.48032 l 7.03241,11.11575 v 2.26852 z m -8.39353,-30.05789 -10.66204,1.1e-4 v 8.56354 c 1.77701,0.22685 3.45949,0.37809 5.04746,0.45371 1.58796,0.0378 2.87346,0.0567 3.85648,0.0567 2.26852,0 4.02662,-0.0945 5.27431,-0.28356 1.24769,-0.22685 2.1551,-0.54823 2.72223,-0.96413 0.60493,-0.41589 0.96411,-0.94521 1.07754,-1.58796 0.11343,-0.64275 0.17014,-1.41782 0.17014,-2.32523 0,-0.49151 -0.0378,-0.96412 -0.11342,-1.41783 -0.0756,-0.49151 -0.35919,-0.92631 -0.8507,-1.3044 -0.45371,-0.37809 -1.19098,-0.66165 -2.21181,-0.85069 -1.02083,-0.22685 -2.45756,-0.34028 -4.31019,-0.34028 z"
         id="path25334" />
      <path
         d="m 180.78429,209.0793 v 37.99771 H 170.57595 V 209.0793 Z"
         id="path25338" />
      <path
         d="M 218.8387,233.46589 V 209.0793 h 10.20834 v 37.99771 H 218.8387 l -19.90627,-24.38659 v 24.38659 H 188.72409 V 209.0793 h 10.20834 z"
         id="path25340" />
      <path
         d="m 277.59336,228.02144 v 18.37502 q -4.02662,0.85069 -8.2801,1.30439 -4.25348,0.51042 -8.62038,0.51042 h -2.04166 q -6.522,0 -10.83219,-1.47454 -4.25347,-1.47453 -6.80556,-3.96991 -2.55208,-2.55208 -3.57292,-5.95486 -1.02083,-3.40278 -1.02083,-7.25927 v -2.94907 q 0,-3.85649 1.02083,-7.25927 1.02084,-3.40278 3.57292,-5.89815 2.55209,-2.55208 6.80556,-4.02662 4.31019,-1.47454 10.83219,-1.47454 h 2.04166 q 4.08334,0 8.05325,0.51042 3.96991,0.4537 7.71297,1.36111 v 9.24422 q -4.19676,-1.13426 -8.56367,-1.58797 -4.31018,-0.51041 -7.48611,-0.51041 -5.10417,0 -7.88311,0.85069 -2.72222,0.79398 -4.02662,2.26852 -1.24769,1.47454 -1.47454,3.51621 -0.17014,2.04167 -0.17014,4.48033 0,2.43865 0.17014,4.48032 0.22685,2.04167 1.47454,3.57292 1.3044,1.47454 4.02662,2.32523 2.77894,0.79399 7.88311,0.79399 3.0625,0 6.9757,-0.34028 v -10.8889 z"
         id="path25342" />
      <path
         d="m 117.09574,223.82468 c 0,1.89043 -0.24576,3.66744 -0.73727,5.33102 -0.45371,1.62577 -1.24769,3.0625 -2.38195,4.31019 -1.13426,1.20988 -2.68441,2.174 -4.65046,2.89236 -1.92825,0.71837 -4.36691,1.07755 -7.31598,1.07755 h -1.58797 c -2.041668,0 -4.045518,-0.0189 -6.011568,-0.0567 -1.92825,-0.0378 -3.81868,-0.20794 -5.6713,-0.51042 v 10.20834 h -10.20834 v -39.13233 h 20.75717 l 1.587748,3.5e-4 c 3.17593,7.1e-4 5.80363,0.35918 7.88311,1.07755 2.07947,0.71836 3.74305,1.70138 4.99074,2.94907 1.24769,1.20988 2.11729,2.64661 2.6088,4.31019 0.49151,1.66358 0.73727,3.42168 0.73727,5.27431 z m -18.261588,4.53704 c 2.003858,0 3.554018,-0.13233 4.650468,-0.39699 1.09645,-0.30247 1.89043,-0.69946 2.38194,-1.19097 0.52933,-0.52933 0.8318,-1.13427 0.90741,-1.81482 0.0756,-0.68055 0.11343,-1.43673 0.11343,-2.26852 0,-0.83179 -0.0378,-1.58797 -0.11343,-2.26852 -0.0756,-0.71837 -0.35918,-1.32331 -0.85069,-1.81482 -0.49151,-0.49151 -1.24769,-0.86959 -2.26852,-1.13426 -1.02084,-0.30247 -2.49652,-0.49943 -4.423618,-0.45359 h -10.4919 v 10.83207 c 1.77701,0.22685 3.45949,0.37809 5.04745,0.45371 1.58797,0.0378 3.27045,0.0567 5.04746,0.0567 z"
         id="path9150" />
    </g>
  </g>
</svg>
