<?xml version="1.0" encoding="UTF-8" standalone="no"?>
<!DOCTYPE svg PUBLIC "-//W3C//DTD SVG 1.1//EN" "http://www.w3.org/Graphics/SVG/1.1/DTD/svg11.dtd">
<svg width="100%" height="100%" viewBox="0 0 216 114" version="1.1" xmlns="http://www.w3.org/2000/svg" xmlns:xlink="http://www.w3.org/1999/xlink" xml:space="preserve" xmlns:serif="http://www.serif.com/" style="fill-rule:evenodd;clip-rule:evenodd;stroke-linejoin:round;stroke-miterlimit:2;">
    <g id="path3773" transform="matrix(0.158622,0,0,0.158622,-60.4873,25.9718)">
        <path d="M763.5,554.055C762.4,553.604 760.6,552.236 759.5,551.013C757.533,548.826 757.5,547.382 757.5,462.502L757.5,376.214L762.611,370.357C773.405,357.987 792.454,346.52 810,341.83C816.982,339.964 821.09,339.557 833,339.555C850.031,339.551 855.916,340.839 869.5,347.547C902.808,363.996 919.44,402.654 909.578,440.702C902.223,469.078 878.668,490.211 848.539,495.465C843.204,496.396 833.699,497 824.404,497C810.268,497 808.99,496.849 808.035,495.066C807.466,494.002 807,487.897 807,481.5C807,475.103 807.466,468.998 808.035,467.934C808.987,466.156 810.261,466 823.854,466C844.146,466 852.277,463.498 862.226,454.192C880.51,437.089 881.682,404.737 864.687,386.269C854.844,375.573 841.174,371.06 824.737,373.08C815.186,374.253 802.911,380.203 797.152,386.451L793,390.955L793,471.778C793,533.306 792.714,552.886 791.8,553.8C790.416,555.184 766.779,555.397 763.5,554.055Z" style="fill:rgb(4,159,217);fill-rule:nonzero;"/>
    </g>
    <g id="path3771" transform="matrix(0.158622,0,0,0.158622,-60.4873,25.9718)">
        <path d="M680.209,495.475C672.027,493.698 664.54,490.155 659.278,485.571C653.687,480.699 648.321,469.722 647.024,460.5C645.95,452.861 645.583,316.25 646.63,313.523C647.417,311.471 678.731,295.683 680.595,296.398C681.682,296.815 682.017,301.476 682.231,319.211L682.5,341.5L703.736,341.77C728.753,342.088 726.22,340.051 725.788,359.5L725.5,372.5L704,373.05C692.175,373.353 682.364,373.69 682.198,373.8C682.031,373.91 682.031,392.113 682.198,414.25C682.485,452.532 682.599,454.671 684.523,458C685.721,460.073 688.356,462.418 690.985,463.75C695.161,465.867 696.643,466 716.012,466C730.692,466 736.944,466.344 737.8,467.2C738.611,468.011 739,472.644 739,481.5C739,490.356 738.611,494.989 737.8,495.8C736.03,497.57 688.626,497.303 680.209,495.475Z" style="fill:rgb(4,159,217);fill-rule:nonzero;"/>
    </g>
    <g id="path3769" transform="matrix(0.158622,0,0,0.158622,-60.4873,25.9718)">
        <path d="M1031.08,494.411L1028,491.822L1028,289.43L1044.12,281.154C1052.99,276.603 1060.86,273.117 1061.62,273.408C1062.78,273.853 1063,291.494 1063,384.862C1063,485.088 1062.85,495.845 1061.42,496.393C1060.55,496.727 1054.06,497 1047,497C1034.64,497 1034.04,496.902 1031.08,494.411Z" style="fill:rgb(4,159,217);fill-rule:nonzero;"/>
    </g>
    <g id="path3767" transform="matrix(0.158622,0,0,0.158622,-60.4873,25.9718)">
        <path d="M1101.31,495.99C1095.78,493.765 1095.96,496.637 1096.24,416.416L1096.5,342.5L1130.5,342.5L1130.76,418.937C1130.96,479.425 1130.75,495.541 1129.76,496.172C1128.06,497.251 1104.06,497.098 1101.31,495.99Z" style="fill:rgb(4,159,217);fill-rule:nonzero;"/>
    </g>
    <g id="path3765" transform="matrix(0.158622,0,0,0.158622,-60.4873,25.9718)">
        <path d="M1169.11,495.604C1164.01,492.776 1164.07,493.606 1164.04,431.7C1164.01,383.552 1164.24,373.45 1165.42,371.2C1167.3,367.651 1178.25,357.114 1184.24,353.096C1191.64,348.134 1204.72,342.227 1213.5,339.887C1223.97,337.095 1243.21,336.844 1253.5,339.365C1279.78,345.803 1300.25,366.125 1306.99,392.468C1308.87,399.792 1309,403.528 1309,448.053C1309,490.657 1308.83,495.851 1307.42,496.393C1304.33,497.577 1276.46,497.065 1275.2,495.8C1274.3,494.902 1274,483.335 1274,449.905C1274,408.216 1273.87,404.78 1272.02,398.813C1266.91,382.245 1254.47,372.306 1237.55,371.253C1224.36,370.433 1213.32,374.196 1203.88,382.732L1200,386.233L1200,439.682C1200,474.614 1199.64,493.802 1198.96,495.066C1198.02,496.831 1196.78,496.997 1184.71,496.965C1175.67,496.94 1170.75,496.511 1169.11,495.604Z" style="fill:rgb(4,159,217);fill-rule:nonzero;"/>
    </g>
    <g id="path3763" transform="matrix(0.158622,0,0,0.158622,-60.4873,25.9718)">
        <path d="M1345.31,495.99C1339.71,493.737 1339.97,499.077 1340.25,389.918L1340.5,289.5L1357.19,281.025C1366.37,276.363 1374.25,272.913 1374.69,273.358C1375.14,273.802 1375.73,303.941 1376,340.333L1376.5,406.5L1403.82,374.25L1431.13,342L1451.07,342C1467.63,342 1471,342.24 1471,343.422C1471,344.205 1457.25,360.455 1440.45,379.534C1423.64,398.614 1410.03,414.792 1410.2,415.486C1410.36,416.179 1425.75,433.967 1444.38,455.012C1463.02,476.058 1478.32,494.003 1478.38,494.889C1478.49,496.313 1476.15,496.531 1458.22,496.771L1437.94,497.042L1435.72,494.612C1434.5,493.275 1420.9,476.869 1405.5,458.153C1390.1,439.437 1377.16,424.096 1376.75,424.062C1376.34,424.028 1376,439.555 1376,458.566C1376,480.48 1375.62,493.839 1374.96,495.066C1374.02,496.834 1372.79,496.995 1360.71,496.937C1353.45,496.902 1346.51,496.476 1345.31,495.99Z" style="fill:rgb(4,159,217);fill-rule:nonzero;"/>
    </g>
    <g id="path3759" transform="matrix(0.158622,0,0,0.158622,-60.4873,25.9718)">
        <path d="M951.752,435.25C949.226,432.413 935.9,403.703 936.447,402.277C936.848,401.233 943.127,401.024 967.724,401.236L998.5,401.5L998.775,418.426C998.984,431.297 998.745,435.545 997.775,436.16C997.074,436.605 986.782,436.976 974.905,436.985C955.587,436.998 953.146,436.816 951.752,435.25Z" style="fill:rgb(4,159,217);fill-rule:nonzero;"/>
    </g>
    <g id="path2987" transform="matrix(0.158622,0,0,0.158622,-60.4873,25.9718)">
        <path d="M1095.31,306.502C1091.9,304.114 1089.69,296.997 1090.19,290.029C1090.73,282.543 1094.36,276.911 1101.45,272.524C1105.71,269.892 1107.26,269.504 1113.42,269.53C1121.27,269.563 1126.42,271.627 1131.2,276.658C1138.57,284.425 1139.06,298.459 1132.22,306.25C1130.88,307.785 1128.65,308 1114.07,308C1100.92,308 1097,307.687 1095.31,306.502Z" style="fill:rgb(4,159,217);fill-rule:nonzero;"/>
    </g>
    <g id="g22">
        <path id="path16" d="M61.061,4.759C61.061,2.172 58.948,0.074 56.358,0.074C53.769,0.074 51.656,2.172 51.656,4.759L51.656,54.599C51.656,57.201 53.769,59.298 56.358,59.298C58.948,59.298 61.061,57.201 61.061,54.599L61.061,4.759ZM35.232,22.451C35.232,19.865 33.12,17.764 30.53,17.764C27.94,17.764 25.828,19.865 25.828,22.451L25.828,45.236C25.828,47.837 27.94,49.935 30.53,49.935C33.12,49.935 35.232,47.837 35.232,45.236L35.232,22.451ZM9.404,35.383C9.404,32.796 7.292,30.699 4.702,30.699C2.115,30.699 0,32.796 0,35.383L0,45.236C0,47.837 2.115,49.935 4.702,49.935C7.292,49.935 9.404,47.837 9.404,45.236" style="fill:rgb(4,159,217);fill-rule:nonzero;"/>
        <g id="use18" transform="matrix(-1,0,0,1,112.717,0)">
            <path d="M61.061,4.759C61.061,2.172 58.948,0.074 56.358,0.074C53.769,0.074 51.656,2.172 51.656,4.759L51.656,54.599C51.656,57.201 53.769,59.298 56.358,59.298C58.948,59.298 61.061,57.201 61.061,54.599L61.061,4.759ZM35.232,22.451C35.232,19.865 33.12,17.764 30.53,17.764C27.94,17.764 25.828,19.865 25.828,22.451L25.828,45.236C25.828,47.837 27.94,49.935 30.53,49.935C33.12,49.935 35.232,47.837 35.232,45.236L35.232,22.451ZM9.404,35.383C9.404,32.796 7.292,30.699 4.702,30.699C2.115,30.699 0,32.796 0,35.383L0,45.236C0,47.837 2.115,49.935 4.702,49.935C7.292,49.935 9.404,47.837 9.404,45.236" style="fill:rgb(4,159,217);fill-rule:nonzero;"/>
        </g>
    </g>
    <g id="use20" transform="matrix(-1,0,0,1,216,0)">
        <path id="path161" serif:id="path16" d="M61.061,4.759C61.061,2.172 58.948,0.074 56.358,0.074C53.769,0.074 51.656,2.172 51.656,4.759L51.656,54.599C51.656,57.201 53.769,59.298 56.358,59.298C58.948,59.298 61.061,57.201 61.061,54.599L61.061,4.759ZM35.232,22.451C35.232,19.865 33.12,17.764 30.53,17.764C27.94,17.764 25.828,19.865 25.828,22.451L25.828,45.236C25.828,47.837 27.94,49.935 30.53,49.935C33.12,49.935 35.232,47.837 35.232,45.236L35.232,22.451ZM9.404,35.383C9.404,32.796 7.292,30.699 4.702,30.699C2.115,30.699 0,32.796 0,35.383L0,45.236C0,47.837 2.115,49.935 4.702,49.935C7.292,49.935 9.404,47.837 9.404,45.236" style="fill:rgb(4,159,217);fill-rule:nonzero;"/>
        <g id="use181" serif:id="use18" transform="matrix(-1,0,0,1,112.717,0)">
            <path d="M61.061,4.759C61.061,2.172 58.948,0.074 56.358,0.074C53.769,0.074 51.656,2.172 51.656,4.759L51.656,54.599C51.656,57.201 53.769,59.298 56.358,59.298C58.948,59.298 61.061,57.201 61.061,54.599L61.061,4.759ZM35.232,22.451C35.232,19.865 33.12,17.764 30.53,17.764C27.94,17.764 25.828,19.865 25.828,22.451L25.828,45.236C25.828,47.837 27.94,49.935 30.53,49.935C33.12,49.935 35.232,47.837 35.232,45.236L35.232,22.451ZM9.404,35.383C9.404,32.796 7.292,30.699 4.702,30.699C2.115,30.699 0,32.796 0,35.383L0,45.236C0,47.837 2.115,49.935 4.702,49.935C7.292,49.935 9.404,47.837 9.404,45.236" style="fill:rgb(4,159,217);fill-rule:nonzero;"/>
        </g>
    </g>
</svg>
