<?xml version="1.0" encoding="UTF-8" standalone="no"?>
<svg
   xmlns:i="http://ns.adobe.com/AdobeIllustrator/10.0/"
   xmlns:dc="http://purl.org/dc/elements/1.1/"
   xmlns:cc="http://creativecommons.org/ns#"
   xmlns:rdf="http://www.w3.org/1999/02/22-rdf-syntax-ns#"
   xmlns:svg="http://www.w3.org/2000/svg"
   xmlns="http://www.w3.org/2000/svg"
   id="svg859"
   version="1.1"
   viewBox="0 0 140.85152 63.434849"
   height="63.434849mm"
   width="140.85152mm">
  <defs
     id="defs853" />
  <metadata
     id="metadata856">
    <rdf:RDF>
      <cc:Work
         rdf:about="">
        <dc:format>image/svg+xml</dc:format>
        <dc:type
           rdf:resource="http://purl.org/dc/dcmitype/StillImage" />
        <dc:title></dc:title>
      </cc:Work>
    </rdf:RDF>
  </metadata>
  <g
     transform="translate(-16.94182,-12.593271)"
     id="layer1">
    <g
       transform="matrix(0.703456,0,0,0.703456,4.5110322,12.593271)"
       id="g931"
       style="overflow:visible">
      <g
         id="Layer_1"
         i:layer="yes"
         i:dimmedPercent="50"
         i:rgbTrio="#4F008000FFFF">
		<g
   id="g901">
			<path
   style="fill:#a80030"
   i:knockout="Off"
   d="m 60.969,47.645 c -1.494,0.02 0.281,0.768 2.232,1.069 0.541,-0.422 1.027,-0.846 1.463,-1.26 -1.213,0.297 -2.449,0.304 -3.695,0.191"
   id="path863" />

			<path
   style="fill:#a80030"
   i:knockout="Off"
   d="m 68.986,45.646 c 0.893,-1.229 1.541,-2.573 1.77,-3.963 -0.201,0.99 -0.736,1.845 -1.244,2.749 -2.793,1.759 -0.264,-1.044 -0.002,-2.111 -3.002,3.783 -0.414,2.268 -0.524,3.325"
   id="path865" />

			<path
   style="fill:#a80030"
   i:knockout="Off"
   d="m 71.949,37.942 c 0.182,-2.691 -0.529,-1.839 -0.768,-0.814 0.278,0.146 0.499,1.898 0.768,0.814"
   id="path867" />

			<path
   style="fill:#a80030"
   i:knockout="Off"
   d="m 55.301,1.163 c 0.798,0.142 1.724,0.252 1.591,0.443 0.876,-0.193 1.073,-0.367 -1.591,-0.443"
   id="path869" />

			<path
   style="fill:#a80030"
   i:knockout="Off"
   d="M 56.893,1.606 56.332,1.723 56.855,1.675 56.893,1.606"
   id="path871" />

			<path
   style="fill:#a80030"
   i:knockout="Off"
   d="m 81.762,38.962 c 0.09,2.416 -0.705,3.59 -1.424,5.666 l -1.293,0.643 c -1.057,2.054 0.105,1.304 -0.652,2.937 -1.652,1.467 -5.006,4.589 -6.08,4.875 -0.785,-0.017 0.531,-0.926 0.703,-1.281 -2.209,1.516 -1.773,2.276 -5.152,3.199 L 67.766,54.78 c -8.33,3.92 -19.902,-3.847 -19.75,-14.443 -0.088,0.672 -0.253,0.504 -0.437,0.774 -0.43,-5.451 2.518,-10.926 7.49,-13.165 4.863,-2.406 10.564,-1.42 14.045,1.829 -1.912,-2.506 -5.721,-5.163 -10.232,-4.917 -4.421,0.072 -8.558,2.881 -9.938,5.932 -2.264,1.425 -2.528,5.496 -3.514,6.242 -1.329,9.76 2.497,13.975 8.97,18.936 1.016,0.686 0.286,0.791 0.422,1.313 -2.15,-1.006 -4.118,-2.526 -5.738,-4.387 0.86,1.257 1.787,2.479 2.986,3.439 -2.029,-0.685 -4.738,-4.913 -5.527,-5.085 3.495,6.258 14.178,10.975 19.775,8.634 -2.59,0.096 -5.879,0.053 -8.787,-1.022 -1.225,-0.629 -2.884,-1.93 -2.587,-2.173 7.636,2.851 15.522,2.158 22.128,-3.137 1.682,-1.31 3.518,-3.537 4.049,-3.567 -0.799,1.202 0.137,0.578 -0.477,1.639 1.672,-2.701 -0.729,-1.1 1.73,-4.664 l 0.908,1.25 c -0.34,-2.244 2.785,-4.966 2.467,-8.512 0.717,-1.084 0.799,1.168 0.039,3.662 1.055,-2.767 0.279,-3.212 0.549,-5.496 0.291,0.768 0.678,1.583 0.875,2.394 -0.688,-2.675 0.703,-4.503 1.049,-6.058 -0.342,-0.15 -1.061,1.182 -1.227,-1.976 0.025,-1.372 0.383,-0.719 0.52,-1.057 -0.268,-0.155 -0.975,-1.207 -1.404,-3.224 0.309,-0.475 0.832,1.229 1.256,1.298 -0.273,-1.603 -0.742,-2.826 -0.762,-4.057 -1.24,-2.59 -0.439,0.346 -1.443,-1.112 -1.32,-4.114 1.094,-0.955 1.258,-2.823 1.998,2.895 3.137,7.385 3.662,9.244 -0.4,-2.267 -1.045,-4.464 -1.834,-6.589 0.609,0.257 -0.979,-4.663 0.791,-1.405 C 87.189,15.552 81,9.062 75.305,6.018 76,6.655 76.879,7.455 76.565,7.581 73.731,5.896 74.229,5.763 73.823,5.051 71.518,4.112 71.364,5.128 69.839,5.053 65.489,2.745 64.651,2.99 60.648,1.546 L 60.83,2.398 C 57.949,1.438 57.473,2.76 54.36,2.4 54.171,2.253 55.358,1.864 56.336,1.723 53.55,2.091 53.68,1.173 50.954,1.824 51.625,1.353 52.337,1.04 53.053,0.64 50.782,0.778 47.629,1.962 48.602,0.884 44.897,2.538 38.316,4.859 34.623,8.322 L 34.507,7.546 c -1.692,2.031 -7.379,6.066 -7.832,8.699 l -0.453,0.105 c -0.879,1.491 -1.45,3.18 -2.148,4.713 -1.151,1.963 -1.688,0.756 -1.524,1.064 -2.265,4.592 -3.392,8.45 -4.363,11.616 0.692,1.035 0.017,6.232 0.278,10.391 -1.136,20.544 14.418,40.489 31.42,45.093 2.492,0.893 6.197,0.861 9.349,0.949 -3.718,-1.064 -4.198,-0.563 -7.822,-1.826 -2.613,-1.232 -3.185,-2.637 -5.037,-4.244 l 0.733,1.295 c -3.63,-1.285 -2.111,-1.59 -5.065,-2.525 l 0.783,-1.021 c -1.177,-0.09 -3.117,-1.982 -3.647,-3.033 l -1.288,0.051 c -1.546,-1.906 -2.371,-3.283 -2.31,-4.35 l -0.416,0.742 c -0.471,-0.809 -5.691,-7.158 -2.983,-5.68 -0.503,-0.458 -1.172,-0.747 -1.897,-2.066 l 0.551,-0.629 c -1.301,-1.677 -2.398,-3.826 -2.314,-4.542 0.695,0.938 1.177,1.114 1.655,1.275 -3.291,-8.164 -3.476,-0.449 -5.967,-8.31 l 0.526,-0.042 c -0.403,-0.611 -0.65,-1.27 -0.974,-1.919 l 0.23,-2.285 c -2.368,-2.736 -0.662,-11.645 -0.319,-16.53 0.235,-1.986 1.977,-4.101 3.3,-7.418 l -0.806,-0.138 c 1.542,-2.688 8.802,-10.799 12.166,-10.383 1.629,-2.046 -0.324,-0.008 -0.643,-0.522 3.579,-3.703 4.704,-2.616 7.119,-3.283 2.603,-1.545 -2.235,0.604 -1.001,-0.589 4.503,-1.149 3.19,-2.614 9.063,-3.197 0.62,0.352 -1.437,0.544 -1.953,1.001 3.75,-1.836 11.869,-1.417 17.145,1.018 6.117,2.861 12.994,11.314 13.266,19.267 l 0.309,0.083 c -0.156,3.162 0.484,6.819 -0.627,10.177 l 0.751,-1.591"
   id="path873" />

			<path
   style="fill:#a80030"
   i:knockout="Off"
   d="m 44.658,49.695 -0.211,1.047 c 0.983,1.335 1.763,2.781 3.016,3.821 -0.902,-1.759 -1.571,-2.486 -2.805,-4.868"
   id="path875" />

			<path
   style="fill:#a80030"
   i:knockout="Off"
   d="m 46.979,49.605 c -0.52,-0.576 -0.826,-1.268 -1.172,-1.956 0.33,1.211 1.006,2.252 1.633,3.312 l -0.461,-1.356"
   id="path877" />

			<path
   style="fill:#a80030"
   i:knockout="Off"
   d="m 88.063,40.675 -0.219,0.552 c -0.402,2.858 -1.273,5.686 -2.605,8.309 1.472,-2.767 2.421,-5.794 2.824,-8.861"
   id="path879" />

			<path
   style="fill:#a80030"
   i:knockout="Off"
   d="M 55.598,0.446 C 56.607,0.077 58.08,0.243 59.154,0 57.756,0.117 56.365,0.187 54.992,0.362 l 0.606,0.084"
   id="path881" />

			<path
   style="fill:#a80030"
   i:knockout="Off"
   d="m 20.127,19.308 c 0.233,2.154 -1.62,2.991 0.41,1.569 1.09,-2.454 -0.424,-0.677 -0.41,-1.569"
   id="path883" />

			<path
   style="fill:#a80030"
   i:knockout="Off"
   d="m 17.739,29.282 c 0.469,-1.437 0.553,-2.299 0.732,-3.132 -1.293,1.654 -0.596,2.007 -0.732,3.132"
   id="path885" />

			
			
			
			
			
			
			
		</g>

	</g>
    </g>
    <g
       id="text935"
       style="font-style:normal;font-variant:normal;font-weight:bold;font-stretch:normal;font-size:28.68260956px;line-height:1.25;font-family:'Mrs Eaves OT';-inkscape-font-specification:'Mrs Eaves OT Bold';letter-spacing:0px;word-spacing:0px;fill:#000000;fill-opacity:1;stroke:none;stroke-width:0.71706527"
       transform="scale(0.98142737,1.0189241)"
       aria-label="ubuntu">
      <path
         id="path937"
         style="font-style:normal;font-variant:normal;font-weight:bold;font-stretch:normal;font-family:Poppl-Laudatio;-inkscape-font-specification:'Poppl-Laudatio Bold';letter-spacing:-0.4868333px;stroke-width:0.71706527"
         d="m 82.903185,46.903146 c -0.02868,2.036466 -0.08605,3.269818 -1.003892,4.589218 -0.516287,0.717065 -1.3194,1.491496 -2.839578,1.491496 -2.810896,0 -2.810896,-2.208561 -2.839578,-3.241135 v -7.113287 c 0.02868,-2.552753 0.02868,-2.839579 0.315508,-3.900835 -0.831795,0.544969 -2.925626,0.831795 -4.044247,0.831795 0.315508,0.372874 0.544969,0.631018 0.717065,1.491496 0.172095,0.975209 0.200778,2.065148 0.229461,3.212452 v 6.539635 c 0.02868,0.946527 0.02868,1.835687 0.6597,2.782214 0.602334,0.946526 1.376765,1.3194 2.265926,1.520178 0.544969,0.143413 1.089939,0.200778 1.634909,0.200778 3.384547,0 4.474487,-2.294609 4.990774,-3.527961 l 0.02868,3.441913 c 0.6597,-0.08605 1.290718,-0.172095 1.921735,-0.172095 0.573652,0 1.175987,0.05736 1.749639,0.172095 -0.258143,-0.315508 -0.602335,-0.6597 -0.745748,-1.692274 -0.172095,-1.089939 -0.22946,-3.126404 -0.22946,-4.187661 V 42.54339 c 0,-2.122513 0.11473,-2.753531 0.344191,-3.814787 -1.175987,0.573652 -3.241135,0.831795 -4.072931,0.831795 0.286826,0.286827 0.516287,0.516287 0.6597,1.405448 0.172096,0.860479 0.200779,2.093831 0.258144,3.499279 z" />
      <path
         id="path939"
         style="font-style:normal;font-variant:normal;font-weight:bold;font-stretch:normal;font-family:Poppl-Laudatio;-inkscape-font-specification:'Poppl-Laudatio Bold';letter-spacing:-0.4868333px;stroke-width:0.71706527"
         d="m 89.729969,48.853564 c -0.02868,2.409339 -0.05736,3.671374 -0.401556,5.679157 1.061256,0.286826 2.982991,0.803113 5.134187,0.803113 6.56832,0 8.66215,-5.16287 8.66215,-9.493944 0,-1.118622 -0.1721,-2.724848 -0.71707,-3.929518 -0.37287,-0.860478 -1.1473,-2.007782 -2.810893,-2.581434 -0.6597,-0.229461 -1.348083,-0.344192 -2.065148,-0.344192 -3.413231,0 -4.589218,2.581435 -5.019457,3.499279 v -3.499279 c 0.05737,-3.269817 0.114731,-3.642691 0.372874,-5.449696 -1.835687,0.889161 -2.323291,1.032574 -4.445804,1.262035 0.401556,0.315509 1.290717,0.401557 1.290717,5.564427 z m 2.810896,-1.434131 c 0.05737,-1.634908 0.11473,-3.757421 1.405448,-5.048139 0.6597,-0.631017 1.548861,-0.975209 2.466704,-0.975209 2.954309,0 3.929513,2.868261 3.929513,5.507061 0,0.860479 -0.14341,3.06904 -0.889156,4.38844 -1.233352,2.294609 -3.786105,2.294609 -4.474487,2.294609 -1.147305,0 -1.86437,-0.172096 -2.438022,-0.315509 z" />
      <path
         id="path941"
         style="font-style:normal;font-variant:normal;font-weight:bold;font-stretch:normal;font-family:Poppl-Laudatio;-inkscape-font-specification:'Poppl-Laudatio Bold';letter-spacing:-0.4868333px;stroke-width:0.71706527"
         d="m 115.42991,46.903146 c -0.0287,2.036466 -0.0861,3.269818 -1.00389,4.589218 -0.51629,0.717065 -1.3194,1.491496 -2.83958,1.491496 -2.81089,0 -2.81089,-2.208561 -2.83958,-3.241135 v -7.113287 c 0.0287,-2.552753 0.0287,-2.839579 0.31551,-3.900835 -0.83179,0.544969 -2.92562,0.831795 -4.04425,0.831795 0.31551,0.372874 0.54497,0.631018 0.71707,1.491496 0.17209,0.975209 0.20078,2.065148 0.22946,3.212452 v 6.539635 c 0.0287,0.946527 0.0287,1.835687 0.6597,2.782214 0.60233,0.946526 1.37676,1.3194 2.26593,1.520178 0.54497,0.143413 1.08993,0.200778 1.6349,0.200778 3.38455,0 4.47449,-2.294609 4.99078,-3.527961 l 0.0287,3.441913 c 0.6597,-0.08605 1.29072,-0.172095 1.92174,-0.172095 0.57365,0 1.17598,0.05736 1.74964,0.172095 -0.25815,-0.315508 -0.60234,-0.6597 -0.74575,-1.692274 -0.1721,-1.089939 -0.22946,-3.126404 -0.22946,-4.187661 V 42.54339 c 0,-2.122513 0.11473,-2.753531 0.34419,-3.814787 -1.17599,0.573652 -3.24114,0.831795 -4.07293,0.831795 0.28682,0.286827 0.51628,0.516287 0.6597,1.405448 0.17209,0.860479 0.20078,2.093831 0.25814,3.499279 z" />
      <path
         id="path943"
         style="font-style:normal;font-variant:normal;font-weight:bold;font-stretch:normal;font-family:Poppl-Laudatio;-inkscape-font-specification:'Poppl-Laudatio Bold';letter-spacing:-0.4868333px;stroke-width:0.71706527"
         d="m 135.22123,45.010094 c 0,-2.782213 -0.11473,-3.671374 -0.83179,-4.589217 -1.08994,-1.434131 -2.83958,-1.434131 -3.55664,-1.434131 -2.92563,0 -4.47449,0.975209 -5.73653,3.527961 v -1.462813 c 0,-1.061256 0,-1.634909 0.0287,-2.294609 -1.69228,0.631018 -3.2985,0.831796 -4.10162,0.831796 0.51629,0.430239 0.86048,0.745748 1.06126,2.495387 0.14341,1.434131 0.17209,2.925626 0.17209,4.388439 v 4.445805 c 0,2.294609 -0.20077,3.614009 -0.37287,4.331074 0.57365,-0.08605 1.20467,-0.172096 1.80701,-0.172096 0.60233,0 1.20466,0.08605 1.807,0.172096 -0.45892,-1.348083 -0.45892,-2.581435 -0.45892,-4.732631 v -1.807004 c 0,-2.896944 0,-4.904726 1.26203,-6.281492 1.03258,-1.147304 2.52407,-1.233352 3.21246,-1.233352 2.83957,0 2.83957,2.007783 2.83957,3.614009 v 4.474487 c 0,3.355865 0,4.302392 -0.43024,5.965983 0.6597,-0.05736 1.29072,-0.143413 1.95042,-0.143413 0.63102,0 1.26204,0.08605 1.86437,0.143413 -0.45892,-1.003891 -0.4876,-2.6388 -0.51629,-3.986883 z" />
      <path
         id="path945"
         style="font-style:normal;font-variant:normal;font-weight:bold;font-stretch:normal;font-family:Poppl-Laudatio;-inkscape-font-specification:'Poppl-Laudatio Bold';letter-spacing:-0.4868333px;stroke-width:0.71706527"
         d="m 139.45314,40.67902 c -0.68838,0 -1.34808,0 -2.32329,-0.08605 0.0287,0.344192 0.0574,0.688383 0.0574,1.032574 0,0.315509 -0.0287,0.6597 -0.0574,1.003892 1.00389,-0.05737 1.72096,-0.08605 2.26593,-0.08605 l -0.11473,9.092387 c 0,0.54497 0,1.520178 0.60233,2.351974 0.45892,0.602335 1.29072,1.262035 3.49928,1.262035 0.40156,0 0.8318,-0.02868 1.74964,-0.114731 0.0287,-1.003891 0.0574,-1.262034 0.28683,-2.351974 -0.37288,0.143414 -0.80312,0.286827 -1.37677,0.286827 -0.71706,0 -1.17599,-0.258144 -1.40545,-0.516287 -0.45892,-0.516287 -0.4876,-1.348083 -0.4876,-2.839579 0,-2.409339 0,-4.789996 0.0287,-7.170652 0.68838,0.02868 1.60623,0.02868 2.89694,0.08605 -0.0574,-0.286826 -0.086,-0.573653 -0.086,-0.860479 0,-0.401556 0.0574,-0.77443 0.086,-1.204669 -1.37676,0.08605 -2.15119,0.08605 -2.89694,0.11473 v -1.720956 c 0.0287,-2.466705 0.0574,-3.126405 0.28683,-4.158979 -1.4915,0.602335 -1.89306,0.717066 -3.41323,0.917844 0.31551,0.6597 0.37287,0.889161 0.40155,3.097722 z" />
      <path
         id="path947"
         style="font-style:normal;font-variant:normal;font-weight:bold;font-stretch:normal;font-family:Poppl-Laudatio;-inkscape-font-specification:'Poppl-Laudatio Bold';letter-spacing:-0.4868333px;stroke-width:0.71706527"
         d="m 156.99333,46.903146 c -0.0287,2.036466 -0.0861,3.269818 -1.0039,4.589218 -0.51628,0.717065 -1.3194,1.491496 -2.83957,1.491496 -2.8109,0 -2.8109,-2.208561 -2.83958,-3.241135 v -7.113287 c 0.0287,-2.552753 0.0287,-2.839579 0.31551,-3.900835 -0.8318,0.544969 -2.92563,0.831795 -4.04425,0.831795 0.31551,0.372874 0.54497,0.631018 0.71706,1.491496 0.1721,0.975209 0.20078,2.065148 0.22946,3.212452 v 6.539635 c 0.0287,0.946527 0.0287,1.835687 0.6597,2.782214 0.60234,0.946526 1.37677,1.3194 2.26593,1.520178 0.54497,0.143413 1.08994,0.200778 1.63491,0.200778 3.38455,0 4.47449,-2.294609 4.99077,-3.527961 l 0.0287,3.441913 c 0.6597,-0.08605 1.29071,-0.172095 1.92173,-0.172095 0.57365,0 1.17599,0.05736 1.74964,0.172095 -0.25814,-0.315508 -0.60233,-0.6597 -0.74575,-1.692274 -0.17209,-1.089939 -0.22946,-3.126404 -0.22946,-4.187661 V 42.54339 c 0,-2.122513 0.11473,-2.753531 0.34419,-3.814787 -1.17598,0.573652 -3.24113,0.831795 -4.07293,0.831795 0.28683,0.286827 0.51629,0.516287 0.6597,1.405448 0.1721,0.860479 0.20078,2.093831 0.25815,3.499279 z" />
    </g>
  </g>
</svg>
