<?xml version="1.0" encoding="UTF-8" standalone="no"?><!-- Generator: Gravit.io --><svg xmlns="http://www.w3.org/2000/svg" xmlns:xlink="http://www.w3.org/1999/xlink" style="isolation:isolate" viewBox="0 0 834.5 174.25" width="834.5pt" height="174.25pt"><defs><clipPath id="_clipPath_vZ1npkjCU4YWFoWAATO6u5WYAylN5xlm"><rect width="834.5" height="174.25"/></clipPath></defs><g clip-path="url(#_clipPath_vZ1npkjCU4YWFoWAATO6u5WYAylN5xlm)"><g><path d=" M 72.411 4.63 C 35.011 10.83 7.111 38.03 0.811 74.43 C -0.889 84.13 0.211 103.53 2.911 112.23 C 5.511 120.53 9.711 129.13 14.911 136.83 C 19.711 143.73 32.911 156.13 40.211 160.53 C 80.811 184.83 132.811 171.53 156.911 130.63 C 165.511 116.03 168.511 103.03 167.611 83.53 C 167.111 70.13 165.011 62.03 159.711 51.23 C 151.011 33.93 135.311 18.73 118.511 11.33 C 105.411 5.53 85.011 2.63 72.411 4.63 Z  M 119.611 29.33 C 123.611 31.93 125.111 38.93 122.811 44.03 C 120.311 49.53 111.211 51.53 105.811 47.73 C 101.011 44.23 100.111 35.83 104.111 30.93 C 107.611 26.83 114.711 26.03 119.611 29.33 Z  M 95.611 40.63 C 96.311 40.93 97.911 43.23 99.111 45.63 C 102.211 51.43 106.711 53.83 113.811 53.53 C 118.711 53.33 119.411 53.63 121.611 56.33 C 127.611 63.63 132.911 76.23 132.911 82.93 L 132.911 85.73 L 124.911 85.73 C 117.011 85.73 116.911 85.73 116.311 82.93 C 113.911 71.53 105.811 61.73 95.611 57.93 C 88.811 55.33 80.011 55.03 74.011 57.23 L 69.911 58.63 L 65.911 51.43 L 61.911 44.23 L 66.211 42.43 C 68.511 41.43 72.911 40.23 75.911 39.73 C 81.511 38.83 93.411 39.43 95.611 40.63 Z  M 61.111 54.33 L 64.911 60.93 L 60.011 66.43 C 54.911 72.23 50.911 81.63 50.911 88.13 C 50.911 95.23 54.711 104.33 60.011 110.23 L 65.111 115.73 L 60.911 122.73 L 56.711 129.73 L 51.911 125.73 C 46.311 121.03 40.811 113.23 38.011 106.03 C 36.211 101.33 36.111 100.83 37.611 99.53 C 39.911 97.63 41.911 92.33 41.911 88.13 C 41.911 84.63 38.311 76.73 36.811 76.73 C 34.611 76.73 42.011 61.43 46.711 56.23 C 50.111 52.63 55.811 47.73 56.711 47.73 C 57.111 47.73 59.111 50.73 61.111 54.33 Z  M 31.411 78.13 C 38.711 81.23 40.011 91.73 33.811 96.93 C 23.611 105.53 9.711 93.03 17.211 82.03 C 20.611 77.03 25.411 75.63 31.411 78.13 Z  M 131.911 91.73 C 135.111 93.73 128.711 112.03 122.211 119.63 C 119.411 122.83 118.811 123.13 114.111 122.83 C 106.711 122.43 101.211 125.93 97.811 133.23 C 96.211 136.63 93.711 137.53 84.911 137.63 C 79.311 137.73 65.611 134.93 62.711 133.13 C 62.311 132.83 63.611 129.53 65.711 125.63 C 69.111 119.33 69.611 118.73 71.911 119.23 C 77.411 120.63 89.311 120.93 93.311 119.73 C 104.911 116.43 113.411 106.73 116.311 93.43 C 116.911 90.83 117.111 90.73 123.711 90.73 C 127.411 90.73 131.111 91.13 131.911 91.73 Z  M 121.211 130.73 C 126.111 136.23 124.511 144.83 117.911 148.23 C 113.611 150.43 109.511 150.13 106.011 147.23 C 100.511 142.53 100.011 135.63 104.711 130.33 C 108.911 125.63 116.811 125.83 121.211 130.73 Z " fill="rgb(0,121,213)"/><path d=" M 283.911 88.73 L 283.911 136.73 L 293.911 136.73 L 303.911 136.73 L 303.911 133.13 L 303.911 129.53 L 307.411 132.63 C 311.811 136.53 320.711 139.13 326.211 138.33 C 336.311 136.73 344.211 130.53 348.811 120.83 C 351.211 115.63 351.411 114.23 351.411 101.73 C 351.411 89.03 351.211 87.93 348.711 83.13 C 345.911 77.73 340.411 72.33 336.011 70.53 C 334.611 69.93 330.011 69.43 325.911 69.43 C 317.111 69.43 312.111 71.43 307.111 77.23 L 303.911 80.83 L 303.911 60.73 L 303.911 40.73 L 293.911 40.73 L 283.911 40.73 L 283.911 88.73 Z  M 325.711 86.43 C 334.211 91.83 333.611 115.13 324.811 120.93 C 318.311 125.13 309.311 123.13 305.511 116.63 C 303.211 112.63 302.311 101.73 303.811 96.03 C 306.711 85.53 317.211 80.93 325.711 86.43 Z " fill="rgb(0,121,213)"/><path d=" M 710.411 44.63 C 707.711 45.63 703.911 47.13 702.211 48.13 L 698.911 49.83 L 698.911 58.33 L 698.911 66.83 L 702.011 64.63 C 716.111 54.63 732.911 56.03 735.311 67.43 C 737.111 75.53 732.311 82.43 716.411 94.73 C 701.011 106.63 695.611 115.13 694.311 129.23 L 693.611 136.73 L 724.811 136.73 L 755.911 136.73 L 755.911 128.73 L 755.911 120.73 L 736.211 120.53 C 722.511 120.33 716.511 119.93 716.211 119.03 C 715.511 117.03 722.011 110.73 734.011 101.63 C 740.611 96.63 747.111 90.83 749.111 88.03 C 761.011 71.83 756.711 50.93 740.211 44.73 C 733.011 42.03 717.611 42.03 710.411 44.63 Z " fill="rgb(0,121,213)"/><path d=" M 787.411 44.63 C 784.711 45.63 780.911 47.13 779.211 48.13 L 775.911 49.83 L 775.911 58.33 L 775.911 66.83 L 779.011 64.63 C 796.811 52.03 816.911 58.23 812.011 74.93 C 810.411 80.13 805.511 85.33 793.811 94.33 C 778.111 106.43 772.411 115.43 771.711 129.03 L 771.411 136.73 L 802.111 136.73 L 832.911 136.73 L 832.911 128.73 L 832.911 120.73 L 813.411 120.73 L 793.911 120.73 L 793.911 118.33 C 793.911 115.53 799.211 110.43 813.511 99.63 C 830.411 86.73 835.611 75.43 831.711 59.93 C 830.211 53.83 823.211 46.73 816.411 44.43 C 809.611 42.03 794.111 42.23 787.411 44.63 Z " fill="rgb(0,121,213)"/><path d=" M 188.111 76.93 C 188.511 113.03 188.911 115.73 194.411 124.23 C 200.611 133.73 214.411 139.43 228.411 138.33 C 245.111 136.93 254.411 131.33 260.011 119.23 C 263.811 111.03 264.911 99.63 264.911 68.73 L 264.911 43.73 L 254.511 43.73 L 244.011 43.73 L 243.711 76.43 C 243.311 112.73 243.311 113.23 236.611 117.93 C 234.011 119.83 232.111 120.23 226.211 120.23 C 217.811 120.23 214.811 118.53 210.911 111.63 C 208.411 107.33 208.411 106.83 208.111 81.73 C 208.011 67.73 207.911 53.43 207.911 49.93 L 207.911 43.73 L 197.811 43.73 L 187.811 43.73 L 188.111 76.93 Z " fill="rgb(0,121,213)"/><path d=" M 548.411 51.33 C 546.211 52.03 541.811 53.33 538.711 54.33 L 532.911 56.03 L 532.911 63.33 L 532.911 70.73 L 527.411 70.73 L 521.911 70.73 L 521.911 77.73 L 521.911 84.73 L 527.311 84.73 L 532.711 84.73 L 533.111 103.93 C 533.411 116.13 534.111 124.53 534.911 126.73 C 536.811 132.03 540.711 135.63 546.311 137.23 C 552.211 139.03 555.111 139.13 561.911 137.63 L 566.911 136.53 L 566.911 129.23 L 566.911 121.83 L 563.911 122.93 C 560.411 124.13 555.411 122.53 554.011 119.83 C 552.311 116.53 551.811 109.13 552.511 97.03 L 553.211 84.73 L 560.011 84.73 L 566.911 84.73 L 566.911 77.73 L 566.911 70.73 L 559.911 70.73 L 553.011 70.73 L 552.711 60.43 L 552.411 50.03 L 548.411 51.33 Z " fill="rgb(0,121,213)"/><path d=" M 483.411 69.63 C 478.311 70.93 474.211 73.53 471.011 77.43 L 467.911 81.23 L 467.911 75.93 L 467.911 70.73 L 457.911 70.73 L 447.911 70.73 L 447.911 103.73 L 447.911 136.73 L 457.811 136.73 L 467.711 136.73 L 467.511 115.43 C 467.411 96.93 467.611 93.83 469.211 91.03 C 471.711 86.43 475.511 84.23 480.711 84.33 C 490.011 84.53 491.911 90.13 491.911 118.33 L 491.911 136.73 L 501.511 136.73 L 511.011 136.73 L 510.711 109.93 C 510.411 83.83 510.311 83.13 508.011 79.03 C 504.511 72.93 499.711 69.93 492.411 69.33 C 489.111 69.03 485.111 69.23 483.411 69.63 Z " fill="rgb(0,121,213)"/><path d=" M 365.911 95.23 C 365.911 117.23 366.111 120.23 367.911 125.03 C 370.911 133.13 376.211 137.03 385.511 138.23 C 392.311 139.13 400.511 136.03 405.311 130.73 C 407.311 128.53 409.111 126.73 409.411 126.73 C 409.711 126.73 409.911 128.93 409.911 131.73 L 409.911 136.73 L 419.411 136.73 L 428.911 136.73 L 428.911 103.73 L 428.911 70.73 L 419.511 70.73 L 410.011 70.73 L 409.711 92.53 L 409.411 114.43 L 406.611 118.03 C 401.111 125.23 391.311 124.93 387.211 117.53 C 385.711 114.73 385.411 111.23 385.111 92.43 L 384.811 70.73 L 375.311 70.73 L 365.911 70.73 L 365.911 95.23 Z " fill="rgb(0,121,213)"/><path d=" M 579.111 96.43 L 579.411 122.23 L 582.411 127.73 C 584.811 131.93 586.511 133.73 590.411 135.73 C 600.111 140.63 611.611 138.43 618.711 130.33 C 620.411 128.33 622.111 126.73 622.411 126.73 C 622.711 126.73 622.911 128.93 622.911 131.73 L 622.911 136.73 L 632.911 136.73 L 642.911 136.73 L 642.911 103.73 L 642.911 70.73 L 633.011 70.73 L 623.011 70.73 L 622.711 92.63 C 622.411 117.33 622.111 118.33 614.411 122.13 C 610.911 123.83 610.211 123.93 606.511 122.63 C 603.811 121.73 601.811 120.13 600.411 117.73 C 598.611 114.53 598.411 112.63 598.411 92.43 L 598.411 70.73 L 588.611 70.73 L 578.811 70.73 L 579.111 96.43 Z " fill="rgb(0,121,213)"/></g></g></svg>