<?xml version="1.0" encoding="UTF-8" standalone="no"?>
<svg
   xml:space="preserve"
   id="svg4768"
   viewBox="0.171 0.201 512 512"
   height="48"
   width="48"
   version="1.0"
   sodipodi:docname="emacs.svg"
   inkscape:version="1.1 (c68e22c387, 2021-05-23)"
   xmlns:inkscape="http://www.inkscape.org/namespaces/inkscape"
   xmlns:sodipodi="http://sodipodi.sourceforge.net/DTD/sodipodi-0.dtd"
   xmlns:xlink="http://www.w3.org/1999/xlink"
   xmlns="http://www.w3.org/2000/svg"
   xmlns:svg="http://www.w3.org/2000/svg"
   xmlns:rdf="http://www.w3.org/1999/02/22-rdf-syntax-ns#"
   xmlns:cc="http://creativecommons.org/ns#"
   xmlns:dc="http://purl.org/dc/elements/1.1/"><sodipodi:namedview
     id="namedview72"
     pagecolor="#ffffff"
     bordercolor="#666666"
     borderopacity="1.0"
     inkscape:pageshadow="2"
     inkscape:pageopacity="0.0"
     inkscape:pagecheckerboard="0"
     showgrid="false"
     inkscape:zoom="11.645833"
     inkscape:cx="24"
     inkscape:cy="24"
     inkscape:window-width="1348"
     inkscape:window-height="768"
     inkscape:window-x="18"
     inkscape:window-y="0"
     inkscape:window-maximized="1"
     inkscape:current-layer="svg4768" /><metadata
     id="metadata70"><rdf:RDF><cc:Work
         rdf:about=""><dc:format>image/svg+xml</dc:format><dc:type
           rdf:resource="http://purl.org/dc/dcmitype/StillImage" /><dc:title /></cc:Work></rdf:RDF></metadata><!-- Gnu Emacs Icon
   Copyright (C) 2008-2017 Free Software Foundation, Inc.

   Author: Nicolas Petton <nicolas@petton.fr>

   This file is part of GNU Emacs.

   GNU Emacs is free software: you can redistribute it and/or modify
   it under the terms of the GNU General Public License as published by
   the Free Software Foundation; either version 3 of the License, or
   (at your option) any later version.

   GNU Emacs is distributed in the hope that it will be useful,
   but WITHOUT ANY WARRANTY; without even the implied warranty of
   MERCHANTABILITY or FITNESS FOR A PARTICULAR PURPOSE.  See the
   GNU General Public License for more details.

   You should have received a copy of the GNU General Public License
   along with GNU Emacs.  If not, see <http://www.gnu.org/licenses/>.

--><!-- Created with Inkscape (http://www.inkscape.org/) --><defs
     id="defs4770"><linearGradient
       id="linearGradient4292"><stop
         id="stop4294"
         offset="0"
         style="stop-color:#411f5d;stop-opacity:1" /><stop
         id="stop4296"
         offset="1"
         style="stop-color:#5b2a85;stop-opacity:1" /></linearGradient><linearGradient
       id="linearGradient4284"><stop
         offset="0"
         style="stop-color:#8381c5;stop-opacity:1"
         id="stop4286" /><stop
         id="stop4290"
         style="stop-color:#7e55b3;stop-opacity:0.99607843"
         offset="0.56639391" /><stop
         offset="1"
         style="stop-color:#a52ecb;stop-opacity:0.99215686"
         id="stop4288" /></linearGradient><linearGradient
       id="linearGradient4898"><stop
         id="stop4278"
         style="stop-color:#bab8db;stop-opacity:1"
         offset="0" /><stop
         id="stop4280"
         style="stop-color:#5955a9;stop-opacity:0.99159664"
         offset="1" /></linearGradient><linearGradient
       id="linearGradient3294"><stop
         offset="0"
         style="stop-color:#6376e6;stop-opacity:1"
         id="stop3296" /><stop
         offset="0.50094414"
         style="stop-color:#222989;stop-opacity:1"
         id="stop3302" /><stop
         offset="1"
         style="stop-color:#00003d;stop-opacity:1"
         id="stop3298" /></linearGradient><linearGradient
       id="linearGradient3284"><stop
         offset="0"
         style="stop-color:#000000;stop-opacity:1"
         id="stop3286" /><stop
         offset="0.84845906"
         style="stop-color:#000000;stop-opacity:0.49803922"
         id="stop3292" /><stop
         offset="1"
         style="stop-color:#000000;stop-opacity:0"
         id="stop3288" /></linearGradient><linearGradient
       id="linearGradient3274"><stop
         offset="0"
         style="stop-color:#000000;stop-opacity:1"
         id="stop3276" /><stop
         offset="1"
         style="stop-color:#000000;stop-opacity:0"
         id="stop3278" /></linearGradient><linearGradient
       id="linearGradient3262"><stop
         offset="0"
         style="stop-color:#000000;stop-opacity:1"
         id="stop3264" /><stop
         offset="1"
         style="stop-color:#000000;stop-opacity:0"
         id="stop3266" /></linearGradient><linearGradient
       id="linearGradient3242"><stop
         offset="0"
         style="stop-color:#282828;stop-opacity:1"
         id="stop3244" /><stop
         offset="0.39253417"
         style="stop-color:#808080;stop-opacity:1"
         id="stop3252" /><stop
         offset="1"
         style="stop-color:#d9d9d9;stop-opacity:1"
         id="stop3246" /></linearGradient><linearGradient
       id="linearGradient3202"><stop
         offset="0"
         style="stop-color:#2b2b2b;stop-opacity:1"
         id="stop3204" /><stop
         offset="0.5"
         style="stop-color:#828383;stop-opacity:1"
         id="stop3250" /><stop
         offset="1"
         style="stop-color:#dadbdb;stop-opacity:1"
         id="stop3206" /></linearGradient><linearGradient
       id="linearGradient4966"><stop
         offset="0"
         style="stop-color:#b6b3d8;stop-opacity:1"
         id="stop4968" /><stop
         offset="1"
         style="stop-color:#b6b3d8;stop-opacity:0"
         id="stop4970" /></linearGradient><linearGradient
       id="linearGradient4938"><stop
         offset="0"
         style="stop-color:#000000;stop-opacity:1"
         id="stop4940" /><stop
         offset="1"
         style="stop-color:#000000;stop-opacity:0"
         id="stop4942" /></linearGradient><linearGradient
       id="linearGradient4282"><stop
         offset="0"
         style="stop-color:#bab8db;stop-opacity:1"
         id="stop4900" /><stop
         offset="1"
         style="stop-color:#5955a9;stop-opacity:0.99159664"
         id="stop4902" /></linearGradient><linearGradient
       id="linearGradient4876"><stop
         offset="0"
         style="stop-color:#d3d2e8;stop-opacity:1"
         id="stop4878" /><stop
         offset="1"
         style="stop-color:#5955a9;stop-opacity:0.99159664"
         id="stop4880" /></linearGradient><radialGradient
       gradientTransform="matrix(0.6817439,0,0,0.5905355,-3.8523706,-28.935273)"
       gradientUnits="userSpaceOnUse"
       xlink:href="#linearGradient4898"
       id="radialGradient4892"
       fy="-108.96888"
       fx="20.951529"
       r="266.76535"
       cy="-108.96888"
       cx="20.951529" /><radialGradient
       gradientTransform="matrix(1,0,0,0.1854103,0,383.88493)"
       gradientUnits="userSpaceOnUse"
       xlink:href="#linearGradient4938"
       id="radialGradient4944"
       fy="471.26172"
       fx="233.8876"
       r="170.49393"
       cy="471.26172"
       cx="233.8876" /><radialGradient
       gradientTransform="matrix(1,0,0,0.9121621,0,32.654948)"
       gradientUnits="userSpaceOnUse"
       xlink:href="#linearGradient4966"
       id="radialGradient4972"
       fy="371.76376"
       fx="299.70135"
       r="76.696358"
       cy="371.76376"
       cx="299.70135" /><radialGradient
       gradientTransform="matrix(0.414705,0.3300575,-0.5059004,0.6356454,346.95314,49.479585)"
       gradientUnits="userSpaceOnUse"
       xlink:href="#linearGradient3202"
       id="radialGradient3210"
       fy="390.45248"
       fx="289.44067"
       r="17.67668"
       cy="390.45248"
       cx="289.44067" /><radialGradient
       gradientTransform="matrix(0.414705,0.3300575,-0.5059004,0.6356454,448.41009,-65.398074)"
       gradientUnits="userSpaceOnUse"
       xlink:href="#linearGradient3202"
       id="radialGradient3238"
       fy="382.14804"
       fx="283.50717"
       r="17.67668"
       cy="382.14804"
       cx="283.50717" /><radialGradient
       gradientTransform="matrix(-6.5565014e-2,-5.9721765e-2,1.6871024,-1.8521705,171.90774,540.51473)"
       gradientUnits="userSpaceOnUse"
       xlink:href="#linearGradient3242"
       id="radialGradient3248"
       fy="181.18982"
       fx="418.45551"
       r="63.068935"
       cy="181.18982"
       cx="418.45551" /><radialGradient
       gradientTransform="matrix(0.4055116,-3.3440123e-2,0.1034174,4.3988695,177.23251,-1191.6649)"
       gradientUnits="userSpaceOnUse"
       xlink:href="#linearGradient3262"
       id="radialGradient3268"
       fy="357.33591"
       fx="354.51709"
       r="33.712105"
       cy="357.33591"
       cx="354.51709" /><radialGradient
       gradientTransform="matrix(-0.1339874,-0.1146812,0.3079048,-0.3597394,444.23592,395.03849)"
       gradientUnits="userSpaceOnUse"
       xlink:href="#linearGradient3274"
       id="radialGradient3280"
       fy="223.55537"
       fx="510.58469"
       r="132.28336"
       cy="223.55537"
       cx="510.58469" /><radialGradient
       gradientTransform="matrix(-1.2497569,1.3798305,-9.6289463e-2,-7.2974479e-2,674.3826,-70.590682)"
       gradientUnits="userSpaceOnUse"
       xlink:href="#linearGradient3284"
       id="radialGradient3290"
       fy="-158.17821"
       fx="284.4671"
       r="110.2972"
       cy="-158.17821"
       cx="284.4671" /><radialGradient
       gradientTransform="matrix(-0.1008165,-8.0872321e-2,1.0745309,-1.3395252,13.843287,784.79288)"
       gradientUnits="userSpaceOnUse"
       xlink:href="#linearGradient3294"
       id="radialGradient3300"
       fy="356.62274"
       fx="425.51019"
       r="143.34167"
       cy="356.62274"
       cx="425.51019" /><filter
       height="1.1062305"
       y="-0.053115237"
       width="1.1073157"
       x="-0.053657868"
       id="filter4350"
       style="color-interpolation-filters:sRGB"><feGaussianBlur
         id="feGaussianBlur4352"
         stdDeviation="8.7848425" /></filter><linearGradient
       y2="300.73987"
       x2="236.61363"
       y1="-161.8512"
       x1="-122.20192"
       spreadMethod="pad"
       gradientTransform="matrix(0.87385837,0,0,0.82818057,246.00762,250.28138)"
       gradientUnits="userSpaceOnUse"
       id="linearGradient4245"
       xlink:href="#linearGradient4284" /><linearGradient
       y2="66.018341"
       x2="173.94518"
       y1="396.6066"
       x1="447.80933"
       gradientTransform="matrix(0.98684959,0,0,0.98684959,3.0344187,2.5250397)"
       gradientUnits="userSpaceOnUse"
       id="linearGradient4247"
       xlink:href="#linearGradient4292" /><linearGradient
       y2="300.73987"
       x2="236.61363"
       y1="-161.8512"
       x1="-122.20192"
       spreadMethod="pad"
       gradientTransform="matrix(0.88702589,0,0,0.84065956,250.23643,251.2824)"
       gradientUnits="userSpaceOnUse"
       id="linearGradient4245-6"
       xlink:href="#linearGradient4284" /><linearGradient
       y2="66.018341"
       x2="173.94518"
       y1="396.6066"
       x1="447.80933"
       gradientTransform="matrix(1.0017195,0,0,1.0017195,3.6023039,-0.20715039)"
       gradientUnits="userSpaceOnUse"
       id="linearGradient4247-3"
       xlink:href="#linearGradient4292" /></defs><rect
     style="fill:none;display:none"
     id="rect4772"
     y="0.20100001"
     x="0.171"
     height="512"
     width="512" /><g
     style="display:none"
     id="g4788"><g
       style="display:inline"
       id="g4790" /></g><g
     style="display:none"
     id="g4806"><g
       style="display:inline"
       id="g4808"><path
         style="fill:#050505;display:none"
         id="path4810"
         d="M 349.098,256.651 C 348.833,256.397 386.735,284.256 388.519,281.663 C 394.881,272.411 470.565,188.526 473.303,165.427 C 473.545,163.424 472.787,161.331 472.787,161.331 C 472.787,161.331 471.597,161.187 466.462,157.017 C 463.77,154.825 460.979,152.436 460.979,152.436 C 444.925,153.434 403.094,193.995 349.917,256.004" /></g></g><path
     d="m 496.11723,257.99533 c 0,132.02108 -105.94202,239.04507 -236.62776,239.04507 -130.68576,0 -236.627798,-107.02399 -236.627798,-239.04507 0,-132.02104 105.942038,-239.045046 236.627798,-239.045046 130.68574,0 236.62776,107.024006 236.62776,239.045046 z"
     id="path4235"
     style="fill:url(#linearGradient4245-6);fill-opacity:1;stroke:url(#linearGradient4247-3);stroke-width:13.5392;stroke-miterlimit:4;stroke-dasharray:none;stroke-opacity:1"
     inkscape:export-filename="/home/tim/Downloads/images/psb/vimmacs.png"
     inkscape:export-xdpi="120"
     inkscape:export-ydpi="120" /><path
     d="m 267.0845,233.37542 c 0,0 -1.86492,11.09424 -1.98239,25.58587 -0.0472,5.86896 -0.005,28.17267 2.02728,45.04029 0,0 2.37098,20.5556 5.30436,31.71272 3.06913,11.67445 6.00458,18.14902 10.7353,21.39136 1.03533,-0.0161 4.57242,1.29915 7.2537,-3.69075 6.8553,-12.75549 7.33103,-28.26851 10.91506,-58.71072 4.42085,-33.71603 11.1656,-44.4244 16.30315,-49.97982 5.18005,-5.30285 17.70083,-1.17984 26.60336,24.53633 4.80918,12.98526 11.20508,62.68915 11.20508,62.68915 9.67384,-15.60043 26.8484,-44.77383 30.5265,-50.75642 3.22602,-5.24712 8.13348,-13.66863 13.22826,-15.10602 4.92285,-1.71118 8.28311,5.95976 9.05435,10.13867 2.51694,13.46155 3.08485,32.17758 1.72802,49.03108 -0.67757,8.47185 -0.26912,9.89687 -0.26912,9.89687 0.81313,11.8579 8.05772,20.31014 21.01223,18.32653 13.18531,-1.63076 22.22967,-16.05736 20.99084,-30.71362 -1.16684,-13.80174 -7.51497,-47.40823 -7.51497,-47.40823 -3.54196,40.44342 -4.86626,47.14214 -9.38119,49.75605 -2.66609,1.5439 -5.8362,-1.37935 -6.55855,-12.32662 -0.78665,-11.9175 -0.74567,-36.52898 -0.74567,-36.52898 0.86352,-23.53122 2.35692,-40.02142 -7.63238,-45.97211 -6.52634,-3.88777 -13.21339,2.20348 -17.27878,4.76398 -14.93543,11.03623 -24.06758,28.17547 -30.63337,39.14123 -2.46962,4.12608 -7.57083,16.43915 -7.57083,16.43915 5.64075,-37.08338 -3.21801,-65.07883 -14.87936,-82.12329 -14.78522,-19.43127 -35.21649,-13.43258 -50.84843,21.95526 -9.2328,20.90144 -13.62826,31.28504 -13.82933,63.76929 -0.8044,19.06744 -1.69921,21.99932 -3.27565,22.03839 -2.21818,0.0557 -5.6061,-21.80447 -6.72553,-27.791 -2.8474,-15.22999 -7.73777,-54.90611 -7.76103,-55.10452 z"
     id="path4237-0"
     style="fill:#ffffff;fill-opacity:1;fill-rule:evenodd;stroke:#000000;stroke-width:0;stroke-linecap:butt;stroke-linejoin:miter;stroke-miterlimit:4;stroke-dasharray:none;stroke-opacity:1"
     inkscape:export-filename="/home/tim/Downloads/images/psb/vimmacs.png"
     inkscape:export-xdpi="120"
     inkscape:export-ydpi="120" /><path
     d="m 47.803072,210.79662 c 69.909748,-32.60848 62.672428,-39.92614 87.920798,41.58553 14.75814,62.43398 29.66745,106.01358 29.66745,106.01358 14.06108,-28.44672 38.77999,-80.85815 44.11771,-91.76186 41.97774,-93.09299 59.15693,-96.04941 108.05588,-104.82075 -66.93334,-0.049 -76.58944,8.54851 -90.76995,26.20392 -22.43049,27.92707 -42.22187,63.30495 -52.84,97.7977 -12.21706,-65.10633 -25.92711,-120.0606 -46.01638,-128.89502 -25.12626,-11.04946 -35.974058,12.7623 -80.135508,53.8769 z"
     id="path4237-1"
     style="fill:#ffffff;fill-opacity:1;fill-rule:evenodd;stroke:#000000;stroke-width:0;stroke-linecap:butt;stroke-linejoin:miter;stroke-miterlimit:4;stroke-dasharray:none;stroke-opacity:1"
     sodipodi:nodetypes="cccccscsc"
     inkscape:export-filename="/home/tim/Downloads/images/psb/vimmacs.png"
     inkscape:export-xdpi="120"
     inkscape:export-ydpi="120" /><g
     id="g10831"
     transform="matrix(2.6054213,0,0,2.6054213,-20.347044,-291.84406)"
     inkscape:export-filename="/home/tim/Downloads/images/psb/vimmacs.png"
     inkscape:export-xdpi="120"
     inkscape:export-ydpi="120"><path
       d="m 100.31071,208.84524 c -3.144606,10.32531 -3.945344,13.90165 -4.677513,19.41554 0.253557,7.53362 -0.749777,9.11694 1.859278,19.81618 2.515355,-4.05109 3.842055,-15.58846 3.424765,-22.8197 -0.36194,-5.93576 -0.53136,-16.39522 -0.60619,-16.41195 0,0 -2.5e-4,-1.3e-4 -3.4e-4,-7e-5 z m 4.91169,17.74454 c 0,0 -2.6e-4,-1.2e-4 -2.7e-4,-6e-5 z"
       id="path4237"
       style="fill:#ffffff;fill-opacity:1;fill-rule:evenodd;stroke:#000000;stroke-width:0;stroke-linecap:butt;stroke-linejoin:miter;stroke-miterlimit:4;stroke-dasharray:none;stroke-opacity:1"
       sodipodi:nodetypes="cccccc" /><path
       d="m 103.16739,194.63359 c -2.19367,2.64585 -2.75226,3.56229 -3.263007,4.97522 0.176877,1.93048 -0.523037,2.3362 1.297017,5.07788 1.7547,-1.03809 2.6802,-3.99453 2.3891,-5.84753 -0.25249,-1.52104 -0.37067,-4.20127 -0.42287,-4.20555 0,0 -1.8e-4,-4e-5 -2.4e-4,-2e-5 z m 3.42637,4.54702 c 0,0 -1.8e-4,-3e-5 -1.9e-4,-1e-5 z"
       id="path4237-8"
       style="fill:#ffffff;fill-opacity:1;fill-rule:evenodd;stroke:#000000;stroke-width:0;stroke-linecap:butt;stroke-linejoin:miter;stroke-miterlimit:4;stroke-dasharray:none;stroke-opacity:1"
       sodipodi:nodetypes="cccccc" /></g></svg>
