<svg enable-background="new 0 0 620.8 160.7" viewBox="0 0 620.8 160.7" xmlns="http://www.w3.org/2000/svg" xmlns:xlink="http://www.w3.org/1999/xlink"><linearGradient id="a"><stop offset=".28" stop-color="#07c3f2"/><stop offset=".94" stop-color="#087cfa"/></linearGradient><linearGradient id="b" gradientUnits="userSpaceOnUse" x1="48.3782" x2="73.2182" xlink:href="#a" y1="17.0629" y2="106.5029"/><linearGradient id="c" gradientUnits="userSpaceOnUse" x1="56.0831" x2="98.1131" y1="28.4411" y2="90.0711"><stop offset=".14" stop-color="#fcf84a"/><stop offset=".37" stop-color="#07c3f2"/></linearGradient><linearGradient id="d" gradientUnits="userSpaceOnUse" x1="97.7954" x2="103.3154" xlink:href="#a" y1="36.0252" y2="55.5752"/><path d="m153.1 75.1-15.5-41.9h-14.5l24.1 59.9h11.5l24.1-59.9h-14.1z"/><path d="m184.2 30.7h13.6v11.5h-13.6z"/><path d="m184.5 47.2h12.9v45.5h-12.9z"/><path d="m224.3 65.2c-4.9-1.7-9.3-2.9-9.3-5.4v-.2c0-1.8 1.6-3.1 4.8-3.1 3.3 0 7.8 1.6 12.3 4.2l4.9-8.9c-4.9-3.3-11.2-5.3-17-5.3-9.2 0-16.6 5.2-16.6 14.4v.2c0 8.8 7.2 11.8 13.6 13.7 5 1.5 9.4 2.5 9.4 5.3v.2c0 2-1.7 3.4-5.4 3.4-4.2 0-9.4-1.9-14.4-5.4l-5.5 8.5c6 4.8 13.2 6.9 19.5 6.9 9.9 0 17.4-4.6 17.4-14.7v-.2c0-8.5-7.4-11.5-13.7-13.6z"/><path d="m270.8 72.5c0 6.1-3.1 9.3-8.1 9.3-4.9 0-7.8-3.1-7.8-9.3v-25.3h-12.9v29.5c0 10.4 5.7 16.9 15.5 16.9 6.5 0 10.4-3.5 13.3-7.3v6.5h12.9v-45.6h-12.9z"/><path d="m309.2 46.6c-7.7 0-12.7 1.4-17.7 3.7l3.2 9.9c4.2-1.5 7.6-2.5 12.6-2.5 6.5 0 9.8 3 9.8 8.3v.8c-3.2-1.1-6.5-1.9-11.1-1.9-10.8 0-18.3 4.6-18.3 14.5v.2c0 9 7 13.9 15.6 13.9 6.3 0 10.6-2.3 13.8-5.8v4.9h12.5v-26.3c-.1-12.3-6.3-19.7-20.4-19.7zm8.1 30c0 4.7-4.1 8-10.1 8-4.2 0-7-2-7-5.5v-.2c0-4.1 3.4-6.3 8.9-6.3 3.1 0 6 .7 8.2 1.7z"/><path d="m336.3 30.7h12.9v62h-12.9z"/><path d="m381.9 57.1c-10.3-2.6-12.8-3.9-12.8-7.8v-.2c0-2.9 2.6-5.2 7.6-5.2s10.2 2.2 15.5 5.9l6.8-9.9c-6-4.8-13.4-7.6-22.1-7.6-12.1 0-20.8 7.1-20.8 17.9v.2c0 11.8 7.7 15.1 19.7 18.2 9.9 2.5 12 4.2 12 7.6v.2c0 3.5-3.2 5.6-8.6 5.6-6.8 0-12.4-2.8-17.7-7.2l-7.7 9.3c7.1 6.4 16.2 9.5 25.2 9.5 12.8 0 21.8-6.6 21.8-18.4v-.2c-.1-10.4-6.9-14.8-18.9-17.9z"/><path d="m420.4 35.5h-12.9v11.6h-5.4v11h5.4v21.6c0 10.5 5.3 13.7 13.2 13.7 4.3 0 7.5-1 10.2-2.6v-10.4c-1.9 1-4 1.6-6.4 1.6-2.9 0-4.2-1.4-4.2-4.4v-19.4h10.7v-11h-10.7v-11.7z"/><path d="m464.2 72.5c0 6.1-3.1 9.3-8.1 9.3-4.9 0-7.8-3.1-7.8-9.3v-25.3h-12.9v29.5c0 10.4 5.7 16.9 15.5 16.9 6.5 0 10.4-3.5 13.3-7.3v6.5h12.9v-45.6h-12.9z"/><path d="m516.5 53.1c-3.1-3.7-7.3-6.8-14.2-6.8-10.8 0-20.7 8.3-20.7 23.5v.2c0 15.2 10.1 23.5 20.7 23.5 6.7 0 11-3.1 14.2-7.4v6.5h12.9v-62h-12.9zm.2 16.9c0 7.6-5 12.6-11 12.6s-11.1-5-11.1-12.6v-.2c0-7.6 5.1-12.6 11.1-12.6s11 5 11 12.6z"/><path d="m536.3 30.7h13.6v11.5h-13.6z"/><path d="m536.7 47.2h12.9v45.5h-12.9z"/><path d="m579.3 46.3c-14.2 0-24.7 10.6-24.7 23.7v.2c0 13.1 10.4 23.5 24.5 23.5 14.2 0 24.7-10.6 24.7-23.7v-.2c0-13-10.4-23.5-24.5-23.5zm11.8 23.9c0 6.7-4.4 12.4-11.8 12.4-7.1 0-12-5.9-12-12.6v-.2c0-6.7 4.4-12.4 11.8-12.4 7.1 0 12 5.9 12 12.6z"/><path d="m135 121c-2.3 0-4.3.9-5.9 2.6v-9.2h-3.1v24.6h3.1v-2c1.6 1.6 3.6 2.5 5.9 2.5 4.2 0 8.6-3.4 8.6-9.3 0-5.7-4.4-9.2-8.6-9.2zm5.4 9.3c0 3.7-2.2 6.2-5.6 6.2-2.8 0-5.8-2.4-5.8-6.3 0-3.8 3-6.2 5.8-6.2s5.6 2.2 5.6 6.3z"/><path d="m159.1 121.4-5.4 13.3-6.2-13.3h-3.5l8.1 16.8c-1.1 2.5-2 3-3.2 3-1.1 0-1.7-.2-2.4-.5l-.7-.3-1.1 2.8.7.3c1.2.5 2.2.8 3.5.8 2.7 0 4.6-1.6 6.1-5.1l7.4-17.8z"/><path d="m194.4 115.4-8.5 12.5-8.5-12.5h-2.7v23.7h3.1v-17.6l7.6 11.1h.9l7.6-11.1v17.6h3.2v-23.7z"/><path d="m202 121.4h3.1v17.7h-3.1z"/><path d="m201.9 115.1h3.4v3.6h-3.4z"/><path d="m223.1 133.5-.5.6c-1.5 1.6-3.1 2.4-4.9 2.4-3.3 0-5.9-2.7-5.9-6.3 0-3.5 2.5-6.2 5.8-6.2 2 0 3.4 1 4.9 2.4l.5.5 2.2-2.2-.5-.5c-1.4-1.5-3.5-3.2-7-3.2-5 0-9 4.1-9 9.3 0 5 4 9.1 9 9.1 3.7 0 5.8-2 7.2-3.5l.5-.6z"/><path d="m237.3 121.2c-2.5-.1-4.8 1-6.4 3v-2.7h-3.1v17.7h3.1v-7.4c0-5.1 3.1-7.3 6.3-7.3h.9v-3.2z"/><path d="m247.7 121c-5.1 0-9.1 4-9.1 9.3 0 5.1 4 9.1 9 9.1 5.1 0 9.1-4 9.1-9.3 0-5.1-4-9.1-9-9.1zm5.8 9.3c0 3.5-2.5 6.2-5.8 6.2s-5.9-2.7-5.9-6.3c0-3.5 2.5-6.2 5.8-6.2s5.9 2.7 5.9 6.3z"/><path d="m266.4 128.6c-2.3-.7-4-1.2-4-2.5 0-1.2 1.2-2.1 2.9-2.1 1.5 0 3.1.5 4.6 1.5l.6.4 1.6-2.6-.6-.4c-1.8-1.2-4.1-1.9-6.2-1.9-3.5 0-6.1 2.2-6.1 5.3 0 3.4 3.3 4.4 6 5.1h.1c2.5.7 3.7 1.3 3.7 2.6 0 1.6-1.6 2.3-3.1 2.3-1.8 0-3.6-.7-5.3-2l-.6-.5-1.8 2.4.6.5c1.9 1.6 4.6 2.5 7.1 2.5 3.7 0 6.3-2.3 6.3-5.5.1-3.5-3.6-4.5-5.8-5.1z"/><path d="m283.7 121c-5.1 0-9.1 4-9.1 9.3 0 5.1 4 9.1 9 9.1 5.1 0 9.1-4 9.1-9.3 0-5.1-3.9-9.1-9-9.1zm5.8 9.3c0 3.5-2.5 6.2-5.8 6.2s-5.9-2.7-5.9-6.3c0-3.5 2.5-6.2 5.8-6.2 3.4 0 5.9 2.7 5.9 6.3z"/><path d="m302.5 117.3c.7 0 1.3.1 2.2.4l1 .3v-3l-.5-.2c-.9-.3-1.6-.4-2.7-.4-3.5 0-5.6 2.3-5.6 6.2v.8h-2.3v2.9h2.3v14.7h3.1v-14.7h5.6v-2.9h-5.6v-.8c0-2.9 1.3-3.3 2.5-3.3z"/><path d="m317.1 124.3v-2.9h-5.7v-5.2h-3.1v5.2h-2.3v2.9h2.3v9.8c0 3.2 2 5.2 5.3 5.2 1.1 0 2-.2 2.9-.6l.4-.2v-3.1l-1.1.5c-.8.4-1.4.5-2.1.5-1.7 0-2.5-.7-2.5-2.4v-9.7z"/><path d="m26.9 101.8-12.9-76.7 23.9-9.9 15.3 9.1 14-7.6 29.2 11.2-16.4 83.2z" fill="url(#b)"/><path d="m110 47.6-12.4-30.6-22.5-1.9-34.7 33.3 9.3 43 17.4 12.2 42.9-25.4-10.5-19.7z" fill="url(#c)"/><path d="m90.8 43 8.7 15.5 10.5-11-7.7-19.1z" fill="url(#d)"/><path d="m32 33.1h60v60h-60z"/><g fill="#fff"><path d="m39.5 81.7h22.5v3.8h-22.5z"/><path d="m40.4 40.5h5.4l5.8 15.8 5.8-15.8h5.3l-9 22.6h-4.3z"/><path d="m63.6 59.8 2.9-3.5c1.8 1.7 4.2 2.7 6.7 2.7 2 0 3.3-.8 3.3-2.1v-.1c0-1.3-.8-1.9-4.6-2.9-4.5-1.2-7.5-2.4-7.5-6.9 0-4.1 3.3-6.8 7.9-6.8 3-.1 6 1 8.4 2.9l-2.6 3.7c-1.7-1.3-3.7-2.1-5.9-2.2-1.9 0-2.9.9-2.9 2v.1c0 1.5 1 2 4.9 3 4.6 1.2 7.2 2.8 7.2 6.8v.1c0 4.5-3.4 7-8.3 7-3.5-.1-6.9-1.3-9.5-3.8"/></g></svg>