<?xml version="1.0" encoding="UTF-8" standalone="no"?>
<svg
   xmlns:dc="http://purl.org/dc/elements/1.1/"
   xmlns:cc="http://creativecommons.org/ns#"
   xmlns:rdf="http://www.w3.org/1999/02/22-rdf-syntax-ns#"
   xmlns:svg="http://www.w3.org/2000/svg"
   xmlns="http://www.w3.org/2000/svg"
   id="svg8"
   version="1.1"
   viewBox="0 0 119.67527 94.33847"
   height="94.33847mm"
   width="119.67527mm">
  <defs
     id="defs2" />
  <metadata
     id="metadata5">
    <rdf:RDF>
      <cc:Work
         rdf:about="">
        <dc:format>image/svg+xml</dc:format>
        <dc:type
           rdf:resource="http://purl.org/dc/dcmitype/StillImage" />
        <dc:title></dc:title>
      </cc:Work>
    </rdf:RDF>
  </metadata>
  <g
     transform="translate(-19.737659,-5.9889113)"
     id="layer1">
    <g
       transform="matrix(0.36801801,0,0,0.36801801,19.737659,5.9889113)"
       id="g871">
      <path
         style="fill:#019833"
         d="M 128.286,1.952 1.945,127.885 128.286,254.4 254.047,127.885 128.286,1.952"
         id="path815" />
      <path
         style="fill:#66fe98"
         d="M 128.264,13.516 V 2.885 L 2.774,127.908 H 13.527 L 128.264,13.516"
         id="path817" />
      <path
         style="fill:#45fe02"
         d="M 128.264,13.516 V 2.885 l 125.88,125.023 H 242.508 L 128.264,13.516"
         id="path819" />
      <path
         style="fill:#017d17"
         d="m 128.264,242.836 v 11.769 L 2.774,127.908 h 10.753 l 114.737,114.928"
         id="path821" />
      <path
         style="fill:#005d04"
         d="m 128.264,242.836 v 11.769 L 254.144,127.908 H 242.508 L 128.264,242.836"
         id="path823" />
      <path
         d="M 65.226,230.591 H 40.9 l -9.5,-9.258 V 44.55 H 23.86 L 17.405,38.086 V 18.325 l 6.687,-7.253 h 85.075 l 7.649,7.658 v 18.756 l -6.356,7.747 h -6.428 v 59.758 l 60.487,-59.758 h -3.377 l -7.035,-7.587 V 17.758 l 6.912,-6.345 h 85.872 l 6.796,6.805 v 18.81 L 65.226,230.591"
         id="path825" />
      <path
         d="M 128.264,256.342 0,127.908 128.264,0 256,127.908 Z M 3.929,127.908 128.264,252.41 252.069,127.908 128.264,3.935 Z"
         id="path827" />
      <path
         style="fill:#fefefe"
         d="m 108.075,22.742 3.779,-2.441 -3.861,-4.008 H 26.156 l -4.158,4.164 v 15.75 l 4.61,4.616 2.199,-4.616 -2.892,-2.897 V 22.207 l 2.169,-1.931 77.264,0.095 2.727,2.371"
         id="path829" />
      <path
         style="fill:#fefefe"
         d="m 41.458,35.833 v 184.334 l 2.592,2.468 -2.077,3.925 -5.451,-5.369 V 40.612 l 4.936,-4.779"
         id="path831" />
      <path
         style="fill:#808080"
         d="m 28.236,35.833 -1.628,4.99 h 9.886 l 5.719,-4.99 H 28.236"
         id="path833" />
      <path
         style="fill:#fefefe"
         d="m 166.531,35.897 -3.457,-2.442 v -9.896 l 3.616,-3.621 h 75.449 l 2.893,3.862 4.117,-3.249 -4.238,-3.872 h -81.114 l -4.038,4.043 v 15.871 l 4.252,3.848 m -65.615,76.31 -7.879,19.144 88.948,-89.309 -0.435,-10.804 -80.634,80.969"
         id="path835" />
      <path
         style="fill:#808080"
         d="m 107.897,22.671 3.957,-2.37 v 15.532 l -4.517,4.523 h -8.778 l -0.163,76.395 -7.849,19.1 V 35.833 h 14.659 l 2.727,-2.219 -0.036,-10.943 m 136.867,0.051 4.385,-2.171 V 34.734 L 62.408,226.56 H 41.973 l 1.994,-3.77 15.695,0.001 185.129,-191.412 -0.027,-8.657 m -65.734,13.06 -4.548,4.569 -10.471,0.09 2.557,-4.59 12.462,-0.069"
         id="path837" />
      <path
         style="fill:#cccccc"
         d="m 165.973,19.79 -2.89,2.893 v 10.624 l 2.531,2.534 h 13.372 v 10.265 l -88.46,89.783 V 35.968 h 14.701 l 3.016,-3.02 V 22.197 l -2.784,-2.154 H 28.093 l -2.531,2.535 V 33.56 l 2.573,2.577 h 13.457 v 184.002 l 2.531,2.534 H 59.415 L 244.794,31.131 v -8.448 l -2.89,-2.893 h -75.931"
         id="path839" />
      <path
         style="fill:#808080"
         d="M 59.519,222.918 H 44.022 L 41.348,220.24 V 36.381 H 28.034 l -2.716,-2.72 V 22.476 l 2.674,-2.677 h 77.551 l 2.945,2.278 v 10.972 l -3.159,3.163 H 90.77 v 99.081 l 87.972,-89.288 v -9.919 h -13.229 l -2.674,-2.678 V 22.582 l 3.032,-3.037 h 76.134 l 3.033,3.037 v 8.648 l -0.068,0.071 z M 44.225,222.429 H 59.312 L 244.55,31.033 v -8.249 l -2.747,-2.75 h -75.729 l -2.747,2.75 v 10.422 l 2.388,2.391 h 13.516 v 10.609 l -0.07,0.071 -88.879,90.208 V 35.724 h 14.844 l 2.873,-2.878 V 22.317 l -2.623,-2.03 H 28.194 l -2.388,2.392 v 10.78 l 2.431,2.434 h 13.599 v 184.144 z"
         id="path841" />
    </g>
    <g
       transform="matrix(1.1536941,0,-0.16136683,1.2602812,6.8999094,-22.647089)"
       id="text875"
       style="font-style:normal;font-variant:normal;font-weight:normal;font-stretch:normal;font-size:22.69426537px;line-height:1.25;font-family:'Source Sans Pro';-inkscape-font-specification:'Source Sans Pro';letter-spacing:0px;word-spacing:0px;fill:#cccccc;fill-opacity:1;stroke:#000000;stroke-width:2.71259022;stroke-linecap:round;stroke-linejoin:bevel;stroke-miterlimit:4;stroke-dasharray:none;stroke-opacity:1;paint-order:markers stroke fill"
       aria-label="scode">
      <g
         transform="matrix(1.0253526,0,0,1.0253526,-1.2465419,-2.2675828)"
         id="g983">
        <path
           d="m 63.645862,73.398126 -0.385802,1.679375 q -0.04539,0.136166 -0.136166,0.226943 -0.06808,0.09078 -0.136166,0.15886 -0.02269,0 -0.04539,0.02269 -0.02269,0.02269 -0.04539,0.02269 -0.113471,0.09078 -0.272331,0.136166 -0.15886,0.04539 -0.431191,0.04539 h -2.950254 q -0.136166,0.02269 -0.295026,0.02269 -0.136165,0 -0.272331,0.02269 -0.499274,0 -0.930465,0.136166 -0.431191,0.136165 -0.635439,0.862382 -0.0227,0.09078 -0.04539,0.181554 -0.02269,0.06808 -0.04539,0.15886 -0.04539,0.181554 -0.09078,0.363108 -0.02269,0.15886 -0.02269,0.31772 0,0.295025 0.204249,0.567356 0.204248,0.272331 0.839687,0.453886 0.04539,0 0.06808,0.02269 0.04539,0 0.09078,0.02269 0.408497,0.09078 0.907771,0.204248 0.499274,0.09078 0.998548,0.249637 0.635439,0.204249 1.22549,0.499274 0.590051,0.295026 1.021242,0.7943 0.226943,0.226942 0.31772,0.680827 0.113471,0.453886 0.113471,0.998548 0,0.363108 -0.04539,0.748911 -0.04539,0.385802 -0.113471,0.771605 -0.204248,0.975853 -0.590051,1.86093 -0.385802,0.885076 -0.930465,1.316267 -0.635439,0.521968 -1.338961,0.816994 -0.703523,0.272331 -1.588599,0.272331 H 51.18671 q -0.02269,0 -0.06808,0 -0.06808,-0.02269 -0.113472,-0.04539 -0.113471,-0.02269 -0.226942,-0.09078 -0.113472,-0.06808 -0.15886,-0.15886 0,0 0,0 -0.02269,-0.02269 -0.02269,-0.04539 0,-0.02269 0,-0.04539 -0.02269,-0.04539 -0.02269,-0.09078 -0.02269,-0.04539 -0.02269,-0.09078 0,-0.04539 0,-0.09078 -0.02269,-0.02269 -0.02269,-0.06808 0,-0.04539 0,-0.09078 0,-0.06808 0,-0.113471 0,-0.06808 0.02269,-0.09078 l 0.703522,-2.496369 h 0.181554 q -0.02269,0.06808 -0.02269,0.136165 0,0.04539 0,0.09078 0,0.09078 0,0.181554 0.02269,0.09078 0.06808,0.181555 0,0.04539 0.02269,0.09078 0.02269,0.04539 0.04539,0.09078 0.113471,0.226942 0.363108,0.272331 0.272331,0.02269 0.726216,0.02269 0.04539,0 0.09078,0 0.06808,0 0.136166,0 0.590051,0.02269 1.112019,0.04539 0.521968,0 0.998548,0 0.794299,0 1.429738,-0.06808 0.658134,-0.06808 1.112019,-0.226943 0.453886,-0.15886 0.703523,-0.544662 0.249637,-0.408497 0.385802,-0.862382 0.04539,-0.136166 0.06808,-0.272331 0.02269,-0.136166 0.04539,-0.272332 0,-0.02269 0,-0.04539 0,-0.02269 0.02269,-0.04539 0,-0.02269 0,-0.04539 0,-0.02269 0,-0.04539 0,-0.612745 -0.680828,-0.90777 -0.658134,-0.295026 -1.565905,-0.499274 -0.158859,-0.04539 -0.317719,-0.06808 -0.15886,-0.04539 -0.31772,-0.09078 -1.089325,-0.272331 -1.997095,-0.748911 -0.885077,-0.499274 -0.885077,-1.633987 0,-0.02269 0,-0.04539 0,-0.02269 0,-0.04539 0,-0.02269 0,-0.04539 0,-0.02269 0,-0.04539 0.04539,-0.544662 0.09078,-1.089325 0.06808,-0.544662 0.226943,-1.089324 0.15886,-0.544663 0.453885,-1.089325 0.295026,-0.544663 0.7943,-1.089325 0.06808,-0.113471 0.15886,-0.226943 0.113471,-0.113471 0.249636,-0.249637 0.363109,-0.317719 0.907771,-0.567356 0.567357,-0.272331 1.316267,-0.272331 0.02269,0 0.04539,0 0.02269,0 0.04539,0 0,0 0.02269,0 0.02269,0 0.04539,0 h 6.309006 z"
           style="font-style:normal;font-variant:normal;font-weight:normal;font-stretch:normal;font-family:Crillee;-inkscape-font-specification:Crillee;letter-spacing:1.5034951px;word-spacing:1.23116398px;fill:#cccccc;fill-opacity:1;stroke:#000000;stroke-width:2.71259022;stroke-linecap:round;stroke-linejoin:bevel;stroke-miterlimit:4;stroke-dasharray:none;stroke-opacity:1;paint-order:markers stroke fill"
           id="path890" />
        <path
           d="m 71.97643,73.42082 h 5.809732 l -0.385802,2.155955 q 0,0.04539 -0.04539,0.113471 -0.02269,0.06808 -0.06808,0.136166 -0.02269,0.04539 -0.04539,0.09078 -0.02269,0.02269 -0.04539,0.04539 -0.04539,0.04539 -0.09078,0.09078 -0.04539,0.04539 -0.06808,0.06808 -0.02269,0.02269 -0.04539,0.04539 -0.02269,0 -0.02269,0 -0.181555,0.113471 -0.385803,0.204248 -0.204248,0.09078 -0.431191,0.09078 h -3.358751 q -0.521968,0 -0.998548,0.06808 -0.453885,0.06808 -0.771605,0.453886 -0.363108,0.544662 -0.680828,1.270878 -0.295025,0.726217 -0.521968,1.497822 -0.272331,0.953159 -0.431191,1.815541 -0.136166,0.862382 -0.136166,1.38435 0,0.09078 0,0.181554 0,0.06808 0.02269,0.136166 0.204248,1.157408 0.680828,1.452433 0.476579,0.272331 1.089324,0.272331 0.113472,0 0.226943,0 0.113471,0 0.226943,-0.02269 0.113471,0 0.226942,0 0.136166,0 0.249637,0 2.496369,0 3.24528,-0.272331 0.748911,-0.272331 0.998548,-0.885077 l -0.703522,3.109115 q -0.04539,0.226942 -0.15886,0.408497 -0.113472,0.181554 -0.249637,0.272331 -0.02269,0.02269 -0.04539,0.04539 0,0 -0.02269,0 -0.181554,0.15886 -0.385802,0.272331 -0.204249,0.113472 -0.47658,0.113472 h -4.901961 q -0.04539,0 -0.09078,0 -0.04539,0 -0.09078,0 -0.04539,0 -0.09078,0 -0.04539,0 -0.09078,0 -0.453885,0 -0.816993,-0.06808 -0.363108,-0.06808 -0.63544,-0.15886 -0.09078,-0.02269 -0.181554,-0.04539 -0.09078,-0.04539 -0.15886,-0.06808 -1.043936,-0.453885 -1.407044,-1.429739 -0.340414,-0.975853 -0.340414,-2.042484 0,-0.09078 0,-0.181554 0,-0.09078 0,-0.181554 0,-0.09078 0,-0.181554 0.02269,-0.09078 0.02269,-0.181554 0.06808,-0.726217 0.181554,-1.54321 0.113472,-0.816994 0.295026,-1.633987 0.408497,-1.997096 1.180102,-3.744554 0.771605,-1.770153 1.997095,-2.450981 0.113471,-0.06808 0.226943,-0.113471 0.113471,-0.04539 0.226942,-0.09078 0.590051,-0.249637 1.180102,-0.363108 0.590051,-0.136166 1.293573,-0.136166 z"
           style="font-style:normal;font-variant:normal;font-weight:normal;font-stretch:normal;font-family:Crillee;-inkscape-font-specification:Crillee;letter-spacing:1.5034951px;word-spacing:1.23116398px;fill:#cccccc;fill-opacity:1;stroke:#000000;stroke-width:2.71259022;stroke-linecap:round;stroke-linejoin:bevel;stroke-miterlimit:4;stroke-dasharray:none;stroke-opacity:1;paint-order:markers stroke fill"
           id="path892" />
        <path
           d="m 88.36098,86.379245 q -0.771605,0.612746 -1.679376,0.975854 -0.885076,0.363108 -1.792847,0.521968 -0.408497,0.06808 -0.816993,0.113471 -0.385803,0.02269 -0.771606,0.02269 -1.452432,0 -2.655229,-0.408497 -1.180101,-0.431191 -1.656681,-1.112019 -0.31772,-0.499274 -0.476579,-1.293573 -0.15886,-0.7943 -0.15886,-1.770153 0,-0.794299 0.09078,-1.679376 0.113471,-0.90777 0.363108,-1.792847 0.31772,-1.202796 0.839688,-2.337509 0.544662,-1.157408 1.316267,-2.110567 1.066631,-1.270879 2.201344,-1.70207 1.157407,-0.453885 2.541758,-0.431191 0.113471,0 0.226942,0 0.113472,0 0.204249,0 v 2.519064 q -0.226943,0 -0.47658,0.02269 -0.249637,0 -0.499274,0.04539 -0.385802,0.09078 -0.771605,0.295025 -0.385802,0.204248 -0.703522,0.63544 -0.408497,0.612745 -0.771605,1.452433 -0.340414,0.816993 -0.612745,1.679375 -0.31772,1.021242 -0.499274,1.974401 -0.15886,0.930465 -0.15886,1.520516 0,0.02269 0,0.04539 0,0 0,0 0,0.02269 0,0.04539 0,0 0,0.02269 0,1.021242 0.703522,1.497822 0.726217,0.453885 1.565905,0.476579 0.02269,0 0.02269,0 0.02269,0 0.04539,0 0.658134,0 1.225491,-0.226942 0.567356,-0.249637 0.794299,-0.680828 0.06808,-0.09078 0.113471,-0.181554 0.06808,-0.113472 0.113472,-0.204249 0.385802,-0.680828 0.74891,-1.588598 0.363109,-0.907771 0.658134,-1.838236 0.226943,-0.794299 0.363108,-1.565904 0.136166,-0.794299 0.136166,-1.429739 0,-0.363108 -0.04539,-0.658133 -0.04539,-0.31772 -0.158859,-0.544663 -0.15886,-0.385802 -0.612746,-0.590051 -0.453885,-0.204248 -1.021241,-0.204248 -0.02269,0 -0.04539,0 -0.02269,0 -0.02269,0 -0.02269,0 -0.04539,0 -0.02269,0 -0.04539,0 v -2.519064 q 0.04539,0 0.06808,0 0.04539,0 0.06808,0 1.883624,0.06808 3.472223,0.612746 1.611293,0.544662 1.770153,3.131808 0,0.02269 0,0.04539 0,0.02269 0,0.02269 0,0.02269 0,0.04539 0,0.02269 0,0.04539 0,0.748911 -0.15886,1.929013 -0.15886,1.157407 -0.499274,2.428286 -0.385803,1.452433 -1.021242,2.7687 -0.612745,1.293573 -1.475127,1.974401 z"
           style="font-style:normal;font-variant:normal;font-weight:normal;font-stretch:normal;font-family:Crillee;-inkscape-font-specification:Crillee;letter-spacing:1.5034951px;word-spacing:1.23116398px;fill:#cccccc;fill-opacity:1;stroke:#000000;stroke-width:2.71259022;stroke-linecap:round;stroke-linejoin:bevel;stroke-miterlimit:4;stroke-dasharray:none;stroke-opacity:1;paint-order:markers stroke fill"
           id="path894" />
        <path
           d="m 104.00204,69.926937 3.49719,-10e-4 c 0.12104,-3.6e-5 0.22695,0.03026 0.31772,0.09078 0.10591,0.04539 0.18912,0.105905 0.24964,0.181554 0.0908,0.07565 0.15886,0.17399 0.20425,0.295026 0.0605,0.121036 0.0908,0.257201 0.0908,0.408496 l -4.01688,15.795209 v 0.113471 0.09078 c 0,0.09078 0.008,0.181554 0.0227,0.272331 0.0151,0.07565 0.0419,0.08515 0.0722,0.160796 0.0975,0.12155 0.14656,0.149715 0.28271,0.255622 0.13617,0.105906 1.1925,0.101328 1.34817,0.107253 -0.003,0.03267 -0.008,0.388407 -0.008,0.388407 -0.27678,0 -3.30234,-0.04969 -4.1238,-0.04969 h -0.13617 -0.11347 c -0.21181,-0.01513 -0.37824,-0.03026 -0.49927,-0.04539 -0.12104,-0.01513 -0.24208,-0.06808 -0.36311,-0.15886 -0.0454,-0.07565 -0.0832,-0.151295 -0.11347,-0.226942 -0.0303,-0.09078 -0.0454,-0.189119 -0.0454,-0.295026 v -0.113471 c 0,-0.04539 0.008,-0.09077 0.0227,-0.136166 l 2.49637,-10.371279 h -1.99709 c -0.0454,0.01513 -0.0983,0.02269 -0.15886,0.02269 h -0.15886 -0.13617 -0.11347 -0.13617 -0.11347 c -0.34798,0 -0.703519,0.105907 -1.066628,0.31772 -0.347979,0.196684 -0.718652,0.741346 -1.112019,1.633987 -0.07565,0.181554 -0.166424,0.400932 -0.272331,0.658134 -0.105907,0.257201 -0.211813,0.529532 -0.31772,0.816993 -0.06052,0.151295 -0.121038,0.310155 -0.181554,0.47658 -0.06052,0.166425 -0.121038,0.332849 -0.181554,0.499274 -0.105907,0.347979 -0.196684,0.688393 -0.272331,1.021242 -0.07565,0.332849 -0.113471,0.635439 -0.113471,0.90777 0,0.09078 0.0076,0.17399 0.02269,0.249637 l 0.04539,0.226943 c 0.166425,0.514403 0.431191,0.862382 0.7943,1.043936 0.363108,0.166425 0.76404,0.249637 1.202796,0.249637 h 0.249637 c 0.09078,-0.01513 0.173989,-0.02269 0.249637,-0.02269 l 0.590048,-0.09078 c 0.21181,-0.03026 0.4085,-0.06808 0.59006,-0.113472 0.0908,-0.01513 0.17398,-0.03026 0.24963,-0.04539 0.0908,-0.03026 0.17399,-0.05295 0.24964,-0.06808 0.0454,-0.01513 0.0908,-0.03782 0.13616,-0.06808 0.0454,-0.03026 0.0983,-0.06808 0.15886,-0.113471 h 0.0227 c 0.0151,-0.01513 0.0303,-0.03026 0.0454,-0.04539 0.0454,-0.04539 0.0908,-0.08321 0.13616,-0.113472 0.0605,-0.04539 0.10592,-0.07565 0.13617,-0.09078 l -1.906322,3.358751 c 0,0.01513 -0.0076,0.03026 -0.02269,0.04539 l -0.02269,0.02269 -0.15886,0.15886 -0.181554,0.136166 c -0.04539,0.03026 -0.09077,0.05295 -0.136166,0.06808 -0.04539,0.01513 -0.08321,0.02269 -0.113471,0.02269 -0.06052,0.04539 -0.136168,0.08321 -0.226943,0.113471 -0.09078,0.03026 -0.189118,0.04539 -0.295025,0.04539 -0.06052,0.01513 -0.121038,0.02269 -0.181554,0.02269 h -0.136166 -2.246732 c -0.287461,0 -0.559792,-0.03782 -0.816994,-0.113472 -0.242072,-0.07565 -0.491709,-0.166424 -0.748911,-0.272331 -0.544662,-0.30259 -0.90777,-0.733781 -1.089324,-1.293573 -0.181554,-0.559792 -0.279896,-1.149843 -0.295026,-1.770153 v -0.04539 -0.06808 c 0,-0.544662 0.07565,-1.263314 0.226943,-2.155955 0.166425,-0.892641 0.408497,-1.823106 0.726216,-2.791395 0.378238,-1.164972 0.862382,-2.269426 1.452433,-3.313362 0.590051,-1.043937 1.263315,-1.777718 2.01979,-2.201344 0.30259,-0.166425 0.650569,-0.257202 1.043936,-0.272331 0.408497,-0.03026 0.824558,-0.04539 1.248185,-0.04539 h 3.948805 l 0.77402,-2.838747 c 0.006,-0.349725 -1.5633,-0.491651 -1.94284,-0.518 -0.0125,-0.131659 -0.0373,-0.278054 -0.0452,-0.387061 z"
           style="font-style:normal;font-variant:normal;font-weight:normal;font-stretch:normal;font-family:Crillee;-inkscape-font-specification:Crillee;letter-spacing:1.5034951px;word-spacing:1.23116398px;fill:#cccccc;fill-opacity:1;stroke:#000000;stroke-width:2.71259022;stroke-linecap:round;stroke-linejoin:bevel;stroke-miterlimit:4;stroke-dasharray:none;stroke-opacity:1;paint-order:markers stroke fill"
           id="path896" />
        <path
           d="m 119.3422,84.314067 q 0.27233,-0.15886 0.52197,-0.363108 0.24963,-0.204248 0.43119,-0.47658 l -0.83969,3.40414 q -0.13617,0.295026 -0.31772,0.47658 -0.18155,0.181554 -0.36311,0.31772 -0.0681,0.04539 -0.13616,0.09078 -0.0454,0.02269 -0.11347,0.06808 -0.15886,0.06808 -0.34042,0.113472 -0.18155,0.04539 -0.47658,0.06808 -0.0454,0 -0.0908,0.02269 -0.0454,0 -0.0908,0 h -4.72041 q -0.11347,0 -0.24964,0 -0.11347,-0.02269 -0.22694,-0.04539 -0.61274,-0.04539 -1.2028,-0.181554 -0.59005,-0.15886 -0.95315,-0.476579 -0.52197,-0.499274 -0.77161,-1.407045 -0.22694,-0.930465 -0.22694,-2.065178 0,-0.726217 0.0681,-1.497822 0.0908,-0.771605 0.24964,-1.565904 0.45388,-2.360203 1.40704,-4.402687 0.97586,-2.042484 2.06518,-2.519064 0.49927,-0.226942 1.5659,-0.317719 1.08933,-0.113472 2.26943,-0.113472 0.0454,0 0.0908,0 0.0681,0 0.11347,0 1.24818,0 2.3602,0.113472 1.11202,0.113471 1.56591,0.317719 0.7716,0.363108 1.04393,1.202796 0.27233,0.839688 0.27233,1.792847 0,0.06808 0,0.136166 0,0.04539 0,0.113471 -0.0227,0.658134 -0.13616,1.316268 -0.0908,0.635439 -0.20425,1.157407 -0.0908,0.385803 -0.18155,0.680828 -0.0681,0.295026 -0.11347,0.431191 -0.0227,0.226943 -0.29503,0.363108 -0.27233,0.113472 -0.7943,0.113472 h -7.44372 q 0,0 0.0454,-0.204249 0.0454,-0.204248 0.11347,-0.453885 0,-0.02269 0,-0.04539 0.0227,-0.02269 0.0227,-0.02269 0.0227,-0.113471 0.0454,-0.226942 0.0227,-0.113472 0.0454,-0.204249 0.0227,-0.09078 0.0454,-0.181554 0.0454,-0.113471 0.0681,-0.226943 0,-0.02269 0,-0.04539 0.0227,-0.02269 0.0227,-0.04539 0.0681,-0.272331 0.13616,-0.476579 0.0681,-0.204249 0.0681,-0.204249 h 5.08351 q 0.0908,-0.317719 0.13617,-0.612745 0.0454,-0.295025 0.0454,-0.567356 0,-0.703523 -0.45389,-1.180102 -0.45388,-0.47658 -1.72476,-0.47658 -1.42974,0 -2.01979,0.680828 -0.56736,0.680828 -0.95316,1.883624 -0.11347,0.340414 -0.22694,0.726217 -0.11348,0.385802 -0.24964,0.794299 -0.22694,1.112019 -0.3858,1.974401 -0.15886,0.839688 -0.15886,1.407044 0,0.249637 0.0454,0.453886 0.0454,0.181554 0.13617,0.295025 0.13617,0.204249 0.4085,0.295026 0.29502,0.09078 0.63544,0.113471 0.11347,0.02269 0.22694,0.02269 0.11347,0 0.22694,0 h 2.58715 q 0.0454,0 0.0908,0 0.0454,0 0.0908,0 0.49928,0 0.817,0 0.34041,-0.02269 0.63543,-0.09078 0.15886,-0.04539 0.31772,-0.09078 0.15886,-0.06808 0.34042,-0.15886 z"
           style="font-style:normal;font-variant:normal;font-weight:normal;font-stretch:normal;font-family:Crillee;-inkscape-font-specification:Crillee;letter-spacing:1.5034951px;word-spacing:1.23116398px;fill:#cccccc;fill-opacity:1;stroke:#000000;stroke-width:2.71259022;stroke-linecap:round;stroke-linejoin:bevel;stroke-miterlimit:4;stroke-dasharray:none;stroke-opacity:1;paint-order:markers stroke fill"
           id="path898" />
      </g>
    </g>
  </g>
</svg>
