<?xml version="1.0" encoding="UTF-8" standalone="no"?>
<svg
   width="431"
   height="345"
   version="1.1"
   id="svg3"
   sodipodi:docname="W.org.svg"
   inkscape:version="1.3.2 (091e20e, 2023-11-25)"
   xmlns:inkscape="http://www.inkscape.org/namespaces/inkscape"
   xmlns:sodipodi="http://sodipodi.sourceforge.net/DTD/sodipodi-0.dtd"
   xmlns:xlink="http://www.w3.org/1999/xlink"
   xmlns="http://www.w3.org/2000/svg"
   xmlns:svg="http://www.w3.org/2000/svg">
  <sodipodi:namedview
     id="namedview3"
     pagecolor="#ffffff"
     bordercolor="#000000"
     borderopacity="0.25"
     inkscape:showpageshadow="2"
     inkscape:pageopacity="0.0"
     inkscape:pagecheckerboard="0"
     inkscape:deskcolor="#d1d1d1"
     showgrid="false"
     inkscape:zoom="1.353926"
     inkscape:cx="165.07549"
     inkscape:cy="261.46185"
     inkscape:window-width="1920"
     inkscape:window-height="1008"
     inkscape:window-x="0"
     inkscape:window-y="0"
     inkscape:window-maximized="1"
     inkscape:current-layer="g2" />
  <style
     type="text/css"
     id="style1"><![CDATA[
#P1 {fill:url(#LO)}
rect {opacity:.40740739;fill:#000cff;width:.50507629;height:0}
]]></style>
  <defs
     id="defs2">
    <linearGradient
       id="LO"
       gradientUnits="userSpaceOnUse"
       x1="319.20822"
       y1="235.14877"
       x2="657.65295"
       y2="269.49396">
      <stop
         style="stop-color:#e54c18"
         offset="0"
         id="stop1" />
      <stop
         style="stop-color:#fec350"
         offset="1"
         id="stop2" />
    </linearGradient>
    <linearGradient
       inkscape:collect="always"
       xlink:href="#LO"
       id="linearGradient45"
       x1="320.16254"
       y1="236.03172"
       x2="660.38055"
       y2="269.74301"
       gradientUnits="userSpaceOnUse" />
  </defs>
  <g
     transform="translate(142.2839,-24.99705)"
     id="g3">
    <g
       transform="translate(-413.2102,-40.70387)"
       id="g2">
      <path
         d="m 429.98586,388.44049 -94.66502,-302.707477 51.07287,-9.3e-5 59.1839,185.1846 55.65409,-134.29667 10.23857,31.81138 z m 114.75161,0.47406 -52.32907,-157.01004 21.55077,-56.98461 42.59847,117.10591 79.06915,-206.264857 23.02409,0.273634 z"
         id="path2"
         sodipodi:nodetypes="cccccccccccccc" />
      <path
         id="P1"
         d="m 624.86966,186.18334 -2.80505,6.53992 c 3.01599,0.74094 31.03358,27.43991 31.03356,65.255 -2e-5,59.10591 -68.66501,107.0625 -153.28125,107.0625 -84.61622,-10e-6 -153.3125,-47.9566 -153.3125,-107.0625 1e-5,-27.80557 13.87456,-45.62356 20.8539,-53.44048 l -8.84943,-27.53859 c -34.34576,17.85453 -51.44267,48.79935 -53.41072,87.04157 0,66.63356 81.22272,120.6875 181.3125,120.6875 100.08979,0 181.34376,-54.05393 181.34375,-120.6875 0,-29.67386 -16.17126,-56.82721 -42.88476,-77.85742 z"
         sodipodi:nodetypes="ccssscccssc" />
      <path
         id="path42"
         style="fill:url(#linearGradient45);fill-opacity:1"
         d="m 519.01893,177.137 c -1.58842,-6.00261 -1.87741,-14.26688 -1.05615,-18.54815 0.82562,-4.30401 6.54652,-6.3243 8.74787,-6.0531 7.344,0.90475 14.50838,2.17395 21.45002,3.78626 9.65456,1.93279 18.43587,4.68078 26.4375,8.15625 7.69405,3.01294 15.33598,6.92438 22.13859,10.78702 l 2.53639,-5.88405 c -6.56498,-3.44904 -14.14148,-6.76289 -21.39373,-9.59047 -8.6053,-3.52874 -17.33055,-6.2786 -26.15625,-8.375 -13.15824,-3.38728 -28.84377,-5.76272 -43.27165,-6.881 z"
         sodipodi:nodetypes="csscccccccc" />
      <path
         id="path46"
         style="fill:url(#linearGradient45);fill-opacity:1"
         d="m 493.48294,143.91772 c -2.34847,-0.0508 -4.70165,-0.0918 -7.07227,-0.0918 -8.851,0 -18.30752,0.68674 -26.82031,1.50391 -13.37138,1.55879 -34.53924,7.05242 -46.10418,9.9594 l 16.95926,50.89498 c -2.17949,-9.40619 3.83723,-34.28764 8.17227,-41.6786 4.14358,-7.06459 8.08064,-8.98219 12.65429,-10.22266 6.97093,-1.89066 22.09747,-2.97502 39.56446,-3.29492 z"
         sodipodi:nodetypes="cscccsscc" />
    </g>
    <rect
       x="322.36493"
       y="180.85307"
       width="0.50507629"
       height="0"
       id="rect2" />
  </g>
</svg>
