<?xml version="1.0" encoding="UTF-8"?>
<!-- Created with Inkscape (http://www.inkscape.org/) -->
<svg width="768" height="256" version="1.1" viewBox="0 0 203.2 67.733" xmlns="http://www.w3.org/2000/svg">
 <path d="m25.28 11.136c-1.9571 4.798-3.1374 7.9367-5.3163 12.592 1.3359 1.416 2.9755 3.0649 5.6385 4.9276-2.8628-1.1782-4.8154-2.3611-6.2751-3.5883-2.7884 5.8187-7.1575 14.108-16.023 30.038 6.9686-4.0217 12.37-6.5035 17.404-7.448-0.21616-0.93133-0.33893-1.9368-0.33073-2.9845l0.0082-0.2249c0.1106-4.4635 2.4328-7.8965 5.184-7.6634 2.7511 0.2331 4.889 4.0439 4.7778 8.5074-0.01852 0.84138-0.11377 1.6484-0.28046 2.3971 4.9795 0.97367 10.324 3.4475 17.198 7.4163-1.3547-2.495-2.5665-4.744-3.72-6.8871-1.8203-1.4102-3.7174-3.2464-7.5909-5.2335 2.6617 0.69321 4.5667 1.4896 6.0537 2.3812-11.747-21.873-12.698-24.778-16.728-34.229l2.65e-4 -1e-3zm22.204 40.047v-1.2038h-0.44979v-0.1614h1.0821v0.1614h-0.45244v1.2038zm0.82021 0v-1.3652h0.27252l0.32279 0.96838c0.03175 0.0899 0.05292 0.1561 0.06615 0.20108 0.01588-0.0503 0.03969-0.12171 0.07408-0.2196l0.32544-0.94986h0.24342v1.3652h-0.17462v-1.143l-0.39688 1.143h-0.1614l-0.39688-1.1615v1.1615z" fill="#1793d1"/>
 <g fill="#4d4d4d">
  <path d="m52.636 26.485-3.6349 7.0814-2.5762-6.4161-3.3154 0.57607 5.6109 12.869 3.9384-7.1176 3.9137 7.1114 5.7104-12.862-0.78991-0.13731-2.5267-0.43876-2.6423 6.4354z"/>
  <path d="m65.566 20.707-2.1688 2.6844 2.2276 2.6363 2.1688-2.6494-0.33994-0.40756zm1.709 6.4061-3.3593 0.56546v12.793l3.3593-0.56547v-0.54175z"/>
  <path d="m72.914 27.113-3.3599 0.56546v12.793l3.3599-0.56547v-6.775c0-0.92856 0.23133-1.5656 0.66011-2.0328 0.44954-0.48854 0.99068-0.72025 1.7825-0.72025 0.78109 0 1.2348 0.17611 1.4587 0.39383 0.24662 0.23981 0.39495 0.59476 0.39495 1.2139v8.4857l3.3599-0.56547v-8.1406c0-1.5606-0.60343-2.8663-1.7615-3.6574h-6.33e-4l-6.33e-4 -6.4e-4c-0.87622-0.59555-1.9514-0.88003-3.167-0.88003-1.062 0-2.396 0.5186-4.5388 2.2462 0.76215-1.1115 1.2615-1.3558 1.8124-1.7702z"/>
  <path d="m95.043 23.038-3.3599 0.56546 1.21e-4 4.0168v0.54627c-0.36564-0.18737-0.15052-0.1039-0.80795-0.39693l-0.0064-2e-3c-0.7997-0.35531-1.6248-0.53925-2.4575-0.53925-1.7322 0-3.2661 0.6381-4.4644 1.8643-1.1867 1.2145-1.7968 2.7826-1.7968 4.568 0 1.8026 0.62385 3.4128 1.8295 4.7103 1.2066 1.2986 2.7376 1.986 4.4533 1.986 0.94648 0 1.8375-0.20624 2.6411-0.61976 0.97813-0.51558 2.4742-2.0742 2.7973-2.4639-0.91054 1.566-1.4157 2.0747-2.0575 2.5569l6e-5 0.5299 3.2288-0.43503v-0.55984zm-6.5226 7.4509c1.0451 0 1.8192 0.30783 2.4581 0.94057l0.0086 8e-3c0.64969 0.61892 0.95741 1.3596 0.95741 2.3767 0 1.094-0.32201 1.8534-0.98769 2.4522l-0.0026 2e-3c-0.60701 0.55167-1.3504 0.82698-2.3468 0.82698-0.84134 0-1.5187-0.29728-2.1614-0.97178-0.64235-0.67407-0.93577-1.4036-0.93577-2.3099 0-0.91525 0.28235-1.663 0.88756-2.3505 0.59506-0.676 1.2505-0.9749 2.1225-0.9749z"/>
  <path d="m103.1 27.228c-1.8021 0-3.4077 0.64745-4.6925 1.8967-1.2758 1.24-1.9389 2.8444-1.9389 4.6679 0 1.7949 0.65408 3.3917 1.9086 4.6585l0.0025 3e-3 0.0032 3e-3c1.2738 1.2541 2.8968 1.8992 4.7388 1.8992 1.8021 0 3.403-0.64793 4.6739-1.8992v-6.4e-4c1.284-1.2645 1.9575-2.8569 1.9575-4.6423 0-1.8254-0.67168-3.4364-1.9606-4.6897-1.2848-1.2493-2.8903-1.8967-4.6925-1.8967zm0 3.2611c0.94155 0 1.6688 0.3069 2.3184 0.97552l8e-3 8e-3c0.65925 0.65314 0.96606 1.4014 0.96606 2.3854 0 0.83875-0.2889 1.5525-0.93948 2.2481-0.63104 0.6747-1.3654 0.98925-2.3536 0.98925-0.94437 0-1.6742-0.3031-2.3228-0.95805-0.64859-0.65495-0.94875-1.3919-0.94875-2.3455 0-0.96744 0.3042-1.6978 0.96173-2.3368v-6.4e-4h6.3e-4c0.68403-0.66514 1.4145-0.96616 2.3092-0.96616z"/>
  <path d="m119.19 26.485-3.6349 7.0814-2.5762-6.4161-3.3154 0.57607 5.6109 12.869 3.9384-7.1176 3.9137 7.1114 5.7104-12.862-0.7899-0.13731-2.5267-0.43876-2.6423 6.4354z"/>
  <path d="m132.83 27.228c-1.1818 0-2.2355 0.40746-3.0212 1.2008-0.78081 0.78846-1.1886 1.8294-1.1886 2.9846 0 0.8663 0.28693 1.6661 0.84306 2.2775 0.55613 0.61139 1.3453 1.0327 2.3227 1.3113l3e-3 6.4e-4 3e-3 1e-3c0.86338 0.23714 1.4797 0.51922 1.8308 0.78578 0.35104 0.26657 0.42895 0.44921 0.42895 0.66782 0 0.23485-0.0405 0.31955-0.28061 0.47809l-5e-3 3e-3 -4e-3 4e-3c-0.25322 0.17388-0.5425 0.26339-0.93145 0.26339-0.37396 0-0.67428-0.0755-0.937-0.21096-0.26469-0.15832-0.56934-0.41859-0.8956-0.80076l-0.40979-0.47996-2.3839 2.0422 0.37764 0.48433c0.58441 0.74963 1.2336 1.3093 1.9593 1.6408 0.71044 0.32453 1.5295 0.47496 2.442 0.47496 1.1288 0 2.1596-0.35446 2.9971-1.0479l6e-3 -4e-3c0.93139-0.78661 1.4265-1.9073 1.4265-3.1775 0-1.4111-0.61111-2.5956-1.7374-3.243l-3e-3 -1e-3 -3e-3 -2e-3c-0.13319-0.0747-0.19185-0.0886-0.32572-0.13856-0.13387-0.05-0.3087-0.11224-0.5297-0.18848-0.44142-0.1523-1.0649-0.36037-1.8722-0.62476-0.40313-0.13358-0.66113-0.29416-0.79362-0.43003-0.13248-0.13587-0.16688-0.22633-0.16688-0.39445 0-0.33675 0.0649-0.43428 0.18295-0.52365 0.14097-0.10676 0.41094-0.20284 0.86346-0.20284 0.3589 0 0.61183 0.067 0.78558 0.16352l0.012 6e-3c0.21559 0.11404 0.52874 0.35417 0.89374 0.72275l0.47036 0.47559 2.0934-2.3368-0.42586-0.43003c-0.55873-0.5642-1.11-0.991-1.6762-1.2682l-6e-3 -2e-3c-0.68323-0.32771-1.4711-0.48058-2.3438-0.48058z"/>
 </g>
 <g fill="#1793d1">
  <path d="m143.52 27.44c-1.0884 0-1.8985 0.32892-2.5674 1.0106-0.67338 0.68629-0.99545 1.4954-0.99545 2.555 0 0.74068 0.3245 1.1733 0.75026 1.6456 0.42575 0.47229 0.88376 0.87699 1.9633 1.2693 1.0729 0.38994 1.9563 0.66966 2.5831 1.1501 0.62801 0.48136 1.0309 1.1415 1.0309 1.8655 0 0.67652-0.35656 1.3098-0.92684 1.6917-0.52796 0.36421-1.1614 0.54497-1.8379 0.54497-0.62573 0-1.2134-0.13285-1.7311-0.40718l-0.0135-7e-3 -0.0124-8e-3c-0.33532-0.19936-0.65662-0.48224-0.97408-0.80198l-0.77049 0.66644c0.45913 0.50108 0.92326 0.89715 1.3914 1.113 0.61548 0.28377 1.3726 0.43643 2.2878 0.43643 1.0461 0 1.8932-0.30088 2.6349-0.92009 0.80457-0.68719 1.1827-1.5293 1.1827-2.6967 0-1.3146-1.0135-2.1797-1.7727-2.6348-0.72956-0.45737-1.7033-0.74647-2.5139-1.0129l-1e-3 -6.2e-4h-1e-3c-0.60235-0.20143-1.0971-0.46777-1.4628-0.84641-0.3657-0.37865-0.5759-0.88694-0.5759-1.4105 0-0.67584 0.24116-1.3126 0.74519-1.6979 0.48214-0.36854 1.1062-0.51235 1.816-0.51235 0.5802 0 1.1085 0.1086 1.5584 0.35882 0.2776 0.1486 0.57061 0.43659 0.85823 0.68669l0.67095-0.75587c-0.41408-0.37041-0.81093-0.67443-1.1659-0.85035-2.9e-4 -1.5e-4 -9.3e-4 1.5e-4 -1e-3 0-0.57961-0.28039-1.2892-0.43193-2.1495-0.43193z"/>
  <path d="m154.67 27.388c-1.5934 0-2.9254 0.57255-4.1173 1.7873-1.1718 1.1942-1.7322 2.5665-1.7322 4.2383 0 2.0034 0.57267 3.5819 1.721 4.8485l6.2e-4 6.2e-4c1.1424 1.2427 2.5939 1.8503 4.5093 1.8503 0.87466 0 1.7413-0.1935 2.6185-0.5922 0.4589-0.21397 1.1132-0.62654 1.8188-1.0978l-0.23339-1.2671c-1.641 1.1716-3.093 1.8351-4.407 1.8351-0.78035-1e-5 -1.5359-0.20351-2.2294-0.59616l-9e-3 -5e-3 -8e-3 -6e-3c-0.68536-0.41911-1.2681-1.0298-1.7485-1.802l-0.31326-0.50335 9.0114-5.8563c-0.58888-0.86845-1.2201-1.5716-1.911-2.028-0.806-0.53242-1.7772-0.80648-2.97-0.80648zm0.25421 1.122c0.52781 0 1.0299 0.10129 1.4848 0.30932 0.44914 0.18143 0.83188 0.42668 1.113 0.76093l0.44093 0.52472-7.8213 5.0611-0.14173-1.5955v-0.027c0-1.3457 0.41685-2.5415 1.2429-3.4813l1e-3 -1e-3 1e-3 -6.2e-4c0.90918-1.0252 2.1904-1.5505 3.6792-1.5505z"/>
  <path d="m166.54 27.388c-1.6771 0.0448-3.9146 1.7471-4.5943 3.1039v-2.9324l-1.0776 0.19515v12.299l1.2305-0.20921v-5.7309c0-1.405 0.33152-2.636 1.0208-3.632l6.2e-4 -6.1e-4c2.8e-4 -2.9e-4 2.8e-4 -9.3e-4 6.1e-4 -1e-3 0.73721-1.0723 1.8773-1.6608 3.2237-1.7693l0.54047-1.3222z"/>
  <path d="m177.2 27.388-4.056 9.806-4.083-9.8055-1.05 0.19065 5.1544 12.384 5.11-12.383z"/>
  <path d="m184.46 27.388c-1.5934 0-2.9254 0.57255-4.1174 1.7873-1.1718 1.1943-1.7328 2.5666-1.7328 4.2383 0 2.0033 0.57317 3.5818 1.7215 4.8485l6.2e-4 6.2e-4c1.1424 1.2427 2.5939 1.8503 4.5093 1.8503 0.87466 0 1.7413-0.1935 2.6185-0.59221 0.45888-0.21396 1.1131-0.62653 1.8188-1.0978l-0.23396-1.2671c-1.641 1.1716-3.093 1.8351-4.407 1.8351-0.78036 0-1.5359-0.20351-2.2294-0.59615l-8e-3 -5e-3 -9e-3 -6e-3c-0.68551-0.41919-1.2677-1.03-1.748-1.8019l-0.31325-0.50336 9.0114-5.8563c-0.58887-0.86845-1.2201-1.5716-1.911-2.028-0.806-0.53242-1.7772-0.80648-2.97-0.80648zm0.25421 1.122c0.5278 0 1.0299 0.10128 1.4847 0.30932 0.44932 0.18151 0.83166 0.42709 1.1124 0.76093l0.44092 0.52472-7.8196 5.0605-0.14341-1.595v-0.027c0-1.3457 0.41685-2.5415 1.2429-3.4813l1e-3 -1e-3 1e-3 -6.2e-4c0.90928-1.0253 2.1909-1.5505 3.6798-1.5505z"/>
  <path d="m196.42 27.388c-1.745 0.0759-3.906 1.667-4.5943 3.1039v-2.9324l-1.0781 0.19515v12.299l1.2305-0.20921v-5.7309c0-1.4052 0.33217-2.6361 1.0213-3.632l6.1e-4 -6.1e-4c2.8e-4 -2.9e-4 2.8e-4 -9.3e-4 6.2e-4 -1e-3 0.73721-1.0723 1.8773-1.6608 3.2237-1.7693l0.54047-1.3222z"/>
 </g>
 <path d="m197.77 39.565v-1.2038h-0.44979v-0.1614h1.0822v0.1614h-0.45244v1.2038zm0.82021 0v-1.3652h0.27252l0.32279 0.96838c0.0317 0.09 0.0529 0.1561 0.0661 0.20108 0.0159-0.0503 0.0397-0.12171 0.0741-0.2196l0.32544-0.94986h0.24342v1.3652h-0.17463v-1.143l-0.39687 1.143h-0.1614l-0.39688-1.1615v1.1615z" fill="#1793d1"/>
</svg>
