<?xml version="1.0" encoding="UTF-8" standalone="no"?><!-- Generator: Gravit.io --><svg xmlns="http://www.w3.org/2000/svg" xmlns:xlink="http://www.w3.org/1999/xlink" style="isolation:isolate" viewBox="0 0 297.5 247.75" width="297.5pt" height="247.75pt"><defs><clipPath id="_clipPath_NosaQXFMVec0YooT28ff1FsOWmbeae7W"><rect width="297.5" height="247.75"/></clipPath></defs><g clip-path="url(#_clipPath_NosaQXFMVec0YooT28ff1FsOWmbeae7W)"><g><path d=" M 62.8 39 L 62.8 78 L 101.3 78 L 139.8 78 L 139.8 39 L 139.8 0 L 101.3 0 L 62.8 0 L 62.8 39 Z " fill="rgb(221,72,20)"/><path d=" M 149.8 39 L 149.8 78 L 188.1 77.8 L 226.3 77.5 L 226.6 38.7 L 226.8 0 L 188.3 0 L 149.8 0 L 149.8 39 Z " fill="rgb(221,72,20)"/><path d=" M 62.8 125.5 L 62.8 164 L 101.3 164 L 139.8 164 L 139.8 125.5 L 139.8 87 L 101.3 87 L 62.8 87 L 62.8 125.5 Z " fill="rgb(221,72,20)"/><path d=" M 149.8 125.5 L 149.8 164 L 188.3 164 L 226.8 164 L 226.8 125.5 L 226.8 87 L 188.3 87 L 149.8 87 L 149.8 125.5 Z " fill="rgb(221,72,20)"/><path d=" M 155.8 199.9 L 155.8 209.9 L 151.2 207.3 C 147.7 205.3 145.7 204.9 142.3 205.2 C 132.9 206.3 128.2 213.5 129 225.7 C 129.5 233.9 131.2 237.7 135.8 240.8 C 140.3 243.8 148.3 243.5 152.9 240.1 L 155.9 237.8 L 156.5 239.9 C 156.8 241.1 157.8 242 158.9 242 C 160.7 242 160.8 240.8 160.8 216 L 160.8 190 L 158.3 190 C 155.8 190 155.8 190 155.8 199.9 Z  M 150.5 211 C 154.4 213.4 156.2 219 155.6 227.3 C 155.3 231.8 154.6 233.6 152.6 235.6 C 149.3 239 142.8 239.9 139.2 237.6 C 132 232.8 131.9 215.4 139.1 211 C 143.2 208.5 146.5 208.5 150.5 211 Z " fill="rgb(221,72,20)"/><path d=" M 70.5 192.7 C 69.2 194 69.8 197.8 71.5 198.4 C 73.8 199.3 76.2 196.7 75.3 194.1 C 74.7 192.1 71.9 191.3 70.5 192.7 Z " fill="rgb(221,72,20)"/><path d=" M 2.9 203.7 C 4.5 209.7 7.5 220.7 9.5 228.2 C 13 241.7 13.2 242 15.8 242 C 18.9 242 18.5 243 26.3 215.5 C 28.4 208.3 30.2 201.8 30.5 201 C 30.8 200.2 32.5 204.7 34.3 211 C 43.9 243.4 43.1 241.5 46.4 241.5 L 49.3 241.5 L 55.5 218.5 C 58.9 205.8 61.7 194.9 61.8 194.2 C 61.8 193.6 60.7 193 59.3 193 C 56.5 193 57.1 191.3 50.3 218.5 C 46.8 232.3 45.9 234.9 45.3 232.5 C 44.4 228.2 41.2 217.3 37.2 204.2 C 33.8 193.4 33.6 193 30.9 193 C 28.2 193 28 193.4 24.8 204.2 C 22.9 210.4 20.3 220 18.8 225.4 L 16.1 235.3 L 13.9 225.9 C 12.7 220.7 10.4 211.2 8.6 204.7 C 5.6 193.3 5.5 193 2.8 193 L 0 193 L 2.9 203.7 Z " fill="rgb(221,72,20)"/><path d=" M 100.1 205.6 C 98.9 205.9 96.8 207.2 95.4 208.5 L 92.8 210.9 L 92.2 208.4 C 91.8 206.9 90.9 206 89.7 206 C 87.9 206 87.8 207 87.8 224 L 87.8 242 L 90.2 242 L 92.6 242 L 93 228.5 C 93.3 215.3 93.4 215 96.1 212.3 C 98.4 210 99.7 209.5 103.9 209.5 C 112 209.5 112.8 211.1 112.8 228.1 L 112.8 242 L 115.8 242 L 118.8 242 L 118.8 230.7 C 118.7 210.9 116.6 206.3 107.3 205.6 C 104.5 205.3 101.3 205.4 100.1 205.6 Z " fill="rgb(221,72,20)"/><path d=" M 181.3 206.4 C 177.1 208.2 173 213.3 172.2 217.6 C 171.9 219.5 171.8 223.8 172 227 C 172.5 233.7 174.4 237.1 179.9 240.8 C 182.7 242.8 184.3 243.1 189.1 242.8 C 195.2 242.3 198.6 240.5 202.2 235.6 C 204 233.3 204.3 231.4 204.3 224 C 204.3 214.4 203.3 211.9 197.5 207.6 C 194.2 205.1 185.4 204.4 181.3 206.4 Z  M 193.2 210.4 C 197.3 212.1 199.8 217.1 199.8 223.9 C 199.8 233.3 195.4 239 188.3 239 C 186.9 239 184.3 238.3 182.7 237.4 C 174.5 233.2 174.9 214.1 183.2 210.4 C 187.2 208.7 189.1 208.7 193.2 210.4 Z " fill="rgb(221,72,20)"/><path d=" M 274.4 206.5 C 268.7 208.5 266.6 212.7 268.8 218 C 269.8 220.4 271.8 221.9 278.2 224.9 C 282.7 227 287 229.5 287.7 230.3 C 289.6 232.6 288.7 236.3 285.8 237.8 C 283.3 239.1 275 238.9 270.1 237.4 C 268.2 236.9 267.8 237.2 267.8 238.9 C 267.8 242 271.9 243.2 280.7 242.8 C 287.5 242.5 288.2 242.2 290.9 239.2 C 296.2 233.3 294.3 227.3 285.9 223.4 C 274.3 218.1 273.3 217.4 273.3 214.4 C 273.3 210 277.4 208.4 285.2 209.8 C 289.9 210.7 291.4 210.7 292 209.7 C 293.3 207.7 293 207.4 288.9 206.2 C 283.9 204.7 279.2 204.8 274.4 206.5 Z " fill="rgb(221,72,20)"/><path d=" M 69.8 224 L 69.8 242 L 72.3 242 L 74.8 242 L 74.8 224 L 74.8 206 L 72.3 206 L 69.8 206 L 69.8 224 Z " fill="rgb(221,72,20)"/><path d=" M 211.3 208.2 C 211.7 209.5 213.8 217.5 216.2 226 L 220.5 241.5 L 223.8 241.5 C 227.1 241.5 227.2 241.4 229.9 233 C 231.4 228.3 233.6 221.6 234.6 218 C 235.7 214.3 236.8 212.1 237.1 213 C 237.4 213.8 239.6 220.7 241.9 228.3 L 246.1 242 L 249.4 242 C 251.6 242 252.8 241.5 253.2 240.2 C 253.5 239.3 255.5 231.7 257.8 223.5 C 260 215.2 262.1 207.9 262.3 207.2 C 262.6 206.4 261.8 206 260 206 C 257.3 206 257.2 206.2 253.3 221.7 C 250.3 233.8 249.2 236.8 248.7 234.9 C 248.3 233.6 246.1 226.5 243.8 219.2 L 239.7 205.9 L 236.6 206.2 C 233.7 206.5 233.5 206.8 229.2 220 C 226.8 227.4 224.8 234.4 224.8 235.5 C 224.6 238.5 223.9 236.4 219.8 220.5 C 216.3 207 216.1 206.5 213.5 206.2 C 211 205.9 210.8 206.1 211.3 208.2 Z " fill="rgb(221,72,20)"/></g></g></svg>